<?xml version="1.0" encoding="UTF-8"?>
<!-- Generator: Adobe Illustrator 24.1.0, SVG Export Plug-In . SVG Version: 6.00 Build 0)  -->
<svg xmlns="http://www.w3.org/2000/svg" xmlns:xlink="http://www.w3.org/1999/xlink" version="1.1" id="Laag_1" x="0px" y="0px" viewBox="0 0 283.5 283.5" style="enable-background:new 0 0 283.5 283.5;" xml:space="preserve">
<style type="text/css">
	.st0{fill:#131313;}
	.st1{fill:#D9D9D9;}
</style>
<g>
	<g>
		<g>
			<g>
				<path class="st1" d="M115.8,162.8v-20.4c0-3.8-1.2-6.8-3.3-8.9c-2-2-4.9-3-8.5-3c-3.8,0-7,1.4-9.4,4.2V131h-3.4v31.9h3.4v-19.8      c0-6,3.3-9.5,9-9.5c5.7,0,8.8,3.4,8.8,9.5v19.8H115.8z"></path>
			</g>
		</g>
		<g>
			<g>
				<path class="st1" d="M125.8,123.9v7h8.9v2.8h-8.9v20c0,3.9,1.2,6.3,4.4,6.3c1.6,0,2.7-0.2,3.5-0.5l0.2-0.1l0.4,2.7l-0.1,0      c-1.1,0.4-2.5,0.8-4.4,0.8c-2.3,0-4.2-0.8-5.4-2.3c-1.5-1.7-2-4.4-2-7.6v-19.4h-5.3V131h5.3v-5.7L125.8,123.9z"></path>
			</g>
		</g>
		<g>
			<g>
				<path class="st1" d="M197.8,160.2c-2.1,2.1-5,2.9-8,2.9c-4.2,0-7.3-1.5-8.9-2.3l-0.6-0.3l0-4l1.8,1.2c1.3,0.9,4.1,2.2,7.8,2.2      c4.1,0,7.3-2,7.3-6.4c0-1.9-0.8-2.9-2.1-3.8c-0.7-0.4-1.5-0.8-2.4-1.1c-0.9-0.3-2-0.6-3-0.9c-4-1.2-9.1-2.8-9.1-9      c0-5.4,4.7-8.3,10-8.3c2.1,0,4,0.4,5.3,0.8c1,0.3,1.9,0.7,2.4,1v3.5c-0.9-0.5-2.2-1.1-3-1.4c-1.2-0.4-2.9-0.8-4.8-0.8      c-4.2,0-6.7,2.2-6.7,5.2c0,3.6,2.8,4.7,6.3,5.8c0.7,0.2,1.7,0.5,2.7,0.8c1.1,0.3,2.2,0.8,3.3,1.4c2.2,1.3,4.2,3.3,4.2,6.8      C200.3,156.1,199.4,158.5,197.8,160.2"></path>
			</g>
		</g>
	</g>
	<rect x="163.4" y="118.8" class="st1" width="3.4" height="44"></rect>
	<rect x="172.7" y="131" class="st1" width="3.4" height="31.9"></rect>
	<g>
		<g>
			<path class="st1" d="M74.8,160.6c3.5,0,7.2-1.9,9.3-4.2l0-9l-7.4,0.2c-6,0.2-9.6,2.3-9.6,6.7C67,158.4,70.3,160.6,74.8,160.6      M84,141.8c0-6.2-3.5-8.4-8.2-8.4c-4,0-6.6,1.4-8.5,2.7l-1.3-2.3c3.6-2.4,6.8-3.2,10.7-3.2c6,0,10.6,3.2,10.6,10.4v16.5     c-2.5,3.1-7,5.8-13.7,5.8c-6.6,0-10.2-3.3-10.2-8.8c0-6,4.2-9.1,13-9.4l7.6-0.2L84,141.8L84,141.8z"></path>
		</g>
	</g>
	<g>
		<g>
			<path class="st1" d="M146.6,160.6c3.5,0,7.2-1.9,9.3-4.2l0-9l-7.4,0.2c-6,0.2-9.6,2.3-9.6,6.7     C138.8,158.4,142.1,160.6,146.6,160.6 M155.8,141.8c0-6.2-3.6-8.4-8.2-8.4c-4,0-6.6,1.4-8.5,2.7l-1.3-2.3     c3.6-2.4,6.8-3.2,10.7-3.2c6,0,10.6,3.2,10.6,10.4v16.5c-2.5,3.1-7,5.8-13.7,5.8c-6.6,0-10.2-3.3-10.2-8.8c0-6,4.2-9.1,13-9.4     l7.6-0.2L155.8,141.8L155.8,141.8z"></path>
		</g>
	</g>
	<g>
		<path class="st1" d="M220.7,108.8c-8.9,0-16.2,7.2-16.2,16.1c0,8.9,7.2,16.2,16.2,16.2c8.9,0,16.1-7.2,16.1-16.2    C236.8,116.1,229.6,108.8,220.7,108.8z M214.1,129.2h3.4l-0.2,1.8h-5.6v-10.3h-3.8v-1.9h10.9l-0.2,1.9h-4.4v3.2h3.4l-0.2,1.9h-3.2    L214.1,129.2z M230.7,131l-1-8.3h-0.5L227,131h-2.3l-2.7-8.3h-0.6l-0.5,4.1h1.5l0.5,1.9h-2.2l-0.3,2.3h-2.3l1.7-12.2h3.3l2.7,7.9    l2.2-7.9h3.6l1.5,12.2H230.7z"></path>
	</g>
</g>
</svg>
