<?xml version="1.0" encoding="UTF-8"?>
<!-- Generator: Adobe Illustrator 24.2.1, SVG Export Plug-In . SVG Version: 6.00 Build 0)  -->
<svg xmlns="http://www.w3.org/2000/svg" xmlns:xlink="http://www.w3.org/1999/xlink" version="1.1" id="Laag_1" x="0px" y="0px" viewBox="0 0 283.5 283.5" style="enable-background:new 0 0 283.5 283.5;" xml:space="preserve">
<style type="text/css">
	.st0{fill:#131313;}
	.st1{fill:#D9D9D9;}
	.st2{fill:#9D9D9D;}
</style>
<g>
	<path class="st1" d="M37.2,139.9c1.9-2.6,4.2-5.6,6.8-8.4v8.4H37.2z M44,126.9L44,126.9l-0.8,0c-10,7.7-17,21-17,21h6   c0,0,0.9-1.7,2.6-4.3H44v4.3h5.2v-21H44z"></path>
</g>
<polygon class="st1" points="72.7,126.8 72.7,147.9 68.6,147.9 57.9,134.4 57.9,147.9 53.1,147.9 53.1,126.8 57.5,126.8 67.9,139.7   67.9,126.8 "></polygon>
<polygon class="st1" points="92.5,126.8 92.5,130.7 85.5,130.7 85.5,147.9 80.7,147.9 80.7,130.7 73.7,130.7 73.7,126.8 "></polygon>
<rect x="93.6" y="126.8" class="st1" width="4.8" height="21"></rect>
<polygon class="st1" points="116.2,144 116.2,147.9 101.4,147.9 101.4,126.8 106.2,126.8 106.2,144 "></polygon>
<g>
	<path class="st1" d="M125.5,126.6c3.3,0,6,1.1,8,3.2c2,2.2,3.1,4.7,3.1,7.5c0,2.9-1,5.4-3.1,7.6c-2.1,2.1-4.7,3.2-8,3.2   c-3.3,0-6-1.1-8-3.2c-2.1-2.1-3.1-4.7-3.1-7.6c0-2.9,1-5.4,3.1-7.6C119.6,127.7,122.2,126.6,125.5,126.6 M125.5,143.8   c1.8,0,3.3-0.6,4.4-1.8c1.1-1.2,1.7-2.7,1.7-4.6c0-1.9-0.6-3.5-1.7-4.7c-1.1-1.2-2.6-1.8-4.4-1.8c-1.8,0-3.3,0.6-4.4,1.8   c-1.1,1.2-1.7,2.7-1.7,4.7c0,1.9,0.6,3.5,1.7,4.6C122.2,143.2,123.7,143.8,125.5,143.8"></path>
	<path class="st1" d="M137.8,126.8h8.6c2,0,3.5,0.6,4.7,1.9c1.2,1.2,1.7,2.7,1.7,4.4c0,1.7-0.6,3.2-1.7,4.5   c-1.1,1.2-2.7,1.9-4.7,1.9h-3.8v8.4h-4.8V126.8z M142.6,130.7v4.9h2.2c2,0,3-0.8,3-2.4c0-0.9-0.3-1.5-0.8-1.9   c-0.5-0.4-1.5-0.5-2.7-0.5H142.6z"></path>
</g>
<polygon class="st1" points="168.5,144 168.5,147.9 154.2,147.9 154.2,126.8 168.3,126.8 168.3,130.7 159,130.7 159,135.1   167.8,135.1 167.8,139 159,139 159,144 "></polygon>
<g>
	<path class="st1" d="M176.2,126.8h8.4c3.3,0,5.8,1,7.7,2.9c1.9,2,2.8,4.5,2.8,7.6c0,3.3-1,5.8-2.9,7.7c-1.9,1.9-4.7,2.8-8.2,2.8   h-7.9V126.8z M181,130.7V144h3.1c2,0,3.6-0.6,4.6-1.8c1.1-1.2,1.6-2.8,1.6-4.8c0-2.1-0.5-3.7-1.6-4.9c-1.1-1.2-2.6-1.8-4.7-1.8H181   z"></path>
</g>
<polygon class="st1" points="211.3,144 211.3,147.9 197.2,147.9 197.2,126.8 211.1,126.8 211.1,130.7 202,130.7 202,135.1   210.7,135.1 210.7,139 202,139 202,144 "></polygon>
<g>
	<path class="st1" d="M219.4,126.8h8.3c2,0,3.5,0.5,4.7,1.6c1.1,1,1.7,2.3,1.7,3.7c0,1.8-0.9,3.2-2.6,4.2c1.3,0.4,2.3,1.1,3,2   c0.7,1,1,2.1,1,3.4c0,1.8-0.6,3.3-1.7,4.5c-1.1,1.1-2.8,1.7-5,1.7h-9.3V126.8z M224.2,130.7v4.5h2.5c0.8,0,1.4-0.2,1.8-0.6   c0.4-0.4,0.6-1,0.6-1.6c0-0.6-0.2-1.2-0.6-1.6c-0.4-0.4-1-0.6-1.8-0.6H224.2z M224.2,139.1v5h2.7c1.3,0,2.2-0.2,2.7-0.6   c0.6-0.4,0.8-1.1,0.8-2c0-0.7-0.3-1.3-0.8-1.7c-0.5-0.4-1.2-0.6-2.1-0.6H224.2z"></path>
</g>
<rect x="237.5" y="126.8" class="st1" width="4.8" height="21"></rect>
<polygon class="st1" points="259.3,144 259.3,147.9 245.2,147.9 245.2,126.8 259.2,126.8 259.2,130.7 250,130.7 250,135.1   258.7,135.1 258.7,139 250,139 250,144 "></polygon>
<g>
	<path class="st1" d="M251.9,98.4c3.2-3.1,3.2-8.2,0-11.4c-3.2-3.1-8.4-3.1-11.6,0l-15.8,15.6c-3.2,3.1-3.2,8.2,0,11.4   c3.2,3.1,8.4,3.1,11.6,0L251.9,98.4z"></path>
	<path class="st2" d="M221.1,91.7c0-2.5,1-4.9,2.8-6.7c3.7-3.7,9.8-3.7,13.5,0c0.4,0.4,0.4,1,0,1.3c-0.4,0.4-1,0.4-1.4,0   c-3-2.9-7.8-2.9-10.8,0c-1.4,1.4-2.2,3.3-2.2,5.3c0,2,0.8,3.9,2.2,5.3c0.4,0.4,0.4,1,0,1.3c-0.4,0.4-1,0.4-1.4,0   C222.1,96.6,221.1,94.2,221.1,91.7"></path>
	<path class="st2" d="M240.4,113.3c0.4-0.4,1-0.4,1.4,0c3,2.9,7.8,2.9,10.8,0c1.4-1.4,2.2-3.3,2.2-5.3c0-2-0.8-3.9-2.2-5.3   c-0.4-0.4-0.4-1,0-1.3c0.4-0.4,1-0.4,1.4,0c1.8,1.8,2.8,4.1,2.8,6.7c0,2.5-1,4.9-2.8,6.7c-3.7,3.7-9.8,3.7-13.5,0   C240.1,114.2,240.1,113.6,240.4,113.3"></path>
	<path class="st2" d="M220.1,118.3c-0.4-0.4-0.4-1,0-1.3l3.1-3c-3.1-3.7-2.9-9.2,0.6-12.6c0.4-0.4,1-0.4,1.4,0c0.4,0.4,0.4,1,0,1.3   c-3,2.9-3,7.7,0,10.7c3,2.9,7.8,2.9,10.8,0c0.4-0.4,1-0.4,1.4,0c0.4,0.4,0.4,1,0,1.3c-3.5,3.4-9.1,3.7-12.8,0.6l-3.1,3   C221.1,118.7,220.5,118.7,220.1,118.3"></path>
	<path class="st2" d="M252.7,98.3c-0.4-0.4-0.4-1,0-1.3c1.2-1.2,1.9-2.7,2.2-4.2h-3.2c-0.5,0-1-0.4-1-0.9c0-0.5,0.4-0.9,1-0.9l3.3,0   c-0.2-1.7-0.9-3.3-2.2-4.5c-1.3-1.2-2.9-2-4.6-2.2v3.2c0,0.5-0.4,0.9-1,0.9c-0.5,0-1-0.4-1-0.9v-3.2c-1.6,0.2-3.1,1-4.3,2.1   c-0.4,0.4-1,0.4-1.4,0c-0.4-0.4-0.4-1,0-1.3c1.5-1.5,3.5-2.5,5.7-2.7v-3.4c0-0.5,0.4-0.9,1-0.9c0.5,0,1,0.4,1,0.9v3.3   c2.2,0.2,4.3,1.1,6,2.7c1.7,1.6,2.6,3.7,2.8,5.9h3.4c0.5,0,1,0.4,1,0.9c0,0.5-0.4,0.9-1,0.9l-3.4,0c-0.2,2-1.1,4-2.7,5.6   C253.7,98.6,253.1,98.6,252.7,98.3"></path>
	<path class="st2" d="M240,87.5l11.4,11.2c0.6,0.6,0.6,1.5,0,2.1c-0.6,0.6-1.5,0.6-2.1,0l-11.4-11.2c-0.6-0.6-0.6-1.5,0-2.1   C238.5,87,239.4,87,240,87.5"></path>
	<path class="st2" d="M236.2,91.3l11.4,11.2c0.6,0.6,0.6,1.5,0,2.1c-0.6,0.6-1.5,0.6-2.1,0l-11.4-11.2c-0.6-0.6-0.6-1.5,0-2.1   C234.7,90.7,235.6,90.7,236.2,91.3"></path>
	<path class="st2" d="M232.4,95l11.4,11.2c0.6,0.6,0.6,1.5,0,2.1c-0.6,0.6-1.5,0.6-2.1,0l-11.4-11.2c-0.6-0.6-0.6-1.5,0-2.1   C230.9,94.4,231.8,94.4,232.4,95"></path>
	<path class="st2" d="M226.5,98.7c0.6-0.6,1.5-0.6,2.1,0l11.4,11.2c0.6,0.6,0.6,1.5,0,2.1c-0.6,0.6-1.5,0.6-2.1,0l-11.4-11.2   C225.9,100.3,225.9,99.3,226.5,98.7"></path>
	<path class="st1" d="M178.1,167.4v-4.6h1.1c1,0,1.8-0.1,2.3-0.3c0.5-0.2,1-0.6,1.3-1c0.3-0.5,0.5-1,0.5-1.6c0-0.9-0.3-1.7-0.9-2.2   c-0.6-0.5-1.4-0.8-2.4-0.8h-3.4v10.6H178.1z M181.7,159.8c0,0.5-0.2,1-0.5,1.2c-0.3,0.3-0.8,0.4-1.4,0.4h-1.7v-3.3h1.6   C181.1,158.1,181.7,158.7,181.7,159.8 M188.2,167.4v-4.6h0.4c0.5,0,0.9,0.1,1.1,0.2c0.2,0.1,0.4,0.3,0.7,0.6c0.3,0.3,0.5,0.6,0.9,1   l0.5,0.8l0.5,0.8l0.3,0.4c0,0.1,0.1,0.1,0.1,0.1l0.5,0.7h1.8l-0.6-0.8c-0.2-0.3-0.5-0.8-0.9-1.4c-0.6-1-1-1.6-1.4-2   c-0.3-0.4-0.7-0.7-1-0.9c0.6-0.2,1-0.6,1.3-1c0.3-0.5,0.5-1,0.5-1.6c0-0.9-0.3-1.6-0.9-2.2c-0.6-0.5-1.5-0.8-2.6-0.8h-2.7v10.6   H188.2z M190.2,158.2c0.3,0.1,0.6,0.3,0.7,0.6c0.2,0.3,0.3,0.6,0.3,0.9c0,0.3-0.1,0.6-0.2,0.9c-0.2,0.3-0.4,0.5-0.7,0.6   c-0.3,0.1-0.8,0.2-1.6,0.2h-0.6v-3.4h0.5C189.4,158.1,189.9,158.1,190.2,158.2 M198.1,167.4h1.5v-10.6h-1.5V167.4z M212.5,165   l-7.2-8.2h-1.2v10.6h1.4v-8.2l7.1,8.2h1.3v-10.6h-1.4V165z M217.2,158.1h3.6v9.3h1.5v-9.3h3.7v-1.4h-8.9V158.1z M229.5,167.4h1.5   v-10.6h-1.5V167.4z M243.9,165l-7.2-8.2h-1.2v10.6h1.4v-8.2l7.1,8.2h1.3v-10.6h-1.4V165z M255.4,163.5h2v2.2l-0.1,0   c-0.8,0.3-1.6,0.4-2.2,0.4c-1.3,0-2.3-0.4-3.1-1.1c-0.8-0.8-1.2-1.7-1.2-3c0-1.1,0.4-2.1,1.2-2.9c0.8-0.8,1.8-1.2,2.9-1.2   c1.2,0,2.5,0.4,3.8,1.1v-1.5c-0.8-0.3-1.5-0.6-2-0.7c-0.5-0.1-1.1-0.2-1.7-0.2c-1.6,0-3,0.5-4.1,1.6c-1.1,1.1-1.6,2.4-1.6,4   c0,1.5,0.5,2.8,1.6,3.8c1.1,1,2.5,1.5,4.2,1.5c1.3,0,2.6-0.3,3.9-0.9v-4.5h-3.6V163.5z"></path>
	<path class="st2" d="M168.5,167.8v-11.5H32.3c-3.2,0-5.8,2.6-5.8,5.8c0,3.2,2.6,5.8,5.8,5.8H168.5z"></path>
	<path class="st1" d="M130.1,158.7v6.5h4.2v-1h-3v-1.8h2.8v-1h-2.8v-1.7h2.9v-1H130.1z M124.7,164.2v-1.8h1.2c0.4,0,0.6,0.1,0.9,0.2   c0.2,0.2,0.3,0.4,0.3,0.7c0,0.3-0.1,0.5-0.3,0.7c-0.2,0.2-0.5,0.2-1,0.2H124.7z M124.7,161.4v-1.7h0.9c0.3,0,0.5,0.1,0.7,0.2   c0.2,0.1,0.3,0.3,0.3,0.6c0,0.3-0.1,0.5-0.3,0.7c-0.2,0.2-0.5,0.2-0.8,0.2H124.7z M123.5,158.7v6.5h2.7c0.4,0,0.8-0.1,1.2-0.2   c0.3-0.1,0.6-0.4,0.8-0.6c0.2-0.3,0.3-0.6,0.3-1c0-0.4-0.1-0.8-0.4-1.1c-0.3-0.3-0.6-0.5-1.1-0.6v-0.1c0.3-0.1,0.5-0.3,0.7-0.5   c0.2-0.2,0.2-0.5,0.2-0.8c0-0.5-0.2-0.8-0.6-1.2c-0.4-0.3-0.9-0.5-1.4-0.5H123.5z M120.3,164.1c-0.1,0.1-0.2,0.3-0.2,0.5   c0,0.2,0.1,0.4,0.2,0.5c0.1,0.1,0.3,0.2,0.5,0.2c0.2,0,0.4-0.1,0.5-0.2c0.1-0.1,0.2-0.3,0.2-0.5c0-0.2-0.1-0.4-0.2-0.5   c-0.1-0.1-0.3-0.2-0.5-0.2C120.7,163.9,120.5,163.9,120.3,164.1 M114.1,158.7v6.5h4.2v-1h-3v-1.8h2.8v-1h-2.8v-1.7h2.9v-1H114.1z    M110.7,165.2h1.3v-6.5h-1.3V165.2z M105.3,164.2v-1.8h1.2c0.4,0,0.6,0.1,0.9,0.2c0.2,0.2,0.3,0.4,0.3,0.7c0,0.3-0.1,0.5-0.3,0.7   c-0.2,0.2-0.5,0.2-1,0.2H105.3z M105.3,161.4v-1.7h0.9c0.3,0,0.5,0.1,0.7,0.2c0.2,0.1,0.3,0.3,0.3,0.6c0,0.3-0.1,0.5-0.3,0.7   c-0.2,0.2-0.5,0.2-0.8,0.2H105.3z M104.1,158.7v6.5h2.7c0.4,0,0.8-0.1,1.2-0.2c0.3-0.1,0.6-0.4,0.8-0.6c0.2-0.3,0.3-0.6,0.3-1   c0-0.4-0.1-0.8-0.4-1.1c-0.3-0.3-0.6-0.5-1.1-0.6v-0.1c0.3-0.1,0.5-0.3,0.7-0.5c0.2-0.2,0.2-0.5,0.2-0.8c0-0.5-0.2-0.8-0.6-1.2   c-0.4-0.3-0.9-0.5-1.4-0.5H104.1z M98,158.7v6.5h4.2v-1h-3v-1.8h2.8v-1h-2.8v-1.7h2.9v-1H98z M91.3,164.2v-4.5h1.3   c0.7,0,1.3,0.2,1.7,0.6c0.4,0.4,0.6,1,0.6,1.7c0,0.7-0.2,1.2-0.6,1.6c-0.4,0.4-1,0.6-1.7,0.6H91.3z M90,158.7v6.5h2.6   c0.7,0,1.3-0.1,1.8-0.4c0.5-0.3,1-0.6,1.2-1.1c0.3-0.5,0.4-1.1,0.4-1.7c0-0.6-0.1-1.2-0.4-1.7c-0.3-0.5-0.7-0.9-1.2-1.2   c-0.5-0.3-1.1-0.4-1.8-0.4H90z M83.9,158.7v6.5h4.2v-1h-3v-1.8H88v-1h-2.8v-1.7h2.9v-1H83.9z M79.1,161.5v-1.8H80   c0.8,0,1.1,0.3,1.1,0.9c0,0.3-0.1,0.5-0.3,0.7c-0.2,0.2-0.4,0.2-0.8,0.2H79.1z M77.9,158.7v6.5h1.3v-2.7h1.2c0.6,0,1.1-0.2,1.5-0.5   c0.4-0.3,0.6-0.8,0.6-1.4c0-0.6-0.2-1-0.6-1.4c-0.4-0.4-0.9-0.5-1.5-0.5H77.9z M70.5,160.8c0.2-0.3,0.5-0.6,0.8-0.8   c0.4-0.2,0.7-0.3,1.2-0.3c0.4,0,0.8,0.1,1.2,0.3c0.4,0.2,0.6,0.5,0.8,0.8c0.2,0.3,0.3,0.7,0.3,1.2c0,0.7-0.2,1.2-0.6,1.6   c-0.4,0.4-1,0.6-1.6,0.6c-0.4,0-0.8-0.1-1.2-0.3c-0.3-0.2-0.6-0.5-0.8-0.8c-0.2-0.3-0.3-0.7-0.3-1.2   C70.2,161.5,70.3,161.2,70.5,160.8 M70.7,159.1c-0.5,0.3-1,0.7-1.3,1.2c-0.3,0.5-0.5,1.1-0.5,1.7c0,0.6,0.2,1.2,0.5,1.7   c0.3,0.5,0.7,0.9,1.3,1.2c0.5,0.3,1.2,0.4,1.8,0.4c0.7,0,1.3-0.1,1.8-0.4c0.5-0.3,1-0.7,1.3-1.2c0.3-0.5,0.5-1.1,0.5-1.7   c0-0.6-0.2-1.2-0.5-1.7c-0.3-0.5-0.7-0.9-1.3-1.2c-0.5-0.3-1.1-0.4-1.8-0.4C71.8,158.7,71.2,158.8,70.7,159.1 M63.6,158.7v6.5H68   v-1h-3.1v-5.5H63.6z M60.3,165.2h1.3v-6.5h-1.3V165.2z M53,158.7v1h2.3v5.5h1.3v-5.5h2.3v-1H53z M45.3,158.7v6.5h1.2v-4.6l3.9,4.6   h1.1v-6.5h-1.2v4.5l-3.8-4.5H45.3z M40.4,160.1l1.1,2.6h-2.1L40.4,160.1z M39.8,158.7l-2.7,6.5h1.3l0.6-1.6h2.9l0.7,1.6h1.3   l-2.9-6.5H39.8z"></path>
</g>
<polygon class="st1" points="31.6,160 31.6,164.1 34.4,162.1 "></polygon>
</svg>
