<?xml version="1.0" encoding="UTF-8"?>
<!-- Generator: Adobe Illustrator 24.1.0, SVG Export Plug-In . SVG Version: 6.00 Build 0)  -->
<svg xmlns="http://www.w3.org/2000/svg" xmlns:xlink="http://www.w3.org/1999/xlink" version="1.1" id="Laag_1" x="0px" y="0px" viewBox="0 0 283.5 283.5" style="enable-background:new 0 0 283.5 283.5;" xml:space="preserve">
<style type="text/css">
	.st0{fill:#131313;}
	.st1{fill:#D9D9D9;}
</style>
<g>
	<g>
		<g>
			<path class="st1" d="M74.7,183.1c-7.1,0-14.1-2-20.2-6c-2.1-1.3-4-2.9-5.8-4.6l1.6-1.6c1.7,1.6,3.5,3.1,5.5,4.3     c8,5.1,17.5,6.8,26.7,4.8l0.5,2.2C80.1,182.8,77.4,183.1,74.7,183.1z"></path>
		</g>
		<g>
			<path class="st1" d="M42,131.7l-2.1-0.9c3.9-9.3,11.1-16.5,20.4-20.4c2.3-1,4.7-1.7,7.1-2.1l0.4,2.2c-2.3,0.4-4.5,1.1-6.7,2     C52.4,116.2,45.6,123,42,131.7z"></path>
		</g>
		<g>
			<path class="st1" d="M75.1,195.7c-26.2,0-48.5-20.4-50.3-47c-0.9-13.5,3.4-26.5,12.2-36.7c8.8-10.2,21.1-16.3,34.6-17.3     c13.4-1,26.5,3.4,36.7,12.2s16.3,21.1,17.3,34.6c0.9,13.5-3.4,26.5-12.2,36.7s-21.1,16.3-34.6,17.3     C77.5,195.7,76.3,195.7,75.1,195.7z M75.2,97.9c-1.1,0-2.3,0-3.4,0.1c-12.6,0.9-24.1,6.6-32.4,16.2c-8.3,9.5-12.4,21.7-11.5,34.3     c1.8,26,24.5,45.7,50.5,43.8c12.6-0.9,24.1-6.6,32.4-16.2c8.3-9.5,12.4-21.7,11.5-34.3c-0.9-12.6-6.6-24.1-16.2-32.4     C97.5,102,86.6,97.9,75.2,97.9z"></path>
		</g>
		<g>
			<g>
				<path class="st1" d="M80.4,116.8l-2.4,2.9l-2.8-0.9l11.3-12.8l2.4,0.8l1.7,17l-2.8-0.9l-0.3-3.7L80.4,116.8z M86.7,109.5      l-4.5,5.2l5.1,1.6L86.7,109.5z"></path>
			</g>
			<g>
				<path class="st1" d="M100.8,173.9l-9.1-9.4l2-1.9l9.1,9.4l3.9-3.8l1.8,1.8l-9.8,9.5l-1.8-1.8L100.8,173.9z"></path>
			</g>
			<g>
				<path class="st1" d="M38.2,147.5l0.6,2.7c-1.5,0.6-2.2,1.8-1.7,3.9c0.4,1.8,1.5,2.8,2.9,2.5c1.2-0.3,1.5-1.3,1.5-2.9l-0.1-2      c-0.1-3,0.7-5,3.1-5.5c2.8-0.7,5.3,1.2,6.1,4.8c0.9,3.7-0.5,6.7-3.7,7.8l-0.6-2.7c1.7-0.7,2.5-2.4,2-4.7      c-0.4-1.9-1.5-2.8-2.8-2.5c-0.8,0.2-1.5,0.9-1.4,2.7l0.1,2.6c0.1,3.1-1,4.8-3.3,5.3c-2.8,0.7-5.3-1.1-6.1-4.6      C34.2,152.1,34.6,148.7,38.2,147.5z"></path>
			</g>
		</g>
		<g>
			<path class="st1" d="M111.1,155.5l-2.2-0.6c0.6-2.2,1-4.5,1.2-6.9c0.8-9.4-2.2-18.6-8.4-25.8l1.7-1.5c6.5,7.7,9.7,17.4,8.9,27.4     C112.2,150.7,111.8,153.1,111.1,155.5z"></path>
		</g>
	</g>
	<g>
		<g>
			<path class="st1" d="M154,115.2l-1.8,4.3h-3.7l8.6-19.7h3.2l8.5,19.7h-3.7l-1.8-4.3H154z M158.7,104.1l-3.3,7.9h6.7L158.7,104.1z     "></path>
		</g>
		<g>
			<path class="st1" d="M184.9,112v7.5h-3.3v-7.3c0-2.4-1.3-3.7-3.3-3.7c-1.2,0-2.5,0.7-3.5,2v9.1h-3.3v-13.6h3.3v1.1     c1.2-1,2.6-1.6,4.2-1.6C182.5,105.5,184.9,108.1,184.9,112z"></path>
		</g>
		<g>
			<path class="st1" d="M198.4,119.4c-1.5,0.5-2.2,0.6-3.4,0.6c-3.2,0-5.3-2.2-5.3-5.7v-5.6h-3.1v-2.8h3.1v-5h3.3v5h5v2.8h-5v5.6     c0,1.8,1,2.6,2.6,2.6c0.7,0,1.6-0.1,2.3-0.3L198.4,119.4z"></path>
		</g>
		<g>
			<path class="st1" d="M215.8,119.5h-2.9l-2.8-8.3l-2.8,8.3h-2.9l-5.1-13.6h3.6l2.9,8.3l2.9-8.3h2.8l2.8,8.3l3-8.3h3.6L215.8,119.5     z"></path>
		</g>
		<g>
			<path class="st1" d="M235.7,113.6L235.7,113.6h-10.6c0.3,1.9,1.6,3.4,4.1,3.4c1.3,0,2.3-0.4,2.8-1.3h3.5     c-0.8,2.5-3.3,4.2-6.4,4.2c-4.3,0-7.2-3.2-7.2-7.2c0-4.2,2.9-7.2,7.2-7.2c3.9,0,6.7,2.8,6.7,7C235.8,113,235.8,113.3,235.7,113.6     z M225.2,111.6h7.2c-0.2-2-1.4-3.2-3.4-3.2C226.8,108.3,225.6,109.7,225.2,111.6z"></path>
		</g>
		<g>
			<path class="st1" d="M242.1,107.6c1.2-1.3,2.9-2,4.9-2v3.1c-2.2,0.1-3.8,0.8-4.9,2.3v8.5h-3.3v-13.6h3.3V107.6z"></path>
		</g>
		<g>
			<path class="st1" d="M264.1,112.7c0,3.9-3,7.1-6.8,7.1c-1.6,0-3-0.5-4.1-1.3v7.8h-3.3v-20.4h3.3v0.9c1.1-0.8,2.5-1.3,4.1-1.3     C261.1,105.6,264.1,108.8,264.1,112.7z M260.8,112.7c0-2.3-1.7-4.3-4-4.3c-1.4,0-2.7,0.5-3.7,1.9v4.7c0.9,1.4,2.2,1.9,3.7,1.9     C259.2,117,260.8,115,260.8,112.7z"></path>
		</g>
		<g>
			<path class="st1" d="M158.9,137.7V154h-3.4v-16.4h-6.8v-3.2h17v3.2H158.9z"></path>
		</g>
		<g>
			<path class="st1" d="M171.6,160.8h-3.5l2.8-6.3l-6.8-14.1h3.6l4.9,10.2l4.4-10.2h3.5L171.6,160.8z"></path>
		</g>
		<g>
			<path class="st1" d="M197.1,147.3c0,3.9-3,7.1-6.8,7.1c-1.6,0-3-0.5-4.1-1.3v7.8h-3.3v-20.4h3.3v0.9c1.1-0.8,2.5-1.3,4.1-1.3     C194,140.1,197.1,143.3,197.1,147.3z M193.8,147.3c0-2.3-1.7-4.3-4-4.3c-1.4,0-2.7,0.5-3.7,1.9v4.7c0.9,1.4,2.2,1.9,3.7,1.9     C192.1,151.5,193.8,149.5,193.8,147.3z"></path>
		</g>
		<g>
			<path class="st1" d="M213.3,148.1L213.3,148.1h-10.6c0.3,1.9,1.6,3.4,4.1,3.4c1.3,0,2.3-0.4,2.8-1.3h3.5     c-0.8,2.5-3.3,4.2-6.4,4.2c-4.3,0-7.2-3.2-7.2-7.2c0-4.2,2.9-7.2,7.2-7.2c3.9,0,6.7,2.8,6.7,7     C213.4,147.5,213.3,147.8,213.3,148.1z M202.8,146.1h7.2c-0.2-2-1.4-3.2-3.4-3.2C204.4,142.8,203.2,144.2,202.8,146.1z"></path>
		</g>
		<g>
			<path class="st1" d="M165.4,174.8H162c-0.3-2-1.6-3.3-4.3-3.3c-2.4,0-3.9,1.1-3.9,2.8c0,1.5,1.1,2.2,3.2,2.6l2.5,0.5     c3.7,0.7,5.9,2.2,5.9,5.4c0,3.6-3,6.1-7.6,6.1c-4.8,0-8.1-2.6-8.4-6.8h3.4c0.3,2.3,2.2,3.7,5.2,3.7c2.4,0,3.8-1,3.8-2.6     c0-1-0.7-2-2.9-2.4l-3.2-0.6c-3.8-0.7-5.5-2.6-5.5-5.5c0-3.7,2.9-6.1,7.3-6.1C161,168.6,165,170.1,165.4,174.8z"></path>
		</g>
		<g>
			<path class="st1" d="M182.5,181.8c0,4.1-3.1,7.2-7.2,7.2c-4.1,0-7.2-3.1-7.2-7.2c0-4.1,3.1-7.1,7.2-7.1     C179.4,174.6,182.5,177.7,182.5,181.8z M179.2,181.8c0-2.3-1.6-4.1-3.9-4.1c-2.4,0-3.9,1.8-3.9,4.1c0,2.3,1.6,4.2,3.9,4.2     C177.6,186,179.2,184.1,179.2,181.8z"></path>
		</g>
		<g>
			<path class="st1" d="M195.5,183.5h3.4c-0.4,3.2-3.2,5.4-6.7,5.4c-4.1,0-7.2-3.1-7.2-7.1c0-4.1,3.1-7.1,7.2-7.1     c3.4,0,6.2,2.2,6.7,5.4h-3.4c-0.3-1.4-1.6-2.4-3.3-2.4c-2.4,0-3.9,1.8-3.9,4.1c0,2.3,1.6,4.1,3.9,4.1     C193.9,185.9,195.1,184.9,195.5,183.5z"></path>
		</g>
		<g>
			<path class="st1" d="M201.8,170c0-1.2,0.9-2,2.1-2s2.1,0.9,2.1,2c0,1.1-0.9,2-2.1,2S201.8,171.2,201.8,170z M205.5,175v13.6h-3.3     V175H205.5z"></path>
		</g>
		<g>
			<path class="st1" d="M222.6,182.6L222.6,182.6H212c0.3,1.9,1.6,3.4,4.1,3.4c1.3,0,2.3-0.4,2.8-1.3h3.5c-0.8,2.5-3.3,4.2-6.4,4.2     c-4.3,0-7.2-3.2-7.2-7.2c0-4.2,2.9-7.2,7.2-7.2c3.9,0,6.7,2.8,6.7,7C222.7,182,222.6,182.3,222.6,182.6z M212.1,180.6h7.2     c-0.2-2-1.4-3.2-3.4-3.2C213.7,177.3,212.5,178.7,212.1,180.6z"></path>
		</g>
		<g>
			<path class="st1" d="M235.8,188.4c-1.5,0.5-2.2,0.6-3.4,0.6c-3.2,0-5.3-2.2-5.3-5.7v-5.6h-3.1V175h3.1v-5h3.3v5h5v2.8h-5v5.6     c0,1.8,1,2.6,2.6,2.6c0.7,0,1.6-0.1,2.3-0.3L235.8,188.4z"></path>
		</g>
		<g>
			<path class="st1" d="M244.3,195.3h-3.5l2.8-6.3l-6.8-14.1h3.6l4.9,10.2l4.4-10.2h3.5L244.3,195.3z"></path>
		</g>
	</g>
</g>
</svg>
