<?xml version="1.0" encoding="UTF-8"?>
<!-- Generator: Adobe Illustrator 24.1.0, SVG Export Plug-In . SVG Version: 6.00 Build 0)  -->
<svg xmlns="http://www.w3.org/2000/svg" xmlns:xlink="http://www.w3.org/1999/xlink" version="1.1" id="Laag_1" x="0px" y="0px" viewBox="0 0 283.5 283.5" style="enable-background:new 0 0 283.5 283.5;" xml:space="preserve">
<style type="text/css">
	.st0{fill:#131313;}
	.st1{fill:#D9D9D9;}
</style>
<g id="Logo-Final-Full-Outlines">
	<path id="PIERROT" class="st1" d="M40.5,165.1v-12.7h8.7c6.9,0,12-5.1,12-11.5s-5.1-11.5-12-11.5H34.9v35.6H40.5z M49.2,147.3h-8.7   v-12.7h8.7c3.6,0,6.4,2.8,6.4,6.4C55.6,144.5,52.8,147.3,49.2,147.3z M73.6,165.1v-35.6H68v35.6H73.6z M109,165.1v-5.3H88.9v-10.4   h15.5V144H88.9v-9.2h19.6v-5.3H83.3v35.6H109z M121.5,165.1v-13.2h8.4l7.4,13.2h6.4l-8.1-14.3c0,0,6.8-2.3,6.8-10.2   c0-6.4-4.8-11.2-11.7-11.2h-14.8v35.6H121.5z M130.7,146.8h-9.2v-12.2h9.2c3.6,0,6.1,2.5,6.1,6.1   C136.8,144.3,134.3,146.8,130.7,146.8z M156.2,165.1v-13.2h8.4l7.4,13.2h6.4l-8.1-14.3c0,0,6.8-2.3,6.8-10.2   c0-6.4-4.8-11.2-11.7-11.2h-14.8v35.6H156.2z M165.3,146.8h-9.2v-12.2h9.2c3.6,0,6.1,2.5,6.1,6.1   C171.4,144.3,168.9,146.8,165.3,146.8z M201.7,165.6c10.7,0,18.8-8.1,18.8-18.3c0-10.2-8.1-18.3-18.8-18.3s-18.8,8.1-18.8,18.3   C182.9,157.5,191,165.6,201.7,165.6z M201.7,160.5c-7.4,0-13.2-5.9-13.2-13.2s5.9-13.2,13.2-13.2c7.4,0,13.2,5.9,13.2,13.2   S209.1,160.5,201.7,160.5z M239.2,165.1v-30.3h10.7v-5.3h-27v5.3h10.7v30.3H239.2z"></path>
	<path id="ASSISTANT" class="st1" d="M108.4,181.5l0.8-2.7h3.2l0.8,2.7h1.2l-3-9.2h-1.4l-3,9.2H108.4z M112.1,177.8h-2.5l0.8-2.8   c0.2-0.6,0.3-1,0.4-1.5h0l0.4,1.5L112.1,177.8z M119.1,181.7c1.6,0,3.4-0.6,3.4-2.8c0-1.9-1.4-2.3-3.1-2.6   c-1.1-0.2-2.4-0.5-2.4-1.6c0-1,0.9-1.6,1.9-1.6c1.2,0,2,0.8,2.1,2l1.2-0.2c-0.2-2.1-1.7-2.8-3.4-2.8c-1.4,0-3.1,0.7-3.1,2.6   c0,1.7,1.5,2.3,2.8,2.6c1.3,0.3,2.7,0.3,2.7,1.6c0,1.3-1.1,1.7-2.2,1.7c-1.3,0-2.3-0.8-2.3-2.2l-1.3,0.1   C115.6,180.7,117.2,181.7,119.1,181.7z M127.3,181.7c1.6,0,3.4-0.6,3.4-2.8c0-1.9-1.4-2.3-3.1-2.6c-1.1-0.2-2.4-0.5-2.4-1.6   c0-1,0.9-1.6,1.9-1.6c1.2,0,2,0.8,2.1,2l1.2-0.2c-0.2-2.1-1.7-2.8-3.4-2.8c-1.4,0-3.1,0.7-3.1,2.6c0,1.7,1.5,2.3,2.8,2.6   c1.3,0.3,2.7,0.3,2.7,1.6c0,1.3-1.1,1.7-2.2,1.7c-1.3,0-2.3-0.8-2.3-2.2l-1.3,0.1C123.7,180.7,125.4,181.7,127.3,181.7z M138,181.5   v-1h-2.2v-7.1h2.2v-1h-5.6v1h2.2v7.1h-2.2v1H138z M143.6,181.7c1.6,0,3.4-0.6,3.4-2.8c0-1.9-1.4-2.3-3.1-2.6   c-1.1-0.2-2.4-0.5-2.4-1.6c0-1,0.9-1.6,1.9-1.6c1.2,0,2,0.8,2.1,2l1.2-0.2c-0.2-2.1-1.7-2.8-3.4-2.8c-1.4,0-3.1,0.7-3.1,2.6   c0,1.7,1.5,2.3,2.8,2.6c1.3,0.3,2.7,0.3,2.7,1.6c0,1.3-1.1,1.7-2.2,1.7c-1.3,0-2.3-0.8-2.3-2.2l-1.3,0.1   C140,180.7,141.7,181.7,143.6,181.7z M152.1,181.5v-8.2h2.8v-1h-6.8v1h2.8v8.2H152.1z M157.3,181.5l0.8-2.7h3.2l0.8,2.7h1.2l-3-9.2   H159l-3,9.2H157.3z M161,177.8h-2.5l0.8-2.8c0.2-0.6,0.3-1,0.4-1.5h0l0.4,1.5L161,177.8z M165.8,181.5v-5.2c0-0.2,0-1.4-0.1-2.3h0   c0.4,0.7,0.8,1.7,1,2l2.9,5.5h1.4v-9.2h-1.2v5.1c0,0.4,0,1.5,0.1,2.3h0c-0.4-0.7-0.7-1.4-1-2l-2.9-5.4h-1.4v9.2H165.8z    M176.6,181.5v-8.2h2.8v-1h-6.8v1h2.8v8.2H176.6z"></path>
	<path id="TICKETING" class="st1" d="M111.4,122.4v-8.2h2.8v-1h-6.8v1h2.8v8.2H111.4z M121.8,122.4v-1h-2.2v-7.1h2.2v-1h-5.6v1h2.2   v7.1h-2.2v1H121.8z M127.4,122.6c1.6,0,2.7-0.8,3.3-2.5l-1.3-0.3c-0.3,1.1-0.9,1.8-1.9,1.8c-0.7,0-1.3-0.3-1.6-0.8   c-0.5-0.7-0.6-1.7-0.6-2.9c0-1.3,0.1-2.4,0.7-3c0.4-0.5,0.9-0.7,1.6-0.7c1.2,0,1.7,0.8,1.9,2l1.3-0.2c-0.4-1.8-1.6-2.7-3.2-2.7   c-2.4,0-3.6,2-3.6,4.8C123.9,120.9,125.1,122.6,127.4,122.6z M133.5,122.4v-3.2l1.1-1.3l2.8,4.5h1.5l-3.4-5.4l3.3-3.8h-1.5   l-3.8,4.3v-4.3h-1.2v9.2H133.5z M146.6,122.4v-1.1H142v-3h4.2v-1.1H142v-3h4.6v-1.1h-5.8v9.2H146.6z M152.1,122.4v-8.2h2.8v-1h-6.8   v1h2.8v8.2H152.1z M162.5,122.4v-1h-2.2v-7.1h2.2v-1h-5.6v1h2.2v7.1h-2.2v1H162.5z M165.8,122.4v-5.2c0-0.2,0-1.4-0.1-2.3h0   c0.4,0.7,0.8,1.7,1,2l2.9,5.5h1.4v-9.2h-1.2v5.1c0,0.4,0,1.5,0.1,2.3h0c-0.4-0.7-0.7-1.4-1-2l-2.9-5.4h-1.4v9.2H165.8z    M176.1,122.6c1,0,1.8-0.4,2.2-1.2l0.1,1.1h0.9v-4.9h-3.1v1.1h2c-0.1,1.9-0.8,2.9-2.1,2.9c-0.9,0-1.4-0.2-1.8-0.8   c-0.4-0.6-0.5-1.7-0.5-2.9c0-1.3,0.2-2.3,0.6-3c0.4-0.5,0.9-0.7,1.7-0.7c1.2,0,1.6,0.8,1.9,1.9l1.3-0.2c-0.4-1.8-1.5-2.7-3.2-2.7   c-2.4,0-3.6,1.9-3.6,4.8C172.5,120.9,173.7,122.6,176.1,122.6z"></path>
</g>
</svg>
