<?xml version="1.0" encoding="UTF-8"?>
<!-- Generator: Adobe Illustrator 24.1.0, SVG Export Plug-In . SVG Version: 6.00 Build 0)  -->
<svg xmlns="http://www.w3.org/2000/svg" xmlns:xlink="http://www.w3.org/1999/xlink" version="1.1" id="Laag_1" x="0px" y="0px" viewBox="0 0 283.5 283.5" style="enable-background:new 0 0 283.5 283.5;" xml:space="preserve">
<style type="text/css">
	.st0{fill:#131313;}
	.st1{fill:#D9D9D9;}
</style>
<g>
	<path class="st1" d="M108.1,117.9l2.6-0.5c0.3,3.2,2,4.7,5,4.7c1.4,0,2.5-0.3,3.2-0.8c0.7-0.5,1.1-1.2,1.1-2.1c0-0.9-0.3-1.6-1-2   s-2.1-1-4.2-1.6c-2.2-0.6-3.8-1.3-4.7-2.1c-0.9-0.8-1.4-1.8-1.4-3.1c0-1.3,0.6-2.5,1.7-3.5c1.1-1,2.6-1.5,4.6-1.5   c2,0,3.5,0.5,4.7,1.4c1.2,0.9,1.9,2.2,2.3,3.8l-2.4,0.6c-0.7-2.3-2.2-3.4-4.6-3.4c-1.2,0-2.1,0.2-2.7,0.7c-0.6,0.5-1,1.1-1,1.8   c0,0.7,0.3,1.3,0.9,1.7c0.6,0.4,2,0.9,4.2,1.5c2.3,0.7,3.9,1.4,4.8,2.3c0.9,0.8,1.3,2,1.3,3.5c0,1.4-0.6,2.7-1.7,3.7   c-1.1,1-2.9,1.6-5.2,1.6c-2.4,0-4.2-0.6-5.5-1.9C109.1,121.4,108.3,119.8,108.1,117.9z"></path>
	<path class="st1" d="M124.9,117.9l2.6-0.5c0.3,3.2,2,4.7,5,4.7c1.4,0,2.5-0.3,3.2-0.8c0.7-0.5,1.1-1.2,1.1-2.1c0-0.9-0.3-1.6-1-2   s-2.1-1-4.2-1.6c-2.2-0.6-3.8-1.3-4.7-2.1c-0.9-0.8-1.4-1.8-1.4-3.1c0-1.3,0.6-2.5,1.7-3.5c1.1-1,2.6-1.5,4.6-1.5   c2,0,3.5,0.5,4.7,1.4c1.2,0.9,1.9,2.2,2.3,3.8l-2.4,0.6c-0.7-2.3-2.2-3.4-4.6-3.4c-1.2,0-2.1,0.2-2.7,0.7c-0.6,0.5-1,1.1-1,1.8   c0,0.7,0.3,1.3,0.9,1.7c0.6,0.4,2,0.9,4.2,1.5c2.3,0.7,3.9,1.4,4.8,2.3c0.9,0.8,1.3,2,1.3,3.5c0,1.4-0.6,2.7-1.7,3.7   c-1.1,1-2.9,1.6-5.2,1.6c-2.4,0-4.2-0.6-5.5-1.9C125.9,121.4,125.1,119.8,124.9,117.9z"></path>
	<path class="st1" d="M142.7,124v-18h2.7v1.7h0.1c0.5-0.7,1.2-1.2,2.1-1.6c0.9-0.4,1.9-0.6,2.9-0.6c1.9,0,3.5,0.6,4.7,1.8   c1.2,1.2,1.8,2.8,1.8,4.9V124h-2.8V113c0-3.4-1.4-5-4.1-5c-1.4,0-2.5,0.4-3.4,1.2c-0.8,0.8-1.3,1.9-1.3,3.3V124H142.7z"></path>
	<path class="st1" d="M161.3,124v-18h2.7v1.7h0.1c0.5-0.7,1.2-1.2,2.1-1.6c0.9-0.4,1.9-0.6,2.9-0.6c1.9,0,3.5,0.6,4.7,1.8   c1.2,1.2,1.8,2.8,1.8,4.9V124h-2.8V113c0-3.4-1.4-5-4.1-5c-1.4,0-2.5,0.4-3.4,1.2c-0.9,0.8-1.3,1.9-1.3,3.3V124H161.3z"></path>
	<path class="st1" d="M40.2,153.1l2.7,0.5c-0.3,2.1-1.1,3.8-2.5,5c-1.4,1.2-3,1.9-5,1.9c-2.4,0-4.4-0.8-5.9-2.5   c-1.5-1.7-2.3-4-2.3-7c0-2.9,0.8-5.2,2.3-7c1.6-1.7,3.5-2.6,5.8-2.6c1.9,0,3.6,0.6,4.9,1.8c1.3,1.2,2.2,2.8,2.5,4.8l-2.6,0.5   c-0.3-1.3-0.8-2.4-1.6-3.3c-0.8-0.9-1.8-1.3-3.2-1.3c-1.6,0-2.9,0.6-3.9,1.9c-1,1.2-1.5,3-1.5,5.2c0,2.2,0.5,3.9,1.5,5.1   c1,1.2,2.3,1.9,4,1.9c1.3,0,2.4-0.5,3.3-1.4C39.5,155.6,40,154.4,40.2,153.1z"></path>
	<path class="st1" d="M46.1,160v-18h2.7v1.9h0.1c0.4-0.7,0.9-1.3,1.6-1.7c0.7-0.4,1.4-0.6,2.1-0.6c0.3,0,0.5,0,0.8,0.1   c0.3,0.1,0.5,0.1,0.6,0.2l0.2,0.1l-0.5,2.8c-0.3-0.2-0.8-0.3-1.4-0.3c-1.2,0-2,0.4-2.5,1.1c-0.5,0.8-0.8,2-0.8,3.7V160H46.1z"></path>
	<path class="st1" d="M68.9,154.4l2.2,1.5c-0.7,1.3-1.6,2.4-2.9,3.3c-1.3,0.9-2.8,1.3-4.6,1.3c-2.4,0-4.5-0.9-6-2.6   c-1.6-1.7-2.3-4-2.3-6.9s0.8-5.2,2.3-6.9c1.5-1.7,3.5-2.6,5.9-2.6c2.4,0,4.4,0.9,5.8,2.5c1.5,1.7,2.2,4,2.2,7v0.8H58.1   c0,1.7,0.5,3.2,1.4,4.4c0.9,1.2,2.3,1.8,4.1,1.8c0.7,0,1.3-0.1,1.9-0.3s1-0.4,1.4-0.6c0.3-0.2,0.7-0.5,1-1c0.4-0.4,0.6-0.7,0.6-0.9   C68.6,155.2,68.7,154.9,68.9,154.4z M58.1,149.6h10.7c0-1.5-0.5-2.8-1.4-3.9s-2.2-1.7-4-1.7c-1.7,0-3.1,0.6-4,1.8   C58.6,146.9,58.2,148.2,58.1,149.6z"></path>
	<path class="st1" d="M85.5,160v-2h-0.1c-0.3,0.6-1,1.2-1.9,1.7s-2.1,0.8-3.6,0.8c-2,0-3.5-0.5-4.5-1.5c-1-1-1.5-2.2-1.5-3.7   c0-1.5,0.5-2.7,1.4-3.5c0.9-0.9,2.5-1.6,4.7-2.1c0.8-0.2,1.4-0.4,1.8-0.5c0.4-0.1,0.9-0.3,1.4-0.5c0.5-0.2,0.9-0.4,1.1-0.6   s0.4-0.4,0.6-0.7c0.2-0.3,0.3-0.6,0.3-0.9c0-0.8-0.3-1.4-0.9-1.9s-1.6-0.8-2.8-0.8c-2.4,0-3.9,1.2-4.4,3.6l-2.5-0.7   c0.3-1.6,1-2.9,2.2-3.9c1.2-1,2.7-1.5,4.6-1.5c2.1,0,3.7,0.5,4.9,1.5c1.2,1,1.8,2.6,1.8,4.8V160H85.5z M80.5,151.9   c-1.5,0.4-2.6,0.9-3.1,1.4c-0.6,0.5-0.8,1.1-0.8,1.9c0,1.9,1.2,2.8,3.6,2.8c1.6,0,2.9-0.4,3.8-1.1c0.9-0.7,1.3-1.6,1.3-2.7v-4.5   h-0.1C84.9,150.4,83.3,151.1,80.5,151.9z"></path>
	<path class="st1" d="M92.8,154.7v-10.3h-2.5V142h2.6v-4.4h2.7v4.4h4.5v2.5h-4.4v10c0,1.1,0.1,1.8,0.4,2.2c0.3,0.4,0.9,0.6,1.8,0.6   h1.4v2.7h-1.5c-1.7,0-2.9-0.4-3.7-1.3C93.2,157.8,92.8,156.5,92.8,154.7z"></path>
	<path class="st1" d="M102.8,138.3v-3.2h3.2v3.2H102.8z M103,160v-18h2.8v18H103z"></path>
	<path class="st1" d="M115.8,160l-7.3-18h2.9l5.5,14.1h0.1l5.5-14.1h2.9l-7.3,18H115.8z"></path>
	<path class="st1" d="M139.9,154.4l2.2,1.5c-0.7,1.3-1.6,2.4-2.9,3.3c-1.3,0.9-2.8,1.3-4.6,1.3c-2.4,0-4.5-0.9-6-2.6   c-1.6-1.7-2.3-4-2.3-6.9s0.8-5.2,2.3-6.9c1.5-1.7,3.5-2.6,5.9-2.6c2.4,0,4.4,0.9,5.8,2.5c1.5,1.7,2.2,4,2.2,7v0.8H129   c0,1.7,0.5,3.2,1.4,4.4c0.9,1.2,2.3,1.8,4.1,1.8c0.7,0,1.3-0.1,1.9-0.3s1-0.4,1.4-0.6c0.3-0.2,0.7-0.5,1-1c0.4-0.4,0.6-0.7,0.6-0.9   C139.5,155.2,139.7,154.9,139.9,154.4z M129.1,149.6h10.7c0-1.5-0.5-2.8-1.4-3.9s-2.2-1.7-4-1.7c-1.7,0-3.1,0.6-4,1.8   C129.6,146.9,129.1,148.2,129.1,149.6z"></path>
	<path class="st1" d="M164.7,160v-2h-0.1c-0.3,0.6-1,1.2-1.9,1.7c-1,0.5-2.1,0.8-3.6,0.8c-2,0-3.5-0.5-4.5-1.5c-1-1-1.5-2.2-1.5-3.7   c0-1.5,0.5-2.7,1.4-3.5c0.9-0.9,2.5-1.6,4.7-2.1c0.8-0.2,1.4-0.4,1.8-0.5c0.4-0.1,0.9-0.3,1.4-0.5c0.5-0.2,0.9-0.4,1.1-0.6   c0.2-0.2,0.4-0.4,0.6-0.7c0.2-0.3,0.3-0.6,0.3-0.9c0-0.8-0.3-1.4-0.9-1.9c-0.6-0.5-1.6-0.8-2.8-0.8c-2.4,0-3.9,1.2-4.4,3.6   l-2.5-0.7c0.3-1.6,1-2.9,2.2-3.9c1.2-1,2.7-1.5,4.6-1.5c2.1,0,3.7,0.5,4.9,1.5c1.2,1,1.8,2.6,1.8,4.8V160H164.7z M159.8,151.9   c-1.5,0.4-2.6,0.9-3.1,1.4c-0.6,0.5-0.8,1.1-0.8,1.9c0,1.9,1.2,2.8,3.6,2.8c1.6,0,2.9-0.4,3.8-1.1c0.9-0.7,1.3-1.6,1.3-2.7v-4.5   h-0.1C164.1,150.4,162.5,151.1,159.8,151.9z"></path>
	<path class="st1" d="M171.8,163.2l2.3-1.2c0.4,1.1,1,2,1.7,2.6c0.7,0.6,1.7,1,3,1c1.5,0,2.6-0.4,3.4-1.3c0.8-0.9,1.2-2,1.2-3.6   v-2.4h-0.1c-1.2,1.4-2.8,2.1-5,2.1c-2.4,0-4.3-0.9-5.7-2.6c-1.5-1.7-2.2-4-2.2-6.9c0-2.9,0.8-5.2,2.3-6.9c1.5-1.7,3.4-2.6,5.6-2.6   c2.2,0,3.9,0.7,5.1,2.2h0.1V142h2.7v18.3c0,2.6-0.6,4.5-1.9,5.9c-1.3,1.3-3.1,2-5.3,2c-1.8,0-3.4-0.4-4.6-1.3   C173.1,165.9,172.3,164.7,171.8,163.2z M183.4,154.1v-5.7c0-1.1-0.4-2.1-1.3-3c-0.8-0.9-2-1.4-3.4-1.4c-1.8,0-3.1,0.6-4.1,1.9   c-1,1.2-1.4,3-1.4,5.2c0,2.2,0.5,3.9,1.4,5.2c1,1.2,2.3,1.8,4.1,1.8c1.3,0,2.4-0.4,3.3-1.2C182.9,156,183.4,155.1,183.4,154.1z"></path>
	<path class="st1" d="M203.1,154.4l2.2,1.5c-0.7,1.3-1.6,2.4-2.9,3.3s-2.8,1.3-4.6,1.3c-2.4,0-4.5-0.9-6-2.6c-1.6-1.7-2.3-4-2.3-6.9   s0.8-5.2,2.3-6.9c1.5-1.7,3.5-2.6,5.9-2.6c2.4,0,4.4,0.9,5.8,2.5c1.5,1.7,2.2,4,2.2,7v0.8h-13.5c0,1.7,0.5,3.2,1.4,4.4   s2.3,1.8,4.1,1.8c0.7,0,1.3-0.1,1.9-0.3c0.6-0.2,1-0.4,1.4-0.6c0.3-0.2,0.7-0.5,1-1c0.4-0.4,0.6-0.7,0.6-0.9   C202.8,155.2,202.9,154.9,203.1,154.4z M192.3,149.6H203c0-1.5-0.5-2.8-1.4-3.9c-0.9-1.1-2.2-1.7-4-1.7c-1.7,0-3.1,0.6-4,1.8   C192.8,146.9,192.4,148.2,192.3,149.6z"></path>
	<path class="st1" d="M209.1,160v-18h2.7v1.7h0.1c0.5-0.7,1.2-1.2,2.1-1.6c0.9-0.4,1.9-0.6,2.9-0.6c1.9,0,3.5,0.6,4.7,1.8   c1.2,1.2,1.8,2.8,1.8,4.9V160h-2.8V149c0-3.4-1.4-5-4.1-5c-1.4,0-2.5,0.4-3.4,1.2c-0.9,0.8-1.3,1.9-1.3,3.3V160H209.1z"></path>
	<path class="st1" d="M239.8,153.1l2.7,0.5c-0.3,2.1-1.1,3.8-2.5,5c-1.4,1.2-3,1.9-5,1.9c-2.4,0-4.4-0.8-5.9-2.5   c-1.5-1.7-2.3-4-2.3-7c0-2.9,0.8-5.2,2.3-7c1.6-1.7,3.5-2.6,5.8-2.6c1.9,0,3.6,0.6,4.9,1.8c1.3,1.2,2.2,2.8,2.5,4.8l-2.6,0.5   c-0.3-1.3-0.8-2.4-1.6-3.3c-0.8-0.9-1.8-1.3-3.2-1.3c-1.6,0-2.9,0.6-3.9,1.9c-1,1.2-1.5,3-1.5,5.2c0,2.2,0.5,3.9,1.5,5.1   c1,1.2,2.3,1.9,4,1.9c1.3,0,2.4-0.5,3.3-1.4C239.1,155.6,239.6,154.4,239.8,153.1z"></path>
	<path class="st1" d="M246.5,167.6l3.6-9.6l-6.8-16.1h2.9l5.1,12.4h0.1L256,142h2.9l-9.7,25.7H246.5z"></path>
</g>
</svg>
