<?xml version="1.0" encoding="UTF-8"?>
<!-- Generator: Adobe Illustrator 24.1.0, SVG Export Plug-In . SVG Version: 6.00 Build 0)  -->
<svg xmlns="http://www.w3.org/2000/svg" xmlns:xlink="http://www.w3.org/1999/xlink" version="1.1" id="Laag_1" x="0px" y="0px" viewBox="0 0 283.5 283.5" style="enable-background:new 0 0 283.5 283.5;" xml:space="preserve">
<style type="text/css">
	.st0{fill:#131313;}
	.st1{fill:#D9D9D9;}
</style>
<g>
	<path class="st1" d="M50.4,138.4v2.4c0,0.3-0.2,0.5-0.5,0.5H39.4c-0.3,0-0.5,0.2-0.5,0.5v11.8c0,0.3-0.2,0.5-0.4,0.5h-7.9   c-0.3,0-0.4-0.2-0.4-0.5v-11.8c0-0.3-0.2-0.5-0.5-0.5H19.2c-0.3,0-0.5-0.2-0.5-0.5v-2.4c0-0.3,0.2-0.5,0.5-0.5H50   C50.2,137.9,50.4,138.1,50.4,138.4z"></path>
	<path class="st1" d="M85.9,137.9h9.5c0.5,0,0.6,0.6,0.2,0.8l-16.1,8.8c-0.1,0.1-0.2,0.2-0.2,0.4v5.5c0,0.3-0.2,0.5-0.5,0.5h-8   c-0.3,0-0.5-0.2-0.5-0.5V148c0-0.2-0.1-0.3-0.2-0.4l-16-8.8c-0.4-0.2-0.3-0.8,0.2-0.8h9.5c0.1,0,0.2,0,0.2,0l10.6,5.9   c0.1,0.1,0.3,0.1,0.4,0l10.6-5.9C85.7,138,85.8,137.9,85.9,137.9z"></path>
	<path class="st1" d="M114.4,148.1c-0.4,0-0.8,0-1.1,0c-1.8,0-3.1,0-5.3,0c-0.3,0-0.5,0.2-0.5,0.4v5c0,0.3-0.2,0.4-0.5,0.4h-8.5   c-0.3,0-0.5-0.2-0.5-0.4v-15.2c0-0.3,0.2-0.4,0.5-0.4h22.4c7,0,10.9,2.2,10.9,4.9v0.3c-0.3,3.6-6.8,4.9-13.1,4.9   C117.4,148,116,148.1,114.4,148.1z M122.6,143.3c0-2.5-10.9-1.9-14.7-1.8c-0.3,0-0.4,0.2-0.4,0.4v2.8c0,0.2,0.2,0.4,0.4,0.4   C111.8,145.1,122.6,145.8,122.6,143.3z"></path>
	<path class="st1" d="M134.3,153.5v-15.1c0-0.3,0.2-0.5,0.5-0.5h26.6c0.2,0,0.4,0.2,0.4,0.5v2.4c0,0.3-0.2,0.4-0.4,0.4h-17.9   c-0.3,0-0.4,0.2-0.4,0.5v2.2c0,0.3,0.2,0.5,0.4,0.5h15.4c0.3,0,0.4,0.2,0.4,0.5v2.4c0,0.3-0.2,0.5-0.4,0.5h-15.4   c-0.3,0-0.4,0.2-0.4,0.5v2.2c0,0.3,0.2,0.5,0.4,0.5h17.9c0.2,0,0.4,0.2,0.4,0.4v2.4c0,0.3-0.2,0.5-0.4,0.5h-26.6   C134.5,154,134.3,153.8,134.3,153.5z"></path>
	<path class="st1" d="M165.7,137.9h7.8c0.2,0,0.4,0.2,0.4,0.5v11.8c0,0.3,0.2,0.5,0.5,0.5H191c0.3,0,0.4,0.2,0.4,0.5v2.4   c0,0.3-0.2,0.5-0.4,0.5h-25.3c-0.3,0-0.4-0.2-0.4-0.5v-15.1C165.3,138.1,165.4,137.9,165.7,137.9z"></path>
	<path class="st1" d="M219.8,153.8L218,151c-0.1-0.1-0.2-0.2-0.4-0.2h-12.4c-0.2,0-0.3,0.1-0.4,0.2l-1.9,2.8   c-0.1,0.1-0.2,0.2-0.4,0.2h-8.1c-0.3,0-0.6-0.4-0.4-0.7l10.5-15.1c0.1-0.1,0.2-0.2,0.4-0.2l6.5,0.1l6.5-0.1c0.2,0,0.3,0.1,0.4,0.2   l10.4,15.1c0.2,0.3,0,0.7-0.4,0.7h-8.1C220.1,154,219.9,153.9,219.8,153.8z M207.9,147.5h6.9c0.4,0,0.6-0.4,0.4-0.7l-3.4-5.2   c-0.2-0.3-0.6-0.3-0.8,0l-3.4,5.2C207.4,147.1,207.6,147.5,207.9,147.5z"></path>
	<path class="st1" d="M264.8,149.5c0,3.5-3.9,4.5-14.5,4.5h-18.1c-0.3,0-0.5-0.2-0.5-0.4v-15.2c0-0.2,0.2-0.4,0.5-0.4h22.1   c4.8,0,9.2,0.9,9.2,4.1c0,2.4-2.5,4-5.2,4C258.4,146,264.8,146,264.8,149.5z M242.1,144.4h9.4c1.8,0,2.3-1,2.3-1.7   c0-0.8-0.5-1.7-2.3-1.7h-9.4c-0.3,0-0.5,0.2-0.5,0.4v2.6C241.6,144.2,241.8,144.4,242.1,144.4z M255.5,149.2c0-0.8-0.6-1.7-2.7-1.7   h-10.8c-0.3,0-0.5,0.2-0.5,0.5v2.6c0,0.2,0.2,0.4,0.5,0.4h10.8C254.9,150.9,255.5,150,255.5,149.2z"></path>
</g>
</svg>
