<?xml version="1.0" standalone="no"?>
<!DOCTYPE svg PUBLIC "-//W3C//DTD SVG 1.1//EN" "http://www.w3.org/Graphics/SVG/1.1/DTD/svg11.dtd" >
<svg xmlns="http://www.w3.org/2000/svg" xmlns:xlink="http://www.w3.org/1999/xlink" version="1.1">
<metadata></metadata>
<defs>
<font id="nuckle_regularregular" horiz-adv-x="1331" >
<font-face units-per-em="2048" ascent="1573" descent="-475" />
<missing-glyph horiz-adv-x="512" />
<glyph unicode="fi" horiz-adv-x="1124" d="M57 1047v120h189q1 170 84.5 262.5t226.5 92.5q105 0 176 -54l-31 -102q-53 47 -129 47q-91 0 -142 -64t-48 -182h274v-120h-272v-1047h-141v1047h-187zM838 0v1167h141v-1167h-141zM838 1284v277h141v-277h-141z" />
<glyph unicode="fl" horiz-adv-x="1124" d="M57 1047v120h189q1 170 84.5 262.5t226.5 92.5q105 0 176 -54l-31 -102q-53 47 -129 47q-91 0 -142 -64t-48 -182h274v-120h-272v-1047h-141v1047h-187zM838 0v1516h141v-1516h-141z" />
<glyph unicode="ff" horiz-adv-x="1372" d="M57 1047v120h189q-1 165 79.5 260t221.5 95q99 0 168 -54l-29 -102q-56 47 -123 47q-87 0 -135 -65.5t-45 -180.5h258v-120h-256v-1047h-141v1047h-187zM719 1047v120h164q-1 167 78.5 261t222.5 94q97 0 166 -54l-29 -102q-56 47 -121 47q-88 0 -135.5 -64.5 t-44.5 -181.5h256v-120h-254v-1047h-141v1047h-162z" />
<glyph unicode="ft" horiz-adv-x="1361" d="M57 1047v120h181q-2 164 77.5 257.5t223.5 93.5q99 0 168 -54l-31 -102q-53 47 -121 47q-87 0 -135 -64t-45 -178h256v-120h-254v-1047h-141v1047h-179zM694 1047v120h160v219l139 111v-330h264v-120h-264v-756q0 -96 37 -145.5t107 -49.5q84 0 135 68l28 -121 q-60 -70 -182 -70q-129 0 -196.5 82t-67.5 236v756h-160z" />
<glyph unicode="fft" horiz-adv-x="1990" d="M57 1047v120h189q-1 165 79.5 260t221.5 95q99 0 168 -54l-29 -102q-56 47 -123 47q-87 0 -135 -65.5t-45 -180.5h258v-120h-256v-1047h-141v1047h-187zM719 1047v120h164q-1 167 78.5 261t222.5 94q97 0 166 -54l-29 -102q-56 47 -121 47q-88 0 -135.5 -64.5 t-44.5 -181.5h256v-120h-254v-1047h-141v1047h-162zM1352 1047v120h147v219l141 111v-330h265v-120h-265v-756q0 -195 144 -195q84 0 135 68l29 -121q-28 -33 -76.5 -51.5t-106.5 -18.5q-129 0 -197.5 82t-68.5 236v756h-147z" />
<glyph unicode="ffi" horiz-adv-x="1748" d="M57 1047v120h189q-1 165 79.5 260t221.5 95q99 0 168 -54l-29 -102q-56 47 -123 47q-87 0 -135 -65.5t-45 -180.5h258v-120h-256v-1047h-141v1047h-187zM719 1047v120h164q-1 167 78.5 261t222.5 94q97 0 166 -54l-29 -102q-56 47 -121 47q-88 0 -135.5 -64.5 t-44.5 -181.5h256v-120h-254v-1047h-141v1047h-162zM1462 0v1167h142v-1167h-142zM1462 1284v277h142v-277h-142z" />
<glyph unicode="ij" horiz-adv-x="851" d="M145 0v1167h142v-1167h-142zM145 1284v277h142v-277h-142zM379 -379q101 12 145.5 68t44.5 166v1312h142v-1317q0 -154 -77 -244t-218 -114zM569 1284v277h142v-277h-142z" />
<glyph unicode="tt" horiz-adv-x="1470" d="M47 1047v120h205v219l141 111v-330h256v-120h-256v-756q0 -195 139 -195q81 0 132 68l30 -121q-60 -70 -180 -70q-126 0 -194 82t-68 236v756h-205zM762 1047v120h205v219l141 111v-330h258v-120h-258v-756q0 -96 35.5 -145.5t103.5 -49.5q82 0 133 68l29 -121 q-60 -70 -180 -70q-126 0 -194 82t-68 236v756h-205z" />
<glyph unicode="&#xd;" horiz-adv-x="0" />
<glyph unicode=" "  horiz-adv-x="512" />
<glyph unicode="&#x09;" horiz-adv-x="512" />
<glyph unicode="&#xa0;" horiz-adv-x="512" />
<glyph unicode="!" horiz-adv-x="352" d="M102 0v244h158v-244h-158zM106 942v537h140v-537l-6 -502h-125z" />
<glyph unicode="&#x22;" horiz-adv-x="587" d="M102 932v547h136v-547h-136zM350 932v547h135v-547h-135z" />
<glyph unicode="#" horiz-adv-x="1646" d="M102 397v99h326l104 401h-337v100h362l100 387h127l-100 -387h406l100 387h127l-100 -387h327v-100h-352l-105 -401h363v-99h-387l-102 -397h-127l102 397h-406l-102 -397h-127l102 397h-301zM555 496h406l104 401h-406z" />
<glyph unicode="$" horiz-adv-x="1392" d="M102 403l140 62q15 -153 132 -251.5t298 -113.5v625q-67 16 -108 27.5t-101 31.5t-97 39.5t-79.5 50.5t-66.5 65.5t-40 82.5t-16 104q0 177 141.5 283.5t366.5 106.5v192h96v-197q187 -19 315.5 -112t171.5 -238l-133 -69q-22 119 -115.5 196t-238.5 96v-538 q65 -16 110 -29t104.5 -34t99.5 -43.5t82.5 -56.5t67.5 -72.5t41.5 -92t16.5 -115.5q0 -186 -143.5 -303.5t-378.5 -128.5v-200h-96v202q-232 12 -386.5 128.5t-183.5 301.5zM311 1139q0 -48 20 -86.5t50 -65t81 -49.5t96.5 -37.5t113.5 -32.5v523q-161 -1 -261 -71.5 t-100 -180.5zM768 98q166 9 269.5 89.5t103.5 205.5q0 55 -20.5 99.5t-52 74.5t-83.5 56t-100 42.5t-117 34.5v-602z" />
<glyph unicode="%" horiz-adv-x="1972" d="M102 1051q0 212 93 334t256 122q164 0 257 -121.5t93 -334.5t-93 -335t-257 -122q-163 0 -256 122.5t-93 334.5zM215 1051q0 -170 60.5 -262.5t175.5 -92.5q116 0 176.5 92.5t60.5 262.5q0 172 -60.5 264t-176.5 92q-115 0 -175.5 -92.5t-60.5 -263.5zM580 0l684 1479 h120l-675 -1479h-129zM1171 440q0 212 93 334.5t256 122.5q164 0 257 -122t93 -335t-93 -334.5t-257 -121.5q-163 0 -256 122t-93 334zM1284 440q0 -170 60.5 -262t175.5 -92q116 0 176.5 92t60.5 262q0 172 -60.5 264.5t-176.5 92.5q-115 0 -175.5 -93t-60.5 -264z" />
<glyph unicode="&#x26;" horiz-adv-x="1411" d="M102 379q0 142 86.5 249t247.5 201l-14 17q-103 108 -147 189t-44 161q0 138 102 229t261 91q153 0 250.5 -88.5t97.5 -225.5q0 -53 -17 -102t-43.5 -87t-68.5 -76.5t-81 -66.5t-93 -61l369 -387q65 194 4 440l139 -57q57 -270 -39 -492l299 -313h-194l-179 190 q-79 -103 -196 -159t-260 -56q-209 0 -344.5 112.5t-135.5 291.5zM250 393q0 -128 97 -209.5t243 -81.5q111 0 202 49.5t152 139.5l-420 446q-133 -76 -203.5 -156.5t-70.5 -187.5zM377 1192q0 -63 40.5 -129t139.5 -168q59 38 97.5 66.5t77 67t57 80.5t18.5 89 q0 84 -59.5 139.5t-153.5 55.5q-96 0 -156.5 -57t-60.5 -144z" />
<glyph unicode="'" horiz-adv-x="339" d="M102 932v547h136v-547h-136z" />
<glyph unicode="(" horiz-adv-x="825" d="M205 559q0 312 122 573t373 496l105 -90q-228 -212 -338.5 -451t-110.5 -528q0 -288 110 -526.5t339 -452.5l-105 -90q-251 237 -373 497.5t-122 571.5z" />
<glyph unicode=")" horiz-adv-x="825" d="M20 -420q229 214 339 452.5t110 526.5q0 289 -110.5 528t-338.5 451l105 90q251 -236 373.5 -496.5t122.5 -572.5q0 -311 -122.5 -571.5t-373.5 -497.5z" />
<glyph unicode="*" horiz-adv-x="878" d="M102 1184l43 131l254 -113l-30 277h141l-31 -277l254 113l43 -131l-270 -58l186 -204l-114 -86l-140 241l-137 -241l-115 86l187 204z" />
<glyph unicode="+" horiz-adv-x="1159" d="M102 633v127h414v393h129v-393h412v-127h-412v-391h-129v391h-414z" />
<glyph unicode="," horiz-adv-x="423" d="M25 -252l161 537h156l-184 -537h-133z" />
<glyph unicode="-" horiz-adv-x="841" d="M102 524v125h637v-125h-637z" />
<glyph unicode="." horiz-adv-x="374" d="M102 0v264h170v-264h-170z" />
<glyph unicode="/" horiz-adv-x="923" d="M-20 0l833 1479h131l-827 -1479h-137z" />
<glyph unicode="0" horiz-adv-x="1320" d="M82 741q0 359 154.5 563.5t425.5 204.5t424 -204t153 -564t-153 -564t-424 -204t-425.5 204.5t-154.5 563.5zM229 741q0 -303 111 -470t322 -167t321.5 167t110.5 470q0 305 -110.5 472t-321.5 167t-322 -167.5t-111 -471.5z" />
<glyph unicode="1" horiz-adv-x="681" d="M72 1006v137q111 34 200 126.5t119 209.5h127v-1479h-145v1233q-50 -74 -129 -133.5t-172 -93.5z" />
<glyph unicode="2" horiz-adv-x="1177" d="M61 0v27q0 285 328 493l283 182q150 94 211 180t61 189q0 143 -94 226t-244 83q-158 0 -264.5 -101.5t-116.5 -270.5l-143 69q29 197 174.5 314.5t353.5 117.5q213 0 348.5 -118t135.5 -314q0 -267 -320 -471l-282 -178q-217 -132 -234 -295h868v-133h-1065z" />
<glyph unicode="3" horiz-adv-x="1249" d="M51 442l146 54q0 -174 111.5 -284t301.5 -110q173 0 282 85.5t109 226.5q0 147 -106.5 227t-298.5 80h-55v127h55q173 0 274 72.5t101 193.5q0 123 -96.5 194.5t-251.5 71.5q-161 0 -267.5 -90t-113.5 -235l-144 49q19 180 165.5 292.5t367.5 112.5q212 0 350.5 -103.5 t138.5 -270.5q0 -124 -78.5 -217.5t-220.5 -129.5q159 -33 246.5 -136t87.5 -246q0 -186 -154 -310.5t-389 -124.5q-245 0 -397 131.5t-164 339.5z" />
<glyph unicode="4" horiz-adv-x="1318" d="M61 367v98l822 1012h143v-983h240v-127h-240v-367h-139v367h-826zM244 494h643v792z" />
<glyph unicode="5" horiz-adv-x="1222" d="M72 440l137 58q-4 -179 105.5 -287.5t289.5 -108.5q185 0 291 110t106 284t-104 274t-270 100q-113 0 -210 -53t-165 -149l-129 55l119 754h817v-129h-705l-84 -519q162 162 392 162q216 0 351.5 -136.5t135.5 -358.5q0 -229 -150.5 -377t-396.5 -148q-229 0 -374 129.5 t-156 339.5z" />
<glyph unicode="6" horiz-adv-x="1249" d="M82 651q0 257 73.5 450t217.5 300.5t342 107.5q129 0 239 -47.5t176 -132.5l-71 -145q-55 92 -147.5 144t-206.5 52q-209 0 -336.5 -170.5t-132.5 -455.5q68 121 181.5 186.5t258.5 65.5q222 0 362 -139t140 -359q0 -151 -66.5 -273t-192 -193t-286.5 -71 q-117 0 -214.5 40t-174 120t-119.5 213t-43 307zM242 508q0 -75 24 -146t70.5 -130t124 -94.5t174.5 -35.5q180 0 287.5 110.5t107.5 291.5q0 178 -105 282.5t-278 104.5q-172 0 -288.5 -108t-116.5 -275z" />
<glyph unicode="7" horiz-adv-x="1097" d="M20 1348v129h1047v-86q-257 -279 -385 -610t-158 -781h-147q38 430 153.5 757.5t333.5 590.5h-844z" />
<glyph unicode="8" horiz-adv-x="1261" d="M82 412q0 139 86.5 241t239.5 148q-123 44 -193 134.5t-70 205.5q0 164 136 267t350 103t350.5 -103t136.5 -267q0 -115 -70 -205.5t-192 -134.5q153 -46 238.5 -148t85.5 -241q0 -194 -153 -317.5t-396 -123.5q-241 0 -395 123.5t-154 317.5zM229 424q0 -142 110.5 -232 t291.5 -90t292 90t111 232q0 139 -110.5 226t-292.5 87t-292 -87t-110 -226zM293 1122q0 -118 92.5 -187t245.5 -69q155 0 247.5 69t92.5 187q0 117 -94 188.5t-246 71.5q-151 0 -244.5 -71.5t-93.5 -188.5z" />
<glyph unicode="9" horiz-adv-x="1249" d="M72 979q0 149 66 269.5t191 190.5t287 70q84 0 159 -19t148.5 -67t126 -122t85 -192.5t32.5 -270.5q0 -398 -169.5 -632.5t-460.5 -234.5q-133 0 -250 51.5t-172 135.5l67 137q45 -90 144 -141.5t219 -51.5q208 0 333.5 165t137.5 466q-65 -124 -180.5 -190t-257.5 -66 q-225 0 -365.5 140.5t-140.5 361.5zM219 981q0 -173 106.5 -281t280.5 -108t287 112t113 285q0 171 -110 281t-284 110t-283.5 -110.5t-109.5 -288.5z" />
<glyph unicode=":" horiz-adv-x="374" d="M102 0v264h170v-264h-170zM102 786v265h170v-265h-170z" />
<glyph unicode=";" horiz-adv-x="382" d="M-43 -252l162 537h155l-184 -537h-133zM119 760v264h170v-264h-170z" />
<glyph unicode="&#x3c;" horiz-adv-x="1118" d="M102 643v94l914 488v-146l-737 -387l737 -389v-145z" />
<glyph unicode="=" horiz-adv-x="1159" d="M102 434v127h955v-127h-955zM102 836v127h955v-127h-955z" />
<glyph unicode="&#x3e;" horiz-adv-x="1118" d="M102 158v145l738 389l-738 387v146l914 -488v-94z" />
<glyph unicode="?" horiz-adv-x="1171" d="M102 1042q4 212 145 343t361 131q203 0 332 -113.5t129 -284.5q0 -56 -15 -107.5t-35 -87.5t-57.5 -77.5t-62.5 -64t-70 -60.5q-48 -41 -72 -63.5t-56 -60.5t-46 -76t-14 -81h-141q2 62 21 116t56.5 101t69 78t82.5 74q40 34 61 52.5t52 51.5t46.5 60t27.5 64t12 77 q0 118 -88 196.5t-232 78.5q-170 0 -273 -110t-97 -304zM489 0v256h164v-256h-164z" />
<glyph unicode="@" horiz-adv-x="1894" d="M102 651q0 182 72 345.5t195 282t296 188t367 69.5q167 0 309.5 -52t241 -143.5t154 -219.5t55.5 -277q0 -153 -55 -281.5t-149.5 -203t-205.5 -74.5q-92 0 -149.5 51.5t-63.5 134.5q-61 -89 -147 -137.5t-188 -48.5q-144 0 -235 95.5t-91 256.5q0 104 39 199.5 t102.5 164t149 109.5t174.5 41q105 0 180.5 -54.5t101.5 -148.5l48 189h100l-129 -549q-22 -92 8.5 -148.5t101.5 -56.5q114 0 203.5 130t89.5 323q0 264 -178 431t-465 167q-134 0 -258.5 -38.5t-224 -110t-173.5 -167t-114.5 -215t-40.5 -248.5q0 -199 93.5 -354 t252.5 -238t355 -83q152 0 290.5 51t231.5 143l59 -96q-251 -199 -581 -199q-181 0 -335.5 58.5t-260.5 161.5t-166 245.5t-60 306.5zM631 641q0 -120 61.5 -189t163.5 -69q116 0 206.5 85t123.5 214l4 16q10 55 10 103q0 121 -60.5 186.5t-158.5 65.5q-93 0 -174 -57 t-128.5 -152t-47.5 -203z" />
<glyph unicode="A" horiz-adv-x="1415" d="M16 0l609 1479h170l604 -1479h-166l-168 414h-717l-168 -414h-164zM399 539h617l-109 266q-92 240 -196 506h-4q-2 -5 -89 -225t-110 -281z" />
<glyph unicode="B" horiz-adv-x="1357" d="M166 0v1479h557q247 0 375 -103q123 -94 123 -262q0 -123 -65 -214.5t-179 -131.5q140 -34 221.5 -126t81.5 -236q0 -192 -141 -302q-135 -104 -389 -104h-584zM317 137h390q214 0 317 74q96 75 96 207t-92 200q-94 70 -289 70h-422v-551zM317 819h385q176 0 269 74 q90 77 90 201q0 121 -92 186q-88 61 -283 61h-369v-522z" />
<glyph unicode="C" horiz-adv-x="1589" d="M104 743q0 170 56 315t153.5 245t233 156.5t291.5 56.5q232 0 407.5 -126t239.5 -339l-142 -78q-40 191 -180.5 297t-328.5 106q-119 0 -224 -44.5t-182 -125.5t-121.5 -200.5t-44.5 -262.5q0 -190 76.5 -334.5t206.5 -220t291 -75.5q186 0 326.5 106.5t180.5 294.5 l142 -78q-62 -212 -242 -337.5t-414 -125.5q-153 0 -287 56t-230.5 155.5t-152 244t-55.5 314.5z" />
<glyph unicode="D" horiz-adv-x="1515" d="M166 0v1479h446q370 0 572 -183q110 -98 168.5 -240t58.5 -317t-58.5 -317t-168.5 -240q-204 -182 -572 -182h-446zM317 137h281q322 0 485 154q170 159 170 448t-170 451q-164 151 -485 151h-281v-1204z" />
<glyph unicode="E" horiz-adv-x="1239" d="M166 0v1479h1018v-138h-867v-534h736v-135h-736v-535h867v-137h-1018z" />
<glyph unicode="F" horiz-adv-x="1224" d="M166 0v1479h1005v-138h-854v-534h723v-135h-723v-672h-151z" />
<glyph unicode="G" horiz-adv-x="1617" d="M104 741q0 171 56 316t154 245.5t235.5 157t296.5 56.5q228 0 401.5 -121t239.5 -328l-144 -80q-42 184 -180.5 286.5t-322.5 102.5q-119 0 -224.5 -44.5t-184 -124.5t-124 -199t-45.5 -260q0 -144 44.5 -265t121.5 -202.5t182 -126.5t224 -45q223 0 370 143t164 379v18 h-522v133h657v-782h-135v283q-83 -148 -226 -229t-329 -81q-150 0 -280.5 55.5t-225 155t-149 243.5t-54.5 314z" />
<glyph unicode="H" horiz-adv-x="1507" d="M166 0v1479h151v-670h873v670h151v-1479h-151v672h-873v-672h-151z" />
<glyph unicode="I" horiz-adv-x="483" d="M166 0v1479h151v-1479h-151z" />
<glyph unicode="J" horiz-adv-x="1214" d="M70 424l145 65q9 -179 101 -277.5t243 -98.5q161 0 253.5 108.5t92.5 304.5v953h154v-971q0 -242 -136.5 -388.5t-363.5 -146.5q-202 0 -336 123.5t-153 327.5z" />
<glyph unicode="K" horiz-adv-x="1339" d="M166 0v1479h151v-867l773 867h190l-537 -596l596 -883h-190l-510 766l-322 -358v-408h-151z" />
<glyph unicode="L" horiz-adv-x="1187" d="M166 0v1479h151v-1342h830v-137h-981z" />
<glyph unicode="M" horiz-adv-x="1794" d="M166 0v1479h229l178 -465q68 -162 326 -826h4q25 64 143 368.5t181 457.5l178 465h223v-1479h-153v621q0 358 8 663h-2q-4 -11 -66 -178t-94 -248l-346 -858h-152l-352 858q-20 54 -56 149t-62.5 164.5t-41.5 112.5h-4q8 -336 8 -663v-621h-149z" />
<glyph unicode="N" horiz-adv-x="1550" d="M166 0v1479h182l453 -637q35 -53 225.5 -316t206.5 -288h2q-2 145 -2 649v592h151v-1479h-157l-533 731q-8 11 -104 148t-175 251.5t-96 145.5h-4q2 -59 2 -668v-608h-151z" />
<glyph unicode="O" horiz-adv-x="1656" d="M104 743q0 170 55.5 315t151.5 245t229.5 156.5t286.5 56.5q154 0 288 -56.5t230 -156.5t151.5 -245t55.5 -315q0 -169 -55.5 -313.5t-151.5 -244t-230 -156t-288 -56.5q-153 0 -286.5 56.5t-229.5 156t-151.5 244t-55.5 313.5zM262 743q0 -141 44 -260t120 -199.5 t179.5 -125.5t221.5 -45t222 45t180.5 125.5t121 199.5t44.5 260q0 142 -44.5 261.5t-121 200.5t-180.5 126t-222 45t-221.5 -45t-179.5 -126t-120 -200.5t-44 -261.5z" />
<glyph unicode="P" horiz-adv-x="1355" d="M166 0v1479h532q269 0 408 -111q147 -119 147 -330q0 -205 -141 -327q-140 -119 -414 -119h-381v-592h-151zM317 729h390q187 0 288 78q105 79 105 231q0 145 -99 222q-100 81 -294 81h-390v-612z" />
<glyph unicode="Q" horiz-adv-x="1679" d="M104 758q0 167 56 309t153.5 240.5t232.5 153.5t290 55q152 0 286.5 -54.5t232 -151t154 -235.5t56.5 -301q0 -229 -109.5 -400t-296.5 -249h434v-125h-753q-156 0 -292 55t-234 153t-154 240t-56 310zM262 758q0 -140 45 -257t123 -196t182.5 -122.5t223.5 -43.5 t223 43.5t181.5 122.5t122 196t44.5 257q0 139 -44.5 256t-122 195.5t-182 122.5t-222.5 44q-119 0 -223.5 -44t-182.5 -122.5t-123 -195.5t-45 -256z" />
<glyph unicode="R" horiz-adv-x="1394" d="M166 0v1479h584q247 0 385 -101q143 -108 143 -293q0 -146 -91 -251.5t-255 -143.5q110 -28 176 -90q43 -43 73 -112.5t46.5 -137.5t49 -167.5t75.5 -182.5h-174q-34 68 -59.5 154.5t-38.5 149.5t-40.5 128.5t-68.5 106.5q-91 91 -297 94h-357v-633h-151zM317 766h414 q178 0 283 76q104 80 104 217q0 134 -100 209q-94 73 -287 73h-414v-575z" />
<glyph unicode="S" horiz-adv-x="1284" d="M51 414l150 67q20 -169 148 -269.5t323 -100.5q174 0 280.5 77t106.5 201q0 43 -14.5 80.5t-31.5 64t-58.5 52.5t-66 40t-85 34t-85.5 27t-96 26q-15 4 -22 6q-61 17 -102 30t-95.5 34t-91 42t-75 52t-61.5 66t-37.5 82.5t-14.5 102.5q0 178 140 284t366 106 q210 0 364.5 -96t208.5 -271l-143 -72q-29 141 -146.5 223t-283.5 82q-153 0 -249.5 -68t-96.5 -177q0 -29 8 -55.5t19 -47t34 -40.5t41.5 -33.5t53.5 -29.5t57 -25t66.5 -22.5t67.5 -20t72 -19.5q99 -28 153 -45.5t135.5 -55.5t124 -80t75.5 -111t33 -155 q0 -193 -152.5 -309.5t-400.5 -116.5t-418 121t-201 320z" />
<glyph unicode="T" horiz-adv-x="1323" d="M25 1341v138h1271v-138h-559v-1341h-151v1341h-561z" />
<glyph unicode="U" horiz-adv-x="1497" d="M156 596v883h153v-891q0 -204 97 -328q111 -147 342 -147q233 0 344 147q96 119 96 328v891h153v-883q0 -305 -155 -463q-154 -160 -438 -160q-283 0 -437 160q-155 158 -155 463z" />
<glyph unicode="V" horiz-adv-x="1425" d="M16 1479h168l283 -676q124 -300 248 -623h4q106 286 242 623l282 676h164l-616 -1479h-158z" />
<glyph unicode="W" horiz-adv-x="1925" d="M16 1479h168l131 -494q125 -463 222 -799h4q2 8 84.5 320t130.5 479l133 494h153l136 -494q44 -155 121.5 -434t101.5 -363h4q31 108 213 793l125 498h166l-404 -1479h-200l-158 578q-113 419 -182 688h-4q-90 -352 -181 -688l-155 -578h-195z" />
<glyph unicode="X" horiz-adv-x="1374" d="M16 0l578 754l-553 725h188l463 -607l451 607h182l-545 -723l578 -756h-189l-487 637l-485 -637h-181z" />
<glyph unicode="Y" horiz-adv-x="1384" d="M16 1479h177l503 -809l502 809h170l-604 -975v-504h-143v504z" />
<glyph unicode="Z" horiz-adv-x="1316" d="M72 0v121l960 1220h-909v138h1108v-121l-959 -1221h973v-137h-1173z" />
<glyph unicode="[" horiz-adv-x="606" d="M205 -506v2128h381v-131h-240v-1866h240v-131h-381z" />
<glyph unicode="\" horiz-adv-x="923" d="M-20 1479h131l833 -1479h-137z" />
<glyph unicode="]" horiz-adv-x="606" d="M20 -375h240v1866h-240v131h381v-2128h-381v131z" />
<glyph unicode="^" horiz-adv-x="1183" d="M102 739l420 740h142l417 -740h-151l-338 613l-338 -613h-152z" />
<glyph unicode="_" horiz-adv-x="1024" d="M0 0h1024v-115h-1024v115z" />
<glyph unicode="a" horiz-adv-x="1200" d="M84 303q0 155 118.5 249.5t368.5 129.5l334 43v63q0 137 -79 209t-230 72q-146 0 -239 -68t-121 -196l-117 82q52 150 175.5 228.5t305.5 78.5q212 0 327 -103t115 -292v-477q0 -197 23 -322h-143q-11 61 -17 223q-137 -250 -432 -250q-176 0 -282.5 89.5t-106.5 240.5z M227 311q0 -99 73.5 -159t197.5 -60q110 0 201.5 47.5t148.5 145t57 227.5v96l-295 -37q-197 -28 -290 -91t-93 -169z" />
<glyph unicode="b" d="M143 0v1516h142v-625q63 142 184.5 222.5t271.5 80.5q105 0 197 -42t161.5 -118.5t109.5 -192.5t40 -257q0 -273 -146 -442t-374 -169q-149 0 -267.5 77.5t-176.5 215.5v-266h-142zM287 584q0 -216 117.5 -351t293.5 -135q177 0 291.5 134.5t114.5 351.5 q0 218 -114.5 351.5t-291.5 133.5q-178 0 -294.5 -133.5t-116.5 -351.5z" />
<glyph unicode="c" horiz-adv-x="1234" d="M84 584q0 274 157.5 442t405.5 168q188 0 323.5 -100.5t182.5 -274.5l-133 -55q-29 142 -128.5 223.5t-242.5 81.5q-185 0 -302.5 -132.5t-117.5 -352.5t117.5 -353t304.5 -133q142 0 241 81.5t128 223.5l131 -55q-50 -177 -182.5 -276t-319.5 -99q-248 0 -406.5 168.5 t-158.5 442.5z" />
<glyph unicode="d" d="M84 582q0 141 40.5 258t111 193.5t163.5 118.5t199 42q149 0 268.5 -80.5t180.5 -222.5v625h141v-1516h-141v266q-60 -138 -177.5 -215.5t-265.5 -77.5q-229 0 -374.5 168.5t-145.5 440.5zM229 584q0 -218 113.5 -352t292.5 -134q178 0 295 134.5t117 351.5t-118 351 t-296 134q-177 0 -290.5 -133t-113.5 -352z" />
<glyph unicode="e" horiz-adv-x="1261" d="M84 584q0 277 155.5 443.5t407.5 166.5q253 0 395 -170q134 -161 134 -430v-31h-943v-14q0 -202 115 -325q119 -128 303 -128q142 0 242 79t131 216l127 -55q-51 -169 -184.5 -266t-317.5 -97q-123 0 -227.5 44t-179 123t-116.5 193.5t-42 250.5zM238 678h790 q-12 182 -114 287.5t-267 105.5q-170 0 -283 -107t-126 -286z" />
<glyph unicode="f" horiz-adv-x="753" d="M57 1047v120h189q1 170 84.5 262.5t226.5 92.5q105 0 176 -54l-31 -102q-53 47 -129 47q-91 0 -142 -64q-48 -60 -48 -169v-13h274v-120h-272v-1047h-141v1047h-187z" />
<glyph unicode="g" horiz-adv-x="1320" d="M84 590q0 139 41.5 254.5t113.5 191t168.5 117t206.5 41.5q142 0 255.5 -68t177.5 -194v235h141v-1067q0 -296 -145.5 -453t-413.5 -157q-203 0 -337.5 85.5t-189.5 252.5l121 82q28 -140 132.5 -217.5t269.5 -77.5q199 0 310.5 120.5t111.5 338.5v202 q-55 -137 -171.5 -213.5t-265.5 -76.5q-231 0 -378.5 167.5t-147.5 436.5zM229 594q0 -218 115 -350.5t295 -132.5t294 132.5t114 350.5q0 217 -112.5 346t-295.5 129q-182 0 -296 -130t-114 -345z" />
<glyph unicode="h" horiz-adv-x="1282" d="M145 0v1516h142v-601q67 132 183.5 205.5t266.5 73.5q192 0 302 -119t110 -325v-750h-141v723q0 163 -83.5 254.5t-226.5 91.5q-182 0 -296.5 -142t-114.5 -368v-559h-142z" />
<glyph unicode="i" horiz-adv-x="430" d="M145 0v1167h142v-1167h-142zM145 1284v277h142v-277h-142z" />
<glyph unicode="j" horiz-adv-x="421" d="M-51 -379q101 12 145.5 68t44.5 166v1312h142v-1317q0 -154 -77 -244t-218 -114zM139 1284v277h142v-277h-142z" />
<glyph unicode="k" horiz-adv-x="1138" d="M145 0v1516h142v-969l606 620h168l-410 -426l471 -741h-174l-395 637l-266 -277v-360h-142z" />
<glyph unicode="l" horiz-adv-x="430" d="M145 0v1516h142v-1516h-142z" />
<glyph unicode="m" horiz-adv-x="2004" d="M145 0v1167h142v-247q60 131 163.5 202.5t233.5 71.5q137 0 236 -74t137 -207q62 132 174.5 206.5t251.5 74.5q178 0 280.5 -112t102.5 -318v-764h-142v731q0 166 -73.5 252t-212.5 86q-168 0 -265.5 -134.5t-97.5 -354.5v-580h-141v729q0 162 -76.5 251t-208.5 89 q-152 0 -250 -122t-112 -326v-621h-142z" />
<glyph unicode="n" horiz-adv-x="1282" d="M145 0v1167h142v-249q69 131 187.5 203.5t266.5 72.5q190 0 299 -119t109 -325v-750h-141v723q0 162 -81 254t-222 92q-182 0 -300 -142.5t-118 -367.5v-559h-142z" />
<glyph unicode="o" horiz-adv-x="1284" d="M84 584q0 277 153.5 443.5t405.5 166.5q251 0 404 -166.5t153 -443.5q0 -276 -153 -443.5t-404 -167.5t-405 167.5t-154 443.5zM229 584q0 -219 114.5 -352.5t299.5 -133.5q184 0 299 133.5t115 352.5q0 220 -115 352.5t-299 132.5q-186 0 -300 -132.5t-114 -352.5z" />
<glyph unicode="p" d="M145 -475v1642h142v-272q63 140 183.5 219.5t268.5 79.5q107 0 200.5 -43.5t162 -121.5t108 -193t39.5 -252q0 -181 -68.5 -321.5t-185.5 -215t-262 -74.5q-148 0 -268 77t-178 214v-739h-142zM287 584q0 -217 117 -351.5t294 -134.5t291.5 134.5t114.5 351.5 q0 218 -114.5 351.5t-291.5 133.5q-178 0 -294.5 -133.5t-116.5 -351.5z" />
<glyph unicode="q" d="M82 584q0 137 39.5 252t108 193t162 121.5t200.5 43.5q148 0 268.5 -79.5t183.5 -219.5v272h142v-1642h-142v739q-58 -137 -178 -214t-268 -77q-145 0 -262 74.5t-185.5 215t-68.5 321.5zM227 584q0 -217 114.5 -351.5t291.5 -134.5t294 134.5t117 351.5 q0 218 -116.5 351.5t-294.5 133.5q-177 0 -291.5 -133.5t-114.5 -351.5z" />
<glyph unicode="r" horiz-adv-x="901" d="M145 0v1167h142v-252q57 130 153 204.5t215 74.5q71 0 130.5 -26.5t95.5 -71.5l-66 -121q-67 86 -180 86q-150 0 -249 -142t-99 -382v-537h-142z" />
<glyph unicode="s" horiz-adv-x="1075" d="M63 332l127 57q21 -140 124 -218.5t251 -78.5q131 0 215 61t84 156q0 43 -21 78t-42.5 55.5t-78.5 43t-83.5 30t-102.5 26.5q-23 6 -34 9q-68 18 -114 32.5t-101 42t-88 60t-55.5 82.5t-22.5 113q0 139 115.5 224t300.5 85q171 0 295.5 -78t162.5 -217l-133 -57 q-18 109 -109 171t-218 62q-116 0 -194.5 -51.5t-78.5 -130.5q0 -39 20 -71t42.5 -51.5t76.5 -40t83.5 -29t100.5 -26.5q13 -3 19 -5q50 -13 85 -23t80.5 -27.5t76.5 -35t64 -44t53 -56.5t32.5 -71.5t12.5 -89.5q0 -155 -123.5 -250.5t-319.5 -95.5q-198 0 -329.5 91.5 t-172.5 267.5z" />
<glyph unicode="t" horiz-adv-x="761" d="M47 1047v120h205v219l141 111v-330h262v-120h-262v-756q0 -96 36.5 -145.5t105.5 -49.5q87 0 135 68l28 -121q-57 -70 -182 -70q-128 0 -196 82t-68 236v756h-205z" />
<glyph unicode="u" horiz-adv-x="1296" d="M135 399v768h141v-727q0 -164 81.5 -253t222.5 -89q128 0 227 73t152 199.5t53 284.5v512h139v-1167h-139v281q-70 -144 -192 -226t-275 -82q-184 0 -297 115.5t-113 310.5z" />
<glyph unicode="v" horiz-adv-x="1159" d="M16 1167h156l141 -350q37 -89 86 -211.5t103.5 -261t75.5 -190.5h4q32 77 126.5 316t139.5 347l143 350h152l-490 -1167h-151z" />
<glyph unicode="w" horiz-adv-x="1628" d="M16 1167h150l104 -350q72 -236 191 -657h4q23 83 85.5 313.5t94.5 343.5l100 350h144l100 -350q24 -83 57 -199.5t72 -256.5t56 -201h4q130 462 190 657l102 350h144l-359 -1167h-159l-90 317q-107 364 -189 668h-4q-1 -5 -72.5 -263.5t-113.5 -404.5l-90 -317h-158z" />
<glyph unicode="x" horiz-adv-x="1144" d="M16 0l471 600l-444 567h168l362 -460l359 460h164l-443 -563l475 -604h-170l-389 498l-389 -498h-164z" />
<glyph unicode="y" horiz-adv-x="1206" d="M27 1167h161l154 -350q62 -143 167.5 -391t113.5 -266h4q34 82 124 309t140 348l143 350h156l-586 -1388q-67 -157 -138.5 -223t-180.5 -66q-157 0 -250 121l71 113q70 -109 177 -109q61 0 103 41t81 133l88 211z" />
<glyph unicode="z" horiz-adv-x="1112" d="M72 0v109l762 938h-734v120h916v-108l-760 -938h782v-121h-960l4 4z" />
<glyph unicode="{" horiz-adv-x="710" d="M205 498v135q99 0 131.5 28.5t32.5 112.5v629q0 219 209 219h112v-131h-100q-80 0 -80 -80v-661q0 -80 -34.5 -124t-115.5 -59q82 -17 116 -59.5t34 -122.5v-678q0 -80 80 -80h100v-131h-112q-104 0 -156.5 56.5t-52.5 162.5v643q0 83 -32.5 111.5t-131.5 28.5z" />
<glyph unicode="|" horiz-adv-x="346" d="M102 -188v1855h142v-1855h-142z" />
<glyph unicode="}" horiz-adv-x="710" d="M20 -373h101q80 0 80 80v678q0 80 33.5 122.5t115.5 59.5q-81 15 -115 59t-34 124v661q0 80 -80 80h-101v131h113q209 0 209 -219v-629q0 -84 32.5 -112.5t131.5 -28.5v-135q-99 0 -131.5 -28.5t-32.5 -111.5v-643q0 -106 -52.5 -162.5t-156.5 -56.5h-113v131z" />
<glyph unicode="~" horiz-adv-x="1130" d="M102 721q101 113 238 113q58 0 126 -22t119.5 -49t116.5 -49t117 -22q107 0 187 99l22 -127q-39 -46 -94.5 -72.5t-116.5 -26.5q-54 0 -122 22t-122 49t-120 49t-117 22q-125 0 -211 -113z" />
<glyph unicode="&#xa1;" horiz-adv-x="352" d="M102 760v244h158v-244h-158zM106 61l9 502h125l6 -502v-536h-140v536z" />
<glyph unicode="&#xa2;" horiz-adv-x="1269" d="M102 584q0 257 139.5 421t364.5 185v166h99v-166q172 -11 295 -109t167 -262l-123 -51q-29 135 -118 217t-221 92v-987q132 10 221 92t118 217l121 -51q-46 -167 -167.5 -265.5t-292.5 -107.5v-163h-99v163q-226 22 -365 186.5t-139 422.5zM236 584q0 -206 102 -338 t268 -154v983q-166 -22 -268 -153.5t-102 -337.5z" />
<glyph unicode="&#xa3;" horiz-adv-x="1386" d="M102 682v113h226q-33 59 -52 98t-36 98.5t-17 116.5q0 183 135 295.5t344 112.5q195 0 327 -102t167 -288l-127 -59q-27 159 -123 242.5t-244 83.5q-150 0 -242.5 -80t-92.5 -205q0 -40 8.5 -78t30 -85.5t33 -69.5t44.5 -80h559v-113h-501q45 -98 45 -188 q0 -165 -148 -301q70 28 142 28q58 0 117 -18t100 -39.5t93 -39.5t97 -18q76 0 126 46.5t67 138.5l104 -101q-87 -215 -291 -215q-60 0 -122.5 19t-108 42.5t-109.5 42.5t-127 19q-139 0 -325 -123l-58 109q153 92 225 186t72 209q0 92 -51 203h-287z" />
<glyph unicode="&#xa4;" horiz-adv-x="1202" d="M102 344l138 137q-84 117 -84 269q0 151 84 268l-138 137l99 98l139 -139q113 80 260 80q149 0 262 -80l142 139l96 -98l-139 -139q83 -116 83 -266q0 -151 -83 -267l139 -139l-96 -98l-142 139q-113 -80 -262 -80q-147 0 -260 80l-139 -139zM287 750q0 -136 89.5 -228 t223.5 -92q135 0 225 91.5t90 228.5t-90 228t-225 91q-134 0 -223.5 -91.5t-89.5 -227.5z" />
<glyph unicode="&#xa5;" horiz-adv-x="1394" d="M27 1479h155l514 -832l516 832h156l-455 -731h353v-99h-414l-88 -141v-41h502v-98h-502v-369h-133v369h-506v98h506v41l-88 141h-418v99h356z" />
<glyph unicode="&#xa6;" horiz-adv-x="346" d="M102 -188v809h142v-809h-142zM102 858v809h142v-809h-142z" />
<glyph unicode="&#xa7;" horiz-adv-x="1271" d="M109 698q0 81 49 145.5t135 98.5q-152 90 -152 242t132.5 243t349.5 91q193 0 333 -83.5t183 -220.5l-127 -63q-23 113 -129 179.5t-262 66.5q-154 0 -245 -56t-91 -147q0 -63 49 -108.5t126.5 -72t172 -50t189 -51.5t172 -66t126.5 -105t49 -157q0 -70 -37.5 -134.5 t-107.5 -113.5q111 -87 111 -223q0 -164 -134 -262.5t-360 -98.5q-214 0 -358.5 99t-167.5 262l137 57q9 -135 117.5 -217t277.5 -82q154 0 248 63t94 166q0 59 -38 104t-99.5 72.5t-140.5 52.5t-162 44t-162 47.5t-140.5 62t-99.5 89t-38 126.5zM254 719q0 -54 42.5 -94 t117.5 -67t155.5 -48t180.5 -50.5t168 -60.5q49 34 76.5 78t27.5 90q0 43 -19 78t-55 60.5t-78.5 45t-101 36.5t-110.5 30.5t-117.5 31.5t-112.5 34q-80 -19 -127 -63t-47 -101z" />
<glyph unicode="&#xa9;" horiz-adv-x="1744" d="M102 745q0 224 100 400.5t276 273.5t396 97q218 0 393 -98t275 -274.5t100 -398.5q0 -223 -99 -399.5t-274 -274.5t-395 -98t-396 98t-276 274.5t-100 399.5zM180 745q0 -202 89.5 -362.5t248 -250t356.5 -89.5q197 0 355 89.5t247 250t89 362.5q0 151 -52 282 t-143.5 222.5t-219.5 144t-276 52.5q-199 0 -357.5 -89.5t-247.5 -250t-89 -361.5zM432 741q0 204 128.5 334.5t324.5 130.5q143 0 252 -75t149 -201l-100 -56q-24 109 -108 169.5t-195 60.5q-145 0 -240.5 -99.5t-95.5 -263.5t95 -263t241 -99q112 0 195.5 60.5 t107.5 168.5l100 -55q-41 -124 -151.5 -199t-253.5 -75q-194 0 -321.5 129t-127.5 333z" />
<glyph unicode="&#xaa;" horiz-adv-x="813" d="M84 987q0 91 70.5 145.5t218.5 77.5l190 25v35q0 155 -172 155q-81 0 -134.5 -38t-70.5 -107l-82 57q72 179 293 179q129 0 199 -61.5t70 -174.5v-295q0 -121 14 -178h-107q-4 18 -12 143q-73 -159 -254 -159q-101 0 -162 54t-61 142zM188 995q0 -53 39.5 -83.5 t106.5 -30.5q100 0 164.5 63.5t64.5 163.5v51l-160 -20q-215 -29 -215 -144z" />
<glyph unicode="&#xab;" horiz-adv-x="1091" d="M102 584l336 366h160l-340 -366l340 -367h-162zM492 584l335 366h160l-340 -366l340 -367h-162z" />
<glyph unicode="&#xac;" horiz-adv-x="1159" d="M102 815v127h955v-547h-127v420h-828z" />
<glyph unicode="&#xad;" horiz-adv-x="841" d="M102 524v125h637v-125h-637z" />
<glyph unicode="&#xae;" horiz-adv-x="1116" d="M102 1057q0 199 130 329t327 130q196 0 325.5 -130.5t129.5 -328.5t-128.5 -327.5t-326.5 -129.5t-327.5 129.5t-129.5 327.5zM174 1057q0 -170 109 -281.5t276 -111.5q166 0 274.5 111.5t108.5 281.5q0 172 -108 283.5t-275 111.5t-276 -111.5t-109 -283.5zM381 813v498 h184q105 0 152 -41q45 -39 45 -107q0 -98 -94 -133l100 -217h-86l-86 201h-139v-201h-76zM457 1077h108q64 0 94 23q25 19 25 59q0 39 -25 58q-25 22 -94 22h-108v-162z" />
<glyph unicode="&#xb0;" horiz-adv-x="813" d="M102 1212q0 131 86 217.5t218 86.5q133 0 219 -86.5t86 -217.5q0 -130 -86 -215.5t-219 -85.5q-132 0 -218 86t-86 215zM213 1212q0 -86 54 -141t139 -55q86 0 140 55t54 141q0 88 -54 143.5t-140 55.5q-85 0 -139 -55.5t-54 -143.5z" />
<glyph unicode="&#xb1;" horiz-adv-x="1159" d="M102 217v127h955v-127h-955zM102 784v127h414v310h129v-310h412v-127h-412v-305h-129v305h-414z" />
<glyph unicode="&#xb6;" horiz-adv-x="1196" d="M61 1087q0 169 111.5 280.5t280.5 111.5h641v-109h-127v-1601h-113v1601h-231v-1601h-113v923h-57q-169 0 -280.5 112t-111.5 283z" />
<glyph unicode="&#xb7;" horiz-adv-x="374" d="M102 606v264h170v-264h-170z" />
<glyph unicode="&#xba;" horiz-adv-x="839" d="M84 1153q0 164 92.5 263.5t243.5 99.5q152 0 244 -99.5t92 -263.5q0 -163 -92 -262.5t-244 -99.5q-151 0 -243.5 99.5t-92.5 262.5zM193 1153q0 -121 62.5 -193.5t164.5 -72.5t164.5 72.5t62.5 193.5q0 122 -62.5 195t-164.5 73t-164.5 -73t-62.5 -195z" />
<glyph unicode="&#xbb;" horiz-adv-x="1091" d="M104 217l340 367l-340 366h160l336 -366l-334 -367h-162zM494 217l340 367l-340 366h159l336 -366l-334 -367h-161z" />
<glyph unicode="&#xbc;" horiz-adv-x="1517" d="M72 1186v104q70 21 125 70.5t79 118.5h91v-877h-111v717q-66 -94 -184 -133zM315 0l684 1479h121l-676 -1479h-129zM745 207v74l478 593h106v-577h137v-90h-137v-207h-106v207h-478zM872 297h351v434z" />
<glyph unicode="&#xbd;" horiz-adv-x="1634" d="M72 1186v104q70 21 125 70.5t79 118.5h91v-877h-111v717q-66 -94 -184 -133zM313 0l684 1479h121l-676 -1479h-129zM924 0v18q0 94 48 168t152 138l166 96q88 53 126 102t38 107q0 78 -55.5 123t-141.5 45q-95 0 -155 -56.5t-64 -154.5l-106 51q19 118 110.5 189 t223.5 71q133 0 217 -71t84 -187q0 -169 -203 -285l-168 -96q-116 -68 -131 -158h516v-100h-657z" />
<glyph unicode="&#xbe;" horiz-adv-x="1722" d="M51 879l111 43q-3 -100 60 -163t167 -63q94 0 152.5 47.5t58.5 122.5q0 78 -59 121t-162 43h-39v94h39q92 0 147.5 40t55.5 106q0 65 -52 103t-137 38q-90 0 -148 -50t-59 -134l-110 41q11 108 100.5 175.5t222.5 67.5q130 0 213.5 -63t83.5 -162q0 -75 -51.5 -131 t-142.5 -74q100 -17 157.5 -78.5t57.5 -148.5q0 -110 -93 -183t-233 -73q-147 0 -239.5 79.5t-100.5 201.5zM520 0l684 1479h121l-676 -1479h-129zM950 207v74l477 593h107v-577h137v-90h-137v-207h-107v207h-477zM1077 297h350v434z" />
<glyph unicode="&#xbf;" horiz-adv-x="1171" d="M102 -113q0 56 15 108t35 88t57 77.5t62.5 64t70.5 60.5q40 34 58 50t48.5 48t44.5 56t25.5 57.5t11.5 68.5h142q-2 -50 -17 -97t-34 -80.5t-53.5 -72t-59.5 -61t-66 -57.5q-39 -33 -60.5 -52.5t-52 -52t-46 -60t-27.5 -64.5t-12 -77q0 -118 87.5 -196t231.5 -78 q170 0 273.5 110t97.5 304l135 -68q-4 -212 -145 -342.5t-361 -130.5q-203 0 -332 113t-129 284zM518 750v256h164v-256h-164z" />
<glyph unicode="&#xc0;" horiz-adv-x="1415" d="M16 0l609 1479h170l604 -1479h-166l-168 414h-717l-168 -414h-164zM399 539h617l-109 266q-92 240 -196 506h-4q-2 -5 -89 -225t-110 -281zM440 1917h176l187 -320h-144z" />
<glyph unicode="&#xc1;" horiz-adv-x="1415" d="M16 0l609 1479h170l604 -1479h-166l-168 414h-717l-168 -414h-164zM399 539h617l-109 266q-92 240 -196 506h-4q-2 -5 -89 -225t-110 -281zM608 1599l185 320h176l-217 -320h-144z" />
<glyph unicode="&#xc2;" horiz-adv-x="1415" d="M16 0l609 1479h170l604 -1479h-166l-168 414h-717l-168 -414h-164zM324 1597l309 320h151l310 -320h-158l-227 220l-226 -220h-159zM399 539h617l-109 266q-92 240 -196 506h-4q-2 -5 -89 -225t-110 -281z" />
<glyph unicode="&#xc3;" horiz-adv-x="1415" d="M16 0l609 1479h170l604 -1479h-166l-168 414h-717l-168 -414h-164zM344 1632q-2 101 53 164.5t146 63.5q43 0 94 -17.5t89.5 -39t80.5 -39t70 -17.5q38 0 61 29.5t23 78.5h108q2 -103 -46.5 -165t-139.5 -62q-51 0 -116.5 28t-124 56.5t-93.5 28.5q-40 0 -67 -30t-27 -79 h-111zM399 539h617l-109 266q-92 240 -196 506h-4q-2 -5 -89 -225t-110 -281z" />
<glyph unicode="&#xc4;" horiz-adv-x="1415" d="M16 0l609 1479h170l604 -1479h-166l-168 414h-717l-168 -414h-164zM391 1618v283h160v-283h-160zM399 539h617l-109 266q-92 240 -196 506h-4q-2 -5 -89 -225t-110 -281zM864 1618v283h160v-283h-160z" />
<glyph unicode="&#xc5;" horiz-adv-x="1415" d="M16 0l609 1479h170l604 -1479h-166l-168 414h-717l-168 -414h-164zM399 539h617l-109 266q-92 240 -196 506h-4q-2 -5 -89 -225t-110 -281zM498 1767q0 90 60.5 148.5t150.5 58.5t150.5 -58.5t60.5 -148.5q0 -91 -60.5 -149.5t-150.5 -58.5t-150.5 58.5t-60.5 149.5z M590 1767q0 -54 33 -89.5t86 -35.5t86.5 36t33.5 89q0 52 -33.5 87.5t-86.5 35.5t-86 -35.5t-33 -87.5z" />
<glyph unicode="&#xc6;" horiz-adv-x="2084" d="M16 0l908 1479h1108v-138h-867v-534h736v-135h-736v-535h867v-137h-1018v418h-568l-253 -418h-177zM522 543h492v805z" />
<glyph unicode="&#xc7;" horiz-adv-x="1589" d="M104 743q0 170 56 315t153.5 245t233 156.5t291.5 56.5q232 0 407.5 -126t239.5 -339l-142 -78q-40 191 -180.5 297t-328.5 106q-119 0 -224 -44.5t-182 -125.5t-121.5 -200.5t-44.5 -262.5q0 -190 76.5 -334.5t206.5 -220t291 -75.5q186 0 326.5 106.5t180.5 294.5 l142 -78q-59 -203 -229 -327.5t-392 -135.5l-51 -84q8 2 27 2q78 0 128 -44.5t50 -114.5q0 -82 -58.5 -133.5t-152.5 -51.5q-128 0 -211 103l53 69q29 -44 70 -67t86 -23q50 0 81.5 28t31.5 73q0 41 -29.5 67.5t-75.5 26.5q-40 0 -80 -19l-43 56l72 114q-141 12 -262 73 t-208.5 159.5t-137.5 237t-50 298.5z" />
<glyph unicode="&#xc8;" horiz-adv-x="1239" d="M166 0v1479h1018v-138h-867v-534h736v-135h-736v-535h867v-137h-1018zM422 1917h176l186 -320h-143z" />
<glyph unicode="&#xc9;" horiz-adv-x="1239" d="M166 0v1479h1018v-138h-867v-534h736v-135h-736v-535h867v-137h-1018zM543 1599l184 320h176l-217 -320h-143z" />
<glyph unicode="&#xca;" horiz-adv-x="1239" d="M166 0v1479h1018v-138h-867v-534h736v-135h-736v-535h867v-137h-1018zM291 1597l309 320h152l309 -320h-158l-227 220l-225 -220h-160z" />
<glyph unicode="&#xcb;" horiz-adv-x="1239" d="M166 0v1479h1018v-138h-867v-534h736v-135h-736v-535h867v-137h-1018zM358 1618v283h160v-283h-160zM831 1618v283h160v-283h-160z" />
<glyph unicode="&#xcc;" horiz-adv-x="483" d="M-27 1917h177l186 -320h-143zM166 0v1479h151v-1479h-151z" />
<glyph unicode="&#xcd;" horiz-adv-x="483" d="M139 1599l185 320h176l-217 -320h-144zM166 0v1479h151v-1479h-151z" />
<glyph unicode="&#xce;" horiz-adv-x="483" d="M-145 1597l309 320h151l310 -320h-158l-225 220l-228 -220h-159zM166 0v1479h151v-1479h-151z" />
<glyph unicode="&#xcf;" horiz-adv-x="483" d="M-74 1618v283h160v-283h-160zM166 0v1479h151v-1479h-151zM399 1618v283h160v-283h-160z" />
<glyph unicode="&#xd0;" horiz-adv-x="1515" d="M0 680v121h166v678h446q370 0 572 -183q110 -98 168.5 -240t58.5 -317t-58.5 -317t-168.5 -240q-204 -182 -572 -182h-446v680h-166zM317 137h281q322 0 485 154q170 159 170 448t-170 451q-164 151 -485 151h-281v-540h478v-121h-478v-543z" />
<glyph unicode="&#xd1;" horiz-adv-x="1550" d="M166 0v1479h182l453 -637q35 -53 225.5 -316t206.5 -288h2q-2 145 -2 649v592h151v-1479h-157l-533 731q-8 11 -104 148t-175 251.5t-96 145.5h-4q2 -59 2 -668v-608h-151zM412 1632q-2 102 53 165t145 63q43 0 94 -17.5t89.5 -39t80.5 -39t70 -17.5q38 0 61 29.5 t23 78.5h109q2 -103 -47 -165t-140 -62q-51 0 -116.5 28t-124 56.5t-93.5 28.5q-40 0 -67 -30t-27 -79h-110z" />
<glyph unicode="&#xd2;" horiz-adv-x="1656" d="M104 743q0 170 55.5 315t151.5 245t229.5 156.5t286.5 56.5q154 0 288 -56.5t230 -156.5t151.5 -245t55.5 -315q0 -169 -55.5 -313.5t-151.5 -244t-230 -156t-288 -56.5q-153 0 -286.5 56.5t-229.5 156t-151.5 244t-55.5 313.5zM262 743q0 -141 44 -260t120 -199.5 t179.5 -125.5t221.5 -45t222 45t180.5 125.5t121 199.5t44.5 260q0 142 -44.5 261.5t-121 200.5t-180.5 126t-222 45t-221.5 -45t-179.5 -126t-120 -200.5t-44 -261.5zM575 1917h177l186 -320h-143z" />
<glyph unicode="&#xd3;" horiz-adv-x="1656" d="M104 743q0 170 55.5 315t151.5 245t229.5 156.5t286.5 56.5q154 0 288 -56.5t230 -156.5t151.5 -245t55.5 -315q0 -169 -55.5 -313.5t-151.5 -244t-230 -156t-288 -56.5q-153 0 -286.5 56.5t-229.5 156t-151.5 244t-55.5 313.5zM262 743q0 -141 44 -260t120 -199.5 t179.5 -125.5t221.5 -45t222 45t180.5 125.5t121 199.5t44.5 260q0 142 -44.5 261.5t-121 200.5t-180.5 126t-222 45t-221.5 -45t-179.5 -126t-120 -200.5t-44 -261.5zM719 1599l184 320h176l-217 -320h-143z" />
<glyph unicode="&#xd4;" horiz-adv-x="1656" d="M104 743q0 170 55.5 315t151.5 245t229.5 156.5t286.5 56.5q154 0 288 -56.5t230 -156.5t151.5 -245t55.5 -315q0 -169 -55.5 -313.5t-151.5 -244t-230 -156t-288 -56.5q-153 0 -286.5 56.5t-229.5 156t-151.5 244t-55.5 313.5zM262 743q0 -141 44 -260t120 -199.5 t179.5 -125.5t221.5 -45t222 45t180.5 125.5t121 199.5t44.5 260q0 142 -44.5 261.5t-121 200.5t-180.5 126t-222 45t-221.5 -45t-179.5 -126t-120 -200.5t-44 -261.5zM444 1597l310 320h151l309 -320h-157l-226 220l-227 -220h-160z" />
<glyph unicode="&#xd5;" horiz-adv-x="1656" d="M104 743q0 170 55.5 315t151.5 245t229.5 156.5t286.5 56.5q154 0 288 -56.5t230 -156.5t151.5 -245t55.5 -315q0 -169 -55.5 -313.5t-151.5 -244t-230 -156t-288 -56.5q-153 0 -286.5 56.5t-229.5 156t-151.5 244t-55.5 313.5zM262 743q0 -141 44 -260t120 -199.5 t179.5 -125.5t221.5 -45t222 45t180.5 125.5t121 199.5t44.5 260q0 142 -44.5 261.5t-121 200.5t-180.5 126t-222 45t-221.5 -45t-179.5 -126t-120 -200.5t-44 -261.5zM467 1632q-2 101 53 164.5t146 63.5q43 0 94 -17.5t89 -39t80 -39t70 -17.5q38 0 61 29.5t23 78.5h109 q2 -103 -46.5 -165t-139.5 -62q-51 0 -116.5 28t-124 56.5t-93.5 28.5q-40 0 -67 -30t-27 -79h-111z" />
<glyph unicode="&#xd6;" horiz-adv-x="1656" d="M104 743q0 170 55.5 315t151.5 245t229.5 156.5t286.5 56.5q154 0 288 -56.5t230 -156.5t151.5 -245t55.5 -315q0 -169 -55.5 -313.5t-151.5 -244t-230 -156t-288 -56.5q-153 0 -286.5 56.5t-229.5 156t-151.5 244t-55.5 313.5zM262 743q0 -141 44 -260t120 -199.5 t179.5 -125.5t221.5 -45t222 45t180.5 125.5t121 199.5t44.5 260q0 142 -44.5 261.5t-121 200.5t-180.5 126t-222 45t-221.5 -45t-179.5 -126t-120 -200.5t-44 -261.5zM512 1618v283h160v-283h-160zM985 1618v283h160v-283h-160z" />
<glyph unicode="&#xd7;" horiz-adv-x="1001" d="M102 1008l91 88l307 -310l309 310l90 -88l-309 -310l307 -309l-90 -88l-307 307l-307 -307l-89 88l308 307z" />
<glyph unicode="&#xd8;" horiz-adv-x="1656" d="M104 743q0 170 55.5 315t151.5 245t229.5 156.5t286.5 56.5q278 0 478 -175l131 142l88 -82l-138 -148q166 -209 166 -510q0 -169 -55.5 -313.5t-151.5 -244t-230 -156t-288 -56.5q-279 0 -475 174l-131 -141l-88 84l135 146q-164 211 -164 507zM262 743q0 -232 113 -395 l827 885q-155 143 -375 143q-118 0 -221.5 -45t-179.5 -126t-120 -200.5t-44 -261.5zM455 256q152 -143 372 -143q118 0 222 45t180.5 125.5t121 199.5t44.5 260q0 230 -113 398z" />
<glyph unicode="&#xd9;" horiz-adv-x="1497" d="M156 596v883h153v-891q0 -204 97 -328q111 -147 342 -147q233 0 344 147q96 119 96 328v891h153v-883q0 -305 -155 -463q-154 -160 -438 -160q-283 0 -437 160q-155 158 -155 463zM510 1917h176l186 -320h-143z" />
<glyph unicode="&#xda;" horiz-adv-x="1497" d="M156 596v883h153v-891q0 -204 97 -328q111 -147 342 -147q233 0 344 147q96 119 96 328v891h153v-883q0 -305 -155 -463q-154 -160 -438 -160q-283 0 -437 160q-155 158 -155 463zM627 1599l184 320h176l-217 -320h-143z" />
<glyph unicode="&#xdb;" horiz-adv-x="1497" d="M156 596v883h153v-891q0 -204 97 -328q111 -147 342 -147q233 0 344 147q96 119 96 328v891h153v-883q0 -305 -155 -463q-154 -160 -438 -160q-283 0 -437 160q-155 158 -155 463zM365 1597l309 320h151l310 -320h-158l-227 220l-226 -220h-159z" />
<glyph unicode="&#xdc;" horiz-adv-x="1497" d="M156 596v883h153v-891q0 -204 97 -328q111 -147 342 -147q233 0 344 147q96 119 96 328v891h153v-883q0 -305 -155 -463q-154 -160 -438 -160q-283 0 -437 160q-155 158 -155 463zM434 1618v283h160v-283h-160zM907 1618v283h160v-283h-160z" />
<glyph unicode="&#xdd;" horiz-adv-x="1384" d="M16 1479h177l503 -809l502 809h170l-604 -975v-504h-143v504zM565 1599l185 320h176l-217 -320h-144z" />
<glyph unicode="&#xde;" horiz-adv-x="1353" d="M156 0v1479h151v-295h449q232 0 371 -119t139 -324q0 -207 -137.5 -326.5t-372.5 -119.5h-449v-295h-151zM307 436h434q173 0 272 79.5t99 225.5q0 144 -95 222.5t-265 78.5h-445v-606z" />
<glyph unicode="&#xdf;" horiz-adv-x="1226" d="M135 0v1044q0 210 136.5 341t355.5 131q189 0 310.5 -93.5t121.5 -238.5q0 -54 -17 -98t-53 -79.5t-64 -55.5t-77 -50q-83 -51 -107 -76q-39 -40 -39 -90q0 -31 13 -55t40.5 -42.5t53.5 -31t67 -29.5l15 -6q37 -15 57.5 -24t54.5 -26t54 -32t44.5 -39t37.5 -48.5 t22.5 -58.5t9.5 -73q0 -135 -97 -217t-257 -82q-153 0 -254 78t-121 215l127 58q10 -107 78.5 -171.5t171.5 -64.5q91 0 151 48t60 126q0 33 -13 60.5t-29 45t-50.5 37t-56 29t-66.5 27.5q-40 17 -63.5 28t-58 30t-55 38t-41.5 45t-30.5 58.5t-9.5 70.5q0 39 12.5 74 t28.5 59t47 51.5t50.5 41t56.5 38.5q41 26 60 40t46.5 39t39 52.5t11.5 61.5q0 89 -79.5 146t-198.5 57q-158 0 -256.5 -100t-98.5 -257v-1032h-141z" />
<glyph unicode="&#xe0;" horiz-adv-x="1200" d="M84 303q0 155 118.5 249.5t368.5 129.5l334 43v63q0 137 -79 209t-230 72q-146 0 -239 -68t-121 -196l-117 82q52 150 175.5 228.5t305.5 78.5q212 0 327 -103t115 -292v-477q0 -197 23 -322h-143q-11 61 -17 223q-137 -250 -432 -250q-176 0 -282.5 89.5t-106.5 240.5z M227 311q0 -99 73.5 -159t197.5 -60q110 0 201.5 47.5t148.5 145t57 227.5v96l-295 -37q-197 -28 -290 -91t-93 -169zM375 1561h157l170 -297h-122z" />
<glyph unicode="&#xe1;" horiz-adv-x="1200" d="M84 303q0 155 118.5 249.5t368.5 129.5l334 43v63q0 137 -79 209t-230 72q-146 0 -239 -68t-121 -196l-117 82q52 150 175.5 228.5t305.5 78.5q212 0 327 -103t115 -292v-477q0 -197 23 -322h-143q-11 61 -17 223q-137 -250 -432 -250q-176 0 -282.5 89.5t-106.5 240.5z M227 311q0 -99 73.5 -159t197.5 -60q110 0 201.5 47.5t148.5 145t57 227.5v96l-295 -37q-197 -28 -290 -91t-93 -169zM502 1264l170 297h157l-200 -297h-127z" />
<glyph unicode="&#xe2;" horiz-adv-x="1200" d="M84 303q0 155 118.5 249.5t368.5 129.5l334 43v63q0 137 -79 209t-230 72q-146 0 -239 -68t-121 -196l-117 82q52 150 175.5 228.5t305.5 78.5q212 0 327 -103t115 -292v-477q0 -197 23 -322h-143q-11 61 -17 223q-137 -250 -432 -250q-176 0 -282.5 89.5t-106.5 240.5z M227 311q0 -99 73.5 -159t197.5 -60q110 0 201.5 47.5t148.5 145t57 227.5v96l-295 -37q-197 -28 -290 -91t-93 -169zM248 1264l291 297h118l291 -297h-141l-209 198l-207 -198h-143z" />
<glyph unicode="&#xe3;" horiz-adv-x="1200" d="M84 303q0 155 118.5 249.5t368.5 129.5l334 43v63q0 137 -79 209t-230 72q-146 0 -239 -68t-121 -196l-117 82q52 150 175.5 228.5t305.5 78.5q212 0 327 -103t115 -292v-477q0 -197 23 -322h-143q-11 61 -17 223q-137 -250 -432 -250q-176 0 -282.5 89.5t-106.5 240.5z M227 311q0 -99 73.5 -159t197.5 -60q110 0 201.5 47.5t148.5 145t57 227.5v96l-295 -37q-197 -28 -290 -91t-93 -169zM272 1288q-1 86 48 141.5t122 55.5q55 0 156 -47t137 -47q35 0 56.5 25t21.5 67h90q3 -86 -46 -142.5t-122 -56.5q-54 0 -155 48t-136 48t-58 -25.5 t-24 -66.5h-90z" />
<glyph unicode="&#xe4;" horiz-adv-x="1200" d="M84 303q0 155 118.5 249.5t368.5 129.5l334 43v63q0 137 -79 209t-230 72q-146 0 -239 -68t-121 -196l-117 82q52 150 175.5 228.5t305.5 78.5q212 0 327 -103t115 -292v-477q0 -197 23 -322h-143q-11 61 -17 223q-137 -250 -432 -250q-176 0 -282.5 89.5t-106.5 240.5z M227 311q0 -99 73.5 -159t197.5 -60q110 0 201.5 47.5t148.5 145t57 227.5v96l-295 -37q-197 -28 -290 -91t-93 -169zM301 1288v260h141v-260h-141zM735 1288v260h142v-260h-142z" />
<glyph unicode="&#xe5;" horiz-adv-x="1200" d="M84 303q0 155 118.5 249.5t368.5 129.5l334 43v63q0 137 -79 209t-230 72q-146 0 -239 -68t-121 -196l-117 82q52 150 175.5 228.5t305.5 78.5q212 0 327 -103t115 -292v-477q0 -197 23 -322h-143q-11 61 -17 223q-137 -250 -432 -250q-176 0 -282.5 89.5t-106.5 240.5z M227 311q0 -99 73.5 -159t197.5 -60q110 0 201.5 47.5t148.5 145t57 227.5v96l-295 -37q-197 -28 -290 -91t-93 -169zM395 1438q0 82 55.5 136t141.5 54q84 0 139 -54t55 -136t-55 -136.5t-139 -54.5q-86 0 -141.5 54.5t-55.5 136.5zM479 1438q0 -50 32 -82.5t81 -32.5 q47 0 78.5 33t31.5 82t-31.5 81.5t-78.5 32.5q-49 0 -81 -32t-32 -82z" />
<glyph unicode="&#xe6;" horiz-adv-x="1996" d="M84 309q0 310 479 371l342 43v57q0 142 -79 215.5t-230 73.5q-144 0 -237.5 -67.5t-122.5 -196.5l-117 82q50 147 174.5 227t304.5 80q151 0 255.5 -58.5t147.5 -168.5q68 109 177 168t247 59q233 0 364 -169.5t122 -461.5h-871q-5 -204 102 -335.5t281 -131.5 q130 0 220.5 79t119.5 216l125 -55q-47 -170 -170 -266.5t-293 -96.5q-156 0 -275 79.5t-183 221.5q-66 -146 -187.5 -223.5t-287.5 -77.5q-186 0 -297 91t-111 245zM225 311q0 -98 73 -158.5t196 -60.5q171 0 291 114.5t120 295.5v106l-307 -41q-194 -26 -283.5 -89.5 t-89.5 -166.5zM1044 678h723q-10 186 -103 289.5t-247 103.5q-158 0 -259.5 -107.5t-113.5 -285.5z" />
<glyph unicode="&#xe7;" horiz-adv-x="1234" d="M84 584q0 274 157.5 442t405.5 168q188 0 323.5 -100.5t182.5 -274.5l-133 -55q-29 142 -128.5 223.5t-242.5 81.5q-185 0 -302.5 -132.5t-117.5 -352.5t117.5 -353t304.5 -133q142 0 241 81.5t128 223.5l131 -55q-46 -164 -165 -262.5t-288 -110.5l-51 -86q8 2 27 2 q78 0 128 -44.5t50 -114.5q0 -82 -58.5 -133.5t-152.5 -51.5q-128 0 -211 103l53 69q29 -44 70 -67t86 -23q50 0 81.5 28t31.5 73q0 41 -29.5 67.5t-75.5 26.5q-40 0 -80 -19l-43 56l72 114q-227 19 -369.5 185t-142.5 424z" />
<glyph unicode="&#xe8;" horiz-adv-x="1261" d="M84 584q0 277 155.5 443.5t407.5 166.5q254 0 395.5 -170.5t133.5 -460.5h-943q-4 -211 115 -339t303 -128q142 0 242 79t131 216l127 -55q-51 -169 -184.5 -266t-317.5 -97q-123 0 -227.5 44t-179 123t-116.5 193.5t-42 250.5zM238 678h790q-12 182 -114 287.5 t-267 105.5q-170 0 -283 -107t-126 -286zM428 1561h158l170 -297h-123z" />
<glyph unicode="&#xe9;" horiz-adv-x="1261" d="M84 584q0 277 155.5 443.5t407.5 166.5q254 0 395.5 -170.5t133.5 -460.5h-943q-4 -211 115 -339t303 -128q142 0 242 79t131 216l127 -55q-51 -169 -184.5 -266t-317.5 -97q-123 0 -227.5 44t-179 123t-116.5 193.5t-42 250.5zM238 678h790q-12 182 -114 287.5 t-267 105.5q-170 0 -283 -107t-126 -286zM547 1264l170 297h157l-200 -297h-127z" />
<glyph unicode="&#xea;" horiz-adv-x="1261" d="M84 584q0 277 155.5 443.5t407.5 166.5q254 0 395.5 -170.5t133.5 -460.5h-943q-4 -211 115 -339t303 -128q142 0 242 79t131 216l127 -55q-51 -169 -184.5 -266t-317.5 -97q-123 0 -227.5 44t-179 123t-116.5 193.5t-42 250.5zM238 678h790q-12 182 -114 287.5 t-267 105.5q-170 0 -283 -107t-126 -286zM297 1264l291 297h119l290 -297h-141l-209 198l-207 -198h-143z" />
<glyph unicode="&#xeb;" horiz-adv-x="1261" d="M84 584q0 277 155.5 443.5t407.5 166.5q254 0 395.5 -170.5t133.5 -460.5h-943q-4 -211 115 -339t303 -128q142 0 242 79t131 216l127 -55q-51 -169 -184.5 -266t-317.5 -97q-123 0 -227.5 44t-179 123t-116.5 193.5t-42 250.5zM238 678h790q-12 182 -114 287.5 t-267 105.5q-170 0 -283 -107t-126 -286zM344 1296v260h141v-260h-141zM778 1296v260h142v-260h-142z" />
<glyph unicode="&#xec;" horiz-adv-x="430" d="M-25 1565h158l170 -297h-123zM145 0v1167h142v-1167h-142z" />
<glyph unicode="&#xed;" horiz-adv-x="430" d="M135 1264l170 297h158l-201 -297h-127zM145 0v1167h142v-1167h-142z" />
<glyph unicode="&#xee;" horiz-adv-x="430" d="M-135 1264l291 297h118l291 -297h-141l-207 198l-209 -198h-143zM145 0v1167h142v-1167h-142z" />
<glyph unicode="&#xef;" horiz-adv-x="430" d="M-72 1296v260h142v-260h-142zM145 0v1167h142v-1167h-142zM362 1296v260h142v-260h-142z" />
<glyph unicode="&#xf0;" horiz-adv-x="1288" d="M84 563q0 261 148 421.5t391 160.5q171 0 297 -94q-93 135 -254 245l-273 -118l-35 75l222 95q-122 71 -289 131h262q104 -45 154 -76l237 102l35 -73l-188 -82q196 -137 304.5 -336.5t108.5 -425.5q0 -279 -153 -447t-408 -168q-250 0 -404.5 163t-154.5 427zM229 561 q0 -209 114 -337t300 -128q185 0 299.5 128t114.5 337q0 211 -114 339t-300 128q-187 0 -300.5 -128t-113.5 -339z" />
<glyph unicode="&#xf1;" horiz-adv-x="1282" d="M145 0v1167h142v-249q69 131 187.5 203.5t266.5 72.5q190 0 299 -119t109 -325v-750h-141v723q0 162 -81 254t-222 92q-182 0 -300 -142.5t-118 -367.5v-559h-142zM330 1288q-1 86 48 141.5t122 55.5q55 0 156 -47t137 -47q35 0 56 24.5t21 67.5h91q3 -86 -46 -142.5 t-122 -56.5q-54 0 -155 48t-136 48t-58 -25.5t-24 -66.5h-90z" />
<glyph unicode="&#xf2;" horiz-adv-x="1284" d="M84 584q0 277 153.5 443.5t405.5 166.5q251 0 404 -166.5t153 -443.5q0 -276 -153 -443.5t-404 -167.5t-405 167.5t-154 443.5zM229 584q0 -219 114.5 -352.5t299.5 -133.5q184 0 299 133.5t115 352.5q0 220 -115 352.5t-299 132.5q-186 0 -300 -132.5t-114 -352.5z M426 1565h158l170 -297h-123z" />
<glyph unicode="&#xf3;" horiz-adv-x="1284" d="M84 584q0 277 153.5 443.5t405.5 166.5q251 0 404 -166.5t153 -443.5q0 -276 -153 -443.5t-404 -167.5t-405 167.5t-154 443.5zM229 584q0 -219 114.5 -352.5t299.5 -133.5q184 0 299 133.5t115 352.5q0 220 -115 352.5t-299 132.5q-186 0 -300 -132.5t-114 -352.5z M539 1264l170 297h157l-200 -297h-127z" />
<glyph unicode="&#xf4;" horiz-adv-x="1284" d="M84 584q0 277 153.5 443.5t405.5 166.5q251 0 404 -166.5t153 -443.5q0 -276 -153 -443.5t-404 -167.5t-405 167.5t-154 443.5zM229 584q0 -219 114.5 -352.5t299.5 -133.5q184 0 299 133.5t115 352.5q0 220 -115 352.5t-299 132.5q-186 0 -300 -132.5t-114 -352.5z M293 1264l291 297h118l291 -297h-141l-209 198l-207 -198h-143z" />
<glyph unicode="&#xf5;" horiz-adv-x="1284" d="M84 584q0 277 153.5 443.5t405.5 166.5q251 0 404 -166.5t153 -443.5q0 -276 -153 -443.5t-404 -167.5t-405 167.5t-154 443.5zM229 584q0 -219 114.5 -352.5t299.5 -133.5q184 0 299 133.5t115 352.5q0 220 -115 352.5t-299 132.5q-186 0 -300 -132.5t-114 -352.5z M328 1288q-1 86 48 141.5t122 55.5q55 0 156 -47t137 -47q35 0 56 24.5t21 67.5h90q3 -87 -45.5 -143t-121.5 -56q-54 0 -155 48t-136 48t-58 -25.5t-24 -66.5h-90z" />
<glyph unicode="&#xf6;" horiz-adv-x="1284" d="M84 584q0 277 153.5 443.5t405.5 166.5q251 0 404 -166.5t153 -443.5q0 -276 -153 -443.5t-404 -167.5t-405 167.5t-154 443.5zM229 584q0 -219 114.5 -352.5t299.5 -133.5q184 0 299 133.5t115 352.5q0 220 -115 352.5t-299 132.5q-186 0 -300 -132.5t-114 -352.5z M354 1296v260h142v-260h-142zM788 1296v260h142v-260h-142z" />
<glyph unicode="&#xf7;" horiz-adv-x="1159" d="M102 639v127h955v-127h-955zM502 225v254h162v-254h-162zM502 926v254h162v-254h-162z" />
<glyph unicode="&#xf8;" horiz-adv-x="1284" d="M74 61l123 129q-113 160 -113 394q0 277 153.5 443.5t405.5 166.5q229 0 377 -139l117 123l73 -70l-123 -129q113 -160 113 -395q0 -276 -153 -443.5t-404 -167.5q-226 0 -379 140l-117 -123zM229 584q0 -166 70 -287l625 657q-112 115 -281 115q-186 0 -300 -132.5 t-114 -352.5zM360 213q112 -115 283 -115q184 0 299 133.5t115 352.5q0 167 -70 288z" />
<glyph unicode="&#xf9;" horiz-adv-x="1296" d="M135 399v768h141v-727q0 -164 81.5 -253t222.5 -89q128 0 227 73t152 199.5t53 284.5v512h139v-1167h-139v281q-70 -144 -192 -226t-275 -82q-184 0 -297 115.5t-113 310.5zM428 1561h158l170 -297h-123z" />
<glyph unicode="&#xfa;" horiz-adv-x="1296" d="M135 399v768h141v-727q0 -164 81.5 -253t222.5 -89q128 0 227 73t152 199.5t53 284.5v512h139v-1167h-139v281q-70 -144 -192 -226t-275 -82q-184 0 -297 115.5t-113 310.5zM535 1264l170 297h157l-200 -297h-127z" />
<glyph unicode="&#xfb;" horiz-adv-x="1296" d="M135 399v768h141v-727q0 -164 81.5 -253t222.5 -89q128 0 227 73t152 199.5t53 284.5v512h139v-1167h-139v281q-70 -144 -192 -226t-275 -82q-184 0 -297 115.5t-113 310.5zM301 1264l291 297h119l290 -297h-141l-209 198l-207 -198h-143z" />
<glyph unicode="&#xfc;" horiz-adv-x="1296" d="M135 399v768h141v-727q0 -164 81.5 -253t222.5 -89q128 0 227 73t152 199.5t53 284.5v512h139v-1167h-139v281q-70 -144 -192 -226t-275 -82q-184 0 -297 115.5t-113 310.5zM356 1296v260h142v-260h-142zM791 1296v260h141v-260h-141z" />
<glyph unicode="&#xfd;" horiz-adv-x="1206" d="M27 1167h161l154 -350q62 -143 167.5 -391t113.5 -266h4q34 82 124 309t140 348l143 350h156l-586 -1388q-67 -157 -138.5 -223t-180.5 -66q-157 0 -250 121l71 113q70 -109 177 -109q61 0 103 41t81 133l88 211zM492 1268l170 297h157l-201 -297h-126z" />
<glyph unicode="&#xfe;" horiz-adv-x="1341" d="M145 -475v1954h142v-572q65 135 183.5 211t266.5 76q105 0 197.5 -40.5t163 -115.5t111 -191t40.5 -259t-41.5 -261t-113 -194.5t-165.5 -118t-200 -41.5q-147 0 -265.5 76.5t-176.5 212.5v-737h-142zM287 584q0 -217 117 -351.5t294 -134.5t291.5 134.5t114.5 351.5 q0 218 -114.5 351.5t-291.5 133.5q-178 0 -294.5 -133.5t-116.5 -351.5z" />
<glyph unicode="&#xff;" horiz-adv-x="1206" d="M27 1167h161l154 -350q62 -143 167.5 -391t113.5 -266h4q34 82 124 309t140 348l143 350h156l-586 -1388q-67 -157 -138.5 -223t-180.5 -66q-157 0 -250 121l71 113q70 -109 177 -109q61 0 103 41t81 133l88 211zM315 1296v260h142v-260h-142zM750 1296v260h141v-260 h-141z" />
<glyph unicode="&#x100;" horiz-adv-x="1415" d="M16 0l609 1479h170l604 -1479h-166l-168 414h-717l-168 -414h-164zM303 1673v123h809v-123h-809zM399 539h617l-109 266q-92 240 -196 506h-4q-2 -5 -89 -225t-110 -281z" />
<glyph unicode="&#x101;" horiz-adv-x="1200" d="M84 303q0 155 118.5 249.5t368.5 129.5l334 43v63q0 137 -79 209t-230 72q-146 0 -239 -68t-121 -196l-117 82q52 150 175.5 228.5t305.5 78.5q212 0 327 -103t115 -292v-477q0 -197 23 -322h-143q-11 61 -17 223q-137 -250 -432 -250q-176 0 -282.5 89.5t-106.5 240.5z M227 311q0 -99 73.5 -159t197.5 -60q110 0 201.5 47.5t148.5 145t57 227.5v96l-295 -37q-197 -28 -290 -91t-93 -169zM246 1321v106h686v-106h-686z" />
<glyph unicode="&#x102;" horiz-adv-x="1415" d="M16 0l609 1479h170l604 -1479h-166l-168 414h-717l-168 -414h-164zM371 1917h112q12 -106 70.5 -161.5t153.5 -55.5q92 0 152.5 56t70.5 161h112q-8 -150 -96.5 -240t-238.5 -90q-149 0 -238.5 90t-97.5 240zM399 539h617l-109 266q-92 240 -196 506h-4q-2 -5 -89 -225 t-110 -281z" />
<glyph unicode="&#x103;" horiz-adv-x="1200" d="M84 303q0 155 118.5 249.5t368.5 129.5l334 43v63q0 137 -79 209t-230 72q-146 0 -239 -68t-121 -196l-117 82q52 150 175.5 228.5t305.5 78.5q212 0 327 -103t115 -292v-477q0 -197 23 -322h-143q-11 61 -17 223q-137 -250 -432 -250q-176 0 -282.5 89.5t-106.5 240.5z M227 311q0 -99 73.5 -159t197.5 -60q110 0 201.5 47.5t148.5 145t57 227.5v96l-295 -37q-197 -28 -290 -91t-93 -169zM281 1561h106q9 -93 64.5 -146t144.5 -53t145.5 53.5t63.5 145.5h106q-6 -135 -89.5 -219.5t-225.5 -84.5q-143 0 -226.5 85t-88.5 219z" />
<glyph unicode="&#x104;" horiz-adv-x="1415" d="M16 0l609 1479h170l604 -1479q-97 -67 -142 -118t-45 -115q0 -63 43 -101.5t113 -38.5q21 0 31 2v-96q-40 -4 -64 -4q-107 0 -174 58.5t-67 152.5q0 146 190 260h-51l-168 414h-717l-168 -414h-164zM399 539h617l-109 266q-92 240 -196 506h-4q-2 -5 -89 -225t-110 -281z " />
<glyph unicode="&#x105;" horiz-adv-x="1200" d="M84 303q0 155 118.5 249.5t368.5 129.5l334 43v63q0 137 -79 209t-230 72q-146 0 -239 -68t-121 -196l-117 82q52 150 175.5 228.5t305.5 78.5q212 0 327 -103t115 -292v-477q0 -197 23 -322q-96 -66 -141 -117.5t-45 -115.5q0 -63 42.5 -101.5t112.5 -38.5q21 0 31 2 v-96q-40 -4 -64 -4q-107 0 -174 58.5t-67 152.5q0 146 190 260h-28q-11 61 -17 223q-137 -250 -432 -250q-176 0 -282.5 89.5t-106.5 240.5zM227 311q0 -99 73.5 -159t197.5 -60q110 0 201.5 47.5t148.5 145t57 227.5v96l-295 -37q-197 -28 -290 -91t-93 -169z" />
<glyph unicode="&#x106;" horiz-adv-x="1589" d="M104 743q0 170 56 315t153.5 245t233 156.5t291.5 56.5q232 0 407.5 -126t239.5 -339l-142 -78q-40 191 -180.5 297t-328.5 106q-119 0 -224 -44.5t-182 -125.5t-121.5 -200.5t-44.5 -262.5q0 -190 76.5 -334.5t206.5 -220t291 -75.5q186 0 326.5 106.5t180.5 294.5 l142 -78q-62 -212 -242 -337.5t-414 -125.5q-153 0 -287 56t-230.5 155.5t-152 244t-55.5 314.5zM719 1599l184 320h176l-217 -320h-143z" />
<glyph unicode="&#x107;" horiz-adv-x="1234" d="M84 584q0 274 157.5 442t405.5 168q188 0 323.5 -100.5t182.5 -274.5l-133 -55q-29 142 -128.5 223.5t-242.5 81.5q-185 0 -302.5 -132.5t-117.5 -352.5t117.5 -353t304.5 -133q142 0 241 81.5t128 223.5l131 -55q-50 -177 -182.5 -276t-319.5 -99q-248 0 -406.5 168.5 t-158.5 442.5zM549 1264l170 297h158l-201 -297h-127z" />
<glyph unicode="&#x108;" horiz-adv-x="1589" d="M104 743q0 170 56 315t153.5 245t233 156.5t291.5 56.5q232 0 407.5 -126t239.5 -339l-142 -78q-40 191 -180.5 297t-328.5 106q-119 0 -224 -44.5t-182 -125.5t-121.5 -200.5t-44.5 -262.5q0 -190 76.5 -334.5t206.5 -220t291 -75.5q186 0 326.5 106.5t180.5 294.5 l142 -78q-62 -212 -242 -337.5t-414 -125.5q-153 0 -287 56t-230.5 155.5t-152 244t-55.5 314.5zM449 1597l309 320h151l310 -320h-158l-225 220l-228 -220h-159z" />
<glyph unicode="&#x109;" horiz-adv-x="1234" d="M84 584q0 274 157.5 442t405.5 168q188 0 323.5 -100.5t182.5 -274.5l-133 -55q-29 142 -128.5 223.5t-242.5 81.5q-185 0 -302.5 -132.5t-117.5 -352.5t117.5 -353t304.5 -133q142 0 241 81.5t128 223.5l131 -55q-50 -177 -182.5 -276t-319.5 -99q-248 0 -406.5 168.5 t-158.5 442.5zM309 1264l291 297h119l291 -297h-142l-209 198l-206 -198h-144z" />
<glyph unicode="&#x10a;" horiz-adv-x="1589" d="M104 743q0 170 56 315t153.5 245t233 156.5t291.5 56.5q232 0 407.5 -126t239.5 -339l-142 -78q-40 191 -180.5 297t-328.5 106q-119 0 -224 -44.5t-182 -125.5t-121.5 -200.5t-44.5 -262.5q0 -190 76.5 -334.5t206.5 -220t291 -75.5q186 0 326.5 106.5t180.5 294.5 l142 -78q-62 -212 -242 -337.5t-414 -125.5q-153 0 -287 56t-230.5 155.5t-152 244t-55.5 314.5zM750 1618v287h151v-287h-151z" />
<glyph unicode="&#x10b;" horiz-adv-x="1234" d="M84 584q0 274 157.5 442t405.5 168q188 0 323.5 -100.5t182.5 -274.5l-133 -55q-29 142 -128.5 223.5t-242.5 81.5q-185 0 -302.5 -132.5t-117.5 -352.5t117.5 -353t304.5 -133q142 0 241 81.5t128 223.5l131 -55q-50 -177 -182.5 -276t-319.5 -99q-248 0 -406.5 168.5 t-158.5 442.5zM569 1280v276h142v-276h-142z" />
<glyph unicode="&#x10c;" horiz-adv-x="1589" d="M104 743q0 170 56 315t153.5 245t233 156.5t291.5 56.5q232 0 407.5 -126t239.5 -339l-142 -78q-40 191 -180.5 297t-328.5 106q-119 0 -224 -44.5t-182 -125.5t-121.5 -200.5t-44.5 -262.5q0 -190 76.5 -334.5t206.5 -220t291 -75.5q186 0 326.5 106.5t180.5 294.5 l142 -78q-62 -212 -242 -337.5t-414 -125.5q-153 0 -287 56t-230.5 155.5t-152 244t-55.5 314.5zM444 1917h164l223 -215l222 215h161l-315 -320h-137z" />
<glyph unicode="&#x10d;" horiz-adv-x="1234" d="M84 584q0 274 157.5 442t405.5 168q188 0 323.5 -100.5t182.5 -274.5l-133 -55q-29 142 -128.5 223.5t-242.5 81.5q-185 0 -302.5 -132.5t-117.5 -352.5t117.5 -353t304.5 -133q142 0 241 81.5t128 223.5l131 -55q-50 -177 -182.5 -276t-319.5 -99q-248 0 -406.5 168.5 t-158.5 442.5zM307 1561h150l202 -197l205 197h148l-299 -297h-107z" />
<glyph unicode="&#x10e;" horiz-adv-x="1515" d="M166 0v1479h446q370 0 572 -183q110 -98 168.5 -240t58.5 -317t-58.5 -317t-168.5 -240q-204 -182 -572 -182h-446zM301 1917h164l223 -215l221 215h162l-315 -320h-138zM317 137h281q322 0 485 154q170 159 170 448t-170 451q-164 151 -485 151h-281v-1204z" />
<glyph unicode="&#x10f;" horiz-adv-x="1525" d="M84 582q0 141 40.5 258t111 193.5t163.5 118.5t199 42q149 0 268.5 -80.5t180.5 -222.5v625h141v-1516h-141v266q-60 -138 -177.5 -215.5t-265.5 -77.5q-229 0 -374.5 168.5t-145.5 440.5zM229 584q0 -218 113.5 -352t292.5 -134q178 0 295 134.5t117 351.5t-118 351 t-296 134q-177 0 -290.5 -133t-113.5 -352zM1350 1047l59 469h145l-94 -469h-110z" />
<glyph unicode="&#x110;" horiz-adv-x="1515" d="M0 680v121h166v678h446q370 0 572 -183q110 -98 168.5 -240t58.5 -317t-58.5 -317t-168.5 -240q-204 -182 -572 -182h-446v680h-166zM317 137h281q322 0 485 154q170 159 170 448t-170 451q-164 151 -485 151h-281v-540h478v-121h-478v-543z" />
<glyph unicode="&#x111;" horiz-adv-x="1341" d="M84 582q0 141 40.5 258t111 193.5t163.5 118.5t199 42q149 0 268.5 -80.5t180.5 -222.5v387h-375v74h375v164h141v-164h182v-74h-182v-1278h-141v266q-60 -138 -177.5 -215.5t-265.5 -77.5q-229 0 -374.5 168.5t-145.5 440.5zM229 584q0 -218 113.5 -352t292.5 -134 q178 0 295 134.5t117 351.5t-118 351t-296 134q-177 0 -290.5 -133t-113.5 -352z" />
<glyph unicode="&#x112;" horiz-adv-x="1239" d="M166 0v1479h1018v-138h-867v-534h736v-135h-736v-535h867v-137h-1018zM270 1673v123h809v-123h-809z" />
<glyph unicode="&#x113;" horiz-adv-x="1261" d="M84 584q0 277 155.5 443.5t407.5 166.5q254 0 395.5 -170.5t133.5 -460.5h-943q-4 -211 115 -339t303 -128q142 0 242 79t131 216l127 -55q-51 -169 -184.5 -266t-317.5 -97q-123 0 -227.5 44t-179 123t-116.5 193.5t-42 250.5zM238 678h790q-12 182 -114 287.5 t-267 105.5q-170 0 -283 -107t-126 -286zM295 1321v106h686v-106h-686z" />
<glyph unicode="&#x114;" horiz-adv-x="1239" d="M166 0v1479h1018v-138h-867v-534h736v-135h-736v-535h867v-137h-1018zM338 1917h113q12 -106 70 -161.5t153 -55.5q92 0 152.5 56t70.5 161h113q-8 -150 -97 -240t-239 -90q-149 0 -238.5 90t-97.5 240z" />
<glyph unicode="&#x115;" horiz-adv-x="1261" d="M84 584q0 277 155.5 443.5t407.5 166.5q254 0 395.5 -170.5t133.5 -460.5h-943q-4 -211 115 -339t303 -128q142 0 242 79t131 216l127 -55q-51 -169 -184.5 -266t-317.5 -97q-123 0 -227.5 44t-179 123t-116.5 193.5t-42 250.5zM238 678h790q-12 182 -114 287.5 t-267 105.5q-170 0 -283 -107t-126 -286zM324 1561h106q9 -93 64.5 -146t144.5 -53t145.5 53.5t63.5 145.5h106q-6 -135 -89.5 -219.5t-225.5 -84.5q-143 0 -226.5 85t-88.5 219z" />
<glyph unicode="&#x116;" horiz-adv-x="1239" d="M166 0v1479h1018v-138h-867v-534h736v-135h-736v-535h867v-137h-1018zM598 1618v287h152v-287h-152z" />
<glyph unicode="&#x117;" horiz-adv-x="1261" d="M84 584q0 277 155.5 443.5t407.5 166.5q254 0 395.5 -170.5t133.5 -460.5h-943q-4 -211 115 -339t303 -128q142 0 242 79t131 216l127 -55q-51 -169 -184.5 -266t-317.5 -97q-123 0 -227.5 44t-179 123t-116.5 193.5t-42 250.5zM238 678h790q-12 182 -114 287.5 t-267 105.5q-170 0 -283 -107t-126 -286zM559 1280v276h141v-276h-141z" />
<glyph unicode="&#x118;" horiz-adv-x="1239" d="M166 0v1479h1018v-138h-867v-534h736v-135h-736v-535h867v-137h-2q-97 -67 -142 -118t-45 -115q0 -63 43 -101.5t113 -38.5q21 0 31 2v-96q-40 -4 -64 -4q-107 0 -174 58.5t-67 152.5q0 146 190 260h-901z" />
<glyph unicode="&#x119;" horiz-adv-x="1261" d="M84 584q0 277 155.5 443.5t407.5 166.5q254 0 395.5 -170.5t133.5 -460.5h-943q-4 -211 115 -339t303 -128q142 0 242 79t131 216l127 -55q-47 -156 -162 -248q-111 -98 -160 -164.5t-49 -136.5q0 -72 45.5 -114t120.5 -42h33v-98q-46 -4 -68 -4q-111 0 -181.5 62.5 t-70.5 164.5q0 117 103 228q-64 -11 -113 -11q-123 0 -227.5 44t-179 123t-116.5 193.5t-42 250.5zM238 678h790q-12 182 -114 287.5t-267 105.5q-170 0 -283 -107t-126 -286z" />
<glyph unicode="&#x11a;" horiz-adv-x="1239" d="M166 0v1479h1018v-138h-867v-534h736v-135h-736v-535h867v-137h-1018zM289 1917h164l223 -215l221 215h162l-316 -320h-137z" />
<glyph unicode="&#x11b;" horiz-adv-x="1261" d="M84 584q0 277 155.5 443.5t407.5 166.5q254 0 395.5 -170.5t133.5 -460.5h-943q-4 -211 115 -339t303 -128q142 0 242 79t131 216l127 -55q-51 -169 -184.5 -266t-317.5 -97q-123 0 -227.5 44t-179 123t-116.5 193.5t-42 250.5zM238 678h790q-12 182 -114 287.5 t-267 105.5q-170 0 -283 -107t-126 -286zM289 1561h149l203 -197l205 197h147l-299 -297h-106z" />
<glyph unicode="&#x11c;" horiz-adv-x="1617" d="M104 741q0 171 56 316t154 245.5t235.5 157t296.5 56.5q228 0 401.5 -121t239.5 -328l-144 -80q-42 184 -180.5 286.5t-322.5 102.5q-119 0 -224.5 -44.5t-184 -124.5t-124 -199t-45.5 -260q0 -144 44.5 -265t121.5 -202.5t182 -126.5t224 -45q223 0 370 143t164 379v18 h-522v133h657v-782h-135v283q-83 -148 -226 -229t-329 -81q-150 0 -280.5 55.5t-225 155t-149 243.5t-54.5 314zM455 1597l309 320h151l310 -320h-158l-227 220l-226 -220h-159z" />
<glyph unicode="&#x11d;" horiz-adv-x="1320" d="M84 590q0 139 41.5 254.5t113.5 191t168.5 117t206.5 41.5q142 0 255.5 -68t177.5 -194v235h141v-1067q0 -296 -145.5 -453t-413.5 -157q-203 0 -337.5 85.5t-189.5 252.5l121 82q28 -140 132.5 -217.5t269.5 -77.5q199 0 310.5 120.5t111.5 338.5v202 q-55 -137 -171.5 -213.5t-265.5 -76.5q-231 0 -378.5 167.5t-147.5 436.5zM229 594q0 -218 115 -350.5t295 -132.5t294 132.5t114 350.5q0 217 -112.5 346t-295.5 129q-182 0 -296 -130t-114 -345zM330 1264l291 297h118l291 -297h-141l-209 198l-207 -198h-143z" />
<glyph unicode="&#x11e;" horiz-adv-x="1617" d="M104 741q0 171 56 316t154 245.5t235.5 157t296.5 56.5q228 0 401.5 -121t239.5 -328l-144 -80q-42 184 -180.5 286.5t-322.5 102.5q-119 0 -224.5 -44.5t-184 -124.5t-124 -199t-45.5 -260q0 -144 44.5 -265t121.5 -202.5t182 -126.5t224 -45q223 0 370 143t164 379v18 h-522v133h657v-782h-135v283q-83 -148 -226 -229t-329 -81q-150 0 -280.5 55.5t-225 155t-149 243.5t-54.5 314zM498 1917h112q12 -106 70.5 -161.5t153.5 -55.5q92 0 152.5 56t70.5 161h112q-8 -150 -96.5 -240t-238.5 -90q-149 0 -238.5 90t-97.5 240z" />
<glyph unicode="&#x11f;" horiz-adv-x="1320" d="M84 590q0 139 41.5 254.5t113.5 191t168.5 117t206.5 41.5q142 0 255.5 -68t177.5 -194v235h141v-1067q0 -296 -145.5 -453t-413.5 -157q-203 0 -337.5 85.5t-189.5 252.5l121 82q28 -140 132.5 -217.5t269.5 -77.5q199 0 310.5 120.5t111.5 338.5v202 q-55 -137 -171.5 -213.5t-265.5 -76.5q-231 0 -378.5 167.5t-147.5 436.5zM229 594q0 -218 115 -350.5t295 -132.5t294 132.5t114 350.5q0 217 -112.5 346t-295.5 129q-182 0 -296 -130t-114 -345zM360 1561h107q9 -93 64.5 -146t144.5 -53t145.5 53.5t63.5 145.5h106 q-6 -135 -89.5 -219.5t-225.5 -84.5q-143 0 -227 85t-89 219z" />
<glyph unicode="&#x120;" horiz-adv-x="1617" d="M104 741q0 171 56 316t154 245.5t235.5 157t296.5 56.5q228 0 401.5 -121t239.5 -328l-144 -80q-42 184 -180.5 286.5t-322.5 102.5q-119 0 -224.5 -44.5t-184 -124.5t-124 -199t-45.5 -260q0 -144 44.5 -265t121.5 -202.5t182 -126.5t224 -45q223 0 370 143t164 379v18 h-522v133h657v-782h-135v283q-83 -148 -226 -229t-329 -81q-150 0 -280.5 55.5t-225 155t-149 243.5t-54.5 314zM750 1618v287h151v-287h-151z" />
<glyph unicode="&#x121;" horiz-adv-x="1320" d="M84 590q0 139 41.5 254.5t113.5 191t168.5 117t206.5 41.5q142 0 255.5 -68t177.5 -194v235h141v-1067q0 -296 -145.5 -453t-413.5 -157q-203 0 -337.5 85.5t-189.5 252.5l121 82q28 -140 132.5 -217.5t269.5 -77.5q199 0 310.5 120.5t111.5 338.5v202 q-55 -137 -171.5 -213.5t-265.5 -76.5q-231 0 -378.5 167.5t-147.5 436.5zM229 594q0 -218 115 -350.5t295 -132.5t294 132.5t114 350.5q0 217 -112.5 346t-295.5 129q-182 0 -296 -130t-114 -345zM588 1280v276h141v-276h-141z" />
<glyph unicode="&#x122;" horiz-adv-x="1617" d="M104 741q0 171 56 316t154 245.5t235.5 157t296.5 56.5q228 0 401.5 -121t239.5 -328l-144 -80q-42 184 -180.5 286.5t-322.5 102.5q-119 0 -224.5 -44.5t-184 -124.5t-124 -199t-45.5 -260q0 -144 44.5 -265t121.5 -202.5t182 -126.5t224 -45q223 0 370 143t164 379v18 h-522v133h657v-782h-135v283q-83 -148 -226 -229t-329 -81q-150 0 -280.5 55.5t-225 155t-149 243.5t-54.5 314zM721 -446l88 354h143l-106 -354h-125z" />
<glyph unicode="&#x123;" horiz-adv-x="1320" d="M84 590q0 139 41.5 254.5t113.5 191t168.5 117t206.5 41.5q142 0 255.5 -68t177.5 -194v235h141v-1067q0 -296 -145.5 -453t-413.5 -157q-203 0 -337.5 85.5t-189.5 252.5l121 82q28 -140 132.5 -217.5t269.5 -77.5q199 0 310.5 120.5t111.5 338.5v202 q-55 -137 -171.5 -213.5t-265.5 -76.5q-231 0 -378.5 167.5t-147.5 436.5zM229 594q0 -218 115 -350.5t295 -132.5t294 132.5t114 350.5q0 217 -112.5 346t-295.5 129q-182 0 -296 -130t-114 -345zM578 1268l104 348h125l-86 -348h-143z" />
<glyph unicode="&#x124;" horiz-adv-x="1517" d="M166 0v1479h151v-670h873v670h151v-1479h-151v672h-873v-672h-151zM371 1597l309 320h151l310 -320h-158l-225 220l-228 -220h-159z" />
<glyph unicode="&#x125;" horiz-adv-x="1282" d="M-133 1571l291 297h118l291 -297h-141l-209 198l-207 -198h-143zM145 0v1516h142v-601q67 132 183.5 205.5t266.5 73.5q192 0 302 -119t110 -325v-750h-141v723q0 163 -83.5 254.5t-226.5 91.5q-182 0 -296.5 -142t-114.5 -368v-559h-142z" />
<glyph unicode="&#x126;" horiz-adv-x="1538" d="M0 1112v96h182v271h152v-271h872v271h152v-271h180v-96h-180v-1112h-152v672h-872v-672h-152v1112h-182zM334 809h872v303h-872v-303z" />
<glyph unicode="&#x127;" horiz-adv-x="1282" d="M-20 1278v74h165v164h142v-164h381v-74h-381v-363q67 132 183.5 205.5t266.5 73.5q192 0 302 -119t110 -325v-750h-141v723q0 163 -83.5 254.5t-226.5 91.5q-182 0 -296.5 -142t-114.5 -368v-559h-142v1278h-165z" />
<glyph unicode="&#x128;" horiz-adv-x="483" d="M-129 1632q-2 101 53 164.5t146 63.5q43 0 94 -17.5t89 -39t80 -39t70 -17.5q38 0 61 29.5t23 78.5h109q2 -103 -46.5 -165t-139.5 -62q-51 0 -116.5 28t-124 56.5t-93.5 28.5q-40 0 -67 -30t-27 -79h-111zM166 0v1479h151v-1479h-151z" />
<glyph unicode="&#x129;" horiz-adv-x="430" d="M-104 1288q-1 86 48 141.5t122 55.5q55 0 155.5 -47t136.5 -47q35 0 56.5 25t21.5 67h90q3 -86 -46 -142.5t-122 -56.5q-54 0 -154.5 48t-135.5 48t-58 -25.5t-24 -66.5h-90zM145 0v1167h142v-1167h-142z" />
<glyph unicode="&#x12a;" horiz-adv-x="483" d="M-162 1673v123h809v-123h-809zM166 0v1479h151v-1479h-151z" />
<glyph unicode="&#x12b;" horiz-adv-x="430" d="M-53 1325v107h540v-107h-540zM145 0v1167h142v-1167h-142z" />
<glyph unicode="&#x12c;" horiz-adv-x="483" d="M-94 1917h112q12 -106 70.5 -161.5t153.5 -55.5q92 0 152.5 56t70.5 161h113q-8 -150 -97 -240t-239 -90q-149 0 -238.5 90t-97.5 240zM166 0v1479h151v-1479h-151z" />
<glyph unicode="&#x12d;" horiz-adv-x="430" d="M-100 1561h106q9 -93 64.5 -146t144.5 -53t145.5 53.5t63.5 145.5h106q-6 -135 -89.5 -219.5t-225.5 -84.5q-143 0 -226.5 85t-88.5 219zM145 0v1167h142v-1167h-142z" />
<glyph unicode="&#x12e;" horiz-adv-x="483" d="M12 -260q0 145 191 260h-37v1479h151v-1479q-96 -66 -141 -117.5t-45 -115.5q0 -63 43 -101.5t113 -38.5q20 0 30 2v-96q-40 -4 -63 -4q-107 0 -174.5 58.5t-67.5 152.5z" />
<glyph unicode="&#x12f;" horiz-adv-x="430" d="M-20 -260q0 146 190 260h-25v1167h142v-1167h-2q-97 -67 -142 -118t-45 -115q0 -63 43 -101.5t113 -38.5q21 0 31 2v-96q-40 -4 -64 -4q-107 0 -174 58.5t-67 152.5zM145 1284v277h142v-277h-142z" />
<glyph unicode="&#x130;" horiz-adv-x="483" d="M166 0v1479h151v-1479h-151zM166 1618v287h151v-287h-151z" />
<glyph unicode="&#x131;" horiz-adv-x="430" d="M145 0v1167h142v-1167h-142z" />
<glyph unicode="&#x132;" horiz-adv-x="1314" d="M166 569v910h151v-910h-151zM172 367l147 65q23 -153 113.5 -236t229.5 -83q161 0 253.5 108.5t92.5 304.5v953h151v-971q0 -242 -136.5 -388.5t-363.5 -146.5q-189 0 -320.5 107t-166.5 287z" />
<glyph unicode="&#x133;" horiz-adv-x="851" d="M145 0v1167h142v-1167h-142zM145 1284v277h142v-277h-142zM379 -379q101 12 145.5 68t44.5 166v1312h142v-1317q0 -154 -77 -244t-218 -114zM569 1284v277h142v-277h-142z" />
<glyph unicode="&#x134;" horiz-adv-x="1214" d="M70 424l145 65q9 -179 101 -277.5t243 -98.5q161 0 253.5 108.5t92.5 304.5v953h154v-971q0 -242 -136.5 -388.5t-363.5 -146.5q-202 0 -336 123.5t-153 327.5zM598 1597l309 320h152l309 -320h-158l-227 220l-225 -220h-160z" />
<glyph unicode="&#x135;" horiz-adv-x="421" d="M-143 1264l290 297h119l291 -297h-141l-207 198l-209 -198h-143zM-51 -379q101 12 145.5 68t44.5 166v1312h142v-1317q0 -154 -77 -244t-218 -114z" />
<glyph unicode="&#x136;" horiz-adv-x="1339" d="M166 0v1479h151v-867l773 867h190l-537 -596l596 -883h-190l-510 766l-322 -358v-408h-151zM584 -446l88 354h143l-106 -354h-125z" />
<glyph unicode="&#x137;" horiz-adv-x="1138" d="M145 0v1516h142v-969l606 620h168l-410 -426l471 -741h-174l-395 637l-266 -277v-360h-142zM457 -446l88 354h143l-106 -354h-125z" />
<glyph unicode="&#x139;" horiz-adv-x="1187" d="M139 1599l185 320h176l-217 -320h-144zM166 0v1479h151v-1342h830v-137h-981z" />
<glyph unicode="&#x13a;" horiz-adv-x="430" d="M121 1587l170 297h158l-201 -297h-127zM145 0v1516h142v-1516h-142z" />
<glyph unicode="&#x13b;" horiz-adv-x="1187" d="M166 0v1479h151v-1342h830v-137h-981zM512 -446l88 354h143l-106 -354h-125z" />
<glyph unicode="&#x13c;" horiz-adv-x="430" d="M57 -446l88 354h144l-107 -354h-125zM145 0v1516h142v-1516h-142z" />
<glyph unicode="&#x13d;" horiz-adv-x="1187" d="M166 0v1479h151v-1342h830v-137h-981zM516 1014l59 469h154l-92 -469h-121z" />
<glyph unicode="&#x13e;" horiz-adv-x="624" d="M145 0v1516h142v-1516h-142zM449 1047l59 469h145l-94 -469h-110z" />
<glyph unicode="&#x13f;" horiz-adv-x="1187" d="M166 0v1479h151v-1342h830v-137h-981zM750 639v264h170v-264h-170z" />
<glyph unicode="&#x140;" horiz-adv-x="643" d="M145 0v1516h142v-1516h-142zM451 606v264h170v-264h-170z" />
<glyph unicode="&#x141;" horiz-adv-x="1187" d="M-78 565l244 148v766h151v-676l488 293l61 -107l-549 -330v-522h830v-137h-981v567l-184 -110z" />
<glyph unicode="&#x142;" horiz-adv-x="507" d="M-70 614l254 177v725h142v-629l188 131l68 -86l-256 -178v-754h-142v657l-188 -131z" />
<glyph unicode="&#x143;" horiz-adv-x="1550" d="M166 0v1479h182l453 -637q35 -53 225.5 -316t206.5 -288h2q-2 145 -2 649v592h151v-1479h-157l-533 731q-8 11 -104 148t-175 251.5t-96 145.5h-4q2 -59 2 -668v-608h-151zM649 1599l185 320h176l-217 -320h-144z" />
<glyph unicode="&#x144;" horiz-adv-x="1282" d="M145 0v1167h142v-249q69 131 187.5 203.5t266.5 72.5q190 0 299 -119t109 -325v-750h-141v723q0 162 -81 254t-222 92q-182 0 -300 -142.5t-118 -367.5v-559h-142zM543 1268l170 297h157l-200 -297h-127z" />
<glyph unicode="&#x145;" horiz-adv-x="1550" d="M166 0v1479h182l453 -637q35 -53 225.5 -316t206.5 -288h2q-2 145 -2 649v592h151v-1479h-157l-533 731q-8 11 -104 148t-175 251.5t-96 145.5h-4q2 -59 2 -668v-608h-151zM649 -446l88 354h144l-107 -354h-125z" />
<glyph unicode="&#x146;" horiz-adv-x="1282" d="M145 0v1167h142v-249q69 131 187.5 203.5t266.5 72.5q190 0 299 -119t109 -325v-750h-141v723q0 162 -81 254t-222 92q-182 0 -300 -142.5t-118 -367.5v-559h-142zM518 -446l88 354h144l-107 -354h-125z" />
<glyph unicode="&#x147;" horiz-adv-x="1550" d="M166 0v1479h182l453 -637q35 -53 225.5 -316t206.5 -288h2q-2 145 -2 649v592h151v-1479h-157l-533 731q-8 11 -104 148t-175 251.5t-96 145.5h-4q2 -59 2 -668v-608h-151zM389 1917h164l221 -215l223 215h162l-315 -320h-137z" />
<glyph unicode="&#x148;" horiz-adv-x="1282" d="M145 0v1167h142v-249q69 131 187.5 203.5t266.5 72.5q190 0 299 -119t109 -325v-750h-141v723q0 162 -81 254t-222 92q-182 0 -300 -142.5t-118 -367.5v-559h-142zM303 1561h150l202 -197l205 197h148l-299 -297h-107z" />
<glyph unicode="&#x14a;" horiz-adv-x="1550" d="M166 0v1479h182l453 -637q36 -53 226.5 -311t205.5 -281h2q-2 143 -2 637v592h151v-1954h-149v475l-541 731q-8 11 -104 148t-175 251.5t-96 145.5h-4q2 -59 2 -668v-608h-151z" />
<glyph unicode="&#x14b;" horiz-adv-x="1282" d="M145 0v1167h142v-249q69 131 187.5 203.5t266.5 72.5q190 0 299 -119t109 -325v-1225h-141v1198q0 162 -81 254t-222 92q-182 0 -300 -142.5t-118 -367.5v-559h-142z" />
<glyph unicode="&#x14c;" horiz-adv-x="1656" d="M104 743q0 170 55.5 315t151.5 245t229.5 156.5t286.5 56.5q154 0 288 -56.5t230 -156.5t151.5 -245t55.5 -315q0 -169 -55.5 -313.5t-151.5 -244t-230 -156t-288 -56.5q-153 0 -286.5 56.5t-229.5 156t-151.5 244t-55.5 313.5zM262 743q0 -141 44 -260t120 -199.5 t179.5 -125.5t221.5 -45t222 45t180.5 125.5t121 199.5t44.5 260q0 142 -44.5 261.5t-121 200.5t-180.5 126t-222 45t-221.5 -45t-179.5 -126t-120 -200.5t-44 -261.5zM424 1673v123h809v-123h-809z" />
<glyph unicode="&#x14d;" horiz-adv-x="1284" d="M84 584q0 277 153.5 443.5t405.5 166.5q251 0 404 -166.5t153 -443.5q0 -276 -153 -443.5t-404 -167.5t-405 167.5t-154 443.5zM229 584q0 -219 114.5 -352.5t299.5 -133.5q184 0 299 133.5t115 352.5q0 220 -115 352.5t-299 132.5q-186 0 -300 -132.5t-114 -352.5z M301 1321v106h686v-106h-686z" />
<glyph unicode="&#x14e;" horiz-adv-x="1656" d="M104 743q0 170 55.5 315t151.5 245t229.5 156.5t286.5 56.5q154 0 288 -56.5t230 -156.5t151.5 -245t55.5 -315q0 -169 -55.5 -313.5t-151.5 -244t-230 -156t-288 -56.5q-153 0 -286.5 56.5t-229.5 156t-151.5 244t-55.5 313.5zM262 743q0 -141 44 -260t120 -199.5 t179.5 -125.5t221.5 -45t222 45t180.5 125.5t121 199.5t44.5 260q0 142 -44.5 261.5t-121 200.5t-180.5 126t-222 45t-221.5 -45t-179.5 -126t-120 -200.5t-44 -261.5zM492 1917h112q12 -106 70 -161.5t153 -55.5q92 0 153 56.5t71 160.5h112q-8 -150 -97 -240t-239 -90 q-149 0 -238 90t-97 240z" />
<glyph unicode="&#x14f;" horiz-adv-x="1284" d="M84 584q0 277 153.5 443.5t405.5 166.5q251 0 404 -166.5t153 -443.5q0 -276 -153 -443.5t-404 -167.5t-405 167.5t-154 443.5zM229 584q0 -219 114.5 -352.5t299.5 -133.5q184 0 299 133.5t115 352.5q0 220 -115 352.5t-299 132.5q-186 0 -300 -132.5t-114 -352.5z M328 1561h106q9 -93 64.5 -146t144.5 -53t145.5 53.5t63.5 145.5h106q-6 -135 -89.5 -219.5t-225.5 -84.5q-143 0 -226.5 85t-88.5 219z" />
<glyph unicode="&#x150;" horiz-adv-x="1656" d="M104 743q0 170 55.5 315t151.5 245t229.5 156.5t286.5 56.5q154 0 288 -56.5t230 -156.5t151.5 -245t55.5 -315q0 -169 -55.5 -313.5t-151.5 -244t-230 -156t-288 -56.5q-153 0 -286.5 56.5t-229.5 156t-151.5 244t-55.5 313.5zM262 743q0 -141 44 -260t120 -199.5 t179.5 -125.5t221.5 -45t222 45t180.5 125.5t121 199.5t44.5 260q0 142 -44.5 261.5t-121 200.5t-180.5 126t-222 45t-221.5 -45t-179.5 -126t-120 -200.5t-44 -261.5zM541 1597l176 320h176l-217 -320h-135zM885 1597l209 320h178l-252 -320h-135z" />
<glyph unicode="&#x151;" horiz-adv-x="1284" d="M84 584q0 277 153.5 443.5t405.5 166.5q251 0 404 -166.5t153 -443.5q0 -276 -153 -443.5t-404 -167.5t-405 167.5t-154 443.5zM229 584q0 -219 114.5 -352.5t299.5 -133.5q184 0 299 133.5t115 352.5q0 220 -115 352.5t-299 132.5q-186 0 -300 -132.5t-114 -352.5z M375 1268l182 297h160l-219 -297h-123zM709 1268l209 297h159l-246 -297h-122z" />
<glyph unicode="&#x152;" horiz-adv-x="2467" d="M104 743q0 170 55.5 315t151.5 245t229.5 156.5t286.5 56.5q175 0 322 -71t246 -200v234h1018v-138h-867v-487q4 -32 4 -47h731v-135h-731q-1 -6 -2 -18.5t-2 -18.5v-498h867v-137h-1018v244q-99 -129 -246 -200t-322 -71q-153 0 -286.5 56.5t-229.5 156t-151.5 244 t-55.5 313.5zM262 743q0 -141 44 -260t120 -199.5t179.5 -125.5t221.5 -45t222 45t180.5 125.5t121 199.5t44.5 260q0 142 -44.5 261.5t-121 200.5t-180.5 126t-222 45t-221.5 -45t-179.5 -126t-120 -200.5t-44 -261.5z" />
<glyph unicode="&#x153;" horiz-adv-x="2234" d="M84 584q0 277 153.5 443.5t405.5 166.5q165 0 291 -75.5t194 -211.5q71 136 199 211.5t293 75.5q254 0 395 -170.5t133 -460.5h-942q-4 -211 115 -339t303 -128q142 0 242 79t131 216l127 -55q-51 -169 -184.5 -266t-317.5 -97q-164 0 -292.5 76t-199.5 213 q-70 -138 -195.5 -213.5t-291.5 -75.5q-251 0 -405 167.5t-154 443.5zM229 584q0 -219 114.5 -352.5t299.5 -133.5q184 0 299 133.5t115 352.5q0 220 -115 352.5t-299 132.5q-186 0 -300 -132.5t-114 -352.5zM1210 678h791q-12 182 -114 287.5t-267 105.5 q-170 0 -283.5 -107t-126.5 -286z" />
<glyph unicode="&#x154;" horiz-adv-x="1394" d="M166 0v1479h584q247 0 385 -101q143 -108 143 -293q0 -146 -91 -251.5t-255 -143.5q110 -28 176 -90q43 -43 73 -112.5t46.5 -137.5t49 -167.5t75.5 -182.5h-174q-34 68 -59.5 154.5t-38.5 149.5t-40.5 128.5t-68.5 106.5q-91 91 -297 94h-357v-633h-151zM317 766h414 q178 0 283 76q104 80 104 217q0 134 -100 209q-94 73 -287 73h-414v-575zM530 1599l185 320h176l-217 -320h-144z" />
<glyph unicode="&#x155;" horiz-adv-x="901" d="M145 0v1167h142v-252q57 130 153 204.5t215 74.5q71 0 130.5 -26.5t95.5 -71.5l-66 -121q-67 86 -180 86q-150 0 -249 -142t-99 -382v-537h-142zM367 1264l170 297h157l-200 -297h-127z" />
<glyph unicode="&#x156;" horiz-adv-x="1394" d="M166 0v1479h584q247 0 385 -101q143 -108 143 -293q0 -146 -91 -251.5t-255 -143.5q110 -28 176 -90q43 -43 73 -112.5t46.5 -137.5t49 -167.5t75.5 -182.5h-174q-34 68 -59.5 154.5t-38.5 149.5t-40.5 128.5t-68.5 106.5q-91 91 -297 94h-357v-633h-151zM317 766h414 q178 0 283 76q104 80 104 217q0 134 -100 209q-94 73 -287 73h-414v-575zM590 -446l88 354h143l-106 -354h-125z" />
<glyph unicode="&#x157;" horiz-adv-x="901" d="M57 -446l88 354h144l-107 -354h-125zM145 0v1167h142v-252q57 130 153 204.5t215 74.5q71 0 130.5 -26.5t95.5 -71.5l-66 -121q-67 86 -180 86q-150 0 -249 -142t-99 -382v-537h-142z" />
<glyph unicode="&#x158;" horiz-adv-x="1394" d="M166 0v1479h584q247 0 385 -101q143 -108 143 -293q0 -146 -91 -251.5t-255 -143.5q110 -28 176 -90q43 -43 73 -112.5t46.5 -137.5t49 -167.5t75.5 -182.5h-174q-34 68 -59.5 154.5t-38.5 149.5t-40.5 128.5t-68.5 106.5q-91 91 -297 94h-357v-633h-151zM272 1917h164 l223 -215l222 215h161l-315 -320h-137zM317 766h414q178 0 283 76q104 80 104 217q0 134 -100 209q-94 73 -287 73h-414v-575z" />
<glyph unicode="&#x159;" horiz-adv-x="901" d="M139 1561h150l203 -197l204 197h148l-299 -297h-107zM145 0v1167h142v-252q57 130 153 204.5t215 74.5q71 0 130.5 -26.5t95.5 -71.5l-66 -121q-67 86 -180 86q-150 0 -249 -142t-99 -382v-537h-142z" />
<glyph unicode="&#x15a;" horiz-adv-x="1310" d="M57 414l150 67q20 -169 148 -269.5t323 -100.5q174 0 280.5 77t106.5 201q0 43 -14.5 80.5t-31.5 64t-58.5 52.5t-66 40t-85 34t-85.5 27t-96 26q-15 4 -22 6q-61 17 -102 30t-95.5 34t-91 42t-75 52t-61.5 66t-37.5 82.5t-14.5 102.5q0 178 140 284t366 106 q210 0 364.5 -96t208.5 -271l-143 -72q-29 141 -146.5 223t-283.5 82q-153 0 -249.5 -68t-96.5 -177q0 -33 8 -61.5t28 -52.5t38.5 -42t55 -36t61 -29.5t73.5 -26.5t74.5 -22.5t81.5 -22.5q48 -14 75.5 -22t74 -22.5t74 -26.5t67 -30t64 -36.5t54 -43t47 -52t34 -60 t23.5 -71.5t7 -83q0 -193 -152.5 -309.5t-400.5 -116.5t-418 121t-201 320zM549 1599l184 320h176l-217 -320h-143z" />
<glyph unicode="&#x15b;" horiz-adv-x="1075" d="M63 332l127 57q21 -140 124 -218.5t251 -78.5q131 0 215 61t84 156q0 43 -21 78t-42.5 55.5t-78.5 43t-83.5 30t-102.5 26.5q-23 6 -34 9q-68 18 -114 32.5t-101 42t-88 60t-55.5 82.5t-22.5 113q0 139 115.5 224t300.5 85q171 0 295.5 -78t162.5 -217l-133 -57 q-18 109 -109 171t-218 62q-116 0 -194.5 -51.5t-78.5 -130.5q0 -39 20 -71t42.5 -51.5t76.5 -40t83.5 -29t100.5 -26.5q13 -3 19 -5q50 -13 85 -23t80.5 -27.5t76.5 -35t64 -44t53 -56.5t32.5 -71.5t12.5 -89.5q0 -155 -123.5 -250.5t-319.5 -95.5q-198 0 -329.5 91.5 t-172.5 267.5zM442 1264l170 297h158l-201 -297h-127z" />
<glyph unicode="&#x15c;" horiz-adv-x="1310" d="M57 414l150 67q20 -169 148 -269.5t323 -100.5q174 0 280.5 77t106.5 201q0 43 -14.5 80.5t-31.5 64t-58.5 52.5t-66 40t-85 34t-85.5 27t-96 26q-15 4 -22 6q-61 17 -102 30t-95.5 34t-91 42t-75 52t-61.5 66t-37.5 82.5t-14.5 102.5q0 178 140 284t366 106 q210 0 364.5 -96t208.5 -271l-143 -72q-29 141 -146.5 223t-283.5 82q-153 0 -249.5 -68t-96.5 -177q0 -33 8 -61.5t28 -52.5t38.5 -42t55 -36t61 -29.5t73.5 -26.5t74.5 -22.5t81.5 -22.5q48 -14 75.5 -22t74 -22.5t74 -26.5t67 -30t64 -36.5t54 -43t47 -52t34 -60 t23.5 -71.5t7 -83q0 -193 -152.5 -309.5t-400.5 -116.5t-418 121t-201 320zM279 1597l309 320h151l310 -320h-158l-227 220l-226 -220h-159z" />
<glyph unicode="&#x15d;" horiz-adv-x="1075" d="M63 332l127 57q21 -140 124 -218.5t251 -78.5q131 0 215 61t84 156q0 43 -21 78t-42.5 55.5t-78.5 43t-83.5 30t-102.5 26.5q-23 6 -34 9q-68 18 -114 32.5t-101 42t-88 60t-55.5 82.5t-22.5 113q0 139 115.5 224t300.5 85q171 0 295.5 -78t162.5 -217l-133 -57 q-18 109 -109 171t-218 62q-116 0 -194.5 -51.5t-78.5 -130.5q0 -39 20 -71t42.5 -51.5t76.5 -40t83.5 -29t100.5 -26.5q13 -3 19 -5q50 -13 85 -23t80.5 -27.5t76.5 -35t64 -44t53 -56.5t32.5 -71.5t12.5 -89.5q0 -155 -123.5 -250.5t-319.5 -95.5q-198 0 -329.5 91.5 t-172.5 267.5zM207 1264l291 297h118l291 -297h-141l-209 198l-207 -198h-143z" />
<glyph unicode="&#x15e;" horiz-adv-x="1310" d="M57 414l150 67q20 -169 148 -269.5t323 -100.5q174 0 280.5 77t106.5 201q0 43 -14.5 80.5t-31.5 64t-58.5 52.5t-66 40t-85 34t-85.5 27t-96 26q-15 4 -22 6q-61 17 -102 30t-95.5 34t-91 42t-75 52t-61.5 66t-37.5 82.5t-14.5 102.5q0 178 140 284t366 106 q210 0 364.5 -96t208.5 -271l-143 -72q-29 141 -146.5 223t-283.5 82q-153 0 -249.5 -68t-96.5 -177q0 -33 8 -61.5t28 -52.5t38.5 -42t55 -36t61 -29.5t73.5 -26.5t74.5 -22.5t81.5 -22.5q48 -14 75.5 -22t74 -22.5t74 -26.5t67 -30t64 -36.5t54 -43t47 -52t34 -60 t23.5 -71.5t7 -83q0 -180 -134.5 -294.5t-357.5 -129.5l-51 -86q8 2 27 2q78 0 128 -44.5t50 -114.5q0 -82 -58.5 -133.5t-152.5 -51.5q-128 0 -211 103l53 69q29 -44 70 -67t86 -23q50 0 81.5 28t31.5 73q0 41 -29.5 67.5t-75.5 26.5q-40 0 -80 -19l-43 56l72 112 q-232 11 -390.5 131t-187.5 310z" />
<glyph unicode="&#x15f;" horiz-adv-x="1075" d="M63 332l127 57q21 -140 124 -218.5t251 -78.5q131 0 215 61t84 156q0 43 -21 78t-42.5 55.5t-78.5 43t-83.5 30t-102.5 26.5q-23 6 -34 9q-68 18 -114 32.5t-101 42t-88 60t-55.5 82.5t-22.5 113q0 139 115.5 224t300.5 85q171 0 295.5 -78t162.5 -217l-133 -57 q-18 109 -109 171t-218 62q-116 0 -194.5 -51.5t-78.5 -130.5q0 -39 20 -71t42.5 -51.5t76.5 -40t83.5 -29t100.5 -26.5q13 -3 19 -5q50 -13 85 -23t80.5 -27.5t76.5 -35t64 -44t53 -56.5t32.5 -71.5t12.5 -89.5q0 -143 -107.5 -236.5t-282.5 -107.5l-51 -86q8 2 27 2 q78 0 128 -44.5t50 -114.5q0 -82 -58.5 -133.5t-152.5 -51.5q-128 0 -211 103l53 69q29 -44 70 -67t86 -23q50 0 81.5 28t31.5 73q0 41 -29.5 67.5t-75.5 26.5q-40 0 -80 -19l-43 56l72 114q-178 11 -296.5 102t-156.5 255z" />
<glyph unicode="&#x160;" horiz-adv-x="1310" d="M57 414l150 67q20 -169 148 -269.5t323 -100.5q174 0 280.5 77t106.5 201q0 43 -14.5 80.5t-31.5 64t-58.5 52.5t-66 40t-85 34t-85.5 27t-96 26q-15 4 -22 6q-61 17 -102 30t-95.5 34t-91 42t-75 52t-61.5 66t-37.5 82.5t-14.5 102.5q0 178 140 284t366 106 q210 0 364.5 -96t208.5 -271l-143 -72q-29 141 -146.5 223t-283.5 82q-153 0 -249.5 -68t-96.5 -177q0 -33 8 -61.5t28 -52.5t38.5 -42t55 -36t61 -29.5t73.5 -26.5t74.5 -22.5t81.5 -22.5q48 -14 75.5 -22t74 -22.5t74 -26.5t67 -30t64 -36.5t54 -43t47 -52t34 -60 t23.5 -71.5t7 -83q0 -193 -152.5 -309.5t-400.5 -116.5t-418 121t-201 320zM274 1917h164l221 -215l224 215h161l-315 -320h-137z" />
<glyph unicode="&#x161;" horiz-adv-x="1075" d="M63 332l127 57q21 -140 124 -218.5t251 -78.5q131 0 215 61t84 156q0 43 -21 78t-42.5 55.5t-78.5 43t-83.5 30t-102.5 26.5q-23 6 -34 9q-68 18 -114 32.5t-101 42t-88 60t-55.5 82.5t-22.5 113q0 139 115.5 224t300.5 85q171 0 295.5 -78t162.5 -217l-133 -57 q-18 109 -109 171t-218 62q-116 0 -194.5 -51.5t-78.5 -130.5q0 -39 20 -71t42.5 -51.5t76.5 -40t83.5 -29t100.5 -26.5q13 -3 19 -5q50 -13 85 -23t80.5 -27.5t76.5 -35t64 -44t53 -56.5t32.5 -71.5t12.5 -89.5q0 -155 -123.5 -250.5t-319.5 -95.5q-198 0 -329.5 91.5 t-172.5 267.5zM199 1561h149l203 -197l205 197h147l-299 -297h-106z" />
<glyph unicode="&#x162;" horiz-adv-x="1323" d="M25 1341v138h1271v-138h-559v-1341h-18l-68 -111q8 2 27 2q78 0 128 -44.5t50 -114.5q0 -82 -58.5 -133.5t-152.5 -51.5q-128 0 -211 103l53 69q29 -44 70 -67t86 -23q50 0 81.5 28t31.5 73q0 41 -29.5 67.5t-75.5 26.5q-40 0 -80 -19l-43 56l86 139h-28v1341h-561z" />
<glyph unicode="&#x163;" horiz-adv-x="761" d="M47 1047v120h205v219l141 111v-330h262v-120h-262v-756q0 -96 36.5 -145.5t105.5 -49.5q87 0 135 68l28 -121q-57 -70 -182 -70h-2l-51 -84q8 2 26 2q78 0 128.5 -44.5t50.5 -114.5q0 -82 -58.5 -133.5t-152.5 -51.5q-128 0 -211 103l53 69q29 -44 70 -67t86 -23 q50 0 81 28t31 73q0 41 -29 67.5t-75 26.5q-40 0 -80 -19l-43 56l80 127q-168 57 -168 303v756h-205z" />
<glyph unicode="&#x164;" horiz-adv-x="1323" d="M25 1341v138h1271v-138h-559v-1341h-151v1341h-561zM276 1917h164l224 -215l221 215h162l-316 -320h-137z" />
<glyph unicode="&#x165;" horiz-adv-x="761" d="M47 1047v120h205v219l141 111v-330h262v-120h-262v-756q0 -96 36.5 -145.5t105.5 -49.5q87 0 135 68l28 -121q-57 -70 -182 -70q-128 0 -196 82t-68 236v756h-205zM526 1300l58 410h143l-86 -410h-115z" />
<glyph unicode="&#x166;" horiz-adv-x="1323" d="M25 1341v138h1271v-138h-559v-499h375v-129h-375v-713h-151v713h-375v129h375v499h-561z" />
<glyph unicode="&#x167;" horiz-adv-x="761" d="M47 645v107h205v295h-205v120h205v219l141 111v-330h262v-120h-262v-295h262v-107h-262v-354q0 -96 36.5 -145.5t105.5 -49.5q87 0 135 68l28 -121q-57 -70 -182 -70q-128 0 -196 82t-68 236v354h-205z" />
<glyph unicode="&#x168;" horiz-adv-x="1497" d="M156 596v883h153v-891q0 -204 97 -328q111 -147 342 -147q233 0 344 147q96 119 96 328v891h153v-883q0 -305 -155 -463q-154 -160 -438 -160q-283 0 -437 160q-155 158 -155 463zM387 1632q-2 101 53 164.5t146 63.5q43 0 94 -17.5t89.5 -39t80.5 -39t70 -17.5 q38 0 61 29.5t23 78.5h108q2 -103 -46.5 -165t-139.5 -62q-51 0 -116.5 28t-124 56.5t-93.5 28.5q-40 0 -67 -30t-27 -79h-111z" />
<glyph unicode="&#x169;" horiz-adv-x="1296" d="M135 399v768h141v-727q0 -164 81.5 -253t222.5 -89q128 0 227 73t152 199.5t53 284.5v512h139v-1167h-139v281q-70 -144 -192 -226t-275 -82q-184 0 -297 115.5t-113 310.5zM322 1288q-1 86 48 141.5t122 55.5q55 0 155.5 -47t136.5 -47q35 0 56.5 25t21.5 67h90 q3 -86 -46 -142.5t-122 -56.5q-54 0 -154.5 48t-135.5 48t-58 -25.5t-24 -66.5h-90z" />
<glyph unicode="&#x16a;" horiz-adv-x="1497" d="M156 596v883h153v-891q0 -204 97 -328q111 -147 342 -147q233 0 344 147q96 119 96 328v891h153v-883q0 -305 -155 -463q-154 -160 -438 -160q-283 0 -437 160q-155 158 -155 463zM344 1673v123h809v-123h-809z" />
<glyph unicode="&#x16b;" horiz-adv-x="1296" d="M135 399v768h141v-727q0 -164 81.5 -253t222.5 -89q128 0 227 73t152 199.5t53 284.5v512h139v-1167h-139v281q-70 -144 -192 -226t-275 -82q-184 0 -297 115.5t-113 310.5zM301 1321v106h686v-106h-686z" />
<glyph unicode="&#x16c;" horiz-adv-x="1497" d="M156 596v883h153v-891q0 -204 97 -328q111 -147 342 -147q233 0 344 147q96 119 96 328v891h153v-883q0 -305 -155 -463q-154 -160 -438 -160q-283 0 -437 160q-155 158 -155 463zM412 1917h112q12 -106 70.5 -161.5t153.5 -55.5q92 0 152.5 56t70.5 161h112 q-8 -150 -96.5 -240t-238.5 -90q-149 0 -238.5 90t-97.5 240z" />
<glyph unicode="&#x16d;" horiz-adv-x="1296" d="M135 399v768h141v-727q0 -164 81.5 -253t222.5 -89q128 0 227 73t152 199.5t53 284.5v512h139v-1167h-139v281q-70 -144 -192 -226t-275 -82q-184 0 -297 115.5t-113 310.5zM328 1561h106q9 -93 64.5 -146t144.5 -53t145.5 53.5t63.5 145.5h106q-6 -135 -89.5 -219.5 t-225.5 -84.5q-143 0 -226.5 85t-88.5 219z" />
<glyph unicode="&#x16e;" horiz-adv-x="1497" d="M156 596v883h153v-891q0 -204 97 -328q111 -147 342 -147q233 0 344 147q96 119 96 328v891h153v-883q0 -305 -155 -463q-154 -160 -438 -160q-283 0 -437 160q-155 158 -155 463zM537 1767q0 90 60.5 148.5t150.5 58.5t150 -58.5t60 -148.5q0 -91 -60 -149.5t-150 -58.5 t-150.5 58.5t-60.5 149.5zM629 1767q0 -54 33 -89.5t86 -35.5t86.5 36t33.5 89q0 52 -33.5 87.5t-86.5 35.5t-86 -35.5t-33 -87.5z" />
<glyph unicode="&#x16f;" horiz-adv-x="1296" d="M135 399v768h141v-727q0 -164 81.5 -253t222.5 -89q128 0 227 73t152 199.5t53 284.5v512h139v-1167h-139v281q-70 -144 -192 -226t-275 -82q-184 0 -297 115.5t-113 310.5zM446 1438q0 82 55.5 136t141.5 54q85 0 140 -54t55 -136t-55.5 -136.5t-139.5 -54.5 q-86 0 -141.5 54.5t-55.5 136.5zM530 1438q0 -50 32 -82.5t81 -32.5q47 0 79 33t32 82t-32 81.5t-79 32.5q-49 0 -81 -32t-32 -82z" />
<glyph unicode="&#x170;" horiz-adv-x="1497" d="M156 596v883h153v-891q0 -204 97 -328q111 -147 342 -147q233 0 344 147q96 119 96 328v891h153v-883q0 -305 -155 -463q-154 -160 -438 -160q-283 0 -437 160q-155 158 -155 463zM449 1597l176 320h176l-217 -320h-135zM793 1597l208 320h179l-252 -320h-135z" />
<glyph unicode="&#x171;" horiz-adv-x="1296" d="M135 399v768h141v-727q0 -164 81.5 -253t222.5 -89q128 0 227 73t152 199.5t53 284.5v512h139v-1167h-139v281q-70 -144 -192 -226t-275 -82q-184 0 -297 115.5t-113 310.5zM354 1264l183 297h159l-219 -297h-123zM688 1264l209 297h160l-246 -297h-123z" />
<glyph unicode="&#x172;" horiz-adv-x="1497" d="M156 596v883h153v-891q0 -204 97 -328q111 -147 342 -147q233 0 344 147q96 119 96 328v891h153v-883q0 -305 -155 -463q-112 -118 -303 -149q-83 -58 -123.5 -107.5t-40.5 -109.5q0 -63 42.5 -101.5t112.5 -38.5q21 0 31 2v-96q-40 -4 -63 -4q-107 0 -174.5 58.5 t-67.5 152.5q0 131 150 233h-2q-283 0 -437 160q-155 158 -155 463z" />
<glyph unicode="&#x173;" horiz-adv-x="1296" d="M135 399v768h141v-727q0 -164 81.5 -253t222.5 -89q128 0 227 73t152 199.5t53 284.5v512h139v-1167q-96 -66 -141 -117.5t-45 -115.5q0 -63 42.5 -101.5t112.5 -38.5q21 0 31 2v-96q-40 -4 -64 -4q-107 0 -174 58.5t-67 152.5q0 146 190 260h-24v281q-70 -144 -192 -226 t-275 -82q-184 0 -297 115.5t-113 310.5z" />
<glyph unicode="&#x174;" horiz-adv-x="1925" d="M16 1479h168l131 -494q125 -463 222 -799h4q2 8 84.5 320t130.5 479l133 494h153l136 -494q44 -155 121.5 -434t101.5 -363h4q31 108 213 793l125 498h166l-404 -1479h-200l-158 578q-113 419 -182 688h-4q-90 -352 -181 -688l-155 -578h-195zM578 1597l309 320h151 l310 -320h-158l-227 220l-226 -220h-159z" />
<glyph unicode="&#x175;" horiz-adv-x="1628" d="M16 1167h150l104 -350q72 -236 191 -657h4q23 83 85.5 313.5t94.5 343.5l100 350h144l100 -350q24 -83 57 -199.5t72 -256.5t56 -201h4q130 462 190 657l102 350h144l-359 -1167h-159l-90 317q-107 364 -189 668h-4q-1 -5 -72.5 -263.5t-113.5 -404.5l-90 -317h-158z M465 1268l291 297h118l291 -297h-141l-209 198l-207 -198h-143z" />
<glyph unicode="&#x176;" horiz-adv-x="1384" d="M16 1479h177l503 -809l502 809h170l-604 -975v-504h-143v504zM309 1597l309 320h152l309 -320h-157l-226 220l-227 -220h-160z" />
<glyph unicode="&#x177;" horiz-adv-x="1206" d="M27 1167h161l154 -350q62 -143 167.5 -391t113.5 -266h4q34 82 124 309t140 348l143 350h156l-586 -1388q-67 -157 -138.5 -223t-180.5 -66q-157 0 -250 121l71 113q70 -109 177 -109q61 0 103 41t81 133l88 211zM262 1268l291 297h119l291 -297h-142l-207 198l-208 -198 h-144z" />
<glyph unicode="&#x178;" horiz-adv-x="1384" d="M16 1479h177l503 -809l502 809h170l-604 -975v-504h-143v504zM377 1618v283h160v-283h-160zM850 1618v283h160v-283h-160z" />
<glyph unicode="&#x179;" horiz-adv-x="1316" d="M72 0v121l960 1220h-909v138h1108v-121l-959 -1221h973v-137h-1173zM532 1599l185 320h176l-217 -320h-144z" />
<glyph unicode="&#x17a;" horiz-adv-x="1112" d="M72 0v109l762 938h-734v120h916v-108l-760 -938h782v-121h-960l4 4zM434 1268l170 297h158l-201 -297h-127z" />
<glyph unicode="&#x17b;" horiz-adv-x="1316" d="M72 0v121l960 1220h-909v138h1108v-121l-959 -1221h973v-137h-1173zM575 1618v287h152v-287h-152z" />
<glyph unicode="&#x17c;" horiz-adv-x="1112" d="M72 0v109l762 938h-734v120h916v-108l-760 -938h782v-121h-960l4 4zM483 1284v277h142v-277h-142z" />
<glyph unicode="&#x17d;" horiz-adv-x="1316" d="M72 0v121l960 1220h-909v138h1108v-121l-959 -1221h973v-137h-1173zM272 1917h164l223 -215l222 215h161l-315 -320h-137z" />
<glyph unicode="&#x17e;" horiz-adv-x="1112" d="M72 0v109l762 938h-734v120h916v-108l-760 -938h782v-121h-960l4 4zM201 1565h149l203 -197l205 197h147l-299 -297h-106z" />
<glyph unicode="&#x192;" horiz-adv-x="911" d="M-164 -492l31 127q24 -16 72 -16q84 0 136 61.5t77 182.5l213 1057h-236l29 120h231l23 109q38 190 122 278.5t226 88.5q58 0 110 -19l-26 -119q-34 17 -70 17q-85 0 -137.5 -58t-77.5 -182l-22 -115h241l-24 -120h-242l-215 -1057q-73 -373 -346 -373q-48 0 -115 18z " />
<glyph unicode="&#x1fc;" horiz-adv-x="2070" d="M16 0l908 1479h1108v-138h-867v-534h736v-135h-736v-535h867v-137h-1018v418h-568l-253 -418h-177zM522 543h492v805zM1323 1599l184 320h176l-217 -320h-143z" />
<glyph unicode="&#x1fd;" horiz-adv-x="1996" d="M84 309q0 310 479 371l342 43v57q0 142 -79 215.5t-230 73.5q-144 0 -237.5 -67.5t-122.5 -196.5l-117 82q50 147 174.5 227t304.5 80q151 0 255.5 -58.5t147.5 -168.5q68 109 177 168t247 59q233 0 364 -169.5t122 -461.5h-871q-5 -204 102 -335.5t281 -131.5 q130 0 220.5 79t119.5 216l125 -55q-47 -170 -170 -266.5t-293 -96.5q-156 0 -275 79.5t-183 221.5q-66 -146 -187.5 -223.5t-287.5 -77.5q-186 0 -297 91t-111 245zM225 311q0 -98 73 -158.5t196 -60.5q171 0 291 114.5t120 295.5v106l-307 -41q-194 -26 -283.5 -89.5 t-89.5 -166.5zM889 1264l170 297h158l-201 -297h-127zM1044 678h723q-10 186 -103 289.5t-247 103.5q-158 0 -259.5 -107.5t-113.5 -285.5z" />
<glyph unicode="&#x218;" horiz-adv-x="1310" d="M57 414l150 67q20 -169 148 -269.5t323 -100.5q174 0 280.5 77t106.5 201q0 43 -14.5 80.5t-31.5 64t-58.5 52.5t-66 40t-85 34t-85.5 27t-96 26q-15 4 -22 6q-61 17 -102 30t-95.5 34t-91 42t-75 52t-61.5 66t-37.5 82.5t-14.5 102.5q0 178 140 284t366 106 q210 0 364.5 -96t208.5 -271l-143 -72q-29 141 -146.5 223t-283.5 82q-153 0 -249.5 -68t-96.5 -177q0 -33 8 -61.5t28 -52.5t38.5 -42t55 -36t61 -29.5t73.5 -26.5t74.5 -22.5t81.5 -22.5q48 -14 75.5 -22t74 -22.5t74 -26.5t67 -30t64 -36.5t54 -43t47 -52t34 -60 t23.5 -71.5t7 -83q0 -193 -152.5 -309.5t-400.5 -116.5t-418 121t-201 320zM543 -446l88 354h143l-106 -354h-125z" />
<glyph unicode="&#x219;" horiz-adv-x="1075" d="M63 332l127 57q21 -140 124 -218.5t251 -78.5q131 0 215 61t84 156q0 43 -21 78t-42.5 55.5t-78.5 43t-83.5 30t-102.5 26.5q-23 6 -34 9q-68 18 -114 32.5t-101 42t-88 60t-55.5 82.5t-22.5 113q0 139 115.5 224t300.5 85q171 0 295.5 -78t162.5 -217l-133 -57 q-18 109 -109 171t-218 62q-116 0 -194.5 -51.5t-78.5 -130.5q0 -39 20 -71t42.5 -51.5t76.5 -40t83.5 -29t100.5 -26.5q13 -3 19 -5q50 -13 85 -23t80.5 -27.5t76.5 -35t64 -44t53 -56.5t32.5 -71.5t12.5 -89.5q0 -155 -123.5 -250.5t-319.5 -95.5q-198 0 -329.5 91.5 t-172.5 267.5zM422 -446l88 354h143l-106 -354h-125z" />
<glyph unicode="&#x21a;" horiz-adv-x="1323" d="M25 1341v138h1271v-138h-559v-1341h-151v1341h-561zM502 -446l88 354h143l-106 -354h-125z" />
<glyph unicode="&#x21b;" horiz-adv-x="761" d="M47 1047v120h205v219l141 111v-330h262v-120h-262v-756q0 -96 36.5 -145.5t105.5 -49.5q87 0 135 68l28 -121q-57 -70 -182 -70q-128 0 -196 82t-68 236v756h-205zM344 -446l88 354h143l-106 -354h-125z" />
<glyph unicode="&#x237;" horiz-adv-x="421" d="M-51 -379q101 12 145.5 68t44.5 166v1312h142v-1317q0 -154 -77 -244t-218 -114z" />
<glyph unicode="&#x300;" horiz-adv-x="532" d="M102 1565h158l170 -297h-123z" />
<glyph unicode="&#x301;" horiz-adv-x="532" d="M102 1268l170 297h158l-201 -297h-127z" />
<glyph unicode="&#x302;" horiz-adv-x="905" d="M102 1268l291 297h119l291 -297h-141l-207 198l-209 -198h-144z" />
<glyph unicode="&#x303;" horiz-adv-x="835" d="M102 1292q-1 86 48 141.5t122 55.5q55 0 156 -47t137 -47q35 0 56.5 25t21.5 67h90q3 -86 -46 -142.5t-122 -56.5q-54 0 -155 48t-136 48t-57 -25.5t-24 -66.5h-91z" />
<glyph unicode="&#x304;" horiz-adv-x="890" d="M102 1325v107h686v-107h-686z" />
<glyph unicode="&#x306;" horiz-adv-x="835" d="M102 1565h107q9 -93 64.5 -146t144.5 -53t145.5 53.5t63.5 145.5h106q-6 -135 -89.5 -219t-225.5 -84q-143 0 -227 84.5t-89 218.5z" />
<glyph unicode="&#x307;" horiz-adv-x="346" d="M102 1284v277h142v-277h-142z" />
<glyph unicode="&#x308;" horiz-adv-x="780" d="M102 1296v260h142v-260h-142zM537 1296v260h141v-260h-141z" />
<glyph unicode="&#x30a;" horiz-adv-x="595" d="M102 1442q0 82 55.5 136t141.5 54q85 0 140 -54t55 -136t-55.5 -136.5t-139.5 -54.5q-86 0 -141.5 54.5t-55.5 136.5zM186 1442q0 -50 32 -82.5t81 -32.5q47 0 79 33t32 82t-32 81.5t-79 32.5q-49 0 -81 -32t-32 -82z" />
<glyph unicode="&#x30b;" horiz-adv-x="907" d="M102 1268l183 297h159l-219 -297h-123zM436 1268l209 297h160l-246 -297h-123z" />
<glyph unicode="&#x30c;" horiz-adv-x="909" d="M102 1565h150l203 -197l204 197h148l-299 -297h-107z" />
<glyph unicode="&#x326;" horiz-adv-x="436" d="M102 -446l88 354h144l-107 -354h-125z" />
<glyph unicode="&#x327;" horiz-adv-x="626" d="M102 -350l54 69q59 -90 155 -90q50 0 81.5 28t31.5 73q0 41 -29.5 67.5t-75.5 26.5q-39 0 -79 -19l-43 56l92 147h102l-72 -119q8 2 27 2q78 0 128 -44.5t50 -114.5q0 -82 -58.5 -133.5t-152.5 -51.5q-128 0 -211 103z" />
<glyph unicode="&#x328;" horiz-adv-x="509" d="M102 -260q0 152 211 272l95 -12q-97 -67 -142 -118t-45 -115q0 -63 43 -101.5t113 -38.5q21 0 31 2v-96q-40 -4 -64 -4q-107 0 -174.5 58.5t-67.5 152.5z" />
<glyph unicode="&#x394;" horiz-adv-x="1378" d="M0 0l594 1479h190l594 -1479h-1378zM223 135h932l-467 1204z" />
<glyph unicode="&#x3bc;" horiz-adv-x="1296" d="M135 -475v1642h141v-727q0 -164 81.5 -253t222.5 -89q128 0 227 73t152 199.5t53 284.5v512h139v-1167h-139v281q-70 -144 -192 -226t-275 -82q-161 0 -269 88v-536h-141z" />
<glyph unicode="&#x3c0;" horiz-adv-x="1579" d="M102 1036v131h1354v-131h-289v-745q0 -195 144 -195q85 0 133 68l31 -121q-60 -70 -185 -70q-128 0 -196 82t-68 236v745h-496v-1034h-141v1034h-287z" />
<glyph unicode="&#x1e80;" horiz-adv-x="1925" d="M16 1479h168l131 -494q125 -463 222 -799h4q2 8 84.5 320t130.5 479l133 494h153l136 -494q44 -155 121.5 -434t101.5 -363h4q31 108 213 793l125 498h166l-404 -1479h-200l-158 578q-113 419 -182 688h-4q-90 -352 -181 -688l-155 -578h-195zM713 1917h176l186 -320 h-143z" />
<glyph unicode="&#x1e81;" horiz-adv-x="1628" d="M16 1167h150l104 -350q72 -236 191 -657h4q23 83 85.5 313.5t94.5 343.5l100 350h144l100 -350q24 -83 57 -199.5t72 -256.5t56 -201h4q130 462 190 657l102 350h144l-359 -1167h-159l-90 317q-107 364 -189 668h-4q-1 -5 -72.5 -263.5t-113.5 -404.5l-90 -317h-158z M584 1565h157l170 -297h-123z" />
<glyph unicode="&#x1e82;" horiz-adv-x="1925" d="M16 1479h168l131 -494q125 -463 222 -799h4q2 8 84.5 320t130.5 479l133 494h153l136 -494q44 -155 121.5 -434t101.5 -363h4q31 108 213 793l125 498h166l-404 -1479h-200l-158 578q-113 419 -182 688h-4q-90 -352 -181 -688l-155 -578h-195zM852 1599l184 320h176 l-217 -320h-143z" />
<glyph unicode="&#x1e83;" horiz-adv-x="1628" d="M16 1167h150l104 -350q72 -236 191 -657h4q23 83 85.5 313.5t94.5 343.5l100 350h144l100 -350q24 -83 57 -199.5t72 -256.5t56 -201h4q130 462 190 657l102 350h144l-359 -1167h-159l-90 317q-107 364 -189 668h-4q-1 -5 -72.5 -263.5t-113.5 -404.5l-90 -317h-158z M721 1268l170 297h158l-201 -297h-127z" />
<glyph unicode="&#x1e84;" horiz-adv-x="1925" d="M16 1479h168l131 -494q125 -463 222 -799h4q2 8 84.5 320t130.5 479l133 494h153l136 -494q44 -155 121.5 -434t101.5 -363h4q31 108 213 793l125 498h166l-404 -1479h-200l-158 578q-113 419 -182 688h-4q-90 -352 -181 -688l-155 -578h-195zM647 1618v283h160v-283 h-160zM1120 1618v283h160v-283h-160z" />
<glyph unicode="&#x1e85;" horiz-adv-x="1628" d="M16 1167h150l104 -350q72 -236 191 -657h4q23 83 85.5 313.5t94.5 343.5l100 350h144l100 -350q24 -83 57 -199.5t72 -256.5t56 -201h4q130 462 190 657l102 350h144l-359 -1167h-159l-90 317q-107 364 -189 668h-4q-1 -5 -72.5 -263.5t-113.5 -404.5l-90 -317h-158z M526 1296v260h142v-260h-142zM961 1296v260h141v-260h-141z" />
<glyph unicode="&#x1e9e;" horiz-adv-x="1581" d="M174 0v924q0 266 163.5 429t440.5 163q196 0 333.5 -84t186.5 -236l-303 -313q216 2 350 -119.5t134 -323.5q0 -209 -142 -339t-362 -130q-191 0 -317 99.5t-150 255.5l145 57q14 -125 102.5 -203t225.5 -78q145 0 242.5 90.5t97.5 241.5q0 178 -139 271t-367 55v112 l307 326q-40 87 -131.5 131.5t-212.5 44.5q-210 0 -330 -124.5t-120 -344.5v-905h-154z" />
<glyph unicode="&#x1ef2;" horiz-adv-x="1384" d="M16 1479h177l503 -809l502 809h170l-604 -975v-504h-143v504zM432 1917h176l187 -320h-144z" />
<glyph unicode="&#x1ef3;" horiz-adv-x="1206" d="M27 1167h161l154 -350q62 -143 167.5 -391t113.5 -266h4q34 82 124 309t140 348l143 350h156l-586 -1388q-67 -157 -138.5 -223t-180.5 -66q-157 0 -250 121l71 113q70 -109 177 -109q61 0 103 41t81 133l88 211zM395 1565h158l170 -297h-123z" />
<glyph unicode="&#x2000;" horiz-adv-x="987" />
<glyph unicode="&#x2001;" horiz-adv-x="1974" />
<glyph unicode="&#x2002;" horiz-adv-x="1024" />
<glyph unicode="&#x2003;" horiz-adv-x="2048" />
<glyph unicode="&#x2004;" horiz-adv-x="658" />
<glyph unicode="&#x2005;" horiz-adv-x="493" />
<glyph unicode="&#x2006;" horiz-adv-x="329" />
<glyph unicode="&#x2007;" horiz-adv-x="329" />
<glyph unicode="&#x2008;" horiz-adv-x="246" />
<glyph unicode="&#x2009;" horiz-adv-x="368" />
<glyph unicode="&#x200a;" horiz-adv-x="202" />
<glyph unicode="&#x2010;" horiz-adv-x="841" d="M102 524v125h637v-125h-637z" />
<glyph unicode="&#x2011;" horiz-adv-x="841" d="M102 524v125h637v-125h-637z" />
<glyph unicode="&#x2012;" horiz-adv-x="841" d="M102 524v125h637v-125h-637z" />
<glyph unicode="&#x2013;" horiz-adv-x="1173" d="M102 524v125h969v-125h-969z" />
<glyph unicode="&#x2014;" horiz-adv-x="2142" d="M102 524v125h1938v-125h-1938z" />
<glyph unicode="&#x2018;" horiz-adv-x="331" d="M20 1006l156 473h135l-135 -473h-156z" />
<glyph unicode="&#x2019;" horiz-adv-x="331" d="M20 1006l136 473h155l-155 -473h-136z" />
<glyph unicode="&#x201a;" horiz-adv-x="372" d="M20 -217l136 473h155l-155 -473h-136z" />
<glyph unicode="&#x201c;" horiz-adv-x="608" d="M20 1006l170 473h140l-154 -473h-156zM297 1006l156 473h135l-135 -473h-156z" />
<glyph unicode="&#x201d;" horiz-adv-x="608" d="M20 1006l136 473h155l-155 -473h-136zM279 1006l153 473h156l-170 -473h-139z" />
<glyph unicode="&#x201e;" horiz-adv-x="608" d="M20 -231l136 473h155l-155 -473h-136zM279 -231l153 473h156l-170 -473h-139z" />
<glyph unicode="&#x2020;" horiz-adv-x="940" d="M0 879v131h397v469h146v-469h397v-131h-397v-1188h-146v1188h-397z" />
<glyph unicode="&#x2021;" horiz-adv-x="940" d="M0 264v131h397v484h-397v131h397v469h146v-469h397v-131h-397v-484h397v-131h-397v-573h-146v573h-397z" />
<glyph unicode="&#x2022;" horiz-adv-x="759" d="M102 739q0 120 79.5 199.5t199.5 79.5q119 0 197.5 -79.5t78.5 -199.5t-78.5 -199t-197.5 -79q-120 0 -199.5 79t-79.5 199z" />
<glyph unicode="&#x2025;" horiz-adv-x="374" d="M102 0v264h170v-264h-170z" />
<glyph unicode="&#x2026;" horiz-adv-x="1339" d="M102 0v264h170v-264h-170zM584 0v264h170v-264h-170zM1067 0v264h170v-264h-170z" />
<glyph unicode="&#x202f;" horiz-adv-x="394" />
<glyph unicode="&#x2030;" horiz-adv-x="2791" d="M102 1051q0 212 93 334t256 122q164 0 257 -121.5t93 -334.5t-93 -335t-257 -122q-163 0 -256 122.5t-93 334.5zM215 1051q0 -170 60.5 -262.5t175.5 -92.5q116 0 176.5 92.5t60.5 262.5q0 172 -60.5 264t-176.5 92q-115 0 -175.5 -92.5t-60.5 -263.5zM580 0l684 1479 h120l-675 -1479h-129zM1171 440q0 212 93 334.5t256 122.5q164 0 257 -122t93 -335t-93 -334.5t-257 -121.5q-163 0 -256 122t-93 334zM1284 440q0 -170 60.5 -262t175.5 -92q116 0 176.5 92t60.5 262q0 172 -60.5 264.5t-176.5 92.5q-115 0 -175.5 -93t-60.5 -264z M1991 440q0 213 93 335t255 122q164 0 257 -122t93 -335t-93 -334.5t-257 -121.5q-163 0 -255.5 122t-92.5 334zM2103 440q0 -170 60.5 -262t175.5 -92q116 0 176.5 92t60.5 262q0 172 -60.5 264.5t-176.5 92.5q-115 0 -175.5 -93t-60.5 -264z" />
<glyph unicode="&#x2039;" horiz-adv-x="700" d="M102 584l336 366h160l-340 -366l340 -367h-162z" />
<glyph unicode="&#x203a;" horiz-adv-x="700" d="M102 217l340 367l-340 366h160l336 -366l-334 -367h-162z" />
<glyph unicode="&#x2044;" horiz-adv-x="395" d="M-205 0l684 1479h121l-676 -1479h-129z" />
<glyph unicode="&#x205f;" horiz-adv-x="493" />
<glyph unicode="&#x2071;" horiz-adv-x="397" d="M145 807v692h107v-692h-107zM145 1573v156h107v-156h-107z" />
<glyph unicode="&#x207f;" horiz-adv-x="894" d="M145 807v692h109v-170q37 88 106.5 137.5t159.5 49.5q112 0 176 -71.5t64 -195.5v-442h-109v422q0 91 -45 140.5t-123 49.5q-100 0 -164.5 -80.5t-64.5 -208.5v-323h-109z" />
<glyph unicode="&#x2090;" horiz-adv-x="813" d="M84 -25q0 91 70.5 146t218.5 78l190 24v35q0 77 -43.5 116.5t-128.5 39.5q-81 0 -134.5 -38.5t-70.5 -107.5l-82 58q72 178 293 178q129 0 199 -61.5t70 -174.5v-295q0 -121 14 -178h-107q-4 18 -12 144q-74 -160 -254 -160q-101 0 -162 54t-61 142zM188 -16 q0 -53 39.5 -84t106.5 -31q100 0 164.5 63.5t64.5 163.5v51l-160 -20q-110 -15 -162.5 -50t-52.5 -93z" />
<glyph unicode="&#x2091;" horiz-adv-x="825" d="M84 139q0 163 95 263t245 100q154 0 238 -101.5t79 -277.5h-542q-4 -111 61 -180.5t166 -69.5q76 0 132 41.5t75 112.5l90 -41q-29 -100 -107 -154.5t-190 -54.5q-152 0 -247 99.5t-95 262.5zM197 197h438q-7 106 -64.5 162.5t-148.5 56.5q-96 0 -158.5 -60t-66.5 -159z " />
<glyph unicode="&#x2092;" horiz-adv-x="839" d="M84 141q0 164 92.5 263.5t243.5 99.5q152 0 244 -99.5t92 -263.5q0 -163 -92 -262.5t-244 -99.5q-151 0 -243.5 99.5t-92.5 262.5zM193 141q0 -121 62.5 -193.5t164.5 -72.5t164.5 72.5t62.5 193.5q0 122 -62.5 195.5t-164.5 73.5t-164.5 -73.5t-62.5 -195.5z" />
<glyph unicode="&#x2093;" horiz-adv-x="714" d="M16 -207l283 359l-266 333h125l200 -254l197 254h127l-264 -333l282 -359h-127l-215 277l-215 -277h-127z" />
<glyph unicode="&#x2095;" horiz-adv-x="892" d="M145 -205v877h109v-355q37 89 107 138t161 49q110 0 174 -71.5t64 -194.5v-443h-109v422q0 91 -45.5 141t-124.5 50q-101 0 -164 -80t-63 -209v-324h-109z" />
<glyph unicode="&#x2096;" horiz-adv-x="772" d="M145 -205v877h109v-539l336 354h125l-244 -258l285 -434h-133l-222 359l-147 -156v-203h-109z" />
<glyph unicode="&#x2097;" horiz-adv-x="399" d="M145 -207v877h109v-877h-109z" />
<glyph unicode="&#x2098;" horiz-adv-x="1312" d="M145 -207v692h109v-155q34 82 95 127t140 45q78 0 133.5 -43.5t77.5 -120.5q38 77 101.5 120.5t144.5 43.5q105 0 166.5 -68t61.5 -188v-453h-107v428q0 90 -41 137.5t-115 47.5q-93 0 -145.5 -77t-52.5 -206v-330h-109v428q0 89 -40.5 137t-112.5 48q-82 0 -135 -65 t-62 -177v-371h-109z" />
<glyph unicode="&#x2099;" horiz-adv-x="894" d="M145 -207v692h109v-170q37 88 106.5 137.5t159.5 49.5q112 0 176 -71.5t64 -194.5v-443h-109v422q0 91 -45 141t-123 50q-100 0 -164.5 -80.5t-64.5 -208.5v-324h-109z" />
<glyph unicode="&#x209a;" horiz-adv-x="894" d="M145 485h109v-174q32 88 104.5 139.5t161.5 51.5q127 0 209 -100.5t82 -260.5q0 -162 -84 -263t-215 -101q-87 0 -155.5 45.5t-102.5 126.5v-438h-109v974zM254 139q0 -119 63.5 -192.5t161.5 -73.5t160.5 74t62.5 194t-63 192.5t-160 72.5q-98 0 -161.5 -73t-63.5 -194z " />
<glyph unicode="&#x209b;" horiz-adv-x="714" d="M63 -20l93 40q10 -73 68.5 -116t146.5 -43q77 0 122.5 31t45.5 83q0 23 -11.5 41.5t-27 31.5t-44.5 25.5t-50.5 19.5t-59.5 18q-123 37 -168 64q-82 50 -82 136q0 85 71.5 137t188.5 52q108 0 184.5 -47.5t98.5 -124.5l-94 -41q-7 60 -57.5 95.5t-127.5 35.5 q-69 0 -112 -27.5t-43 -71.5q0 -20 11 -36.5t24 -27t42.5 -22.5t47 -17.5t57.5 -16.5q9 -3 14 -4q45 -13 72.5 -22.5t65 -28t58.5 -39t36.5 -52t15.5 -69.5q0 -91 -77.5 -148t-204.5 -57q-122 0 -202 54t-102 147z" />
<glyph unicode="&#x209c;" horiz-adv-x="507" d="M47 393v72h117v133l106 86v-219h148v-72h-148v-422q0 -100 78 -100q51 0 76 39l22 -92q-37 -43 -116 -43t-122.5 51t-43.5 145v422h-117z" />
<glyph unicode="&#x20aa;" horiz-adv-x="1531" d="M166 0v1479h444q196 0 300 -106t104 -306v-717h-146v680q0 307 -293 307h-264v-1337h-145zM516 414v727h148v-697q0 -303 292 -303h263v1338h147v-1479h-440q-195 0 -302.5 107t-107.5 307z" />
<glyph unicode="&#x20ac;" horiz-adv-x="1443" d="M102 537v102h191q-6 49 -6 102q0 26 4 80h-189v107h203q54 265 243.5 426.5t452.5 161.5q179 0 332 -78l-65 -117q-114 68 -267 68q-208 0 -354 -124.5t-194 -336.5h606l-55 -107h-568q-4 -54 -4 -82q0 -51 6 -100h469l-53 -102h-397q51 -200 196 -318.5t344 -118.5 q175 0 291 82l53 -121q-154 -88 -348 -88q-255 0 -441 154t-243 410h-207z" />
<glyph unicode="&#x2116;" horiz-adv-x="2314" d="M166 0v1479h182l453 -637q35 -53 225.5 -316t206.5 -288h2q-2 145 -2 649v592h151v-1479h-157l-533 731q-8 11 -104 148t-175 251.5t-96 145.5h-4q2 -59 2 -668v-608h-151zM1561 1153q0 164 92 263.5t243 99.5q152 0 244 -99.5t92 -263.5q0 -163 -92 -262.5t-244 -99.5 q-151 0 -243 99.5t-92 262.5zM1669 1153q0 -121 62.5 -193.5t164.5 -72.5t165 72.5t63 193.5q0 122 -63 195t-165 73t-164.5 -73t-62.5 -195z" />
<glyph unicode="&#x2122;" horiz-adv-x="1927" d="M47 1372v107h768v-107h-326v-770h-116v770h-326zM918 602v877h153l301 -756l299 756h154v-877h-115v721l-289 -721h-102l-287 713v-713h-114z" />
<glyph unicode="&#x212e;" horiz-adv-x="1699" d="M102 743q0 165 58 308.5t159 244t240.5 158t298.5 57.5q213 0 382 -99.5t263 -274.5t94 -394h-1235q-14 0 -14 -14v-432q0 -37 25 -74q68 -92 198 -149.5t291 -57.5q221 0 363.5 112t226.5 321h80q-84 -221 -257.5 -349.5t-414.5 -128.5q-160 0 -300.5 58.5t-241 160 t-158.5 245t-58 308.5zM348 797q0 -15 14 -15h986q14 0 14 15v389q0 36 -25 74q-67 93 -192.5 149.5t-284.5 56.5t-289 -56t-198 -148q-25 -38 -25 -74v-391z" />
<glyph unicode="&#x215b;" horiz-adv-x="1671" d="M72 1186v104q70 21 125 70.5t79 118.5h91v-877h-111v717q-66 -94 -184 -133zM315 0l684 1479h121l-676 -1479h-129zM938 246q0 82 51.5 142.5t143.5 88.5q-74 26 -117 79t-43 120q0 99 81 160t214 61t215 -61t82 -160q0 -67 -43 -120t-117 -79q92 -28 143 -88t51 -143 q0 -116 -91.5 -189t-239.5 -73t-239 73t-91 189zM1051 256q0 -76 61.5 -125t155.5 -49q95 0 157 49t62 125t-61 123t-158 47t-157 -47t-60 -123zM1083 662q0 -62 51 -101t134 -39q84 0 135 39t51 101q0 64 -50.5 102.5t-135.5 38.5q-84 0 -134.5 -38.5t-50.5 -102.5z" />
<glyph unicode="&#x215c;" horiz-adv-x="1904" d="M51 879l111 43q-3 -100 60 -163t167 -63q94 0 152.5 47.5t58.5 122.5q0 78 -59 121t-162 43h-39v94h39q92 0 147.5 40t55.5 106q0 65 -52 103t-137 38q-90 0 -148 -50t-59 -134l-110 41q11 108 100.5 175.5t222.5 67.5q130 0 213.5 -63t83.5 -162q0 -75 -51.5 -131 t-142.5 -74q100 -17 157.5 -78.5t57.5 -148.5q0 -110 -93 -183t-233 -73q-147 0 -239.5 79.5t-100.5 201.5zM549 0l684 1479h121l-676 -1479h-129zM1171 246q0 82 51.5 142.5t143.5 88.5q-74 26 -117 79t-43 120q0 99 81 160t214 61t215 -61t82 -160q0 -67 -43 -120 t-117 -79q92 -28 143.5 -88.5t51.5 -142.5q0 -116 -91.5 -189t-240.5 -73q-148 0 -239 73t-91 189zM1284 256q0 -76 61.5 -125t155.5 -49q95 0 157 49t62 125t-61 123t-158 47t-157 -47t-60 -123zM1317 662q0 -62 50.5 -101t133.5 -39q84 0 135.5 39t51.5 101 q0 64 -51 102.5t-136 38.5q-83 0 -133.5 -38.5t-50.5 -102.5z" />
<glyph unicode="&#x215d;" horiz-adv-x="1902" d="M72 870l104 45q-4 -99 56.5 -161t160.5 -62t159.5 59.5t59.5 151.5q0 93 -58 149t-148 56q-61 0 -114.5 -27t-88.5 -77l-101 40l72 439h494v-92h-410l-43 -277q95 86 221 86t206.5 -81t80.5 -212q0 -138 -90 -226.5t-238 -88.5q-140 0 -228.5 77t-94.5 201zM547 0 l684 1479h121l-676 -1479h-129zM1169 246q0 82 51.5 142.5t143.5 88.5q-74 26 -117 79t-43 120q0 99 81 160t214 61t215 -61t82 -160q0 -67 -43 -120t-117 -79q92 -28 143.5 -88.5t51.5 -142.5q0 -116 -91.5 -189t-240.5 -73q-148 0 -239 73t-91 189zM1282 256 q0 -76 61.5 -125t155.5 -49q95 0 157 49t62 125t-61 123t-158 47t-157 -47t-60 -123zM1315 662q0 -62 50.5 -101t133.5 -39q84 0 135.5 39t51.5 101q0 64 -51 102.5t-136 38.5q-83 0 -133.5 -38.5t-50.5 -102.5z" />
<glyph unicode="&#x215e;" horiz-adv-x="1673" d="M20 1382v97h625v-64q-156 -172 -232 -366.5t-83 -444.5h-113q24 452 279 778h-476zM315 0l684 1479h121l-676 -1479h-129zM940 246q0 82 51.5 142.5t143.5 88.5q-74 26 -117 79t-43 120q0 99 81 160t214 61t215 -61t82 -160q0 -67 -43 -120t-117 -79q92 -28 143.5 -88.5 t51.5 -142.5q0 -116 -91.5 -189t-240.5 -73q-148 0 -239 73t-91 189zM1053 256q0 -76 61.5 -125t155.5 -49q95 0 157 49t62 125t-61 123t-158 47t-157 -47t-60 -123zM1085 662q0 -62 51 -101t134 -39q84 0 135 39t51 101q0 64 -50.5 102.5t-135.5 38.5q-84 0 -134.5 -38.5 t-50.5 -102.5z" />
<glyph unicode="&#x2190;" horiz-adv-x="1540" d="M102 586l570 571h186l-516 -508h1096v-127h-1096l516 -508h-186z" />
<glyph unicode="&#x2191;" horiz-adv-x="1347" d="M102 590v178l572 569l571 -569v-178l-502 504v-1094h-139v1092z" />
<glyph unicode="&#x2192;" horiz-adv-x="1540" d="M102 522v127h1096l-516 508h186l570 -571l-570 -572h-186l516 508h-1096z" />
<glyph unicode="&#x2193;" horiz-adv-x="1347" d="M102 555v178l502 -502v1092h139v-1094l502 504v-178l-571 -569z" />
<glyph unicode="&#x2194;" horiz-adv-x="2029" d="M102 586l570 571h188l-516 -508h1339l-514 508h189l569 -571l-569 -572h-189l514 508h-1339l516 -508h-188z" />
<glyph unicode="&#x2195;" horiz-adv-x="1347" d="M102 428v147l502 -389v959l-502 -389v147l572 434l571 -434v-147l-502 389v-959l502 389v-147l-571 -434z" />
<glyph unicode="&#x2196;" horiz-adv-x="1206" d="M102 365v806h805l129 -127l-708 3l768 -771l-99 -100l-761 762l4 -715z" />
<glyph unicode="&#x2197;" horiz-adv-x="1206" d="M111 276l768 771l-709 -3l129 127h805v-806l-137 -142l4 715l-762 -762z" />
<glyph unicode="&#x2198;" horiz-adv-x="1208" d="M113 942l98 100l764 -763l-2 712l133 -137v-807h-805l-131 129l709 -2z" />
<glyph unicode="&#x2199;" horiz-adv-x="1208" d="M102 47v807l134 137l-3 -712l764 763l99 -100l-766 -768l708 2l-131 -129h-805z" />
<glyph unicode="&#x21f5;" horiz-adv-x="1781" d="M102 754v178l394 418l393 -418v-178l-324 348v-1102h-141v1102zM893 406v178l324 -348v1101h141v-1101l321 348v-178l-393 -418z" />
<glyph unicode="&#x2202;" horiz-adv-x="1310" d="M102 475q0 218 144.5 357t367.5 139q262 0 445 -195q-14 282 -146.5 444t-351.5 162q-180 0 -313 -106l-58 117q164 123 375 123q191 0 337.5 -100.5t226 -284.5t79.5 -424q0 -343 -153.5 -538.5t-423.5 -195.5q-230 0 -379.5 142t-149.5 360zM250 473 q0 -160 108.5 -264.5t274.5 -104.5q187 0 301 137.5t119 362.5q-73 114 -180 177t-232 63q-169 0 -280 -105t-111 -266z" />
<glyph unicode="&#x2205;" horiz-adv-x="1265" d="M80 221l166 166q-105 134 -105 315q0 214 139 353t353 139q183 0 315 -104l164 163l72 -71l-164 -164q104 -132 104 -316q0 -214 -138.5 -352.5t-352.5 -138.5q-182 0 -314 104l-165 -165zM272 702q0 -125 68 -221l514 514q-93 74 -221 74q-155 0 -258 -105t-103 -262z M412 408q94 -72 221 -72q155 0 257.5 104t102.5 262q0 127 -67 222z" />
<glyph unicode="&#x220f;" horiz-adv-x="1456" d="M166 0v1479h1124v-1479h-151v1337h-822v-1337h-151z" />
<glyph unicode="&#x2211;" horiz-adv-x="1210" d="M102 0v141l560 602l-560 594v142h1006v-142h-807l557 -594l-557 -602h807v-141h-1006z" />
<glyph unicode="&#x2212;" horiz-adv-x="1159" d="M102 635v127h955v-127h-955z" />
<glyph unicode="&#x221a;" horiz-adv-x="1437" d="M102 1167h158l262 -704q11 -32 30.5 -88t36 -102.5t32.5 -86.5q73 216 96 277l516 1399h420v-127h-310l-647 -1735h-157z" />
<glyph unicode="&#x221e;" horiz-adv-x="1652" d="M102 733q0 148 95.5 245t240.5 97q112 0 202.5 -62.5t186.5 -178.5q93 115 183.5 178t203.5 63q145 0 240.5 -97t95.5 -245t-95.5 -245t-240.5 -97q-78 0 -151 35.5t-124 83.5t-114 123q-93 -115 -183.5 -178.5t-203.5 -63.5q-145 0 -240.5 97t-95.5 245zM233 733 q0 -93 59.5 -154t149.5 -61q48 0 90 16.5t81.5 52t65.5 65t66 81.5q-40 52 -66 81.5t-65.5 65t-81.5 52t-90 16.5q-90 0 -149.5 -61t-59.5 -154zM907 733q40 -52 66 -81.5t65.5 -65t81.5 -52t90 -16.5q90 0 149.5 61t59.5 154t-59.5 154t-149.5 61q-48 0 -90 -16.5 t-81.5 -52t-65.5 -65t-66 -81.5z" />
<glyph unicode="&#x222b;" horiz-adv-x="911" d="M-164 -492l31 127q24 -16 72 -16q84 0 136 61.5t77 182.5l260 1286q38 190 122 278.5t226 88.5q58 0 110 -19l-26 -119q-34 17 -70 17q-85 0 -137.5 -58t-77.5 -182l-262 -1292q-73 -373 -346 -373q-48 0 -115 18z" />
<glyph unicode="&#x2248;" horiz-adv-x="1130" d="M102 516q101 113 238 113q58 0 126 -22t119.5 -49t116.5 -49t117 -22q107 0 187 99l22 -127q-39 -46 -94.5 -72.5t-116.5 -26.5q-54 0 -122 22t-122 49t-120 49t-117 22q-125 0 -211 -113zM102 926q100 112 238 112q58 0 126 -22t119.5 -48.5t116 -48.5t117.5 -22 q108 0 187 98l22 -127q-38 -46 -94 -72t-117 -26q-54 0 -122 22t-122 48.5t-120 48.5t-117 22q-125 0 -211 -112z" />
<glyph unicode="&#x2260;" horiz-adv-x="1159" d="M102 434v127h312l213 275h-525v127h625l166 213h123l-166 -213h207v-127h-307l-213 -275h520v-127h-621l-168 -215h-123l168 215h-211z" />
<glyph unicode="&#x2264;" horiz-adv-x="1159" d="M102 160v127h955v-127h-955zM102 803v86l955 346v-129l-746 -260l746 -258v-129z" />
<glyph unicode="&#x2265;" horiz-adv-x="1159" d="M102 160v127h955v-127h-955zM102 459v129l746 258l-746 260v129l955 -346v-86z" />
<glyph unicode="&#x25ca;" horiz-adv-x="1355" d="M102 739l500 740h154l497 -740l-497 -739h-154zM281 739l399 -594l397 594l-397 594z" />
<glyph unicode="&#x25fc;" horiz-adv-x="1167" d="M0 0v1167h1167v-1167h-1167z" />
<glyph unicode="&#x2c7c;" horiz-adv-x="387" d="M23 -412q62 6 89 38.5t27 97.5v761h109v-768q0 -96 -52 -154.5t-143 -72.5zM139 559v156h109v-156h-109z" />
<glyph unicode="&#xa7b6;" horiz-adv-x="1675" d="M102 0v133h351q-160 102 -250 274.5t-90 383.5t92.5 376.5t257.5 257t375 91.5t375 -91.5t257.5 -257t92.5 -376.5t-90 -383.5t-250 -274.5h350v-133h-608v127q200 63 319 241t119 410q0 263 -157.5 429.5t-407.5 166.5q-249 0 -407.5 -167t-158.5 -429 q0 -231 120.5 -409.5t320.5 -241.5v-127h-611z" />
<glyph horiz-adv-x="0" />
<glyph horiz-adv-x="1314" d="M139 1599l185 320h176l-217 -320h-144zM166 569v910h151v-910h-151zM172 367l147 65q23 -153 113.5 -236t229.5 -83q161 0 253.5 108.5t92.5 304.5v953h151v-971q0 -242 -136.5 -388.5t-363.5 -146.5q-189 0 -320.5 107t-166.5 287zM979 1599l184 320h176l-217 -320h-143 z" />
<glyph horiz-adv-x="1359" d="M166 0v1479h551q295 0 430 -129q121 -115 121 -299q0 -182 -121 -297q-80 -77 -203 -105l352 -649h-170l-331 627q-25 -2 -78 -2h-400v-625h-151zM317 762h385q238 0 332 88q80 77 80 201q0 125 -80 202q-94 88 -332 88h-385v-579z" />
<glyph horiz-adv-x="1359" d="M166 0v1479h551q295 0 430 -129q121 -115 121 -299q0 -182 -121 -297q-80 -77 -203 -105l352 -649h-170l-331 627q-25 -2 -78 -2h-400v-625h-151zM317 762h385q238 0 332 88q80 77 80 201q0 125 -80 202q-94 88 -332 88h-385v-579zM526 1597l185 320h176l-217 -320h-144z " />
<glyph horiz-adv-x="1359" d="M166 0v1479h551q295 0 430 -129q121 -115 121 -299q0 -182 -121 -297q-80 -77 -203 -105l352 -649h-170l-331 627q-25 -2 -78 -2h-400v-625h-151zM266 1917h164l221 -215l223 215h162l-315 -320h-137zM317 762h385q238 0 332 88q80 77 80 201q0 125 -80 202 q-94 88 -332 88h-385v-579z" />
<glyph horiz-adv-x="1359" d="M166 0v1479h551q295 0 430 -129q121 -115 121 -299q0 -182 -121 -297q-80 -77 -203 -105l352 -649h-170l-331 627q-25 -2 -78 -2h-400v-625h-151zM317 762h385q238 0 332 88q80 77 80 201q0 125 -80 202q-94 88 -332 88h-385v-579zM559 -446l88 354h144l-107 -354h-125z " />
<glyph d="M84 582q0 273 144.5 442.5t369.5 169.5q149 0 268.5 -77.5t180.5 -215.5v266h141v-1167h-141v264q-57 -136 -175 -213.5t-268 -77.5q-229 0 -374.5 168.5t-145.5 440.5zM229 584q0 -218 113.5 -352t292.5 -134q178 0 295 134.5t117 351.5q0 218 -117 351.5t-297 133.5 q-176 0 -290 -133.5t-114 -351.5z" />
<glyph d="M84 582q0 273 144.5 442.5t369.5 169.5q149 0 268.5 -77.5t180.5 -215.5v266h141v-1167h-141v264q-57 -136 -175 -213.5t-268 -77.5q-229 0 -374.5 168.5t-145.5 440.5zM229 584q0 -218 113.5 -352t292.5 -134q178 0 295 134.5t117 351.5q0 218 -117 351.5t-297 133.5 q-176 0 -290 -133.5t-114 -351.5zM567 1268l170 297h158l-201 -297h-127z" />
<glyph d="M84 582q0 273 144.5 442.5t369.5 169.5q149 0 268.5 -77.5t180.5 -215.5v266h141v-1167h-141v264q-57 -136 -175 -213.5t-268 -77.5q-229 0 -374.5 168.5t-145.5 440.5zM229 584q0 -218 113.5 -352t292.5 -134q178 0 295 134.5t117 351.5q0 218 -117 351.5t-297 133.5 q-176 0 -290 -133.5t-114 -351.5zM373 1565h106q9 -93 64.5 -146t144.5 -53t145.5 53.5t63.5 145.5h107q-6 -134 -90 -218.5t-226 -84.5q-143 0 -226.5 84.5t-88.5 218.5z" />
<glyph d="M84 582q0 273 144.5 442.5t369.5 169.5q149 0 268.5 -77.5t180.5 -215.5v266h141v-1167h-141v264q-57 -136 -175 -213.5t-268 -77.5q-229 0 -374.5 168.5t-145.5 440.5zM229 584q0 -218 113.5 -352t292.5 -134q178 0 295 134.5t117 351.5q0 218 -117 351.5t-297 133.5 q-176 0 -290 -133.5t-114 -351.5zM336 1268l291 297h118l291 -297h-141l-207 198l-209 -198h-143z" />
<glyph d="M84 582q0 273 144.5 442.5t369.5 169.5q149 0 268.5 -77.5t180.5 -215.5v266h141v-1167h-141v264q-57 -136 -175 -213.5t-268 -77.5q-229 0 -374.5 168.5t-145.5 440.5zM229 584q0 -218 113.5 -352t292.5 -134q178 0 295 134.5t117 351.5q0 218 -117 351.5t-297 133.5 q-176 0 -290 -133.5t-114 -351.5zM393 1296v260h142v-260h-142zM827 1296v260h142v-260h-142z" />
<glyph d="M84 582q0 273 144.5 442.5t369.5 169.5q149 0 268.5 -77.5t180.5 -215.5v266h141v-1167h-141v264q-57 -136 -175 -213.5t-268 -77.5q-229 0 -374.5 168.5t-145.5 440.5zM229 584q0 -218 113.5 -352t292.5 -134q178 0 295 134.5t117 351.5q0 218 -117 351.5t-297 133.5 q-176 0 -290 -133.5t-114 -351.5zM477 1565h158l170 -297h-123z" />
<glyph d="M84 582q0 273 144.5 442.5t369.5 169.5q149 0 268.5 -77.5t180.5 -215.5v266h141v-1167h-141v264q-57 -136 -175 -213.5t-268 -77.5q-229 0 -374.5 168.5t-145.5 440.5zM229 584q0 -218 113.5 -352t292.5 -134q178 0 295 134.5t117 351.5q0 218 -117 351.5t-297 133.5 q-176 0 -290 -133.5t-114 -351.5zM338 1325v107h686v-107h-686z" />
<glyph d="M84 582q0 273 144.5 442.5t369.5 169.5q149 0 268.5 -77.5t180.5 -215.5v266h141v-1167h-141v264q-57 -136 -175 -213.5t-268 -77.5q-229 0 -374.5 168.5t-145.5 440.5zM229 584q0 -218 113.5 -352t292.5 -134q178 0 295 134.5t117 351.5q0 218 -117 351.5t-297 133.5 q-176 0 -290 -133.5t-114 -351.5zM479 1442q0 82 55.5 136t141.5 54q84 0 139 -54t55 -136t-55 -136.5t-139 -54.5q-86 0 -141.5 54.5t-55.5 136.5zM563 1442q0 -50 32 -82.5t81 -32.5q47 0 78.5 33t31.5 82t-31.5 81.5t-78.5 32.5q-49 0 -81 -32t-32 -82z" />
<glyph d="M84 582q0 273 144.5 442.5t369.5 169.5q149 0 268.5 -77.5t180.5 -215.5v266h141v-1167h-141v264q-57 -136 -175 -213.5t-268 -77.5q-229 0 -374.5 168.5t-145.5 440.5zM229 584q0 -218 113.5 -352t292.5 -134q178 0 295 134.5t117 351.5q0 218 -117 351.5t-297 133.5 q-176 0 -290 -133.5t-114 -351.5zM348 1292q-1 86 48 141.5t122 55.5q55 0 156 -47t137 -47q35 0 56.5 25t21.5 67h90q3 -86 -46 -142.5t-122 -56.5q-54 0 -155 48t-136 48t-58 -25.5t-24 -66.5h-90z" />
<glyph d="M84 582q0 273 144.5 442.5t369.5 169.5q149 0 268.5 -77.5t180.5 -215.5v266h141v-1167h-2q-97 -67 -142 -118t-45 -115q0 -63 43 -101.5t113 -38.5q21 0 31 2v-96q-40 -4 -64 -4q-107 0 -174 58.5t-67 152.5q0 146 190 260h-24v264q-57 -136 -175 -213.5t-268 -77.5 q-229 0 -374.5 168.5t-145.5 440.5zM229 584q0 -218 113.5 -352t292.5 -134q178 0 295 134.5t117 351.5q0 218 -117 351.5t-297 133.5q-176 0 -290 -133.5t-114 -351.5z" />
<glyph horiz-adv-x="430" d="M145 0v1167h142v-1167h-142zM145 1284v277h142v-277h-142z" />
<glyph horiz-adv-x="1581" d="M174 0v924q0 266 163.5 429t440.5 163q196 0 333.5 -84t186.5 -236l-303 -313q216 2 350 -119.5t134 -323.5q0 -209 -142 -339t-362 -130q-191 0 -317 99.5t-150 255.5l145 57q14 -125 102.5 -203t225.5 -78q145 0 242.5 90.5t97.5 241.5q0 178 -139 271t-367 55v112 l307 326q-40 87 -131.5 131.5t-212.5 44.5q-210 0 -330 -124.5t-120 -344.5v-905h-154z" />
<glyph horiz-adv-x="1124" d="M57 1047v120h189q1 170 84.5 262.5t226.5 92.5q105 0 176 -54l-31 -102q-53 47 -129 47q-91 0 -142 -64t-48 -182h274v-120h-272v-1047h-141v1047h-187zM838 0v1167h141v-1167h-141zM838 1284v277h141v-277h-141z" />
<glyph horiz-adv-x="1748" d="M57 1047v120h189q-1 165 79.5 260t221.5 95q99 0 168 -54l-29 -102q-56 47 -123 47q-87 0 -135 -65.5t-45 -180.5h258v-120h-256v-1047h-141v1047h-187zM719 1047v120h164q-1 167 78.5 261t222.5 94q97 0 166 -54l-29 -102q-56 47 -121 47q-88 0 -135.5 -64.5 t-44.5 -181.5h256v-120h-254v-1047h-141v1047h-162zM1462 0v1167h142v-1167h-142zM1462 1284v277h142v-277h-142z" />
<glyph horiz-adv-x="862" d="M150 1268l169 297h158l-201 -297h-126zM156 0v1167h141v-1167h-141zM391 -379q102 12 146.5 68t44.5 166v1312h141v-1317q0 -154 -77 -244t-218 -114zM575 1268l170 297h158l-201 -297h-127z" />
<glyph horiz-adv-x="1320" d="M82 741q0 359 154.5 563.5t425.5 204.5t424 -204t153 -564t-153 -564t-424 -204t-425.5 204.5t-154.5 563.5zM229 741q0 -370 162 -532l459 1126q-77 45 -188 45q-211 0 -322 -167.5t-111 -471.5zM471 150q82 -46 191 -46q211 0 321.5 167t110.5 470q0 373 -162 535z" />
<glyph horiz-adv-x="1300" d="M72 741q0 359 154 563.5t425 204.5t424.5 -204t153.5 -564t-153.5 -564t-424.5 -204t-425 204.5t-154 563.5zM219 741q0 -370 162 -532l459 1126q-77 45 -189 45q-211 0 -321.5 -167t-110.5 -472zM461 150q82 -46 190 -46q211 0 321.5 167t110.5 470q0 374 -161 535z" />
<glyph horiz-adv-x="1300" d="M72 741q0 359 154 563.5t425 204.5t424.5 -204t153.5 -564t-153.5 -564t-424.5 -204t-425 204.5t-154 563.5zM219 741q0 -303 110.5 -470t321.5 -167t321.5 167t110.5 470q0 305 -110.5 472t-321.5 167t-321.5 -167t-110.5 -472z" />
<glyph horiz-adv-x="1300" d="M152 0v129h440v1104q-50 -74 -129 -133.5t-172 -93.5v137q111 34 200 126.5t119 209.5h127v-1350h412v-129h-997z" />
<glyph horiz-adv-x="1300" d="M125 0v27q0 285 328 493l282 182q150 94 211.5 180t61.5 189q0 143 -94 226t-244 83q-158 0 -264.5 -101.5t-116.5 -270.5l-144 69q29 197 175 314.5t354 117.5q213 0 348 -118t135 -314q0 -268 -319 -471l-283 -178q-216 -131 -233 -295h868v-133h-1065z" />
<glyph horiz-adv-x="1300" d="M98 442l146 54q0 -174 111.5 -284t301.5 -110q173 0 282.5 85.5t109.5 226.5q0 147 -107 227t-299 80h-55v127h55q173 0 274 72.5t101 193.5q0 123 -96.5 194.5t-251.5 71.5q-161 0 -267.5 -90t-113.5 -235l-144 49q19 180 165.5 292.5t367.5 112.5q212 0 350.5 -103.5 t138.5 -270.5q0 -124 -78.5 -217.5t-220.5 -129.5q159 -33 246.5 -136t87.5 -246q0 -186 -154 -310.5t-389 -124.5q-245 0 -397 131.5t-164 339.5z" />
<glyph horiz-adv-x="1300" d="M47 367v98l821 1012h144v-983h239v-127h-239v-367h-140v367h-825zM229 494h643v792z" />
<glyph horiz-adv-x="1300" d="M111 440l137 58q-4 -179 105.5 -287.5t289.5 -108.5q185 0 291 110t106 284t-104 274t-270 100q-113 0 -210 -53t-165 -149l-129 55l119 754h817v-129h-705l-84 -519q162 162 391 162q216 0 352 -136.5t136 -358.5q0 -229 -150.5 -377t-396.5 -148q-229 0 -374 129.5 t-156 339.5z" />
<glyph horiz-adv-x="1300" d="M104 651q0 257 73.5 450t217.5 300.5t342 107.5q129 0 239.5 -47.5t176.5 -132.5l-72 -145q-55 92 -147.5 144t-206.5 52q-209 0 -336.5 -170.5t-132.5 -455.5q68 121 181.5 186.5t258.5 65.5q222 0 362 -139t140 -359q0 -151 -66.5 -273t-192 -193t-286.5 -71 q-117 0 -214.5 40t-174 120t-119.5 213t-43 307zM264 508q0 -75 24 -146t70.5 -130t124 -94.5t174.5 -35.5q181 0 288.5 110.5t107.5 291.5q0 178 -105 282.5t-278 104.5q-172 0 -289 -108t-117 -275z" />
<glyph horiz-adv-x="1300" d="M127 1348v129h1047v-86q-257 -279 -385 -610t-158 -781h-148q38 429 154 757t334 591h-844z" />
<glyph horiz-adv-x="1300" d="M100 412q0 139 86.5 241t239.5 148q-123 44 -192.5 134.5t-69.5 205.5q0 164 135.5 267t349.5 103t351 -103t137 -267q0 -115 -70.5 -205t-192.5 -135q153 -46 238.5 -148t85.5 -241q0 -194 -153 -317.5t-396 -123.5q-241 0 -395 123.5t-154 317.5zM248 424 q0 -142 110 -232t291 -90q182 0 293 90t111 232q0 139 -111 226t-293 87t-291.5 -87t-109.5 -226zM311 1122q0 -118 92.5 -187t245.5 -69q155 0 247.5 69t92.5 187q0 117 -94 188.5t-246 71.5q-151 0 -244.5 -71.5t-93.5 -188.5z" />
<glyph horiz-adv-x="1300" d="M102 979q0 149 66 269.5t191.5 190.5t287.5 70q84 0 159 -19t148.5 -67t126 -122t85 -192.5t32.5 -270.5q0 -398 -170 -632.5t-461 -234.5q-133 0 -250 51.5t-172 135.5l68 137q45 -90 143.5 -141.5t218.5 -51.5q208 0 334 165t138 466q-65 -124 -181 -190t-258 -66 q-225 0 -365.5 140.5t-140.5 361.5zM250 981q0 -173 106.5 -281t280.5 -108q173 0 286 112t113 285q0 171 -109.5 281t-283.5 110t-283.5 -110.5t-109.5 -288.5z" />
<glyph horiz-adv-x="1249" d="M72 707q0 343 147.5 538t405.5 195q259 0 406 -195t147 -538t-147 -537.5t-406 -194.5q-258 0 -405.5 195t-147.5 537zM217 707q0 -351 154 -502l432 1063q-77 41 -178 41q-199 0 -303.5 -157.5t-104.5 -444.5zM446 150q77 -44 179 -44q198 0 301.5 157t103.5 444 q0 352 -151 503z" />
<glyph horiz-adv-x="1249" d="M72 707q0 343 147.5 538t405.5 195q259 0 406 -195t147 -538t-147 -537.5t-406 -194.5q-258 0 -405.5 195t-147.5 537zM217 707q0 -286 104.5 -443.5t303.5 -157.5q198 0 301.5 157t103.5 444q0 288 -103 445t-302 157t-303.5 -157.5t-104.5 -444.5z" />
<glyph horiz-adv-x="583" d="M51 954v138q94 27 182.5 115t124.5 200h125v-1407h-145v1169q-112 -142 -287 -215z" />
<glyph horiz-adv-x="1126" d="M51 0v27q0 295 326 483l276 158q144 85 205.5 168.5t61.5 185.5q0 134 -95.5 209.5t-242.5 75.5q-160 0 -262.5 -93.5t-112.5 -255.5l-139 66q10 77 48.5 150t101.5 133t159 96.5t209 36.5q215 0 349 -113.5t134 -298.5q0 -272 -324 -463l-282 -155q-210 -123 -232 -279 h865v-131h-1045z" />
<glyph horiz-adv-x="1165" d="M41 422l143 53q-2 -163 104.5 -267t286.5 -104q162 0 264.5 80t102.5 215t-102 210t-283 75h-51v125h53q164 0 258 69t94 183q0 116 -92.5 182t-232.5 66q-154 0 -253.5 -86t-105.5 -224l-143 52q19 171 158.5 280t349.5 109q203 0 337 -100.5t134 -258.5 q0 -129 -85 -218t-222 -113q149 -21 244.5 -118.5t95.5 -244.5q0 -176 -148.5 -295t-372.5 -119q-234 0 -378.5 125.5t-155.5 323.5z" />
<glyph horiz-adv-x="1253" d="M61 346v98l781 963h141v-934h229v-127h-229v-346h-137v346h-785zM244 473h602v744z" />
<glyph horiz-adv-x="1130" d="M51 420l135 57q-4 -168 100.5 -270.5t274.5 -102.5q173 0 272 102.5t99 266.5q0 163 -97.5 257.5t-252.5 94.5q-112 0 -205 -51t-156 -137l-123 55l115 715h780v-129h-669l-76 -481q152 149 368 149q205 0 335 -131t130 -342q0 -218 -145 -359t-379 -141q-219 0 -358 124 t-148 323z" />
<glyph horiz-adv-x="1177" d="M72 623q0 173 38 320t111 258.5t189.5 175t263.5 63.5q137 0 238.5 -49t158.5 -123l-72 -146q-49 85 -135.5 136t-197.5 51q-135 0 -235 -77.5t-151 -206.5t-55 -294q65 116 175.5 171.5t238.5 55.5q212 0 344.5 -131.5t132.5 -341.5q0 -221 -144.5 -366.5t-377.5 -145.5 q-83 0 -157.5 21t-142 70t-116 122.5t-77.5 185.5t-29 251zM229 483q0 -71 22.5 -137t66.5 -121t117 -88t165 -33q168 0 268.5 103.5t100.5 273.5q0 168 -98 265.5t-263 97.5q-160 0 -269.5 -101.5t-109.5 -259.5z" />
<glyph horiz-adv-x="1038" d="M20 1278v129h998v-88q-249 -270 -369 -590.5t-147 -728.5h-148q34 402 147 718t318 560h-799z" />
<glyph horiz-adv-x="1189" d="M72 393q0 135 82 230.5t219 138.5q-109 44 -175.5 127t-66.5 196q0 155 131 255t334 100q204 0 334.5 -100t130.5 -255q0 -111 -67 -194t-175 -127q137 -45 219 -140.5t82 -230.5q0 -186 -146.5 -303t-377.5 -117t-377.5 117t-146.5 303zM217 406q0 -133 104.5 -217.5 t274.5 -84.5t273.5 84.5t103.5 217.5q0 130 -103 211t-274 81t-275 -81t-104 -211zM279 1069q0 -112 86.5 -177t230.5 -65t230.5 65t86.5 177q0 109 -87 174.5t-230 65.5t-230 -65.5t-87 -174.5z" />
<glyph horiz-adv-x="1179" d="M61 932q0 107 37 200t104.5 161t167 107.5t218.5 39.5q78 0 148.5 -18.5t140 -65t120.5 -117.5t82 -184.5t31 -257.5q0 -133 -22.5 -253.5t-71 -225.5t-119 -181.5t-171 -120t-222.5 -43.5q-134 0 -244 50t-158 124l68 138q44 -86 138.5 -133.5t203.5 -47.5 q107 0 191.5 47t137.5 129.5t81.5 188.5t31.5 229q-57 -113 -165 -179t-246 -66q-214 0 -348 134.5t-134 344.5zM209 934q0 -162 100 -263.5t262 -101.5q164 0 269.5 104.5t105.5 268.5q0 161 -102 264t-264 103q-164 0 -267.5 -104.5t-103.5 -270.5z" />
<glyph horiz-adv-x="862" d="M82 1247q0 213 93 335t255 122q164 0 257 -122t93 -335t-93 -334.5t-257 -121.5q-163 0 -255.5 122t-92.5 334zM195 1247q0 -220 98 -305l260 625q-52 37 -123 37q-115 0 -175 -92.5t-60 -264.5zM344 909q43 -16 86 -16q116 0 177 92t61 262q0 186 -68 275z" />
<glyph horiz-adv-x="862" d="M82 1247q0 213 93 335t255 122q164 0 257 -122t93 -335t-93 -334.5t-257 -121.5q-163 0 -255.5 122t-92.5 334zM195 1247q0 -170 60 -262t175 -92q116 0 177 92t61 262q0 172 -61 264.5t-177 92.5q-115 0 -175 -92.5t-60 -264.5z" />
<glyph horiz-adv-x="522" d="M72 1391v104q70 21 125 70t79 118h91v-876h-111v717q-66 -94 -184 -133z" />
<glyph horiz-adv-x="772" d="M61 807v18q0 94 48.5 167t152.5 138l166 97q88 53 126 102t38 107q0 78 -55.5 123t-141.5 45q-95 0 -155 -56.5t-64 -154.5l-106 51q19 118 110 189t223 71q133 0 217.5 -71t84.5 -187q0 -169 -203 -285l-168 -96q-116 -68 -131 -158h516v-100h-658z" />
<glyph horiz-adv-x="811" d="M51 1071l111 43q-3 -100 60 -162.5t167 -62.5q94 0 152.5 47.5t58.5 122.5q0 78 -59 121t-162 43h-39v94h39q92 0 147.5 39.5t55.5 105.5q0 65 -52.5 103.5t-136.5 38.5q-90 0 -148 -50.5t-59 -134.5l-110 41q11 108 100.5 176t222.5 68q130 0 213.5 -63t83.5 -162 q0 -75 -51.5 -131t-142.5 -74q100 -17 157.5 -78.5t57.5 -148.5q0 -110 -93 -183t-233 -73q-147 0 -239.5 79t-100.5 201z" />
<glyph horiz-adv-x="835" d="M61 1016v74l478 593h106v-577h137v-90h-137v-207h-106v207h-478zM188 1106h351v434z" />
<glyph horiz-adv-x="796" d="M72 1071l104 45q-4 -99 56.5 -161t160.5 -62t159.5 59.5t59.5 151.5q0 93 -58 149t-148 56q-61 0 -114.5 -27.5t-88.5 -77.5l-101 41l72 438h494v-92h-410l-43 -276q95 86 221 86t206.5 -81t80.5 -212q0 -138 -90 -226.5t-238 -88.5q-140 0 -228.5 77t-94.5 201z" />
<glyph horiz-adv-x="815" d="M82 1198q0 229 101.5 367.5t283.5 138.5q75 0 141.5 -27t104.5 -73l-51 -105q-29 51 -82 80t-119 29q-122 0 -194.5 -100t-71.5 -265q32 75 101.5 118.5t158.5 43.5q126 0 207 -83t81 -212q0 -136 -90 -227.5t-235 -91.5q-151 0 -243.5 104.5t-92.5 302.5zM201 1110 q0 -85 57 -153t158 -68q96 0 155.5 61t59.5 158t-59 155t-152 58t-156 -59t-63 -152z" />
<glyph horiz-adv-x="677" d="M20 1587v96h625v-63q-156 -172 -232 -366.5t-83 -444.5h-113q24 452 279 778h-476z" />
<glyph horiz-adv-x="825" d="M82 1053q0 83 51 143t143 88q-74 26 -116.5 79t-42.5 120q0 99 81 160t214 61t215 -61t82 -160q0 -67 -43 -120t-117 -79q92 -28 143 -88t51 -143q0 -116 -91.5 -189t-239.5 -73t-239 73t-91 189zM195 1063q0 -76 61.5 -125t155.5 -49q95 0 157 49t62 125t-61 123 t-158 47t-157 -47t-60 -123zM227 1468q0 -62 51 -100.5t134 -38.5q84 0 135 38.5t51 100.5q0 65 -50.5 103.5t-135.5 38.5q-83 0 -134 -39t-51 -103z" />
<glyph horiz-adv-x="815" d="M72 1386q0 137 90 227.5t237 90.5q68 0 126 -22t106 -68t75 -126.5t27 -187.5q0 -234 -102.5 -371.5t-280.5 -137.5q-78 0 -147.5 28t-104.5 74l52 100q26 -49 81.5 -77.5t124.5 -28.5q122 0 192 95.5t73 266.5q-32 -76 -99.5 -117.5t-154.5 -41.5q-130 0 -212.5 82.5 t-82.5 213.5zM184 1389q0 -96 58.5 -155.5t152.5 -59.5t155.5 61t61.5 156q0 93 -59 153t-154 60q-94 0 -154.5 -60t-60.5 -155z" />
<glyph horiz-adv-x="862" d="M82 236q0 212 92.5 334t255.5 122q164 0 257 -121.5t93 -334.5t-93 -335t-257 -122q-162 0 -255 122t-93 335zM195 236q0 -221 98 -306l260 625q-52 37 -123 37q-115 0 -175 -92.5t-60 -263.5zM344 -102q46 -17 86 -17q116 0 177 92.5t61 262.5q0 185 -68 274z" />
<glyph horiz-adv-x="862" d="M82 236q0 212 92.5 334t255.5 122q164 0 257 -121.5t93 -334.5t-93 -335t-257 -122q-162 0 -255 122t-93 335zM195 236q0 -170 60 -262.5t175 -92.5q116 0 177 92.5t61 262.5q0 171 -61 263.5t-177 92.5q-115 0 -175 -92.5t-60 -263.5z" />
<glyph horiz-adv-x="522" d="M72 379v104q70 21 125 70.5t79 118.5h91v-877h-111v717q-66 -94 -184 -133z" />
<glyph horiz-adv-x="772" d="M61 -186q0 94 48.5 167t152.5 138l166 96q88 53 126 102t38 107q0 78 -55.5 123t-141.5 45q-95 0 -155 -56.5t-64 -154.5l-106 51q19 118 110 189t223 71q133 0 217.5 -71t84.5 -187q0 -168 -203 -284l-168 -97q-116 -68 -131 -157h516v-101h-658v19z" />
<glyph horiz-adv-x="811" d="M51 59l111 43q-3 -100 60 -162.5t167 -62.5q94 0 152.5 47.5t58.5 122.5q0 78 -59 121t-162 43h-39v94h39q92 0 147.5 40t55.5 106q0 65 -52 103t-137 38q-90 0 -148 -50t-59 -134l-110 41q11 108 100.5 175.5t222.5 67.5q130 0 213.5 -63t83.5 -162q0 -75 -51.5 -131 t-142.5 -74q100 -17 157.5 -78.5t57.5 -148.5q0 -110 -93 -183t-233 -73q-147 0 -239.5 79t-100.5 201z" />
<glyph horiz-adv-x="835" d="M61 2v74l478 594h106v-578h137v-90h-137v-207h-106v207h-478zM188 92h351v434z" />
<glyph horiz-adv-x="796" d="M72 59l104 45q-4 -99 56.5 -161t160.5 -62t159.5 59.5t59.5 151.5q0 93 -58 149t-148 56q-61 0 -114.5 -27t-88.5 -77l-101 40l72 439h494v-92h-410l-43 -277q95 86 221 86t206.5 -81t80.5 -212q0 -138 -90 -226.5t-238 -88.5q-140 0 -228.5 77t-94.5 201z" />
<glyph horiz-adv-x="815" d="M82 186q0 229 101.5 367.5t283.5 138.5q75 0 141.5 -27t104.5 -73l-51 -105q-29 51 -82 80t-119 29q-122 0 -194.5 -100t-71.5 -265q32 75 101.5 118.5t158.5 43.5q126 0 207 -83t81 -212q0 -136 -90 -227.5t-235 -91.5q-151 0 -243.5 104.5t-92.5 302.5zM201 98 q0 -85 57 -153t158 -68q96 0 155.5 61t59.5 158t-59 155t-152 58t-156 -59t-63 -152z" />
<glyph horiz-adv-x="677" d="M20 575v97h625v-64q-156 -172 -232 -366.5t-83 -444.5h-113q24 452 279 778h-476z" />
<glyph horiz-adv-x="806" d="M72 41q0 83 51 143t143 88q-74 26 -117 79t-43 120q0 99 81 160t214 61t215 -61t82 -160q0 -67 -42.5 -120t-116.5 -79q92 -28 143 -88t51 -143q0 -116 -91.5 -189t-240.5 -73q-148 0 -238.5 73t-90.5 189zM184 51q0 -76 61.5 -125t155.5 -49q96 0 158 49t62 125 t-61.5 123t-158.5 47t-157 -47t-60 -123zM217 457q0 -62 50.5 -101t133.5 -39q84 0 135.5 39t51.5 101q0 64 -51 102.5t-136 38.5q-83 0 -133.5 -38.5t-50.5 -102.5z" />
<glyph horiz-adv-x="815" d="M72 375q0 137 90 227t237 90q68 0 126 -22t106 -67.5t75 -126t27 -187.5q0 -234 -102.5 -372t-280.5 -138q-78 0 -147.5 28t-104.5 74l52 101q26 -49 81.5 -78t124.5 -29q122 0 192 96t73 267q-32 -76 -99.5 -118t-154.5 -42q-129 0 -212 83t-83 214zM184 377 q0 -96 58.5 -155.5t152.5 -59.5t155.5 61t61.5 156q0 93 -59 153t-154 60q-94 0 -154.5 -60t-60.5 -155z" />
<glyph horiz-adv-x="862" d="M82 1051q0 212 92.5 334t255.5 122q164 0 257 -121.5t93 -334.5t-93 -335t-257 -122q-162 0 -255 122t-93 335zM195 1051q0 -221 98 -306l260 625q-52 37 -123 37q-115 0 -175 -92.5t-60 -263.5zM344 713q46 -17 86 -17q116 0 177 92.5t61 262.5q0 185 -68 274z" />
<glyph horiz-adv-x="862" d="M82 1051q0 212 92.5 334t255.5 122q164 0 257 -121.5t93 -334.5t-93 -335t-257 -122q-162 0 -255 122t-93 335zM195 1051q0 -170 60 -262.5t175 -92.5q116 0 177 92.5t61 262.5q0 171 -61 263.5t-177 92.5q-115 0 -175 -92.5t-60 -263.5z" />
<glyph horiz-adv-x="522" d="M72 1186v104q70 21 125 70.5t79 118.5h91v-877h-111v717q-66 -94 -184 -133z" />
<glyph horiz-adv-x="772" d="M61 610v19q0 94 48.5 167t152.5 138l166 96q88 53 126 102t38 107q0 78 -55.5 123t-141.5 45q-95 0 -155 -56.5t-64 -154.5l-106 51q19 118 110 189t223 71q133 0 217.5 -71t84.5 -187q0 -168 -203 -284l-168 -97q-116 -68 -131 -157h516v-101h-658z" />
<glyph horiz-adv-x="811" d="M51 874l111 44q-3 -100 60 -163t167 -63q94 0 152.5 47.5t58.5 122.5q0 78 -59 121t-162 43h-39v94h39q92 0 147.5 40t55.5 106q0 65 -52 103t-137 38q-90 0 -148 -50t-59 -134l-110 41q11 108 100.5 175.5t222.5 67.5q130 0 213.5 -63t83.5 -162q0 -75 -51.5 -131 t-142.5 -74q100 -17 157.5 -78.5t57.5 -148.5q0 -110 -93 -183t-233 -73q-147 0 -239.5 79t-100.5 201z" />
<glyph horiz-adv-x="835" d="M61 811v74l478 594h106v-578h137v-90h-137v-207h-106v207h-478zM188 901h351v434z" />
<glyph horiz-adv-x="796" d="M72 866l104 45q-4 -99 56.5 -161t160.5 -62t159.5 59.5t59.5 151.5q0 93 -58 149t-148 56q-61 0 -114.5 -27.5t-88.5 -77.5l-101 41l72 439h494v-93h-410l-43 -276q95 86 221 86t206.5 -81t80.5 -212q0 -138 -90 -226.5t-238 -88.5q-140 0 -228.5 77t-94.5 201z" />
<glyph horiz-adv-x="815" d="M82 1001q0 229 101.5 367.5t283.5 138.5q75 0 141.5 -27t104.5 -73l-51 -104q-29 51 -82 79.5t-119 28.5q-122 0 -194.5 -99.5t-71.5 -264.5q32 75 101.5 118t158.5 43q126 0 207 -83t81 -212q0 -136 -90 -227.5t-235 -91.5q-151 0 -243.5 104.5t-92.5 302.5zM201 913 q0 -85 57 -153t158 -68q96 0 155.5 61t59.5 158t-59 155t-152 58t-156 -59t-63 -152z" />
<glyph horiz-adv-x="677" d="M20 1382v97h625v-64q-156 -172 -232 -366.5t-83 -444.5h-113q24 452 279 778h-476z" />
<glyph horiz-adv-x="806" d="M72 854q0 83 51 143t143 88q-74 26 -117 79t-43 120q0 99 81 160t214 61t215 -61t82 -160q0 -67 -42.5 -120t-116.5 -79q92 -28 143 -88t51 -143q0 -116 -91.5 -189t-240.5 -73q-148 0 -238.5 73t-90.5 189zM184 864q0 -76 61.5 -125t155.5 -49q96 0 158 49t62 125 t-61.5 123t-158.5 47t-157 -47t-60 -123zM217 1270q0 -62 50.5 -101t133.5 -39q84 0 135.5 39t51.5 101q0 64 -51 102.5t-136 38.5q-83 0 -133.5 -38.5t-50.5 -102.5z" />
<glyph horiz-adv-x="815" d="M72 1190q0 137 90 227t237 90q68 0 126 -22t106 -67.5t75 -126t27 -187.5q0 -234 -102.5 -372t-280.5 -138q-78 0 -147.5 28t-104.5 74l52 101q26 -49 81.5 -78t124.5 -29q122 0 192 96t73 267q-32 -76 -99.5 -118t-154.5 -42q-129 0 -212 82.5t-83 214.5zM184 1192 q0 -96 58.5 -155.5t152.5 -59.5t155.5 61t61.5 156q0 93 -59 153t-154 60q-94 0 -154.5 -60t-60.5 -155z" />
<glyph horiz-adv-x="862" d="M82 440q0 213 93 335t255 122q164 0 257 -122t93 -335t-93 -334.5t-257 -121.5q-163 0 -255.5 122t-92.5 334zM195 440q0 -220 98 -305l260 625q-52 37 -123 37q-115 0 -175 -92.5t-60 -264.5zM344 102q43 -16 86 -16q116 0 177 92t61 262q0 186 -68 275z" />
<glyph horiz-adv-x="862" d="M82 440q0 213 93 335t255 122q164 0 257 -122t93 -335t-93 -334.5t-257 -121.5q-163 0 -255.5 122t-92.5 334zM195 440q0 -170 60 -262t175 -92q116 0 177 92t61 262q0 172 -61 264.5t-177 92.5q-115 0 -175 -92.5t-60 -264.5z" />
<glyph horiz-adv-x="522" d="M72 584v104q70 21 125 70.5t79 118.5h91v-877h-111v717q-66 -94 -184 -133z" />
<glyph horiz-adv-x="772" d="M61 0v18q0 94 48.5 168t152.5 138l166 96q88 53 126 102t38 107q0 78 -55.5 123t-141.5 45q-95 0 -155 -56.5t-64 -154.5l-106 51q19 118 110 189t223 71q133 0 217.5 -71t84.5 -187q0 -169 -203 -285l-168 -96q-116 -68 -131 -158h516v-100h-658z" />
<glyph horiz-adv-x="811" d="M51 264l111 43q-3 -100 60 -162.5t167 -62.5q94 0 152.5 47.5t58.5 122.5q0 78 -59 121t-162 43h-39v94h39q92 0 147.5 39.5t55.5 105.5q0 65 -52.5 103.5t-136.5 38.5q-90 0 -148 -50.5t-59 -134.5l-110 41q11 108 100.5 176t222.5 68q130 0 213.5 -63t83.5 -162 q0 -75 -51.5 -131t-142.5 -74q100 -17 157.5 -78.5t57.5 -148.5q0 -110 -93 -183t-233 -73q-147 0 -239.5 79t-100.5 201z" />
<glyph horiz-adv-x="835" d="M61 207v74l478 593h106v-577h137v-90h-137v-207h-106v207h-478zM188 297h351v434z" />
<glyph horiz-adv-x="796" d="M72 262l104 45q-4 -99 56.5 -161t160.5 -62t159.5 59.5t59.5 151.5q0 93 -58 149t-148 56q-61 0 -114.5 -27.5t-88.5 -77.5l-101 41l72 438h494v-92h-410l-43 -276q95 86 221 86t206.5 -81t80.5 -212q0 -138 -90 -226.5t-238 -88.5q-140 0 -228.5 77t-94.5 201z" />
<glyph horiz-adv-x="815" d="M82 391q0 229 101.5 367.5t283.5 138.5q75 0 141.5 -27t104.5 -73l-51 -105q-29 51 -82 80t-119 29q-122 0 -194.5 -100t-71.5 -265q32 75 101.5 118.5t158.5 43.5q126 0 207 -83t81 -212q0 -136 -90 -227.5t-235 -91.5q-151 0 -243.5 104.5t-92.5 302.5zM201 303 q0 -85 57 -153t158 -68q96 0 155.5 61t59.5 158t-59 155t-152 58t-156 -59t-63 -152z" />
<glyph horiz-adv-x="677" d="M20 778v96h625v-63q-156 -172 -232 -366.5t-83 -444.5h-113q24 452 279 778h-476z" />
<glyph horiz-adv-x="825" d="M82 246q0 83 51 143t143 88q-74 26 -116.5 79t-42.5 120q0 99 81 160t214 61t215 -61t82 -160q0 -67 -43 -120t-117 -79q92 -28 143 -88t51 -143q0 -116 -91.5 -189t-239.5 -73t-239 73t-91 189zM195 256q0 -76 61.5 -125t155.5 -49q95 0 157 49t62 125t-61 123t-158 47 t-157 -47t-60 -123zM227 662q0 -62 51 -101t134 -39q84 0 135 39t51 101q0 64 -50.5 102.5t-135.5 38.5q-84 0 -134.5 -38.5t-50.5 -102.5z" />
<glyph horiz-adv-x="815" d="M72 580q0 137 90 227t237 90q68 0 126 -22t106 -67.5t75 -126t27 -187.5q0 -234 -102.5 -372t-280.5 -138q-78 0 -147.5 28t-104.5 74l52 100q26 -49 81.5 -77.5t124.5 -28.5q122 0 192 95.5t73 266.5q-32 -76 -99.5 -117.5t-154.5 -41.5q-129 0 -212 82.5t-83 214.5z M184 582q0 -96 58.5 -155.5t152.5 -59.5t155.5 61t61.5 156q0 93 -59 153t-154 60q-94 0 -154.5 -60t-60.5 -155z" />
<glyph horiz-adv-x="813" d="M84 987q0 91 70.5 145.5t218.5 77.5l190 25v35q0 155 -172 155q-81 0 -134.5 -38t-70.5 -107l-82 57q72 179 293 179q129 0 199 -61.5t70 -174.5v-295q0 -121 14 -178h-107q-4 18 -12 143q-73 -159 -254 -159q-101 0 -162 54t-61 142zM188 995q0 -53 39.5 -83.5 t106.5 -30.5q100 0 164.5 63.5t64.5 163.5v51l-160 -20q-215 -29 -215 -144z" />
<glyph horiz-adv-x="894" d="M145 807v876h109v-350q32 84 104 133.5t162 49.5q128 0 209.5 -100t81.5 -261q0 -162 -84 -263t-215 -101q-87 0 -156.5 44.5t-101.5 122.5v-151h-109zM254 1153q0 -118 64 -192t161 -74q98 0 160.5 74t62.5 194q0 119 -63 191.5t-160 72.5q-99 0 -162 -72.5t-63 -193.5z " />
<glyph horiz-adv-x="808" d="M84 1155q0 162 94.5 261.5t243.5 99.5q113 0 193.5 -59t111.5 -163l-102 -43q-15 79 -68.5 123.5t-132.5 44.5q-102 0 -166.5 -72t-64.5 -192q0 -121 64 -193.5t167 -72.5q78 0 132 44t69 122l102 -41q-32 -106 -111.5 -164.5t-191.5 -58.5q-150 0 -245 100.5t-95 263.5z " />
<glyph horiz-adv-x="894" d="M84 1155q0 159 86 260t215 101q90 0 159.5 -48.5t98.5 -132.5v348h107v-876h-107v168q-29 -85 -99 -134.5t-161 -49.5q-131 0 -215 101.5t-84 262.5zM193 1155q0 -120 63 -194t160 -74q98 0 162.5 74t64.5 192q0 121 -64 193.5t-163 72.5q-97 0 -160 -72.5t-63 -191.5z " />
<glyph horiz-adv-x="825" d="M84 1153q0 163 95 263t245 100q154 0 238 -101.5t79 -277.5h-542q-4 -111 61 -180.5t166 -69.5q77 0 132.5 41.5t74.5 111.5l90 -41q-29 -100 -106.5 -154t-190.5 -54q-152 0 -247 99.5t-95 262.5zM197 1210h438q-7 106 -64.5 163t-148.5 57q-96 0 -158.5 -60.5 t-66.5 -159.5z" />
<glyph horiz-adv-x="487" d="M57 1413v68h109q-3 106 48 165.5t142 59.5q64 0 111 -35l-23 -76q-32 29 -71 29q-53 0 -82 -39t-23 -104h154v-68h-152v-606h-106v606h-107z" />
<glyph horiz-adv-x="886" d="M86 1163q0 157 86.5 255t220.5 98q87 0 152.5 -42.5t99.5 -119.5v147h109v-631q0 -176 -89.5 -271t-254.5 -95q-244 0 -316 201l90 61q17 -79 76 -123.5t150 -44.5q109 0 172 67.5t63 186.5v139q-27 -84 -95 -130t-159 -46q-134 0 -219.5 96.5t-85.5 251.5zM197 1167 q0 -116 63 -186t162 -70t161 69.5t62 186.5q0 114 -61.5 183t-161.5 69q-101 0 -163 -68.5t-62 -183.5z" />
<glyph horiz-adv-x="892" d="M145 807v876h109v-354q37 89 107 138t161 49q110 0 174 -72t64 -195v-442h-109v422q0 91 -45.5 140.5t-124.5 49.5q-101 0 -164 -80t-63 -209v-323h-109z" />
<glyph horiz-adv-x="387" d="M23 602q62 6 89 38t27 97v762h109v-768q0 -96 -52 -154.5t-143 -72.5zM139 1573v156h109v-156h-109z" />
<glyph horiz-adv-x="772" d="M145 807v876h109v-538l336 354h125l-244 -258l285 -434h-133l-222 358l-147 -155v-203h-109z" />
<glyph horiz-adv-x="399" d="M145 807v876h109v-876h-109z" />
<glyph horiz-adv-x="1312" d="M145 807v692h109v-156q34 82 95 127.5t140 45.5q78 0 133.5 -43.5t77.5 -120.5q38 77 101.5 120.5t144.5 43.5q105 0 166.5 -68t61.5 -188v-453h-107v428q0 90 -41 137t-115 47q-93 0 -145.5 -76.5t-52.5 -205.5v-330h-109v428q0 89 -40 136.5t-113 47.5 q-82 0 -135 -64.5t-62 -176.5v-371h-109z" />
<glyph horiz-adv-x="839" d="M84 1153q0 164 92.5 263.5t243.5 99.5q152 0 244 -99.5t92 -263.5q0 -163 -92 -262.5t-244 -99.5q-151 0 -243.5 99.5t-92.5 262.5zM193 1153q0 -121 62.5 -193.5t164.5 -72.5t164.5 72.5t62.5 193.5q0 122 -62.5 195t-164.5 73t-164.5 -73t-62.5 -195z" />
<glyph horiz-adv-x="894" d="M145 524v975h109v-174q32 88 104.5 139.5t161.5 51.5q127 0 209 -100.5t82 -260.5q0 -162 -84 -263t-215 -101q-87 0 -155.5 45.5t-102.5 126.5v-439h-109zM254 1153q0 -119 63.5 -192.5t161.5 -73.5t160.5 74t62.5 194q0 119 -63 191.5t-160 72.5q-99 0 -162 -72.5 t-63 -193.5z" />
<glyph horiz-adv-x="894" d="M84 1155q0 160 84.5 260.5t214.5 100.5q88 0 157 -48t101 -133v164h109v-975h-109v441q-30 -81 -100.5 -127.5t-159.5 -46.5q-130 0 -213.5 101t-83.5 263zM193 1155q0 -120 62.5 -194t160.5 -74t161.5 73.5t63.5 192.5q0 121 -63 193.5t-162 72.5q-97 0 -160 -72.5 t-63 -191.5z" />
<glyph horiz-adv-x="622" d="M145 807v692h109v-190q27 95 85 151t134 56q79 0 129 -60l-57 -104q-32 53 -103 53q-83 0 -135.5 -82t-52.5 -213v-303h-109z" />
<glyph horiz-adv-x="714" d="M63 991l93 41q10 -73 68.5 -116.5t146.5 -43.5q77 0 122.5 31.5t45.5 83.5q0 28 -14.5 49t-46.5 37.5t-58 25.5t-74 23q-37 11 -51.5 15.5t-48 17t-49 21t-39 25t-34.5 33t-19.5 39.5t-8.5 50q0 85 71.5 136.5t188.5 51.5q108 0 184.5 -47.5t98.5 -124.5l-94 -41 q-7 60 -57.5 96t-127.5 36q-69 0 -112 -27.5t-43 -71.5q0 -20 10.5 -36.5t26 -28t42 -22.5t49 -18t57.5 -17q7 -2 11 -3q45 -13 72.5 -22.5t65 -28t58.5 -39t36.5 -52t15.5 -69.5q0 -91 -77.5 -147.5t-204.5 -56.5q-122 0 -202 53.5t-102 146.5z" />
<glyph horiz-adv-x="507" d="M47 1409v72h117v133l106 86v-219h148v-72h-148v-422q0 -100 78 -100q51 0 76 39l22 -92q-37 -43 -116 -43t-122.5 51t-43.5 145v422h-117z" />
<glyph horiz-adv-x="901" d="M135 1055v444h107v-422q0 -92 45.5 -141t122.5 -49q106 0 172.5 88.5t66.5 226.5v297h107v-692h-107v194q-36 -99 -107 -154.5t-167 -55.5q-108 0 -174 71t-66 193z" />
<glyph horiz-adv-x="714" d="M16 1499h117l223 -575l226 575h116l-284 -692h-115z" />
<glyph horiz-adv-x="1007" d="M16 1499h111l166 -555l160 555h98l164 -557l166 557h112l-225 -692h-100l-164 549l-164 -549h-100z" />
<glyph horiz-adv-x="714" d="M16 807l283 358l-266 334h125l200 -254l197 254h127l-264 -334l282 -358h-127l-215 276l-215 -276h-127z" />
<glyph horiz-adv-x="745" d="M18 1499h125l244 -557l225 557h119l-338 -817q-41 -96 -86.5 -137t-116.5 -41q-101 0 -155 71l53 84q42 -59 100 -59q32 0 55.5 22.5t45.5 73.5l45 113z" />
<glyph horiz-adv-x="747" d="M74 807v80l446 522h-422v90h561v-80l-444 -522h459v-90h-598l2 2z" />
<glyph horiz-adv-x="894" d="M145 -205v877h109v-350q32 84 104 133t162 49q128 0 209.5 -100t81.5 -261q0 -162 -84 -263t-215 -101q-87 0 -156.5 45t-101.5 123v-152h-109zM254 141q0 -118 64 -192t161 -74q98 0 160.5 74t62.5 194t-63 192.5t-160 72.5q-98 0 -161.5 -73t-63.5 -194z" />
<glyph horiz-adv-x="808" d="M84 141q0 162 94.5 261.5t243.5 99.5q113 0 193.5 -59t111.5 -162l-102 -43q-15 79 -68.5 123.5t-132.5 44.5q-102 0 -166.5 -72.5t-64.5 -192.5q0 -121 64 -193.5t167 -72.5q78 0 132 44t69 122l102 -41q-32 -106 -111.5 -164.5t-191.5 -58.5q-150 0 -245 100.5 t-95 263.5z" />
<glyph horiz-adv-x="894" d="M84 143q0 159 86 260t215 101q91 0 160 -48.5t98 -131.5v348h107v-877h-107v168q-29 -85 -99 -134.5t-161 -49.5q-131 0 -215 101.5t-84 262.5zM193 143q0 -120 63 -194t160 -74q98 0 162.5 74t64.5 192q0 121 -64 194t-163 73q-97 0 -160 -72.5t-63 -192.5z" />
<glyph horiz-adv-x="487" d="M57 401v68h109q-3 106 48 165.5t142 59.5q64 0 111 -35l-23 -75q-31 28 -71 28q-53 0 -82 -39t-23 -104h154v-68h-152v-606h-106v606h-107z" />
<glyph horiz-adv-x="886" d="M86 150q0 157 86 254.5t221 97.5q87 0 152.5 -42.5t99.5 -119.5v147h109v-630q0 -177 -89.5 -272t-254.5 -95q-244 0 -316 201l90 61q17 -79 76 -123.5t150 -44.5q109 0 172 67.5t63 186.5v139q-27 -84 -95 -130t-159 -46q-134 0 -219.5 97t-85.5 252zM197 154 q0 -116 63 -186t162 -70t161 69.5t62 186.5q0 114 -61.5 183t-161.5 69q-101 0 -163 -68.5t-62 -183.5z" />
<glyph horiz-adv-x="397" d="M145 -205v692h107v-692h-107zM145 561v156h107v-156h-107z" />
<glyph horiz-adv-x="894" d="M84 141q0 160 84.5 260.5t214.5 100.5q88 0 157 -48t101 -132v163h109v-974h-109v440q-30 -81 -100.5 -127.5t-159.5 -46.5q-130 0 -213.5 101t-83.5 263zM193 141q0 -120 62.5 -194t160.5 -74t161.5 73.5t63.5 192.5q0 121 -63.5 194t-161.5 73q-97 0 -160 -72.5 t-63 -192.5z" />
<glyph horiz-adv-x="622" d="M145 -207v692h109v-190q27 95 85 151t134 56q79 0 129 -60l-57 -104q-32 53 -103 53q-83 0 -135.5 -82t-52.5 -213v-303h-109z" />
<glyph horiz-adv-x="901" d="M135 41v444h107v-422q0 -92 45.5 -141t122.5 -49q106 0 172.5 88.5t66.5 226.5v297h107v-692h-107v195q-36 -99 -107 -155t-167 -56q-108 0 -174 71t-66 193z" />
<glyph horiz-adv-x="714" d="M16 485h117l223 -575l226 575h116l-284 -692h-115z" />
<glyph horiz-adv-x="1007" d="M16 485h111l166 -555l160 555h98l164 -557l166 557h112l-225 -692h-100l-164 549l-164 -549h-100z" />
<glyph horiz-adv-x="745" d="M18 485h125l244 -557l225 557h119l-338 -817q-41 -96 -86.5 -137t-116.5 -41q-100 0 -155 72l53 84q43 -60 100 -60q32 0 55.5 23t45.5 74l45 112z" />
<glyph horiz-adv-x="747" d="M74 -127l446 522h-422v90h561v-79l-444 -523h459v-90h-598l2 2l-4 -2v80z" />
<glyph horiz-adv-x="352" d="M102 1235v244h158v-244h-158zM106 0v537l9 501h125l6 -501v-537h-140z" />
<glyph horiz-adv-x="1171" d="M102 371q0 56 15 107.5t35 87.5t57.5 77.5t62.5 64t70 60.5q48 41 72 63.5t56 60.5t46 76t14 81h142q-2 -50 -17 -97t-34.5 -81t-53.5 -72t-59 -61t-66 -58q-40 -34 -61 -52.5t-51.5 -51.5t-46 -60t-27.5 -64t-12 -77q0 -118 88 -196.5t231 -78.5q170 0 273.5 110 t97.5 304l135 -68q-4 -212 -145 -342.5t-361 -130.5q-203 0 -332 113.5t-129 284.5zM518 1233v256h164v-256h-164z" />
<glyph horiz-adv-x="702" d="M102 739l336 373h162l-340 -373l340 -372h-164z" />
<glyph horiz-adv-x="702" d="M102 367l340 372l-340 373h162l336 -373l-334 -372h-164z" />
<glyph horiz-adv-x="1097" d="M102 739l336 373h162l-340 -373l340 -372h-164zM498 739l336 373h161l-340 -373l340 -372h-164z" />
<glyph horiz-adv-x="1097" d="M102 367l340 372l-340 373h162l336 -373l-334 -372h-164zM498 367l340 372l-340 373h161l336 -373l-333 -372h-164z" />
<glyph horiz-adv-x="718" d="M205 678v133q98 0 130 31t32 121v614q0 106 53.5 162.5t157.5 56.5h120v-141h-98q-82 0 -82 -80v-645q0 -80 -34 -124.5t-122 -60.5q91 -14 123.5 -57.5t32.5 -126.5v-659q0 -80 82 -80h98v-141h-120q-104 0 -157.5 56.5t-53.5 162.5v628q0 90 -31.5 120t-130.5 30z" />
<glyph horiz-adv-x="718" d="M20 -178h99q82 0 82 80v659q0 84 32.5 127t122.5 57q-88 16 -121.5 60.5t-33.5 124.5v645q0 80 -82 80h-99v141h121q104 0 157.5 -56.5t53.5 -162.5v-614q0 -90 32 -121t130 -31v-133q-99 0 -130.5 -30t-31.5 -120v-628q0 -106 -53.5 -162.5t-157.5 -56.5h-121v141z" />
<glyph horiz-adv-x="612" d="M205 -315v2109h387v-141h-234v-1827h234v-141h-387z" />
<glyph horiz-adv-x="612" d="M20 -174h234v1827h-234v141h388v-2109h-388v141z" />
<glyph horiz-adv-x="839" d="M205 737q0 315 124 580t378 500l112 -101q-231 -216 -342.5 -453t-111.5 -526t111.5 -526t342.5 -453l-112 -100q-254 235 -378 499t-124 580z" />
<glyph horiz-adv-x="839" d="M20 -242q232 216 343.5 453.5t111.5 525.5t-111.5 525.5t-343.5 453.5l113 101q254 -235 378 -500t124 -580q0 -316 -124 -580t-378 -499z" />
<glyph horiz-adv-x="3166" d="M102 524v125h2962v-125h-2962z" />
<glyph horiz-adv-x="841" d="M102 676v125h637v-125h-637z" />
<glyph horiz-adv-x="841" d="M102 676v125h637v-125h-637z" />
<glyph horiz-adv-x="1173" d="M102 676v125h969v-125h-969z" />
<glyph horiz-adv-x="2142" d="M102 676v125h1938v-125h-1938z" />
<glyph horiz-adv-x="3166" d="M102 676v125h2962v-125h-2962z" />
<glyph horiz-adv-x="1744" d="M102 745q0 224 100 400.5t276 273.5t396 97q218 0 393 -98t275 -274.5t100 -398.5q0 -223 -99 -399.5t-274 -274.5t-395 -98t-396 98t-276 274.5t-100 399.5zM180 745q0 -202 89.5 -362.5t248 -250t356.5 -89.5q197 0 355 89.5t247 250t89 362.5q0 151 -52 282 t-143.5 222.5t-219.5 144t-276 52.5q-199 0 -357.5 -89.5t-247.5 -250t-89 -361.5zM582 279v899h342q186 0 276 -84q76 -76 76 -199t-76 -199q-90 -84 -276 -84h-232v-333h-110zM692 715h215q154 0 207 53q49 49 49 127q0 81 -49 127q-53 53 -207 53h-215v-360z" />
<glyph horiz-adv-x="1167" d="M66 991l92 41q10 -73 68.5 -116.5t146.5 -43.5q77 0 122.5 31.5t45.5 83.5q0 28 -14.5 49t-46.5 37.5t-58 25.5t-74 23q-37 11 -51.5 15.5t-48 17t-49 21t-39 25t-34.5 33t-19.5 39.5t-8.5 50q0 85 71.5 136.5t188.5 51.5q108 0 184.5 -47.5t98.5 -124.5l-94 -41 q-7 60 -57.5 96t-127.5 36q-69 0 -112 -27.5t-43 -71.5q0 -20 10.5 -36.5t26 -28t42 -22.5t49 -18t57.5 -17q7 -2 11 -3q45 -13 72.5 -22.5t65 -28t58.5 -39t36.5 -52t15.5 -69.5q0 -91 -77.5 -147.5t-204.5 -56.5q-122 0 -201.5 53.5t-101.5 146.5zM707 1409v72h116v133 l107 86v-219h147v-72h-147v-422q0 -100 78 -100q50 0 75 39l23 -92q-37 -43 -117 -43q-79 0 -122.5 51t-43.5 145v422h-116z" />
<glyph horiz-adv-x="1691" d="M145 807v692h109v-170q37 88 106.5 137.5t159.5 49.5q112 0 176 -71.5t64 -195.5v-442h-109v422q0 91 -45 140.5t-123 49.5q-100 0 -164.5 -80.5t-64.5 -208.5v-323h-109zM881 1155q0 159 86 260t215 101q90 0 159.5 -48.5t98.5 -132.5v348h106v-876h-106v168 q-29 -85 -99 -134.5t-161 -49.5q-131 0 -215 101.5t-84 262.5zM989 1155q0 -120 63 -194t160 -74q98 0 163 74t65 192q0 121 -64.5 193.5t-163.5 72.5q-97 0 -160 -72.5t-63 -191.5z" />
<glyph horiz-adv-x="1445" d="M145 807v692h109v-190q27 95 85 151t134 56q79 0 129 -60l-57 -104q-32 53 -103 53q-83 0 -135.5 -82t-52.5 -213v-303h-109zM635 1155q0 159 86 260t215 101q90 0 159.5 -48.5t98.5 -132.5v348h106v-876h-106v168q-29 -85 -99 -134.5t-161 -49.5q-131 0 -215 101.5 t-84 262.5zM743 1155q0 -120 63.5 -194t160.5 -74q98 0 162.5 74t64.5 192q0 121 -64 193.5t-163 72.5q-97 0 -160.5 -72.5t-63.5 -191.5z" />
<glyph horiz-adv-x="1314" d="M47 1409v72h117v133l106 86v-219h148v-72h-148v-422q0 -100 78 -100q51 0 76 39l22 -92q-37 -43 -116 -43t-122.5 51t-43.5 145v422h-117zM567 807v876h109v-354q37 89 107 138t161 49q110 0 174 -72t64 -195v-442h-109v422q0 91 -45.5 140.5t-124.5 49.5 q-101 0 -164 -80t-63 -209v-323h-109z" />
<glyph horiz-adv-x="409" d="M102 1169l60 469h145l-94 -469h-111z" />
<glyph horiz-adv-x="565" d="M102 1597l185 320h176l-217 -320h-144z" />
<glyph horiz-adv-x="876" d="M102 1917h113q12 -106 70 -161.5t153 -55.5q92 0 153 56.5t71 160.5h112q-8 -150 -97 -240t-239 -90q-149 0 -238.5 90t-97.5 240z" />
<glyph horiz-adv-x="974" d="M102 1917h164l221 -215l224 215h161l-315 -320h-137z" />
<glyph horiz-adv-x="974" d="M102 1597l310 320h151l309 -320h-157l-228 220l-225 -220h-160z" />
<glyph horiz-adv-x="837" d="M102 1618v283h160v-283h-160zM575 1618v283h160v-283h-160z" />
<glyph horiz-adv-x="356" d="M102 1616v287h152v-287h-152z" />
<glyph horiz-adv-x="567" d="M102 1917h177l186 -320h-143z" />
<glyph horiz-adv-x="935" d="M102 1597l177 320h176l-217 -320h-136zM446 1597l209 320h179l-252 -320h-136z" />
<glyph horiz-adv-x="1013" d="M102 1673v123h809v-123h-809z" />
<glyph horiz-adv-x="626" d="M102 1767q0 90 60.5 148.5t150.5 58.5t150.5 -58.5t60.5 -148.5q0 -91 -60.5 -149.5t-150.5 -58.5t-150.5 58.5t-60.5 149.5zM195 1767q0 -54 32.5 -89.5t85.5 -35.5t87 36t34 89q0 52 -34 87.5t-87 35.5t-85.5 -35.5t-32.5 -87.5z" />
<glyph horiz-adv-x="929" d="M102 1632q-2 101 53 164.5t146 63.5q43 0 94 -17.5t89.5 -39t80.5 -39t70 -17.5q38 0 61 29.5t23 78.5h108q2 -103 -46.5 -165t-139.5 -62q-51 0 -116.5 28t-124 56.5t-93.5 28.5q-40 0 -67 -30t-27 -79h-111z" />
<glyph horiz-adv-x="1300" d="M86 -492l31 127q24 -16 71 -16q84 0 136 61.5t77 182.5l213 1057h-235l29 120h231l23 109q38 190 122 278.5t226 88.5q58 0 110 -19l-26 -119q-34 17 -70 17q-85 0 -137.5 -58t-77.5 -182l-23 -115h242l-24 -120h-242l-215 -1057q-73 -373 -346 -373q-48 0 -115 18z" />
<glyph horiz-adv-x="1384" d="M166 0v1479h262v229h96v-229h199h22v229h97v-235q160 -20 256 -97q123 -94 123 -262q0 -123 -65 -214.5t-179 -131.5q140 -34 221.5 -126t81.5 -236q0 -192 -141 -302q-112 -86 -297 -100v-233h-97v229h-221v-229h-96v229h-262zM317 137h390q214 0 317 74q96 75 96 207 t-92 200q-94 70 -289 70h-422v-551zM317 819h385q176 0 269 74q90 77 90 201q0 121 -92 186q-88 61 -283 61h-369v-522z" />
<glyph horiz-adv-x="933" d="M102 850l115 51q4 -82 66.5 -133.5t160.5 -60.5v321q-48 12 -77 21t-70.5 24t-66 32.5t-49.5 42t-36.5 57.5t-11.5 73q0 105 86 170t225 68v151h64v-154q115 -10 194 -63t107 -135l-107 -55q-12 59 -62.5 99t-131.5 50v-276q47 -12 78.5 -21.5t73.5 -25.5t69 -35 t52.5 -45.5t37.5 -62t12 -79.5q0 -111 -88 -183t-235 -79v-162h-64v162q-141 7 -233 74t-109 174zM254 1286q0 -28 14 -49.5t43.5 -37.5t58 -26.5t74.5 -23.5v262q-87 -3 -138.5 -36.5t-51.5 -88.5zM397 0v256h160v-256h-160zM508 705q89 6 144 47t55 100q0 63 -51 97.5 t-148 62.5v-307z" />
<glyph horiz-adv-x="1347" d="M102 743v191l572 569l571 -569v-191l-495 496v-1239h-152v1237z" />
<glyph horiz-adv-x="1310" d="M102 481l871 871l-705 -4l135 131h805v-807l-143 -146l4 705l-860 -858z" />
<glyph horiz-adv-x="1708" d="M102 672v131h1241l-505 506h198l570 -572l-570 -571h-198l505 506h-1241z" />
<glyph horiz-adv-x="1325" d="M102 1012l107 106l872 -870l-6 704l148 -145v-807h-807l-146 141l711 -6z" />
<glyph horiz-adv-x="1347" d="M102 555v190l496 -493v1237h152v-1239l495 495v-190l-571 -569z" />
<glyph horiz-adv-x="1325" d="M102 0v807l148 145l-6 -704l872 870l107 -106l-879 -877l711 6l-146 -141h-807z" />
<glyph horiz-adv-x="1708" d="M102 737l570 572h198l-505 -506h1241v-131h-1241l505 -506h-198z" />
<glyph horiz-adv-x="1310" d="M102 672v807h805l135 -131l-704 4l870 -871l-106 -108l-860 858l4 -705z" />
<glyph horiz-adv-x="2021" d="M102 737l570 572h188l-504 -506h1309l-504 506h189l569 -572l-569 -571h-189l504 506h-1309l504 -506h-188z" />
<glyph horiz-adv-x="1347" d="M102 436v168l496 -395v1073l-496 -395v168l572 448l571 -448v-168l-495 395v-1073l495 395v-168l-571 -448z" />
<glyph horiz-adv-x="1822" d="M102 868v197l404 438l403 -438v-197l-327 357v-1225h-152v1223zM913 426v197l328 -355v1211h154v-1211l325 355v-197l-403 -438z" />
<glyph horiz-adv-x="2254" d="M102 653v172q0 309 160 475q173 179 512 179h707q339 0 512 -179q159 -165 159 -475v-172q0 -310 -159 -475q-172 -178 -512 -178h-707q-340 0 -512 178q-160 166 -160 475zM227 651q0 -262 129 -397q19 -19 31 -29q136 66 223.5 189.5t102.5 271.5h-486v-35zM227 795 h486q-15 148 -102.5 269.5t-223.5 188.5q-18 -15 -31 -28q-129 -135 -129 -398v-32zM498 158q113 -49 270 -49h299v577h-229q-13 -165 -105 -306.5t-235 -221.5zM498 1321q143 -80 235 -221t105 -305h229v575h-299q-157 0 -270 -49zM1190 109h297q157 0 270 49 q-143 80 -235 221.5t-105 306.5h-227v-577zM1190 795h227q15 166 106.5 306t233.5 220q-113 49 -270 49h-297v-575zM1542 686q15 -148 102.5 -271.5t223.5 -189.5q6 5 30 29q130 136 130 397v35h-486zM1542 795h486v32q0 262 -130 398q-18 18 -30 28q-136 -67 -223.5 -188.5 t-102.5 -269.5z" />
</font>
</defs>
</svg>
