<svg xmlns="http://www.w3.org/2000/svg" width="102.891" height="122.679" viewBox="0 0 102.891 122.679"><defs><style>.a{fill:#f1faee;}</style></defs><g transform="translate(15.83 0)"><path class="a" d="M128.994.705A1.983,1.983,0,0,0,126.95.071L92.441,9.657,83.293.574a1.981,1.981,0,0,0-2.38-.312L67.931,7.719,47.03.119A1.978,1.978,0,0,0,44.4,2.258L50.332,43.81a1.979,1.979,0,0,0,3.918-.56L48.78,4.964l18.664,6.787a1.978,1.978,0,0,0,1.662-.143L81.577,4.445l8.893,8.83a1.977,1.977,0,0,0,1.923.5l31.435-8.732L105.907,42.679a1.979,1.979,0,0,0,.936,2.638,1.973,1.973,0,0,0,2.635-.936L129.265,2.829A1.979,1.979,0,0,0,128.994.705Z" transform="translate(-44.376 0)"/></g><g transform="translate(0 82.799)"><path class="a" d="M98.7,143.422h0l-13.761-.581a1.979,1.979,0,0,0-.167,3.955l13.845.583C108.2,147.379,116,154.3,116,162.8v15.956H21.025V162.8c0-8.5,7.8-15.42,17.468-15.422l13.913-.588a1.979,1.979,0,0,0-.167-3.955l-13.83.585c-11.767,0-21.341,8.693-21.341,19.377v17.935a1.979,1.979,0,0,0,1.978,1.979h98.935a1.978,1.978,0,0,0,1.978-1.979V162.8C119.959,152.114,110.388,143.422,98.7,143.422Z" transform="translate(-17.068 -142.832)"/></g><g transform="translate(15.83 41.553)"><path class="a" d="M52.792,83.552h-.5a3.958,3.958,0,1,1,0-7.915,1.979,1.979,0,1,0,0-3.957,7.915,7.915,0,0,0,0,15.829h.5a1.978,1.978,0,1,0,0-3.957Z" transform="translate(-44.375 -71.68)"/></g><g transform="translate(77.169 41.553)"><path class="a" d="M152.167,71.68a1.979,1.979,0,0,0,0,3.957,3.958,3.958,0,0,1,0,7.915,1.979,1.979,0,0,0,0,3.957,7.915,7.915,0,0,0,0-15.829Z" transform="translate(-150.188 -71.68)"/></g><g transform="translate(33.638 70.218)"><path class="a" d="M108.732,121.129a1.979,1.979,0,0,0-1.979,1.979V136a53.42,53.42,0,0,1-27.7,0V123.4a1.979,1.979,0,1,0-3.957,0v14.077a1.978,1.978,0,0,0,1.388,1.889,57.15,57.15,0,0,0,32.841,0,1.978,1.978,0,0,0,1.388-1.889V123.108A1.981,1.981,0,0,0,108.732,121.129Z" transform="translate(-75.095 -121.129)"/></g><g transform="translate(21.765 23.744)"><path class="a" d="M102.359,40.96H65.429A10.827,10.827,0,0,0,54.614,51.775V66.683a29.68,29.68,0,0,0,59.361,0V52.576A11.629,11.629,0,0,0,102.359,40.96Zm7.659,25.723a25.723,25.723,0,0,1-51.446,0V51.775a6.865,6.865,0,0,1,6.857-6.857h36.93a7.667,7.667,0,0,1,7.658,7.658Z" transform="translate(-54.614 -40.96)"/></g><g transform="translate(29.68 31.66)"><path class="a" d="M78.161,54.614a9.894,9.894,0,1,0,9.894,9.894A9.9,9.9,0,0,0,78.161,54.614Zm0,15.829A5.936,5.936,0,1,1,84.1,64.507,5.942,5.942,0,0,1,78.161,70.443Z" transform="translate(-68.267 -54.614)"/></g><g transform="translate(53.424 31.66)"><path class="a" d="M119.121,54.614a9.894,9.894,0,1,0,9.894,9.894A9.9,9.9,0,0,0,119.121,54.614Zm0,15.829a5.936,5.936,0,1,1,5.936-5.936A5.942,5.942,0,0,1,119.121,70.443Z" transform="translate(-109.227 -54.614)"/></g><g transform="translate(37.595 31.66)"><path class="a" d="M105.665,54.614H83.9a1.979,1.979,0,0,0,0,3.957h21.766a1.979,1.979,0,1,0,0-3.957Z" transform="translate(-81.921 -54.614)"/></g><g transform="translate(39.574 87.063)"><path class="a" d="M108.585,150.856a1.98,1.98,0,0,0-1.484-.669H87.314a1.978,1.978,0,0,0-1.964,2.224l3.958,31.659A1.978,1.978,0,0,0,91.27,185.8h11.872a1.981,1.981,0,0,0,1.965-1.733l3.958-31.659A1.979,1.979,0,0,0,108.585,150.856Zm-7.189,30.99H93.018l-3.463-27.7h15.3Z" transform="translate(-85.335 -150.187)"/></g><g transform="translate(49.457 92.989)"><path class="a" d="M104.372,160.41a1.988,1.988,0,1,0,1.988,1.988A2,2,0,0,0,104.372,160.41Z" transform="translate(-102.384 -160.41)"/></g><g transform="translate(49.457 100.904)"><path class="a" d="M104.372,174.063a1.988,1.988,0,1,0,1.988,1.988A2,2,0,0,0,104.372,174.063Z" transform="translate(-102.384 -174.063)"/></g><g transform="translate(49.457 108.819)"><path class="a" d="M104.372,187.717a1.988,1.988,0,1,0,1.988,1.988A2,2,0,0,0,104.372,187.717Z" transform="translate(-102.384 -187.717)"/></g></svg>