<svg xmlns="http://www.w3.org/2000/svg" width="426.756" height="222.301" viewBox="0 0 426.756 222.301">
  <g id="Group_75" data-name="Group 75" transform="translate(-454.312 -237.722)">
    <path id="Path_107" data-name="Path 107" d="M589.6,375.945a14.282,14.282,0,0,0,18.263,12.621,14.234,14.234,0,0,0,9.64-9.437l.625-3.388,5.293-29.009.044-.247,7.4-40.525a19.059,19.059,0,0,0-11.153-20.895.053.053,0,0,0-.044-.015c-.509-.218-1.047-.407-1.585-.582a18,18,0,0,0-2.5-.64,19.019,19.019,0,0,0-22.131,15.3,20.942,20.942,0,0,0-.291,2.5l-2.036,42.459-1.367,28.4Z" transform="translate(60.975 20.34)" fill="#c52e28" stroke="#f1faee" stroke-miterlimit="10" stroke-width="2"/>
    <path id="Path_108" data-name="Path 108" d="M567.631,401.275l33.313-55.814c.771-1.149,1.3-2.151,1.85-2.918,3.1-4.327,8.884-6.219,14.405-4.9a14.3,14.3,0,0,1,10.607,17.229,13.1,13.1,0,0,1-1.966,4.528l-2.212,2.638-42.651,48.5c-3.1,3.7-6.6,4.281-10.79,1.626C565.629,409.265,564.74,405.832,567.631,401.275Z" transform="translate(50.244 44.727)" fill="#c52e28" stroke="#f1faee" stroke-miterlimit="10" stroke-width="2"/>
    <g id="Path_109" data-name="Path 109" transform="translate(42.385 63.412)" fill="#c52e28" stroke-linejoin="round">
      <path d="M 582.7732543945312 395.6103515625 L 582.7612915039062 395.6103515625 L 582.749267578125 395.6100769042969 L 558.5089111328125 395.0291137695312 C 558.4578857421875 395.0306091308594 558.353515625 395.0329895019531 558.2091674804688 395.0329895019531 C 556.0839233398438 395.0330200195312 554.6863403320312 394.6309814453125 554.05517578125 393.8381042480469 C 553.7132568359375 393.4085693359375 553.594482421875 392.8699035644531 553.720703125 392.3212890625 C 553.756591796875 392.1636657714844 553.8172607421875 391.9913635253906 553.9163208007812 391.8171081542969 L 553.8574829101562 391.815673828125 C 553.80029296875 391.8175048828125 553.6799926757812 391.8205871582031 553.5135498046875 391.8205871582031 C 551.4100341796875 391.8206176757812 550.0264282226562 391.4223327636719 549.4011840820312 390.6368408203125 C 549.06005859375 390.208251953125 548.941650390625 389.6703796386719 549.0677490234375 389.1222534179688 C 549.1658325195312 388.6916809082031 549.4485473632812 388.1519775390625 550.1951904296875 387.7603454589844 C 549.1354370117188 387.5400695800781 548.4213256835938 387.1744079589844 548.0206298828125 386.6491394042969 C 547.6804809570312 386.2032775878906 547.5753784179688 385.6536865234375 547.724609375 385.1015625 C 548.0385131835938 383.9388122558594 549.2896728515625 383.34912109375 551.4432373046875 383.34912109375 C 551.6466064453125 383.34912109375 551.8424682617188 383.3543090820312 552.0242309570312 383.3624267578125 C 551.9891967773438 383.3204040527344 551.956298828125 383.2774353027344 551.9254760742188 383.2334594726562 C 551.6004028320312 382.7701721191406 551.5172729492188 382.2110900878906 551.6913452148438 381.6592102050781 C 552.0266723632812 380.5990905761719 553.1439208984375 380.06201171875 555.0123901367188 380.06201171875 C 555.9539794921875 380.06201171875 556.8335571289062 380.1951904296875 557.0850830078125 380.2367248535156 L 566.923828125 380.6806945800781 C 566.7886962890625 380.5436706542969 566.6796264648438 380.3957214355469 566.5958251953125 380.2363891601562 C 566.3355712890625 379.7415771484375 566.3431396484375 379.1788940429688 566.616943359375 378.6513977050781 C 567.0512084960938 377.8055419921875 568.0150756835938 377.3766784667969 569.4819946289062 377.3766784667969 C 570.596435546875 377.3766784667969 571.7266845703125 377.6210632324219 572.0117797851562 377.6871032714844 L 583.7673950195312 379.04248046875 C 583.8176879882812 379.0479125976562 584.3787231445312 379.1083374023438 584.6793212890625 379.1305847167969 C 585.8616333007812 379.2210998535156 586.7454223632812 379.3482971191406 587.6544799804688 379.70947265625 L 587.7244873046875 379.70947265625 L 587.9480590820312 379.8312072753906 L 589.2567749023438 380.5437316894531 L 589.3029174804688 380.56884765625 L 589.3461303710938 380.5986633300781 C 591.6109008789062 382.1599426269531 592.9629516601562 384.7344360351562 592.9629516601562 387.4854125976562 C 592.9629516601562 388.8891296386719 592.5025024414062 390.4393920898438 591.6663818359375 391.8505859375 C 590.8705444335938 393.1939086914062 589.8453369140625 394.2196350097656 588.8536376953125 394.6647644042969 L 588.79541015625 394.69091796875 C 587.0720825195312 395.4646606445312 586.6257934570312 395.6103515625 582.7732543945312 395.6103515625 Z" stroke="none"/>
      <path d="M 582.7732543945312 394.6103515625 C 586.5799560546875 394.6103515625 586.8373413085938 394.4736328125 588.4441528320312 393.75244140625 C 590.0508422851562 393.03125 591.9629516601562 390.1317749023438 591.9629516601562 387.4854125976562 C 591.9629516601562 384.9699096679688 590.6979370117188 382.7451782226562 588.778564453125 381.4219970703125 L 587.4699096679688 380.70947265625 L 587.4553833007812 380.70947265625 C 586.5828857421875 380.3314208984375 585.7263793945312 380.2136840820312 584.6054077148438 380.1278686523438 C 584.27099609375 380.1030883789062 583.6558227539062 380.0362548828125 583.6558227539062 380.0362548828125 L 571.838623046875 378.6737670898438 C 571.838623046875 378.6737670898438 570.6359252929688 378.3766784667969 569.4819946289062 378.3766784667969 C 568.6259155273438 378.3766784667969 567.7965698242188 378.540283203125 567.5055541992188 379.1100463867188 C 566.8076782226562 380.4476928710938 570.0210571289062 380.8403930664062 570.0210571289062 380.8403930664062 L 575.5057983398438 382.0689697265625 L 556.9782104492188 381.23291015625 C 556.9782104492188 381.23291015625 556.027587890625 381.06201171875 555.0123901367188 381.06201171875 C 553.9761962890625 381.06201171875 552.8726806640625 381.2401733398438 552.64501953125 381.9599609375 C 552.1360473632812 383.573974609375 556.3092041015625 383.7484741210938 556.3092041015625 383.7484741210938 L 564.2484130859375 384.6063842773438 L 552.9940795898438 384.4464111328125 C 552.9940795898438 384.4464111328125 552.2866821289062 384.34912109375 551.4432983398438 384.34912109375 C 550.3035278320312 384.34912109375 548.9155883789062 384.5268249511719 548.68994140625 385.3624877929688 C 548.2537231445312 386.9764404296875 552.4414672851562 386.9910888671875 552.4414672851562 386.9910888671875 L 566.47314453125 387.9216918945312 L 554.3026123046875 388.2560424804688 C 554.3026123046875 388.2560424804688 553.849365234375 388.21240234375 553.2374267578125 388.21240234375 C 552.0490112304688 388.21240234375 550.2630615234375 388.377197265625 550.0422973632812 389.3465576171875 C 549.7303466796875 390.7019653320312 552.525146484375 390.8206176757812 553.5135498046875 390.8205871582031 C 553.7233276367188 390.8205871582031 553.8518676757812 390.8152465820312 553.8518676757812 390.8152465820312 L 568.872314453125 391.1787719726562 L 558.9556884765625 391.455078125 C 558.9556884765625 391.455078125 558.502197265625 391.4114074707031 557.8902587890625 391.4114074707031 C 556.7017822265625 391.4114074707031 554.9159545898438 391.576171875 554.6952514648438 392.5455322265625 C 554.3787231445312 393.9209899902344 557.261474609375 394.0329895019531 558.2091674804688 394.0329895019531 C 558.3935546875 394.0329895019531 558.5048217773438 394.0287475585938 558.5048217773438 394.0287475585938 L 582.7732543945312 394.6103515625 M 582.7732543945312 396.6103515625 C 582.7572631835938 396.6103515625 582.7413330078125 396.6101684570312 582.725341796875 396.6097717285156 L 558.5104370117188 396.0294494628906 C 558.4463500976562 396.0310974121094 558.3431396484375 396.0329895019531 558.2092895507812 396.0329895019531 C 557.6935424804688 396.0329895019531 556.9148559570312 396.0058898925781 556.1337280273438 395.8768310546875 C 554.7903442382812 395.6548461914062 553.8544921875 395.1916809082031 553.2727661132812 394.4608764648438 C 552.8851928710938 393.9739685058594 552.68017578125 393.3996887207031 552.6707153320312 392.7967224121094 C 552.2880249023438 392.7747802734375 551.8631591796875 392.7345581054688 551.4396362304688 392.663818359375 C 550.1178588867188 392.4430236816406 549.1951904296875 391.9837341308594 548.6188354492188 391.2596435546875 C 548.0840454101562 390.5877990722656 547.8973388671875 389.7490539550781 548.09326171875 388.8979797363281 C 548.1387329101562 388.6982116699219 548.2188110351562 388.4514770507812 548.3592529296875 388.1894836425781 C 547.8856811523438 387.9408569335938 547.512451171875 387.6317749023438 547.2255249023438 387.2556457519531 C 546.6926879882812 386.5571594238281 546.527099609375 385.6994934082031 546.7592163085938 384.8406677246094 C 546.926025390625 384.2228393554688 547.4613647460938 383.112060546875 549.1710205078125 382.6203308105469 C 549.5890502929688 382.5001220703125 550.0690307617188 382.4194641113281 550.6046142578125 382.3791809082031 C 550.5861206054688 382.04345703125 550.6299438476562 381.6998291015625 550.7376098632812 381.3584594726562 C 550.9143676757812 380.7996520996094 551.4338989257812 379.7956237792969 552.9332275390625 379.3307495117188 C 553.5165405273438 379.1499328613281 554.1966552734375 379.06201171875 555.0123901367188 379.06201171875 C 555.9679565429688 379.06201171875 556.8450927734375 379.1853332519531 557.1890258789062 379.2403869628906 L 565.41064453125 379.6113891601562 C 565.3865356445312 379.1349487304688 565.4923095703125 378.6489562988281 565.7276000976562 378.1941528320312 C 566.154296875 377.363525390625 567.1519775390625 376.3766784667969 569.4819946289062 376.3766784667969 C 570.6424560546875 376.3766784667969 571.7830810546875 376.6096496582031 572.1823120117188 376.7001342773438 L 583.8780517578125 378.0486145019531 C 584.0455322265625 378.0667724609375 584.5106201171875 378.1153564453125 584.7532348632812 378.1333312988281 C 585.81005859375 378.2142333984375 586.932861328125 378.3338623046875 588.1041870117188 378.8127136230469 C 588.215087890625 378.8497924804688 588.3228759765625 378.8966369628906 588.42626953125 378.9529418945312 L 589.7349243164062 379.6654663085938 C 589.7964477539062 379.6989440917969 589.8560791015625 379.7356262207031 589.9137573242188 379.7753601074219 C 592.44921875 381.5232849121094 593.9629516601562 384.4055480957031 593.9629516601562 387.4854125976562 C 593.9629516601562 389.0658264160156 593.452880859375 390.797119140625 592.5267333984375 392.3603210449219 C 591.628173828125 393.8769836425781 590.4386596679688 395.0494384765625 589.26318359375 395.5770568847656 L 589.2050170898438 395.6031799316406 C 587.2720947265625 396.4710388183594 586.6774291992188 396.6103515625 582.7732543945312 396.6103515625 Z" stroke="none" fill="#f1faee"/>
    </g>
    <path id="Path_110" data-name="Path 110" d="M782.419,324.666a16.739,16.739,0,0,1,2.2,8.332,16.922,16.922,0,0,1-31.262,8.983,69.135,69.135,0,0,1-84.756-9.268,27.374,27.374,0,0,1-20.834-50.1,27.16,27.16,0,0,1,13.789-3.727,27.711,27.711,0,0,1,6.753.835c-.049-.585-.076-1.178-.076-1.771a23.028,23.028,0,0,1,36.362-18.786,18.842,18.842,0,0,1,6.577-1.171,19.112,19.112,0,0,1,19.1,18.445,36.573,36.573,0,1,1,52.147,48.227Z" transform="translate(81.22 7.351)" fill="#f1faee" stroke="#c52e28" stroke-miterlimit="10" stroke-width="2"/>
    <path id="Path_111" data-name="Path 111" d="M634.158,298.9a31.451,31.451,0,0,1-41.868,29.66,22.453,22.453,0,0,1-39.093,5.37,27.406,27.406,0,0,1-52.04-7.086A31.435,31.435,0,1,1,498.4,269.7a45.821,45.821,0,0,1,87.512,2.625A31.448,31.448,0,0,1,634.158,298.9Z" transform="translate(0 0)" fill="#f1faee" stroke="#c52e28" stroke-miterlimit="10" stroke-width="2"/>
    <path id="Path_112" data-name="Path 112" d="M664.257,311.126a17.129,17.129,0,0,1-34,2.984,17.131,17.131,0,1,1,3.911-29.416,13.154,13.154,0,0,1,22.145,9.619,13.233,13.233,0,0,1-.192,2.239A17.11,17.11,0,0,1,664.257,311.126Z" transform="translate(68.692 19.261)" fill="#f1faee" stroke="#c52e28" stroke-miterlimit="10" stroke-width="2"/>
    <path id="Path_113" data-name="Path 113" d="M633.918,289.751a18.909,18.909,0,0,1-27.467,16.857,13.808,13.808,0,0,1-27.053-3.9c0-.289.009-.577.026-.867a18.694,18.694,0,1,1,22.557-25.778,18.9,18.9,0,0,1,31.937,13.687Z" transform="translate(50.429 12.079)" fill="#f1faee" stroke="#c52e28" stroke-miterlimit="10" stroke-width="2"/>
  </g>
</svg>
