<svg xmlns="http://www.w3.org/2000/svg" width="98.402" height="131.356" viewBox="0 0 98.402 131.356">
  <g id="beer" transform="translate(-64.6 -36)">
    <path id="Path_140" data-name="Path 140" d="M148.442,93.612H146.87V80.864a15.458,15.458,0,0,0,5.992-12.153,15.879,15.879,0,0,0-12.684-15.289q.01-.263.01-.523c0-9.318-7.857-16.9-17.514-16.9a17.638,17.638,0,0,0-14.718,7.735,16.474,16.474,0,0,0-9.364-2.87,16.251,16.251,0,0,0-15.043,9.787c-.479-.038-.958-.058-1.435-.058-9.658,0-17.514,7.581-17.514,16.9a16.636,16.636,0,0,0,6.222,12.9V98.221a2.3,2.3,0,1,0,4.609,0V83.113a17.968,17.968,0,0,0,6.683,1.281h2.765V105.25a6.783,6.783,0,0,0,8.987,6.43v51.067H84.924a9.5,9.5,0,0,1-9.493-9.493V113.2a2.3,2.3,0,1,0-4.609,0v40.053a14.118,14.118,0,0,0,14.1,14.1h47.844a14.118,14.118,0,0,0,14.1-14.1v-2.029h1.572A14.576,14.576,0,0,0,163,136.665V108.171A14.576,14.576,0,0,0,148.442,93.612ZM91.678,107.439a2.192,2.192,0,0,1-2.189-2.189V82.09a2.3,2.3,0,0,0-2.3-2.3h-5.07c-7.116,0-12.905-5.513-12.905-12.29S75,55.2,82.114,55.2a13.633,13.633,0,0,1,2.563.245,2.306,2.306,0,0,0,2.658-1.662,11.536,11.536,0,0,1,11.256-8.313,11.817,11.817,0,0,1,8.415,3.44,2.3,2.3,0,0,0,3.741-.712,12.9,12.9,0,0,1,11.926-7.593c7.116,0,12.905,5.513,12.905,12.29a11.681,11.681,0,0,1-.2,2.076,2.3,2.3,0,0,0,2.107,2.7,11.349,11.349,0,0,1,10.768,11.03c0,6.106-5.221,11.074-11.638,11.074H112.3a2.3,2.3,0,0,0-2.3,2.3V93.727a2.189,2.189,0,1,1-4.379,0V82.09a2.3,2.3,0,0,0-2.3-2.3H96.171a2.3,2.3,0,0,0-2.3,2.3v23.16a2.192,2.192,0,0,1-2.189,2.189Zm6.8-2.189V84.394h2.535v9.333a6.8,6.8,0,1,0,13.6,0V84.394h6.913v78.353H98.476Zm34.292,57.5H126.13V84.394h10.485a16.688,16.688,0,0,0,5.646-.978v69.837A9.5,9.5,0,0,1,132.768,162.747Zm25.625-26.082a9.962,9.962,0,0,1-9.95,9.95H146.87V98.221h1.572a9.962,9.962,0,0,1,9.95,9.95Z" fill="#1d3557"/>
    <path id="Path_141" data-name="Path 141" d="M163.7,52.609a5.768,5.768,0,0,1,5.761,5.761,2.3,2.3,0,0,0,4.609,0A10.382,10.382,0,0,0,163.7,48a2.3,2.3,0,0,0,0,4.609Z" transform="translate(-41.031 -5.087)" fill="#1d3557"/>
    <path id="Path_142" data-name="Path 142" d="M87.466,76A8.075,8.075,0,0,0,79.4,84.066a2.3,2.3,0,0,0,4.609,0,3.46,3.46,0,0,1,3.457-3.457,2.3,2.3,0,0,0,0-4.609Z" transform="translate(-6.273 -16.955)" fill="#1d3557"/>
  </g>
</svg>
