<svg xmlns="http://www.w3.org/2000/svg" width="123.19" height="122.049" viewBox="0 0 123.19 122.049">
  <g id="Group_158" data-name="Group 158" transform="translate(-631 -1984)">
    <path id="Path_151" data-name="Path 151" d="M141.9,64.055a2.14,2.14,0,0,0,3.028,0l1.514-1.514,1.514,1.514a2.141,2.141,0,1,0,3.028-3.028l-1.513-1.514L150.988,58a2.141,2.141,0,0,0-3.028-3.028l-1.514,1.514-1.514-1.514A2.141,2.141,0,0,0,141.905,58l1.513,1.514L141.9,61.027a2.141,2.141,0,0,0,0,3.028Z" transform="translate(546.648 1939.475)" fill="#1d3557"/>
    <circle id="Ellipse_2" data-name="Ellipse 2" cx="2.424" cy="2.424" r="2.424" transform="translate(668.187 1999.776)" fill="#1d3557"/>
    <path id="Path_152" data-name="Path 152" d="M61.358,48.847a6.424,6.424,0,1,0-6.424-6.424A6.431,6.431,0,0,0,61.358,48.847Zm0-8.565a2.141,2.141,0,1,1-2.141,2.141A2.143,2.143,0,0,1,61.358,40.282Z" transform="translate(586.772 1948)" fill="#1d3557"/>
    <path id="Path_153" data-name="Path 153" d="M158.124,48.546a7.436,7.436,0,0,0-2.2-5.3,7.675,7.675,0,0,0-10.6,0l-22.969,22.97H45.64A2.14,2.14,0,0,0,43.5,68.358v6.424H41.232a6.305,6.305,0,0,0-6.3,6.3v68.77a6.305,6.305,0,0,0,6.3,6.3H52.064v2.141a2.141,2.141,0,0,0,3.352,1.765l6.283-4.308,6.283,4.308a2.141,2.141,0,0,0,3.352-1.765v-2.141h72.926a6.305,6.305,0,0,0,6.3-6.3V81.08a6.305,6.305,0,0,0-6.3-6.3h-2.266V68.358a2.064,2.064,0,0,0-.1-.481l14.031-14.032a7.447,7.447,0,0,0,2.2-5.3ZM120.35,83.37l-4.543-4.543,22.712-22.712,4.542,4.542Zm-6.995-.939,3.381,3.38-7.987,4.582Zm28.192-29.344,1.514-1.514,4.542,4.541-1.514,1.514ZM90.605,70.5v70.66H88.227a53.135,53.135,0,0,0-13.907-2.141H47.781V70.5ZM52.064,145.442H47.781V143.3h4.282ZM71.334,143.3H74.32c4.3,0,12.141,1.214,16.285,3.4v1.7a50.878,50.878,0,0,0-16.285-2.963H71.334Zm23.553,3.336a23.264,23.264,0,0,1,12-3.336h30.822v2.141H106.89a27.535,27.535,0,0,0-12,2.755Zm-53.656,5.229a2.017,2.017,0,0,1-2.016-2.016V81.08a2.017,2.017,0,0,1,2.016-2.016H43.5v68.519a2.14,2.14,0,0,0,2.141,2.141h6.424v2.141H41.232Zm21.678-.481a2.134,2.134,0,0,0-2.421,0l-4.142,2.84V143.3H67.052v10.923Zm8.425-1.66H74.32a48.812,48.812,0,0,1,13.255,2.141H71.334Zm72.926-70.66a2.017,2.017,0,0,1,2.016,2.016v68.77a2.017,2.017,0,0,1-2.016,2.016H97.132a23.276,23.276,0,0,1,9.757-2.141h32.963a2.14,2.14,0,0,0,2.141-2.141V79.064Zm-6.549,59.954H106.89a27.551,27.551,0,0,0-10.657,2.141H94.888V70.5H118.08l-6.369,6.369a2.175,2.175,0,0,0-.339.439l-10.313,17.83a2.141,2.141,0,0,0,2.919,2.93l17.88-10.256a2.137,2.137,0,0,0,.452-.345l15.4-15.4Zm15.189-88.2-2.271,2.271-4.542-4.542,2.271-2.271a3.289,3.289,0,0,1,4.542,0,3.211,3.211,0,0,1,0,4.541Z" transform="translate(596.065 1945.619)" fill="#1d3557"/>
    <path id="Path_154" data-name="Path 154" d="M172.729,152.291l-9.545,9.546a5.028,5.028,0,0,0,0,7.11l9.545,9.545a5.028,5.028,0,0,0,7.11,0l9.545-9.545a5.028,5.028,0,0,0,0-7.11l-9.545-9.546a5.149,5.149,0,0,0-7.11,0Zm13.627,13.627-9.545,9.545a.75.75,0,0,1-1.054,0l-9.545-9.545a.746.746,0,0,1,0-1.054l9.545-9.545a.747.747,0,0,1,1.053,0l9.545,9.545A.746.746,0,0,1,186.356,165.918Z" transform="translate(537.152 1894.622)" fill="#1d3557"/>
    <path id="Path_155" data-name="Path 155" d="M73.075,162.824H96.628a2.141,2.141,0,0,0,1.875-3.172l-6.925-12.591a13.957,13.957,0,1,0-12.5-1.729L71.2,159.652a2.141,2.141,0,0,0,1.876,3.172Zm4.282-28.906a9.635,9.635,0,1,1,12.1,9.28l-2.727-4.958a2.225,2.225,0,0,0-3.751,0l-1.833,3.333A9.662,9.662,0,0,1,77.357,133.918Zm7.494,9.8,8.155,14.827H76.7Z" transform="translate(579.337 1908.965)" fill="#1d3557"/>
  </g>
</svg>
