<svg xmlns="http://www.w3.org/2000/svg" width="549.483" height="269.5" viewBox="0 0 549.483 269.5">
  <g id="Group_107" data-name="Group 107" transform="translate(1.001 1.033)">
    <path id="Path_188" data-name="Path 188" d="M706.248,409.9a2.1,2.1,0,0,1-2.1,2.1h0a2.1,2.1,0,0,1-2.1-2.1V397.3a2.1,2.1,0,0,1,2.1-2.1h0a2.1,2.1,0,0,1,2.1,2.1Z" transform="translate(-158.767 -240.505)" fill="none" stroke="#1d3557" stroke-miterlimit="10" stroke-width="2"/>
    <path id="Path_189" data-name="Path 189" d="M614.189,363.9s1-20.649,19.2-24.848,34.434,2.608,38.494,15.862,4.76,17.639,4.9,25.315-.7,24.193-6.439,26.713-18.9-5.272-30.517.3Z" transform="translate(-144.698 -231.315)" fill="none" stroke="#1d3557" stroke-miterlimit="10" stroke-width="2"/>
    <path id="Path_190" data-name="Path 190" d="M691.439,380.014s1.785,4.356,2.363,6.141-.84,2.2-1.628,2.468-3.307,1.417-5.564,2.152a11.785,11.785,0,0,1-5.459,0C680.941,390.722,688.395,387.625,691.439,380.014Z" transform="translate(-155.42 -238.073)" fill="none" stroke="#1d3557" stroke-miterlimit="10" stroke-width="2"/>
    <path id="Path_191" data-name="Path 191" d="M669.555,391.187s2.537,4.848,3.937,8.4,2.38,7.615,1.19,9.224-6.736,5.319-6.727,6.579,9.737,2.1,12.4.84,6.37-4.859,7.559-7.854.7-6.354.84-9.433,1.12-8.414,0-9.071S669.555,391.187,669.555,391.187Z" transform="translate(-153.307 -239.631)" fill="none" stroke="#1d3557" stroke-miterlimit="10" stroke-width="2"/>
    <path id="Path_192" data-name="Path 192" d="M686.9,407.338a1.968,1.968,0,0,1-1.968,1.969h0a1.968,1.968,0,0,1-1.969-1.969v-8.294a1.968,1.968,0,0,1,1.969-1.969h0a1.968,1.968,0,0,1,1.968,1.969Z" transform="translate(-155.711 -240.805)" fill="none" stroke="#1d3557" stroke-miterlimit="10" stroke-width="2"/>
    <g id="Group_79" data-name="Group 79" transform="translate(492.639 157.531)">
      <path id="Path_193" data-name="Path 193" d="M644.211,413.319l-2.461-5.34c20.4-9.4,30.846-9.386,31.287-9.4l-.046,5.879C672.9,404.455,663.219,404.561,644.211,413.319Z" transform="translate(-641.75 -398.576)" fill="none" stroke="#1d3557" stroke-miterlimit="10" stroke-width="2"/>
    </g>
    <path id="Path_194" data-name="Path 194" d="M676.09,389.613a9.141,9.141,0,0,1-7.35-3.113c-2.359-2.934-4.839-11.681-3.3-17.293a7.181,7.181,0,0,1,4.38-5.216,17.807,17.807,0,0,1,6.423-1.089c1.28,0,2.48.1,3.64.189,1.027.082,2,.16,2.911.16a21.052,21.052,0,0,0,3.639-.349l.21,2.3c.076.317,1.639,7.8,2.2,11.053l1.628,1.492a38.847,38.847,0,0,0-2.316,3.143c-1.266,2.295-2.7,4.894-4.558,6.359A12.649,12.649,0,0,1,676.09,389.613Z" transform="translate(-152.828 -235.333)" fill="none" stroke="#1d3557" stroke-miterlimit="10" stroke-width="2"/>
    <path id="Path_195" data-name="Path 195" d="M686.37,365.891s1.821,7.681,2.38,10.9c-1.33.559-3.569,6.858-6.229,8.958s-8.749,2.871-11.338-.349-5.739-16.423,0-18.569S681.82,367.1,686.37,365.891Z" transform="translate(-153.307 -235.811)" fill="none" stroke="#1d3557" stroke-miterlimit="10" stroke-width="2"/>
    <g id="Group_80" data-name="Group 80" transform="translate(517.601 130.095)">
      <path id="Path_196" data-name="Path 196" d="M675.379,366l-3.908,19.021c.092.137.183.265.275.379,1.39,1.729,3.789,2.3,6.125,2.14l4.386-21.347A40.866,40.866,0,0,0,675.379,366Z" transform="translate(-671.471 -365.909)" fill="none" stroke="#1d3557" stroke-miterlimit="10" stroke-width="2"/>
      <path id="Path_197" data-name="Path 197" d="M691.584,377c-.432-2.482-1.61-7.6-2.128-9.825l-3.8,18.518C688.18,383.379,690.3,377.535,691.584,377Z" transform="translate(-673.742 -366.111)" fill="none" stroke="#1d3557" stroke-miterlimit="10" stroke-width="2"/>
    </g>
    <g id="Group_81" data-name="Group 81" transform="translate(476.309 140.24)">
      <path id="Path_198" data-name="Path 198" d="M639.588,387.993c-11.173,0-16.513-3.1-17.281-3.59l4.045-6.385-2.022,3.192,1.974-3.223c.086.05,8.665,4.941,28.4.669l1.6,7.388A79.3,79.3,0,0,1,639.588,387.993Z" transform="translate(-622.307 -377.989)" fill="none" stroke="#1d3557" stroke-miterlimit="10" stroke-width="2"/>
    </g>
    <g id="Group_82" data-name="Group 82" transform="translate(508.264 137.78)">
      <path id="Path_199" data-name="Path 199" d="M662.843,387.629l-2.489-11.492c1.463-.317,2.965-.679,4.463-1.078l3.018,11.365C666.162,386.869,664.482,387.275,662.843,387.629Z" transform="translate(-660.354 -375.06)" fill="none" stroke="#1d3557" stroke-miterlimit="10" stroke-width="2"/>
    </g>
    <path id="Path_200" data-name="Path 200" d="M470.406,394.351a84.144,84.144,0,0,0-48.359,3.948c-11.95,4.881-57.59,14.907-69.083,14.849s-21.876,11.311-18.354,18.541,6.254,12.51,31.089,17.975,67.532,4.487,81.713,5.921,21.677,4.416,31.976,2.138S515.144,404.213,470.406,394.351Z" transform="translate(-99.816 -240.069)" fill="none" stroke="#1d3557" stroke-miterlimit="10" stroke-width="2"/>
    <path id="Path_201" data-name="Path 201" d="M341.571,421.851c-4.075,4.757-11.327,12.079-25.1-2.5s-44.168-59.469-50.756-69.194-21.488-25.338-22.4-28.162,16.817-3.395,25.6,2.949,16.572,18.8,27.581,27.716,23.536,15.777,31.309,30.112,8.675,19.038,14.549,24.155S341.571,421.851,341.571,421.851Z" transform="translate(-85.302 -228.458)" fill="none" stroke="#1d3557" stroke-miterlimit="10" stroke-width="2"/>
    <g id="Group_83" data-name="Group 83" transform="translate(157.971 91.513)">
      <path id="Path_202" data-name="Path 202" d="M292.006,348.684c-8.741-8.349-15.555-18.3-23.1-23.741-8.786-6.344-26.519-5.772-25.6-2.949s15.816,18.438,22.4,28.162c3.182,4.7,11.92,17.6,21.655,31.33C287.342,369.5,289.713,359.318,292.006,348.684Z" transform="translate(-243.272 -319.971)" fill="none" stroke="#1d3557" stroke-miterlimit="10" stroke-width="2"/>
      <path id="Path_203" data-name="Path 203" d="M311.553,363.36q-1.112-.835-2.215-1.682c-.068.312-.136.628-.2.941-2.507,11.569-4.92,22.734-4.079,36.438q1.439,1.977,2.87,3.915C306.305,387.731,308.863,375.773,311.553,363.36Z" transform="translate(-253.139 -326.65)" fill="none" stroke="#1d3557" stroke-miterlimit="10" stroke-width="2"/>
    </g>
    <path id="Path_204" data-name="Path 204" d="M451.911,401.46a84.154,84.154,0,0,0-45.752,16.152c-10.309,7.769-51.883,29.1-63.011,31.979S324.881,466.108,330.13,472.2s9.239,10.5,34.645,9.452,66.443-12.887,80.521-15.118,22.087-1.26,31.463-6.089S497.683,399.585,451.911,401.46Z" transform="translate(-98.929 -241.5)" fill="none" stroke="#1d3557" stroke-miterlimit="10" stroke-width="2"/>
    <path id="Path_205" data-name="Path 205" d="M637.938,412.315s5.53-10.359,6.019-13.858S638.429,386,634.3,381.8s-20.38-18.714-22.664-19.432-8.819,1.153-12.055,2.934-4.723,10.26-7.958,12.224S637.938,412.315,637.938,412.315Z" transform="translate(-141.059 -235.222)" fill="none" stroke="#1d3557" stroke-miterlimit="10" stroke-width="2"/>
    <g id="Group_84" data-name="Group 84" transform="translate(462.706 120.575)">
      <path id="Path_206" data-name="Path 206" d="M657.511,403.65c-16.9,0-21.224-11.073-25.443-21.872-4.241-10.857-8.626-22.083-25.958-23.862l.344-3.342c19.371,1.989,24.35,14.735,28.744,25.982,5.564,14.245,10.374,26.545,43.651,15.517l1.057,3.189C670.618,402.341,663.32,403.65,657.511,403.65Z" transform="translate(-606.11 -354.574)" fill="none" stroke="#1d3557" stroke-miterlimit="10" stroke-width="2"/>
    </g>
    <path id="Path_207" data-name="Path 207" d="M460.517,401.969s13.883,26.6,22.562,64.67c0,0,3.64,5.459,9.519,5.669s48.922-3.359,75.588-9.868,43.1-19.508,47.452-31.705c5.249-14.7,2.661-26.946-7.558-37.445s-21.928-17.5-46.938-13.857S481.377,397.547,460.517,401.969Z" transform="translate(-120.089 -237.824)" fill="none" stroke="#1d3557" stroke-miterlimit="10" stroke-width="2"/>
    <path id="Path_208" data-name="Path 208" d="M598.567,470.036a1.9,1.9,0,0,1-1.14,2.441l-7.667,2.787a1.906,1.906,0,0,1-2.441-1.141l-7.9-21.745a1.907,1.907,0,0,1,1.141-2.443l7.667-2.786a1.906,1.906,0,0,1,2.441,1.141Z" transform="translate(-139.111 -248.805)" fill="none" stroke="#1d3557" stroke-miterlimit="10" stroke-width="2"/>
    <path id="Path_209" data-name="Path 209" d="M618.193,414.535c-.527-7.831-3.9-14.864-10.112-21.245-10.219-10.5-21.928-17.5-46.938-13.857s-79.766,18.114-100.625,22.536a244.25,244.25,0,0,1,11.12,26.143c23.255.832,65.872-11.187,81.222-20.468,17.007-10.283,28.135-13.443,44.586-9.034C609.677,401.888,614.125,410.5,618.193,414.535Z" transform="translate(-120.09 -237.824)" fill="none" stroke="#1d3557" stroke-miterlimit="10" stroke-width="2"/>
    <g id="Group_85" data-name="Group 85" transform="translate(355.234 157.78)">
      <path id="Path_210" data-name="Path 210" d="M497.585,476.418c-6.726-43.608-19.311-72.9-19.438-73.188l10.01-4.357c.538,1.235,13.261,30.776,20.218,75.88Z" transform="translate(-478.147 -398.873)" fill="none" stroke="#1d3557" stroke-miterlimit="10" stroke-width="2"/>
    </g>
    <g id="Group_87" data-name="Group 87" transform="translate(300.183 92.544)">
      <rect id="Rectangle_13" data-name="Rectangle 13" width="28.352" height="8.092" transform="matrix(0.98, -0.197, 0.197, 0.98, 135.795, 18.848)" fill="none" stroke="#1d3557" stroke-miterlimit="10" stroke-width="2"/>
      <path id="Path_211" data-name="Path 211" d="M584.607,338.574a4.061,4.061,0,0,0-3.185,4.78l1.431,7.124a4.061,4.061,0,0,0,4.78,3.182h0a4.062,4.062,0,0,0,3.183-4.78l-1.428-7.125a4.062,4.062,0,0,0-4.781-3.181Z" transform="translate(-439.621 -323.969)" fill="none" stroke="#1d3557" stroke-miterlimit="10" stroke-width="2"/>
      <path id="Path_212" data-name="Path 212" d="M560.442,338.408l1.96,9.768A18.877,18.877,0,0,1,547.6,370.4l-117.48,23.56a6.859,6.859,0,0,1-8.049-5.359l-6.695-33.379a6.861,6.861,0,0,1,5.36-8.05l117.481-23.56A18.876,18.876,0,0,1,560.442,338.408Z" transform="translate(-413.024 -321.526)" fill="none" stroke="#1d3557" stroke-miterlimit="10" stroke-width="2"/>
      <path id="Path_213" data-name="Path 213" d="M560.442,338.408l.711,3.543L418.459,370.571l-3.078-15.351a6.861,6.861,0,0,1,5.36-8.05l117.481-23.56A18.876,18.876,0,0,1,560.442,338.408Z" transform="translate(-413.024 -321.526)" fill="none" stroke="#1d3557" stroke-miterlimit="10" stroke-width="2"/>
      <g id="Group_86" data-name="Group 86" transform="translate(21.62 1.713)" opacity="0.2">
        <path id="Path_214" data-name="Path 214" d="M526.318,378.234,553.8,324.052l2.207-.442a18.786,18.786,0,0,1,10.866,1.041l-25.661,50.6Z" transform="translate(-452.43 -323.239)" fill="none" stroke="#1d3557" stroke-miterlimit="10" stroke-width="2"/>
        <path id="Path_215" data-name="Path 215" d="M465.82,341.463,476,339.423l-27.48,54.18-10.174,2.041Z" transform="translate(-438.342 -325.83)" fill="none" stroke="#1d3557" stroke-miterlimit="10" stroke-width="2"/>
        <path id="Path_216" data-name="Path 216" d="M496.565,383.29l-27.9,5.6L496.145,334.7l27.9-5.6Z" transform="translate(-443.197 -324.179)" fill="none" stroke="#1d3557" stroke-miterlimit="10" stroke-width="2"/>
      </g>
      <path id="Path_217" data-name="Path 217" d="M446.337,395.831l-16.084,3.227a9.557,9.557,0,0,1-11.237-7.484l-6.228-31.058a9.554,9.554,0,0,1,7.481-11.237l16.085-3.227Z" transform="translate(-412.6 -325.179)" fill="none" stroke="#1d3557" stroke-miterlimit="10" stroke-width="2"/>
      <path id="Path_218" data-name="Path 218" d="M593.885,334.359a1.1,1.1,0,0,1-1.289-.5l-3.206-9.6a1.343,1.343,0,0,1,1.062-1.761l6.279-1.261a1.349,1.349,0,0,1,1.662,1.217l.742,10.1c.029.421-.414.846-.992.962Z" transform="translate(-440.898 -321.199)" fill="none" stroke="#1d3557" stroke-miterlimit="10" stroke-width="2"/>
      <path id="Path_219" data-name="Path 219" d="M607.229,346.912l4.485-.9a2.761,2.761,0,0,0,2.163-3.25l-1.367-6.821a2.764,2.764,0,0,0-3.25-2.165l-4.484.9Z" transform="translate(-443.373 -323.205)" fill="none" stroke="#1d3557" stroke-miterlimit="10" stroke-width="2"/>
      <rect id="Rectangle_14" data-name="Rectangle 14" width="3.702" height="20.63" transform="translate(152.201 7.61) rotate(-11.335)" fill="none" stroke="#1d3557" stroke-miterlimit="10" stroke-width="2"/>
    </g>
    <g id="Group_95" data-name="Group 95" transform="translate(297.862 97.297)">
      <rect id="Rectangle_15" data-name="Rectangle 15" width="29.837" height="8.516" transform="translate(142.908 19.835) rotate(-11.353)" fill="none" stroke="#1d3557" stroke-miterlimit="10" stroke-width="2"/>
      <path id="Path_220" data-name="Path 220" d="M590.853,345.141a4.275,4.275,0,0,0-3.351,5.032l1.5,7.5a4.274,4.274,0,0,0,5.031,3.349h0a4.273,4.273,0,0,0,3.349-5.029l-1.5-7.5a4.275,4.275,0,0,0-5.031-3.349Z" transform="translate(-438.273 -329.772)" fill="none" stroke="#1d3557" stroke-miterlimit="10" stroke-width="2"/>
      <path id="Path_221" data-name="Path 221" d="M565.422,344.968l2.064,10.279a19.868,19.868,0,0,1-15.573,23.386L428.279,403.427a7.217,7.217,0,0,1-8.471-5.64l-7.045-35.127a7.219,7.219,0,0,1,5.641-8.472l123.633-24.795A19.865,19.865,0,0,1,565.422,344.968Z" transform="translate(-410.282 -327.201)" fill="none" stroke="#1d3557" stroke-miterlimit="10" stroke-width="2"/>
      <path id="Path_222" data-name="Path 222" d="M565.422,344.968l.747,3.73L416,378.815l-3.239-16.155a7.219,7.219,0,0,1,5.641-8.472l123.633-24.795A19.865,19.865,0,0,1,565.422,344.968Z" transform="translate(-410.282 -327.201)" fill="none" stroke="#1d3557" stroke-miterlimit="10" stroke-width="2"/>
      <g id="Group_88" data-name="Group 88" transform="translate(22.752 1.803)" opacity="0.2">
        <path id="Path_223" data-name="Path 223" d="M529.511,386.879l28.921-57.019,2.323-.465a19.789,19.789,0,0,1,11.436,1.1l-27.006,53.246Z" transform="translate(-451.752 -329.004)" fill="none" stroke="#1d3557" stroke-miterlimit="10" stroke-width="2"/>
        <path id="Path_224" data-name="Path 224" d="M465.844,348.182l10.708-2.147-28.92,57.018L436.926,405.2Z" transform="translate(-436.926 -331.732)" fill="none" stroke="#1d3557" stroke-miterlimit="10" stroke-width="2"/>
        <path id="Path_225" data-name="Path 225" d="M498.2,392.2l-29.363,5.888,28.921-57.018,29.361-5.889Z" transform="translate(-442.036 -329.993)" fill="none" stroke="#1d3557" stroke-miterlimit="10" stroke-width="2"/>
      </g>
      <path id="Path_226" data-name="Path 226" d="M445.339,405.4l-16.926,3.4a10.057,10.057,0,0,1-11.824-7.876l-6.555-32.686a10.054,10.054,0,0,1,7.873-11.825l16.928-3.4Z" transform="translate(-409.836 -331.046)" fill="none" stroke="#1d3557" stroke-miterlimit="10" stroke-width="2"/>
      <path id="Path_227" data-name="Path 227" d="M600.616,340.706a1.156,1.156,0,0,1-1.356-.532l-3.375-10.1A1.414,1.414,0,0,1,597,328.217l6.61-1.327a1.419,1.419,0,0,1,1.748,1.28l.781,10.626c.031.443-.435.89-1.043,1.012Z" transform="translate(-439.616 -326.858)" fill="none" stroke="#1d3557" stroke-miterlimit="10" stroke-width="2"/>
      <path id="Path_228" data-name="Path 228" d="M614.66,353.918l4.719-.946a2.908,2.908,0,0,0,2.278-3.422l-1.44-7.178a2.908,2.908,0,0,0-3.421-2.278l-4.718.947Z" transform="translate(-442.221 -328.968)" fill="none" stroke="#1d3557" stroke-miterlimit="10" stroke-width="2"/>
      <rect id="Rectangle_16" data-name="Rectangle 16" width="3.897" height="21.711" transform="translate(160.174 8.008) rotate(-11.333)" fill="none" stroke="#1d3557" stroke-miterlimit="10" stroke-width="2"/>
      <g id="Group_91" data-name="Group 91" transform="translate(156.839 18.932)">
        <path id="Path_229" data-name="Path 229" d="M606.362,365.593a8.175,8.175,0,1,1,6.407-9.625A8.179,8.179,0,0,1,606.362,365.593Z" transform="translate(-596.579 -349.399)" fill="none" stroke="#1d3557" stroke-miterlimit="10" stroke-width="2"/>
        <path id="Path_230" data-name="Path 230" d="M606.354,364.357a6.612,6.612,0,1,1,5.182-7.784A6.613,6.613,0,0,1,606.354,364.357Z" transform="translate(-596.877 -349.697)" fill="none" stroke="#1d3557" stroke-miterlimit="10" stroke-width="2"/>
        <g id="Group_89" data-name="Group 89" transform="translate(2.389 2.39)">
          <path id="Path_231" data-name="Path 231" d="M599.537,359.169a5.786,5.786,0,1,1,11.346-2.274l-.892.178a4.876,4.876,0,1,0-3.821,5.739l.179.894A5.793,5.793,0,0,1,599.537,359.169Z" transform="translate(-599.423 -352.245)" fill="none" stroke="#1d3557" stroke-miterlimit="10" stroke-width="2"/>
        </g>
        <g id="Group_90" data-name="Group 90" transform="translate(9.136 7.039)">
          <path id="Path_232" data-name="Path 232" d="M607.636,364.592l-.179-.894a4.882,4.882,0,0,0,3.821-5.739l.892-.178A5.792,5.792,0,0,1,607.636,364.592Z" transform="translate(-607.457 -357.781)" fill="none" stroke="#1d3557" stroke-miterlimit="10" stroke-width="2"/>
        </g>
        <path id="Path_233" data-name="Path 233" d="M605.586,359.1l.49-.734,4.157-.2-3.912,1.421Z" transform="translate(-598.021 -350.804)" fill="none" stroke="#1d3557" stroke-miterlimit="10" stroke-width="2"/>
      </g>
      <g id="Group_94" data-name="Group 94" transform="translate(153.164 12.601)">
        <path id="Path_234" data-name="Path 234" d="M597.454,350.55a4.387,4.387,0,1,1,3.439-5.165A4.388,4.388,0,0,1,597.454,350.55Z" transform="translate(-592.203 -341.861)" fill="none" stroke="#1d3557" stroke-miterlimit="10" stroke-width="2"/>
        <path id="Path_235" data-name="Path 235" d="M597.451,349.888a3.55,3.55,0,1,1,2.781-4.178A3.549,3.549,0,0,1,597.451,349.888Z" transform="translate(-592.363 -342.02)" fill="none" stroke="#1d3557" stroke-miterlimit="10" stroke-width="2"/>
        <g id="Group_92" data-name="Group 92" transform="translate(1.283 1.281)">
          <path id="Path_236" data-name="Path 236" d="M593.791,347.1a3.105,3.105,0,0,1,6.089-1.221l-.478.1a2.617,2.617,0,1,0-2.052,3.08l.1.48A3.107,3.107,0,0,1,593.791,347.1Z" transform="translate(-593.73 -343.386)" fill="none" stroke="#1d3557" stroke-miterlimit="10" stroke-width="2"/>
        </g>
        <g id="Group_93" data-name="Group 93" transform="translate(4.903 3.776)">
          <path id="Path_237" data-name="Path 237" d="M598.138,350.014l-.1-.48a2.621,2.621,0,0,0,2.052-3.08l.478-.1A3.108,3.108,0,0,1,598.138,350.014Z" transform="translate(-598.041 -346.357)" fill="none" stroke="#1d3557" stroke-miterlimit="10" stroke-width="2"/>
        </g>
        <path id="Path_238" data-name="Path 238" d="M597.038,347.067l.262-.394,2.231-.106-2.1.762Z" transform="translate(-592.977 -342.614)" fill="none" stroke="#1d3557" stroke-miterlimit="10" stroke-width="2"/>
      </g>
    </g>
    <path id="Path_239" data-name="Path 239" d="M615.553,401.294c-14.309-8.491-31.546-1.115-36.669,7.489-2.861,4.807-5.024,13.108-7.314,21.9-1.488,5.713-3.027,11.619-4.715,16.175-4.214,11.38-10.492,19.487-19.151,24.726,2.38-.316,4.782-.649,7.184-1,6.569-5.483,11.552-12.931,15.118-22.557.416-1.125.821-2.321,1.219-3.571,5.581,3.747,22.146,12.9,40.867,4.52,9.932-4.444,16.465-13.49,17.046-23.61C629.694,415.668,624.616,406.671,615.553,401.294Zm10.23,23.872c-.509,8.861-6.281,16.807-15.063,20.737-18.1,8.1-34.542-2.089-38.47-4.845.887-3.072,1.737-6.333,2.571-9.533,2.13-8.174,4.332-16.627,6.951-21.024,4.438-7.458,19.492-13.782,32.067-6.32C621.921,408.978,626.274,416.627,625.783,425.167Z" transform="translate(-134.051 -240.879)" fill="none" stroke="#1d3557" stroke-miterlimit="10" stroke-width="2"/>
    <path id="Path_240" data-name="Path 240" d="M630.463,425.8c-.509,8.861-6.281,16.807-15.063,20.737-18.1,8.1-34.542-2.089-38.47-4.845.887-3.072,1.737-6.333,2.571-9.533,2.13-8.174,4.332-16.627,6.951-21.024,4.438-7.458,19.492-13.782,32.067-6.32C626.6,409.608,630.954,417.257,630.463,425.8Z" transform="translate(-138.731 -241.509)" fill="none" stroke="#1d3557" stroke-miterlimit="10" stroke-width="2"/>
    <path id="Path_241" data-name="Path 241" d="M333.337,470.5c-1.47,6.089-4.6,15.908-23.5,9.18S243.472,446.77,233.183,441.1s-30.655-12.808-32.755-14.908,13.438-10.665,24.146-9.007,23.306,9.217,37.164,12.156,28.136,3.359,41.573,12.6,16.377,13.018,23.936,14.908S333.337,470.5,333.337,470.5Z" transform="translate(-78.41 -243.992)" fill="none" stroke="#1d3557" stroke-miterlimit="10" stroke-width="2"/>
    <g id="Group_96" data-name="Group 96" transform="translate(121.826 172.983)">
      <path id="Path_242" data-name="Path 242" d="M233.183,441.1c6.643,3.661,28.79,15.873,48.736,25.877-8.57-12.462-12.156-24.4-16.695-36.945-1.165-.217-2.326-.444-3.485-.69-13.858-2.94-26.456-10.5-37.164-12.156s-26.246,6.907-24.146,9.007S222.895,435.432,233.183,441.1Z" transform="translate(-200.236 -416.975)" fill="none" stroke="#1d3557" stroke-miterlimit="10" stroke-width="2"/>
      <path id="Path_243" data-name="Path 243" d="M290.573,438.282c4.552,12.864,8.928,25.205,19.618,38.316,1.9.884,3.729,1.713,5.459,2.474-13.052-14.361-17.767-27.68-22.7-41.631q-.416-1.175-.838-2.361-1.432-.275-2.864-.527Q289.916,436.428,290.573,438.282Z" transform="translate(-214.489 -419.79)" fill="none" stroke="#1d3557" stroke-miterlimit="10" stroke-width="2"/>
    </g>
    <g id="Group_97" data-name="Group 97" transform="translate(0 112.454)">
      <path id="Path_244" data-name="Path 244" d="M169.263,410.453a355.2,355.2,0,0,1-38.844-9.239c-23.1-6.719-74.328-45.143-74.958-49.972s11.758-9.029,24.356-4.2,45.983,40.881,85.876,45.322Z" transform="translate(-55.223 -344.905)" fill="none" stroke="#1d3557" stroke-miterlimit="10" stroke-width="2"/>
      <path id="Path_245" data-name="Path 245" d="M179.7,417.329s11.3-6.3,18.572-6.929,14.133,1.47,15.217,0,.13-6.089-.338-10.288-2.729-14.863-19.655-14.046-46.322,6.443-74.458-.044-60.89-34.2-63.62-33.573S74.048,371.579,90.9,379.535c26.246,12.388,36.534,15.748,48.712,17.637S152.18,411.66,179.7,417.329Z" transform="translate(-55.182 -346.111)" fill="none" stroke="#1d3557" stroke-miterlimit="10" stroke-width="2"/>
    </g>
    <g id="Group_98" data-name="Group 98" transform="translate(70.298)">
      <path id="Path_246" data-name="Path 246" d="M219.805,299.069a324.45,324.45,0,0,1-30.773-19.6c-17.93-12.711-50.668-61.214-49.767-65.572s12.854-4.277,22.287,3.662,27.468,49.053,60.583,64.825Z" transform="translate(-138.942 -211.01)" fill="none" stroke="#1d3557" stroke-miterlimit="10" stroke-width="2"/>
      <path id="Path_247" data-name="Path 247" d="M227.1,307.65s11.64-2.057,18.106-.426,11.764,5.5,13.14,4.554,1.935-5.219,2.785-8.984,2.092-13.65-12.767-18.008-41.921-8.3-64.273-22.315-42.339-47.75-44.884-48.022,10.361,22.091,22.534,34c18.952,18.548,26.83,24.527,36.78,29.8S205.034,294.522,227.1,307.65Z" transform="translate(-138.883 -211.56)" fill="none" stroke="#1d3557" stroke-miterlimit="10" stroke-width="2"/>
    </g>
    <path id="Path_248" data-name="Path 248" d="M600.973,446.866c-11.686,5.589-20.234,2.265-30.334-.071s-17.815-4.725-31.589-4.549-30.45,3.295-33.764.239-9.445-14.784,4.126-20.438,30.259-5.317,44.661-6.184,27.722-3.567,40.264-3.923C611.39,411.456,622.546,436.549,600.973,446.866Z" transform="translate(-126.571 -243.184)" fill="none" stroke="#1d3557" stroke-miterlimit="10" stroke-width="2"/>
    <g id="Group_100" data-name="Group 100" transform="translate(292.97 178.486)">
      <path id="Path_249" data-name="Path 249" d="M446.256,493.134a92.748,92.748,0,0,1-5.74,7.8A130.765,130.765,0,0,1,430.177,511.7c-1.366,1.22-8.568,4.744-12.191,6.784s-5.417,3.5-5.792,3.4-1.037-1.424.272-3.132,9.522-6.531,9.522-6.531-7.184,2.42-8.915,2.932-5.127.829-6.533,1.455c-.794.354-1.131-1.655,1-3.06s4.506-1.859,5.413-2.37,6.134-2.517,6.134-2.517a45.408,45.408,0,0,0-6.547.921c-2.394.636-6.193.619-7.795,1.269-1.162.469-1.267-2.458,2.049-3.375s5.032-1.039,6.022-1.535a41.687,41.687,0,0,1,4.745-1.431A13.6,13.6,0,0,0,412.7,503.4c-2.018.118-4.865-1.413-6.847-1.246s.055-2.3,2.17-2.485,4.436.824,5.571.522,5.8-.395,6.782-1.113,3.926-5.645,8.213-9.148a41.9,41.9,0,0,1,9.229-5.9c3.462-1.85,3.707-2.027,3.707-2.027Z" transform="translate(-404.011 -432.891)" fill="none" stroke="#1d3557" stroke-miterlimit="10" stroke-width="2"/>
      <path id="Path_250" data-name="Path 250" d="M444.531,488.473,441.766,484l-.655.351a41.9,41.9,0,0,0-9.229,5.9,48.319,48.319,0,0,0-7.279,8.112,14.649,14.649,0,0,0,5.868.87C436.98,499.076,444.531,488.473,444.531,488.473Z" transform="translate(-407.309 -433.211)" fill="none" stroke="#1d3557" stroke-miterlimit="10" stroke-width="2"/>
      <path id="Path_251" data-name="Path 251" d="M514.182,436.872c2.28-4-3.789-16.122-14.333-12.763s-18.231,10.871-26.916,19.631-17.284,19.534-24.6,26.6l7.837,12.647s11.565-10.511,20.315-16.807S507.416,448.736,514.182,436.872Z" transform="translate(-411.108 -423.527)" fill="none" stroke="#1d3557" stroke-miterlimit="10" stroke-width="2"/>
      <g id="Group_99" data-name="Group 99" transform="translate(37.223 1.141)">
        <path id="Path_252" data-name="Path 252" d="M488.6,430.948c-5.434,3.758-10.366,8.634-15.666,13.98-8.685,8.759-17.284,19.534-24.6,26.6l7.837,12.647s8.505-7.729,16.447-13.9C478.63,459.7,486.233,445.391,488.6,430.948Z" transform="translate(-448.331 -425.856)" fill="none" stroke="#1d3557" stroke-miterlimit="10" stroke-width="2"/>
        <path id="Path_253" data-name="Path 253" d="M503.8,424.885a39.035,39.035,0,0,0-3.724,1.594c-3.1,14.809-11.414,29.4-17.077,39.246,1.7-1.167,3.78-2.479,6.09-3.913C494.765,451.654,501.456,438.368,503.8,424.885Z" transform="translate(-453.882 -424.885)" fill="none" stroke="#1d3557" stroke-miterlimit="10" stroke-width="2"/>
      </g>
      <path id="Path_254" data-name="Path 254" d="M456.369,491.78s-8.19-12.654-9.667-14.087a66.322,66.322,0,0,0-7.377,6.159l8.921,14.373S451.641,496.7,456.369,491.78Z" transform="translate(-409.666 -432.201)" fill="none" stroke="#1d3557" stroke-miterlimit="10" stroke-width="2"/>
    </g>
    <g id="Group_101" data-name="Group 101" transform="translate(316.805 98.689)">
      <path id="Path_255" data-name="Path 255" d="M432.849,328.856a1.342,1.342,0,0,0-.419.7,1.356,1.356,0,0,0,1,1.636c9.8,2.365,18.774,4.633,27.457,6.824,44.674,11.281,74.188,18.735,110.65,12.83a1.355,1.355,0,1,0-.432-2.676c-35.909,5.814-65.207-1.583-109.554-12.782-8.689-2.193-17.675-4.462-27.485-6.831A1.355,1.355,0,0,0,432.849,328.856Z" transform="translate(-432.391 -328.516)" fill="none" stroke="#1d3557" stroke-miterlimit="10" stroke-width="2"/>
    </g>
    <g id="Group_106" data-name="Group 106" transform="translate(274.702 79.928)">
      <path id="Path_256" data-name="Path 256" d="M432.447,332.96a2.124,2.124,0,0,0,2.588-1.526l.884-3.43a2.124,2.124,0,0,0-1.527-2.587l-9.142-2.358a2.123,2.123,0,0,0-2.587,1.527l-.885,3.429A2.127,2.127,0,0,0,423.3,330.6Z" transform="translate(-388.577 -308.87)" fill="none" stroke="#1d3557" stroke-miterlimit="10" stroke-width="2"/>
      <path id="Path_257" data-name="Path 257" d="M400.91,329.854l4.535-8.961h0l.363-10.036c2.649,2.959,6.345,6.532,9.723,4.4l-2.567,7.572h0l-1.413,7.87C409.621,327.2,404.458,328.383,400.91,329.854Z" transform="translate(-385.246 -306.926)" fill="none" stroke="#1d3557" stroke-miterlimit="10" stroke-width="2"/>
      <path id="Path_258" data-name="Path 258" d="M391.114,329.4a11.8,11.8,0,1,0-8.478-14.368A11.8,11.8,0,0,0,391.114,329.4Z" transform="translate(-382.26 -306.177)" fill="none" stroke="#1d3557" stroke-miterlimit="10" stroke-width="2"/>
      <path id="Path_259" data-name="Path 259" d="M391.638,328.474a10.607,10.607,0,1,0-7.623-12.919A10.608,10.608,0,0,0,391.638,328.474Z" transform="translate(-382.487 -306.404)" fill="none" stroke="#1d3557" stroke-miterlimit="10" stroke-width="2"/>
      <g id="Group_102" data-name="Group 102" transform="translate(3.097 2.813)">
        <path id="Path_260" data-name="Path 260" d="M403.351,320.758a8.986,8.986,0,1,0-17.4-4.487l1.371.353a7.57,7.57,0,1,1,5.44,9.219l-.352,1.371A9,9,0,0,0,403.351,320.758Z" transform="translate(-385.948 -309.526)" fill="none" stroke="#1d3557" stroke-miterlimit="10" stroke-width="2"/>
      </g>
      <g id="Group_103" data-name="Group 103" transform="translate(2.812 9.557)">
        <path id="Path_261" data-name="Path 261" d="M392.352,328.5l.352-1.371a7.58,7.58,0,0,1-5.44-9.219l-1.371-.353A9,9,0,0,0,392.352,328.5Z" transform="translate(-385.608 -317.557)" fill="none" stroke="#1d3557" stroke-miterlimit="10" stroke-width="2"/>
      </g>
      <path id="Path_262" data-name="Path 262" d="M396.068,320.165l-.7-1.18-6.428-.655,5.943,2.531Z" transform="translate(-383.33 -308.123)" fill="none" stroke="#1d3557" stroke-miterlimit="10" stroke-width="2"/>
      <path id="Path_263" data-name="Path 263" d="M417.688,334.2a9.5,9.5,0,1,0-6.824-11.567A9.5,9.5,0,0,0,417.688,334.2Z" transform="translate(-386.792 -307.672)" fill="none" stroke="#1d3557" stroke-miterlimit="10" stroke-width="2"/>
      <path id="Path_264" data-name="Path 264" d="M413.009,329.726a8.537,8.537,0,1,1,11.767,2.7A8.538,8.538,0,0,1,413.009,329.726Z" transform="translate(-386.975 -307.855)" fill="none" stroke="#1d3557" stroke-miterlimit="10" stroke-width="2"/>
      <g id="Group_104" data-name="Group 104" transform="translate(26.263 10.101)">
        <path id="Path_265" data-name="Path 265" d="M427.539,327.244a7.234,7.234,0,0,0-14.009-3.612l1.1.286a6.093,6.093,0,1,1,4.38,7.421l-.286,1.1A7.244,7.244,0,0,0,427.539,327.244Z" transform="translate(-413.53 -318.205)" fill="none" stroke="#1d3557" stroke-miterlimit="10" stroke-width="2"/>
      </g>
      <g id="Group_105" data-name="Group 105" transform="translate(26.033 15.529)">
        <path id="Path_266" data-name="Path 266" d="M418.684,333.478l.286-1.1a6.1,6.1,0,0,1-4.38-7.421l-1.1-.286A7.243,7.243,0,0,0,418.684,333.478Z" transform="translate(-413.256 -324.667)" fill="none" stroke="#1d3557" stroke-miterlimit="10" stroke-width="2"/>
      </g>
      <path id="Path_267" data-name="Path 267" d="M421.763,326.647l.245-1.074-3.391-3.943,2.07,4.77Z" transform="translate(-388.082 -308.652)" fill="none" stroke="#1d3557" stroke-miterlimit="10" stroke-width="2"/>
    </g>
    <rect id="Rectangle_17" data-name="Rectangle 17" width="8.294" height="9.329" transform="translate(533.553 157.846)" fill="none" stroke="#1d3557" stroke-miterlimit="10" stroke-width="2"/>
    <rect id="Rectangle_18" data-name="Rectangle 18" width="8.084" height="21.203" rx="3" transform="translate(537.805 152.542)" fill="none" stroke="#1d3557" stroke-miterlimit="10" stroke-width="2"/>
  </g>
</svg>
