<svg xmlns="http://www.w3.org/2000/svg" width="131.989" height="134.118" viewBox="0 0 131.989 134.118">
  <g id="Group_160" data-name="Group 160" transform="translate(-1144.001 -1978)">
    <path id="Path_161" data-name="Path 161" d="M162.394,58.244a2.41,2.41,0,1,0-2.719-2.055A2.411,2.411,0,0,0,162.394,58.244Z" transform="translate(1055.481 1940.226)" fill="#1d3557"/>
    <path id="Path_162" data-name="Path 162" d="M84.129,34.644a2.128,2.128,0,0,0,2.129-2.129V26.129a2.129,2.129,0,0,0-4.258,0v6.387A2.128,2.128,0,0,0,84.129,34.644Z" transform="translate(1091.805 1954)" fill="#1d3557"/>
    <path id="Path_163" data-name="Path 163" d="M84.129,52A2.128,2.128,0,0,0,82,54.129v6.387a2.129,2.129,0,0,0,4.258,0V54.129A2.128,2.128,0,0,0,84.129,52Z" transform="translate(1091.805 1940.902)" fill="#1d3557"/>
    <path id="Path_164" data-name="Path 164" d="M64.129,48.258h6.387a2.129,2.129,0,0,0,0-4.258H64.129a2.129,2.129,0,1,0,0,4.258Z" transform="translate(1101.16 1944.644)" fill="#1d3557"/>
    <path id="Path_165" data-name="Path 165" d="M92.129,48.258h6.387a2.129,2.129,0,0,0,0-4.258H92.129a2.129,2.129,0,0,0,0,4.258Z" transform="translate(1088.062 1944.644)" fill="#1d3557"/>
    <path id="Path_166" data-name="Path 166" d="M155.861,178.185h-43.1l-3.041-10.644h34.156a12,12,0,0,0,11.986-11.985V87.985A12,12,0,0,0,143.875,76h-99.5A12,12,0,0,0,32.387,87.985v67.566A12.009,12.009,0,0,0,41.709,167.2l1.1,10.981H28.129a2.129,2.129,0,0,0,0,4.258H155.861a2.129,2.129,0,1,0,0-4.258Zm-47.528,0H82.043l3.041-10.644h20.207Zm-43.79,0,.426-4.258h2.5a5.373,5.373,0,0,0,5.367-5.368v-1.019h7.823l-3.042,10.644Zm2.925-17.031a1.112,1.112,0,0,1,1.109,1.11v1.019H66.033l.213-2.129Zm-1.861,6.387h2.97v1.019a1.112,1.112,0,0,1-1.109,1.11H65.395ZM44.372,80.258h99.5a7.736,7.736,0,0,1,7.728,7.728v60.4H36.644v-60.4a7.736,7.736,0,0,1,7.728-7.728Zm-7.728,75.294v-2.913H151.6v2.917a7.736,7.736,0,0,1-7.728,7.728H72.835v-1.019a5.373,5.373,0,0,0-5.367-5.368H43.031a2.13,2.13,0,0,0-2.119,2.341l.336,3.363a7.748,7.748,0,0,1-4.6-7.048Zm10.442,22.633-1.7-17.031H61.967l-1.7,17.031Z" transform="translate(1118.001 1929.675)" fill="#1d3557"/>
    <path id="Path_167" data-name="Path 167" d="M152.735,230.511a3.255,3.255,0,1,0-3.256-3.255A3.255,3.255,0,0,0,152.735,230.511Z" transform="translate(1060.239 1860.443)" fill="#1d3557"/>
    <path id="Path_168" data-name="Path 168" d="M95.289,153.737a21.087,21.087,0,0,0,16.292-7.639,21.087,21.087,0,0,0,13.512.274v4.069a2.128,2.128,0,0,0,3.816,1.3l6.65-8.645H146.9a2.129,2.129,0,0,0,1.381-3.751l-9.066-7.722a21.187,21.187,0,0,0-24.272-26.493A21.276,21.276,0,1,0,76.3,122.856a21.266,21.266,0,0,0,18.991,30.881Zm0-4.258a16.974,16.974,0,0,1-16.153-22.362,21.046,21.046,0,0,0,19.915,7.107,21.4,21.4,0,0,0,8.567,9.976,16.877,16.877,0,0,1-12.329,5.28Zm39.222-10.644a2.128,2.128,0,0,0-1.687.831l-3.473,4.513V128.808l11.77,10.027Zm-15.8-29.8a16.993,16.993,0,0,1,16.849,19.47l-6.953-5.923a2.129,2.129,0,0,0-3.509,1.622v17.637a16.971,16.971,0,0,1-21.9-8.8,21.212,21.212,0,0,0,12.992-23.8,16.965,16.965,0,0,1,2.526-.209Zm-17.031,17.031a17.056,17.056,0,0,1,10.378-15.676,16.9,16.9,0,0,1-10.112,18.579A17,17,0,0,1,101.675,126.062Zm-6.387-29.8a17.042,17.042,0,0,1,15.518,10.052,21.211,21.211,0,0,0-12.992,23.8,17.022,17.022,0,1,1-2.526-33.853Z" transform="translate(1095.547 1922.191)" fill="#1d3557"/>
  </g>
</svg>
