<svg xmlns="http://www.w3.org/2000/svg" width="312.229" height="269.199" viewBox="0 0 312.229 269.199"><defs><style>.a,.b,.g{fill:#c52e28;}.b,.c,.d,.e,.g,.h{stroke:#f1faee;stroke-width:4.24px;}.b,.e,.g,.h{stroke-linejoin:round;}.c,.e{fill:none;}.c,.d{stroke-miterlimit:10;}.d{fill:#fff;}.f{fill:#f1faee;}.g,.h{stroke-linecap:round;}.h{fill:#cb202d;}</style></defs><g transform="translate(-17.88 -6.88)"><path class="a" d="M29.12,172.013,53.891,28.974,287.112,16.61l26.81,7.773L183.907,150Z" transform="translate(4.256 3.551)"/><path class="b" d="M20.17,119.63v64.927L144,236.9l181.362-58.635L327.91,105.1,209.715,88.42Z" transform="translate(0.079 37.059)"/><path class="b" d="M75.86,34.772,292.112,21.91,205.949,122.593l-22.219-3.139,69.224-95.213" transform="translate(26.065 6.024)"/><path class="a" d="M139.549,41.66l11.132,9.166,12.437,12.056-29.054,46.624-34.744-4.4Z" transform="translate(37.012 15.24)"/><path class="a" d="M70.785,145.188c-.719-2.3,1.305-8.932,5.705-15.414s16.587-19.946,22.542-34.729S113.8,63.5,113.8,63.5c3.887-.264,9.592,1.8,11.733,4.4s6.6,7.509,5.573,17.878-2.288,9.313.147,9.2,23.466-6.79,23.466-6.79l-7.333,11.19-13.3,19.433-9.709,8.169-21.207,12.672L83.9,146.977h-10Z" transform="translate(23.631 25.419)"/><path class="a" d="M132.307,48.37c-3.887,14.241.777,22.777,4.327,25.431l8.11-13.39Z" transform="translate(51.719 18.371)"/><path class="b" d="M176.454,56.13c.909,0,4.664,12.628,4.664,14.27s-30.286,53.81-36.533,61.51c-29.127,35.888-66,31.092-68.4,29.142s-5.441-12.437-5.441-12.437.792,2.64,11.733,1.951c20.342-1.305,43.148-18.655,51.7-28.379S175.544,56.13,176.454,56.13Z" transform="translate(23.676 21.992)"/><path class="c" d="M70.785,145.188c-.719-2.3,1.305-8.932,5.705-15.414s16.587-19.946,22.542-34.729S113.8,63.5,113.8,63.5c3.887-.264,9.592,1.8,11.733,4.4s6.6,7.509,5.573,17.878-2.288,9.313.147,9.2,23.466-6.79,23.466-6.79" transform="translate(23.631 25.419)"/><path class="b" d="M138.663,41.864c4.4,1.965,5.192,18.494,1.819,23.158s-18.67,21.5-18.67,21.5l-5.382,1.1-5.1-9.386-9.753-3.608a.5.5,0,0,1,0-.953c3.2-.6,9.489-2.933,15-11.733C124.363,49.476,130.89,38.4,138.663,41.864Z" transform="translate(37.898 15.035)"/><path class="c" d="M150.319,62.882,137.882,50.826,126.75,41.66" transform="translate(49.811 15.24)"/><line class="d" x1="4.766" y2="18.787" transform="translate(154.943 101.558)"/><path class="c" d="M130.638,104.01s-8.418-9.914-18.318.235" transform="translate(43.078 42.309)"/><path class="c" d="M131.556,46.85s-9.313,20.533,7.128,30.418" transform="translate(50.828 17.661)"/><path class="a" d="M173.539,46.43,184.671,55.6l12.437,12.056-29.054,46.624-34.744-4.4Z" transform="translate(52.872 17.465)"/><path class="a" d="M104.775,150.03c-.719-2.3,1.305-8.932,5.705-15.414s16.587-20,22.557-34.832,14.769-31.547,14.769-31.547c3.887-.264,9.592,1.8,11.733,4.4s6.6,7.509,5.573,17.878-2.288,9.313.147,9.2,23.466-6.79,23.466-6.79l-7.333,11.19-13.3,19.433-9.709,8.169-21.207,12.672L117.9,151.717H107.84Z" transform="translate(39.491 27.63)"/><path class="a" d="M166.3,53.14c-3.887,14.241.777,22.777,4.327,25.431l8.11-13.39Z" transform="translate(67.579 20.596)"/><path class="b" d="M210.444,60.9c.909,0,4.664,12.628,4.664,14.27s-30.286,53.81-36.533,61.51c-29.127,35.829-66.115,31.092-68.4,29.142s-5.441-12.437-5.441-12.437.792,2.64,11.733,1.951c20.342-1.305,43.148-18.655,51.7-28.379S209.534,60.9,210.444,60.9Z" transform="translate(39.536 24.217)"/><path class="c" d="M104.775,150.03c-.719-2.3,1.305-8.932,5.705-15.414s16.587-20,22.557-34.832,14.769-31.547,14.769-31.547c3.887-.264,9.592,1.8,11.733,4.4s6.6,7.509,5.573,17.878-2.288,9.313.147,9.2,23.466-6.79,23.466-6.79" transform="translate(39.491 27.63)"/><path class="b" d="M172.638,46.634c4.4,1.965,5.206,18.494,1.833,23.158s-18.67,21.5-18.67,21.5l-5.382,1.085-5.1-9.372-9.753-3.652a.5.5,0,0,1,0-.953c3.2-.6,9.489-2.933,15-11.733C158.368,54.246,164.88,43.173,172.638,46.634Z" transform="translate(53.759 17.261)"/><path class="c" d="M184.309,67.652,171.872,55.6,160.74,46.43" transform="translate(65.671 17.465)"/><line class="d" x1="4.766" y2="18.787" transform="translate(204.794 108.554)"/><path class="c" d="M164.628,108.78s-8.418-9.914-18.318.235" transform="translate(58.938 44.535)"/><path class="c" d="M165.546,51.62s-9.313,20.533,7.128,30.418" transform="translate(66.688 19.887)"/><path class="a" d="M325.358,172.959,144.187,233.516,20.17,179.251V114.324L144,137.291,327.91,99.79Z" transform="translate(0.079 42.364)"/><path class="b" d="M20,148.6,58.147,25.04l43.778,8.272-47.3,121.846Z" transform="translate(0 7.485)"/><path class="e" d="M46.01,28.974,279.231,16.61l26.81,7.773" transform="translate(12.137 3.551)"/><path class="f" d="M257.362,137.573l-8.433,1.995c-.821-1.657-1.745-2.933-6.5-1.775-3.3.763-4.708,2.3-4.708,3.52s1.173,2.171,4.8,2.039H250.2c5.031,0,7.48,2.933,7.48,6.629a10.985,10.985,0,0,1-2.743,7.333c-1.657,1.951-4.18,4.62-12.525,6.761-11.484,2.933-15.267-2.669-15.267-6.644l8.932-2.2c.88,2.655,3.08,3.2,7.436,2.112,3.007-.748,5.6-2.361,5.6-4.4s-1.877-2.229-4.3-2.229h-6.16c-2.933-.088-5.368-.132-7.1-1.041-4.517-2.376-4.194-8.8.719-13.112a20.635,20.635,0,0,1,9.958-4.986c5.206-1.173,8.169-.543,10.516.367,2.083.763,4.547,3.256,4.547,5.661M114,146.74c0,.293,17.761,45.26,17.761,45.26l10.56-2.713,16.265-43.822,101.02-22.41.763-7.744L150.841,138.776l-13.493,36.387L125.22,144.29,114,146.725m87.308,10.941,13.2,13.2,8.257-2.112v-32.1l-9.5,2.156v17.6l-11.938-14.857-9.108,2.068v32.838l9.108-2.332Zm59.354-.279a1.73,1.73,0,0,0-1.32,1.467c0,.645.616,1.012,1.349.821a1.76,1.76,0,0,0,1.32-1.467c0-.631-.6-1-1.32-.821h0Zm-.22,0a1.32,1.32,0,0,1-1.7.249c-.411-.367-.308-1.056.22-1.555a1.32,1.32,0,0,1,1.7-.161,1,1,0,0,1-.161,1.467h0Zm-.763-.147c0-.323-.293-.5-.675-.411h-.1l-.88.22v1.8l.44-.117v-.557l.352-.088.425.455.513-.132-.469-.513a.763.763,0,0,0,.425-.66Zm-.44.117a.381.381,0,0,1-.293.337l-.484.117v-.425l.425-.1c.161,0,.323,0,.367.088v.015Zm-108.222,29.67,10.134-2.6,1.877-5.764,13.4-3.373,1.936,4.723,9.973-2.552L175.6,147.341l-10.736,2.435Zm14.857-15.165,3.945-12.144,3.843,10.266-7.788,1.921Z" transform="translate(43.862 49.606)"/><path class="e" d="M144.076,231.595l181.362-58.635,2.552-73.169-183.914,37.5v94.3L20.249,179.251,20,113.723l124.076,23.568" transform="translate(0 42.364)"/><path class="g" d="M93.794,79.826a23.466,23.466,0,0,0-22.351,23.466A23.466,23.466,0,0,0,49.15,79.826,23.466,23.466,0,0,0,71.443,56.36,23.466,23.466,0,0,0,93.794,79.826Z" transform="translate(13.602 22.099)"/><path class="g" d="M164.644,32.466a23.466,23.466,0,0,0-22.351,23.466A23.466,23.466,0,0,0,120,32.466,23.466,23.466,0,0,0,142.293,9,23.466,23.466,0,0,0,164.644,32.466Z" transform="translate(46.662 0)"/><path class="g" d="M227.628,93.956a23.466,23.466,0,0,0-22.366,23.466A23.466,23.466,0,0,0,182.97,93.956,23.466,23.466,0,0,0,205.263,70.49,23.466,23.466,0,0,0,227.628,93.956Z" transform="translate(76.044 28.692)"/><line class="h" x2="15.722" y2="12.217" transform="translate(101.925 67.503)"/><line class="h" x2="9.724" y2="15.517" transform="translate(121.915 55.99)"/><line class="h" x2="8.052" y2="18.758" transform="translate(139.133 47.983)"/></g></svg>