<svg xmlns="http://www.w3.org/2000/svg" width="100.603" height="106.12" viewBox="0 0 100.603 106.12"><defs><style>.a{fill:#f1faee;}</style></defs><path class="a" d="M105.8,332.417a4.737,4.737,0,1,1-4.737-4.737A4.737,4.737,0,0,1,105.8,332.417Zm0,0" transform="translate(-69.63 -236.72)"/><path class="a" d="M94.12,62.536a6.623,6.623,0,0,0-6.537,5.685H79.555L70.156,53.8a1.9,1.9,0,0,0-1.589-.861H64.746V47.375H85.688a6.627,6.627,0,1,0,.569-3.791H64.746V37.9h4.265a1.9,1.9,0,0,0,1.645-.954l9.223-16.1h7.7a6.627,6.627,0,1,0,.557-3.766c-.042,0-.077-.024-.12-.024H78.782a1.9,1.9,0,0,0-1.646.953l-9.223,16.1H64.746V28.389a1.891,1.891,0,0,0,1.307-.833l7-10.878a6.528,6.528,0,0,0,2.111.377,6.633,6.633,0,1,0-6.633-6.633,6.563,6.563,0,0,0,1.427,4.06l-5.217,8.1V1.9a1.9,1.9,0,0,0-1.9-1.9H2.211A1.894,1.894,0,0,0,.317,1.9V76.929a1.832,1.832,0,0,0,0,1.533v25.763a1.894,1.894,0,0,0,1.894,1.9h60.64a1.9,1.9,0,0,0,1.9-1.9V68.007l5.262,8.417a6.56,6.56,0,0,0-1.473,4.114A6.633,6.633,0,1,0,75.169,73.9a6.52,6.52,0,0,0-2.044.357L66.353,63.427a1.893,1.893,0,0,0-1.607-.891v-5.8h2.794l9.4,14.417a1.9,1.9,0,0,0,1.589.861h9.491c.042,0,.078-.022.119-.024a6.623,6.623,0,1,0,5.981-9.451Zm-1.9-18.951a2.843,2.843,0,1,1-2.842,2.843A2.845,2.845,0,0,1,92.224,43.585Zm1.9-26.529A2.843,2.843,0,1,1,91.277,19.9,2.845,2.845,0,0,1,94.12,17.055ZM75.169,7.581a2.842,2.842,0,1,1-2.842,2.842A2.845,2.845,0,0,1,75.169,7.581Zm2.843,72.957A2.843,2.843,0,1,1,75.169,77.7,2.846,2.846,0,0,1,78.012,80.538Zm-17.055-27.6H42.007a1.9,1.9,0,0,0-1.9,1.9v7.7H23.057V47.375h37.9Zm-37.9-39.58V11.37h5.684v4.372l-1.149.43A6.624,6.624,0,0,0,23.057,13.361ZM19.266,75.8H4.106V47.375H15.667l-7.109,6.63a1.9,1.9,0,0,0-.6,1.386v3.988a6.619,6.619,0,1,0,9.32,6.946h1.991Zm3.791-9.475H37.673L26.168,75.8H23.057ZM4.106,29.028l12.969-4.862a6.633,6.633,0,0,0,2.191,1.7v17.72H4.106Zm6.633,33.508A2.843,2.843,0,1,1,7.9,65.378,2.844,2.844,0,0,1,10.739,62.536Zm5.967,0a6.621,6.621,0,0,0-4.961-3.689V56.214L19.266,49.2V62.536Zm5.4-39.795A2.843,2.843,0,1,1,24.951,19.9,2.846,2.846,0,0,1,22.109,22.741Zm-2.843-8.81a6.622,6.622,0,0,0-3.79,5.967,6.739,6.739,0,0,0,.079.788L4.106,24.98V11.37h15.16ZM4.106,79.59h15.16v5.673H4.106Zm18.951,0h3.79a1.889,1.889,0,0,0,1.2-.432l12.06-9.932V79.59a1.9,1.9,0,0,0,1.9,1.9h18.95v3.778h-37.9Zm37.9-1.894H43.9V66.325H60.957Zm0-34.111H25.286l6.1-5.684H60.957ZM30.637,34.11a1.891,1.891,0,0,0-1.291.51l-6.288,5.864V26.435A6.624,6.624,0,0,0,28.741,19.9c0-.036-.01-.068-.01-.1l2.571-.965a1.9,1.9,0,0,0,1.23-1.774V9.475a1.894,1.894,0,0,0-1.9-1.894H23.057V4.027H40.111V19.616a6.617,6.617,0,1,0,8.811,8.807l.013,0H60.957V34.11ZM42.955,22.741a2.842,2.842,0,1,1-2.843,2.842A2.845,2.845,0,0,1,42.955,22.741Zm18,1.894H49.491a6.609,6.609,0,0,0-5.59-5.589V3.79H60.957ZM19.266,3.79V7.581H4.106V3.79Zm41.69,98.541H4.106V89.054h56.85Zm0-39.795H43.9v-5.8H60.957ZM94.12,72.01a2.843,2.843,0,1,1,2.842-2.843A2.846,2.846,0,0,1,94.12,72.01Zm0,0" transform="translate(-0.148)"/></svg>