<svg xmlns="http://www.w3.org/2000/svg" width="106.915" height="118.949" viewBox="0 0 106.915 118.949"><defs><style>.a{fill:#f1faee;}</style></defs><g transform="translate(0 0)"><path class="a" d="M249.712,103.627a2.242,2.242,0,1,0,2.242,2.242A2.242,2.242,0,0,0,249.712,103.627Z" transform="translate(-145.767 -67.106)"/><path class="a" d="M245.879,44.1a5.94,5.94,0,1,0-5.94,5.94A5.946,5.946,0,0,0,245.879,44.1Zm-5.94,1.98a1.98,1.98,0,1,1,1.98-1.98A1.982,1.982,0,0,1,239.94,46.076Z" transform="translate(-138.965 -34.042)"/><path class="a" d="M123.955,29.844H59.04a7.127,7.127,0,0,0-6.778,5.007,6.841,6.841,0,0,0-3.332-.892A6.938,6.938,0,0,0,42,40.888v73.664a1.964,1.964,0,0,0,.07.52l4.984,18.4a1.98,1.98,0,0,0,1.91,1.463h0a1.978,1.978,0,0,0,1.908-1.469l1.023-3.828v.137a7.137,7.137,0,0,0,5.94,7.019v10.021a1.98,1.98,0,0,0,3.1,1.633l5.81-3.985,5.81,3.984a1.98,1.98,0,0,0,3.1-1.633v-9.9h48.3a7.149,7.149,0,0,0,7.141-7.141V36.985a7.149,7.149,0,0,0-7.141-7.141Zm-78,35.793H51.9v47.518H45.96ZM51.9,59.7v1.98H45.96V59.7Zm3.96,21.779H101.4v25.739H55.859Zm49.5-47.672h3.96v99.149h-3.96Zm7.92,47.672h13.859v25.739H113.276Zm13.859-44.491V77.516H113.276V33.8h10.679a3.185,3.185,0,0,1,3.181,3.181Zm-71.276,0A3.185,3.185,0,0,1,59.04,33.8H101.4V77.516H55.859Zm-6.93.933a2.973,2.973,0,0,1,2.97,2.97V55.737H45.96V40.888a2.973,2.973,0,0,1,2.97-2.97Zm.021,87.414-2.225-8.218h4.42Zm6.908,4.441v-18.6H101.4v21.779H59.04A3.185,3.185,0,0,1,55.859,129.773ZM71.7,143.055l-3.83-2.627a1.98,1.98,0,0,0-2.239,0L61.8,143.055v-6.142h9.9Zm52.257-10.1H113.276V111.174h13.859v18.6A3.185,3.185,0,0,1,123.955,132.953Z" transform="translate(-42 -29.844)"/><path class="a" d="M79.98,138.156a1.979,1.979,0,0,0-1.98,1.98v17.819a1.98,1.98,0,0,0,3.96,0V140.136A1.979,1.979,0,0,0,79.98,138.156Z" transform="translate(-60.181 -84.544)"/><path class="a" d="M95.98,138.156a1.979,1.979,0,0,0-1.98,1.98v17.819a1.98,1.98,0,0,0,3.96,0V140.136A1.979,1.979,0,0,0,95.98,138.156Z" transform="translate(-68.261 -84.544)"/><path class="a" d="M111.98,138.156a1.979,1.979,0,0,0-1.98,1.98v17.819a1.98,1.98,0,0,0,3.96,0V140.136A1.979,1.979,0,0,0,111.98,138.156Z" transform="translate(-76.342 -84.544)"/><path class="a" d="M127.98,138.156a1.979,1.979,0,0,0-1.98,1.98v17.819a1.98,1.98,0,0,0,3.96,0V140.136A1.979,1.979,0,0,0,127.98,138.156Z" transform="translate(-84.422 -84.544)"/><path class="a" d="M143.98,138.156a1.979,1.979,0,0,0-1.98,1.98v17.819a1.98,1.98,0,0,0,3.96,0V140.136A1.979,1.979,0,0,0,143.98,138.156Z" transform="translate(-92.503 -84.544)"/><path class="a" d="M199.98,138.156a1.979,1.979,0,0,0-1.98,1.98v17.819a1.98,1.98,0,0,0,3.96,0V140.136A1.979,1.979,0,0,0,199.98,138.156Z" transform="translate(-120.784 -84.544)"/></g></svg>