<svg xmlns="http://www.w3.org/2000/svg" width="121.054" height="122.91" viewBox="0 0 121.054 122.91"><defs><style>.a{fill:#f1faee;}</style></defs><path class="a" d="M179.941,120.521c-2.1-3.779-7.128-5.085-14.948-3.883a34.364,34.364,0,0,0-4.393.968c.879-8.306-.473-13.131-4.117-14.73-1.561-.685-6.309-2.768-19.793,9.827a152.652,152.652,0,0,0-11.659,12.3,2.052,2.052,0,0,0,3.153,2.627A151.3,151.3,0,0,1,139.492,115.7c10.68-9.976,14.446-9.463,15.343-9.069,1.841.808,2.4,5.326,1.5,12.087-.023.167-.045.334-.067.5-8.405,3.88-13.12,10.822-14.064,16.841a7.256,7.256,0,0,0,6.07,8.464,7.487,7.487,0,0,0,8.949-5.947c.966-4.647,1.9-10.137,2.774-16.356a27.7,27.7,0,0,1,5.622-1.529c4.086-.629,9.266-.823,10.736,1.82,1.539,2.769-.485,8.954-5.554,16.968q-.592.936-1.2,1.842l-4.4-13.209a2.052,2.052,0,0,0-4,.649V153.2a2.052,2.052,0,0,0,3.609,1.336c.108-.126,1.506-1.761,3.441-4.285l5.271,15.813a2.052,2.052,0,1,0,3.893-1.3l-6.186-18.557c.99-1.4,2.016-2.917,3.014-4.493,6.262-9.889,8.125-16.821,5.7-21.191ZM153.2,137.743a3.443,3.443,0,0,1-4.2,2.745,3.178,3.178,0,0,1-2.751-3.791c.875-5.583,4.79-9.656,9.28-12.322C154.792,129.391,154.01,133.87,153.2,137.743Zm12.1,9.6v-5.931l1.367,4.1C166.2,146.155,165.741,146.767,165.306,147.338Z" transform="translate(-77.08 -65.32)"/><path class="a" d="M157.48,43.056a1.97,1.97,0,0,0-.023-.228,2.045,2.045,0,0,0-2-2.482H149.3V39.267a5.076,5.076,0,1,0-10.152,0v1.09c-.036,0-.07-.011-.107-.011h-4.1V39.267a5.076,5.076,0,0,0-10.152,0v1.079h-4.21V39.267a5.076,5.076,0,0,0-10.152,0v1.079h-4.21V39.267a5.076,5.076,0,1,0-10.152,0v1.079h-4.21V39.267a5.076,5.076,0,0,0-10.152,0v1.09c-.036,0-.07-.011-.107-.011H75.433a2.048,2.048,0,0,0-2.017,1.708,2.031,2.031,0,0,0-.271,1V88.972L55.958,67.689a2.052,2.052,0,0,0-2.885-.307L41.9,76.406a2.052,2.052,0,0,0-.308,2.885l31.554,39.074V153A2.052,2.052,0,0,0,75.2,155.05h80.232A2.052,2.052,0,0,0,157.48,153Zm-14.232-3.789a.973.973,0,1,1,1.945,0v6.262a.973.973,0,1,1-1.945,0Zm-14.362,0a.973.973,0,0,1,1.945,0v6.262a.973.973,0,1,1-1.945,0Zm-14.362,0a.973.973,0,0,1,1.945,0v6.262a.973.973,0,0,1-1.945,0Zm-14.362,0a.973.973,0,0,1,1.945,0v6.262a.973.973,0,0,1-1.945,0Zm-14.362,0a.973.973,0,0,1,1.945,0v6.262a.973.973,0,0,1-1.945,0Zm-4.1,5.172v1.09a5.076,5.076,0,0,0,10.152,0V44.45h4.21v1.079a5.076,5.076,0,0,0,10.152,0V44.45h4.21v1.079a5.076,5.076,0,0,0,10.152,0V44.45h4.21v1.079a5.076,5.076,0,0,0,10.152,0V44.45h4.1c.036,0,.071-.009.107-.011v1.09a5.076,5.076,0,1,0,10.152,0V44.45h4.079v8.207H77.248V44.45h4.341c.036,0,.071-.009.107-.011Zm26.6,101.135.73,2.522-2.312-1.245Zm-5.939-10.168,2.62-.488.315.39,1.761,5.994-4.254,3.435-5.488-2.984-.414-.513,3.006.685a2.052,2.052,0,0,0,2.507-2.025Zm-2.447-3.719a2.053,2.053,0,0,0-1.677,2.042l.043,3.617-3.527-.8a2.038,2.038,0,0,0-1.468.221L51.322,84.809,59.3,78.363l42.739,52.926ZM54.054,71.863l2.671,3.308-7.981,6.446-2.671-3.308Zm23.194,51.583L92.17,141.926l2.2,2.725a2.044,2.044,0,0,0,.617.513L102.039,149l.006,0h0l3.612,1.945H77.248Zm36.87,27.5-2.743-9.478s0,0,0,0,0,0,0-.006l-2.263-7.7a2.046,2.046,0,0,0-.373-.711L107.4,131.39v0L77.248,94.053V56.76h76.128v94.185Z" transform="translate(-36.45 -32.139)"/><path class="a" d="M54.052,40.241A2.052,2.052,0,0,0,56.1,38.189V32.243a2.052,2.052,0,1,0-4.1,0v5.947a2.052,2.052,0,0,0,2.052,2.052Z" transform="translate(-41.741 -30.191)"/><path class="a" d="M54.052,57.242A2.052,2.052,0,0,0,52,59.294V65.24a2.052,2.052,0,1,0,4.1,0V59.294A2.052,2.052,0,0,0,54.052,57.242Z" transform="translate(-41.741 -43.366)"/><path class="a" d="M42.259,52.243a2.052,2.052,0,0,0-2.052-2.052H34.052a2.052,2.052,0,1,0,0,4.1h6.155A2.052,2.052,0,0,0,42.259,52.243Z" transform="translate(-32 -39.932)"/><path class="a" d="M62.052,54.295h6.155a2.052,2.052,0,0,0,0-4.1H62.052a2.052,2.052,0,1,0,0,4.1Z" transform="translate(-45.638 -39.932)"/><path class="a" d="M47.181,226.191a7.009,7.009,0,1,0,7.181,7.007A7.1,7.1,0,0,0,47.181,226.191Zm0,9.911a2.909,2.909,0,1,1,3.078-2.9A3,3,0,0,1,47.181,236.1Z" transform="translate(-35.896 -125.655)"/><path class="a" d="M82.052,85.885A1.983,1.983,0,1,0,80,83.9,2.018,2.018,0,0,0,82.052,85.885Z" transform="translate(-55.379 -55.387)"/><path class="a" d="M82.052,205.377a1.983,1.983,0,1,0,2.052,1.982A2.018,2.018,0,0,0,82.052,205.377Z" transform="translate(-55.379 -115.517)"/><path class="a" d="M44.1,163.36a2.053,2.053,0,1,0-2.052,1.982A2.018,2.018,0,0,0,44.1,163.36Z" transform="translate(-35.896 -94.087)"/></svg>