<svg xmlns="http://www.w3.org/2000/svg" width="129.968" height="111.727" viewBox="0 0 129.968 111.727"><defs><style>.a{fill:#f1faee;}</style></defs><path class="a" d="M192.723,123.193a2.28,2.28,0,0,0-3.229,3.22l2.57,2.58-2.582,2.573a2.28,2.28,0,1,0,3.22,3.229l2.58-2.571,2.573,2.582a2.28,2.28,0,0,0,3.229-3.22L198.512,129l2.583-2.574a2.28,2.28,0,0,0-3.22-3.229l-2.581,2.572Z" transform="translate(-101.704 -82.322)"/><path class="a" d="M178.84,65.681A6.84,6.84,0,1,0,172,58.84,6.848,6.848,0,0,0,178.84,65.681Zm0-9.121a2.28,2.28,0,1,1-2.28,2.28A2.282,2.282,0,0,1,178.84,56.56Z" transform="translate(-94.475 -52)"/><path class="a" d="M232.588,102.585a2.582,2.582,0,1,0-2.912-2.2A2.583,2.583,0,0,0,232.588,102.585Z" transform="translate(-119.263 -71.54)"/><path class="a" d="M163.688,176.367H46.183l21.729-13.681h82.1a2.28,2.28,0,0,0,0-4.56H75.155l10.9-6.863c.038,0,.071.022.109.022h52.443a2.28,2.28,0,0,0,0-4.56H93.262l7.243-4.56h28.981a2.28,2.28,0,1,0,0-4.56H102.124V103.4a2.279,2.279,0,0,0-1.946-2.256L38.614,92.026a2.3,2.3,0,0,0-1.824.53A2.278,2.278,0,0,0,36,94.282v84.365a2.279,2.279,0,0,0,2.28,2.28H163.688a2.28,2.28,0,0,0,0-4.56Zm-79.8-48.84V147.24L67.922,157.29V131.073ZM67.922,126.4V100.978l15.961,2.364v19.512Zm29.642,12.226-9.121,5.743V126.513l9.121-2.027Zm0-18.813-9.121,2.027V104.017l9.121,1.351ZM63.362,100.3v27.112l-22.8,5.067V96.925Zm-22.8,36.852,22.8-5.067v28.074l-22.8,14.357Z" transform="translate(-36 -69.2)"/></svg>