<svg xmlns="http://www.w3.org/2000/svg" width="126.995" height="110.932" viewBox="0 0 126.995 110.932"><defs><style>.a{fill:#f1faee;}</style></defs><path class="a" d="M243.934,170.8a2.048,2.048,0,0,0,.831-4.012l-2.006-.416a2.048,2.048,0,0,0-.832,4.012Z" transform="translate(-130.559 -102.503)"/><path class="a" d="M205.156,159.779a2.048,2.048,0,0,0,1.672-3.74c-.6-.267-1.2-.548-1.783-.838a2.048,2.048,0,0,0-1.813,3.674C203.865,159.186,204.512,159.491,205.156,159.779Z" transform="translate(-111.918 -96.969)"/><path class="a" d="M224.328,166.619a2.048,2.048,0,0,0,.929-3.99c-.638-.148-1.28-.311-1.91-.483a2.048,2.048,0,1,0-1.08,3.952C222.947,166.283,223.64,166.459,224.328,166.619Z" transform="translate(-121.027 -100.425)"/><path class="a" d="M187.638,149.412a2.048,2.048,0,0,0,2.352-3.354c-.536-.376-1.071-.767-1.59-1.161a2.048,2.048,0,1,0-2.479,3.261c.56.427,1.138.849,1.717,1.255Z" transform="translate(-103.634 -91.84)"/><path class="a" d="M187.178,63.568a2.048,2.048,0,1,0,3.113-2.662c-.426-.5-.844-1.009-1.244-1.518a2.048,2.048,0,0,0-3.223,2.529c.434.554.889,1.109,1.353,1.65Z" transform="translate(-103.769 -49.941)"/><path class="a" d="M175.973,46.53a2.048,2.048,0,1,0,3.6-1.948c-.31-.574-.612-1.161-.9-1.744A2.048,2.048,0,0,0,175,44.631c.31.635.638,1.274.977,1.9Z" transform="translate(-98.598 -41.685)"/><path class="a" d="M209.736,228.847h-1.3V210.413h12.29a2.048,2.048,0,0,0,0-4.1H192.048a2.048,2.048,0,1,0,0,4.1h12.29v18.435h-1.3a2.048,2.048,0,0,0,0,4.1h6.7a2.048,2.048,0,0,0,0-4.1Z" transform="translate(-106.019 -122.012)"/><path class="a" d="M252.338,190.589a2.048,2.048,0,0,0-2.048,2.048v16.247H240.048A2.048,2.048,0,0,0,238,210.932v12.29a2.048,2.048,0,1,0,4.1,0V212.981h8.193v10.242a2.048,2.048,0,1,0,4.1,0V192.637A2.048,2.048,0,0,0,252.338,190.589Z" transform="translate(-129.439 -114.339)"/><path class="a" d="M188.338,206.7H178.1V192.364a2.048,2.048,0,1,0-4.1,0v30.725a2.048,2.048,0,1,0,4.1,0V210.8h8.193v11.476a2.048,2.048,0,0,0,4.1,0V208.751a2.048,2.048,0,0,0-2.048-2.048Z" transform="translate(-98.212 -114.205)"/><path class="a" d="M52.048,199.089h14.5a2.048,2.048,0,0,0,2.048-2.048V168.364a2.048,2.048,0,0,0-2.048-2.048h-14.5A2.048,2.048,0,0,0,50,168.364v28.676A2.048,2.048,0,0,0,52.048,199.089Zm2.048-4.1v-5.5c2.176-1.076,6.425-3.968,10.407-11.184v16.683Zm9.548-24.58c-3.242,8.432-7.085,12.441-9.548,14.273V170.413Z" transform="translate(-37.71 -102.495)"/><path class="a" d="M134.154,151.1a2.394,2.394,0,1,0-2.394-2.394A2.394,2.394,0,0,0,134.154,151.1Z" transform="translate(-77.603 -92.735)"/><path class="a" d="M97.831,151.1a2.394,2.394,0,1,0-2.394-2.394A2.394,2.394,0,0,0,97.831,151.1Z" transform="translate(-59.88 -92.735)"/><circle class="a" cx="2.394" cy="2.394" r="2.394" transform="translate(16.957 53.577)"/><path class="a" d="M152.686,103.279,134.843,74.6a2.049,2.049,0,0,0-1.739-.966H118.394c-.1-.08-.2-.16-.294-.242a2.046,2.046,0,0,0-2.859.242H45.892a2.047,2.047,0,0,0-1.739.966L26.309,103.279a2.048,2.048,0,0,0,1.739,3.131H30.1v59.4a2.048,2.048,0,0,0,2.048,2.048h63.5a2.048,2.048,0,0,0,2.048-2.048v-59.4h3.141c.364.4.73.8,1.1,1.189a2.038,2.038,0,0,0,3.5-1.189h45.513a2.048,2.048,0,0,0,1.739-3.131ZM85.541,124.844v38.918H77.208V124.844Zm-12.43,38.918H64.918V124.844h8.193Zm20.483,0H89.637V122.8a2.048,2.048,0,0,0-2.048-2.048H62.87a2.048,2.048,0,0,0-2.048,2.048v40.966H34.193V106.409h59.4ZM31.735,102.313l3.824-6.145h88.76a2.048,2.048,0,1,0,0-4.1H38.108L41.96,85.88a2.054,2.054,0,0,0,.427.046H81.3a2.048,2.048,0,0,0,0-4.1H44.481l2.549-4.1h84.936l15.294,24.58Z" transform="translate(-26 -56.927)"/></svg>