<svg xmlns="http://www.w3.org/2000/svg" width="123.745" height="123.668" viewBox="0 0 123.745 123.668"><defs><style>.a{fill:#f1faee;}</style></defs><g transform="translate(0 0)"><g transform="translate(96.276 41.103)"><path class="a" d="M191.639,78.8l-7.218-7.248a1.978,1.978,0,0,0-2.8,2.792l5.828,5.852L173.482,94.219l-4.021-4.039a1.978,1.978,0,0,0-2.8,2.792l5.422,5.446a1.977,1.977,0,0,0,2.8,0L191.64,81.591A1.977,1.977,0,0,0,191.639,78.8Z" transform="translate(-166.081 -70.97)"/></g><g transform="translate(54.304 0.78)"><path class="a" d="M121.508,9.7,113.814,1.97a2.036,2.036,0,0,0-2.8,0L94.254,18.8a1.978,1.978,0,0,0,0,2.792l5.334,5.355a1.978,1.978,0,0,0,2.8-2.792l-3.943-3.959L112.412,6.17l6.292,6.319a1.978,1.978,0,0,0,2.8-2.792Z" transform="translate(-93.678 -1.411)"/></g><g transform="translate(0 65.229)"><path class="a" d="M25.167,118.2l-5.03-5.05a2.036,2.036,0,0,0-2.8,0L.577,129.976a1.978,1.978,0,0,0,0,2.792l9.106,9.145a1.979,1.979,0,0,0,2.8-2.793l-7.716-7.749,13.964-14.023,3.628,3.643a1.978,1.978,0,0,0,2.8-2.792Z" transform="translate(-0.001 -112.59)"/></g><g transform="translate(29.082 98.461)"><path class="a" d="M78.742,174.923l-4.4-4.424a1.978,1.978,0,0,0-2.8,2.792l3.014,3.028L60.585,190.342l-7.036-7.067a1.978,1.978,0,1,0-2.8,2.792l8.438,8.474a1.977,1.977,0,0,0,2.8,0l16.757-16.827A1.978,1.978,0,0,0,78.742,174.923Z" transform="translate(-50.168 -169.917)"/></g><g transform="translate(1.332 0)"><path class="a" d="M120.47,4.25C117.745,1.513,113.675.066,108.7.066c-14.3,0-34.339,11.211-52.306,29.255C35.8,50,7.606,93.042,2.517,111.56c-.722,2.632.368,5.8,2.847,8.262a9.712,9.712,0,0,0,6.643,3.054,6.4,6.4,0,0,0,1.739-.234c18.474-5.189,61.264-33.487,81.761-54.07C120.463,43.508,131.428,15.256,120.47,4.25ZM92.7,65.78c-20.148,20.231-62.031,48-80.027,53.052-1.257.35-3.071-.378-4.518-1.816C6.73,115.6,6,113.827,6.333,112.609,11.289,94.57,38.958,52.442,59.2,32.114c16.992-17.064,36.423-28.09,49.5-28.09,3.954,0,6.969,1.015,8.963,3.02C125.761,15.173,117.661,40.715,92.7,65.78Z" transform="translate(-2.298 -0.066)"/></g><g transform="translate(27.138 75.602)"><path class="a" d="M57.1,131.06a1.978,1.978,0,0,0-2.8.006l-6.911,6.941a1.978,1.978,0,1,0,2.8,2.792l6.911-6.941A1.978,1.978,0,0,0,57.1,131.06Z" transform="translate(-46.815 -130.483)"/></g><g transform="translate(32.074 80.559)"><path class="a" d="M65.616,139.612a1.976,1.976,0,0,0-2.8.006l-6.912,6.94a1.978,1.978,0,1,0,2.8,2.792l6.912-6.94A1.978,1.978,0,0,0,65.616,139.612Z" transform="translate(-55.33 -139.035)"/></g><g transform="translate(37.011 85.518)"><path class="a" d="M74.132,148.165a1.978,1.978,0,0,0-2.8.006l-6.912,6.941a1.978,1.978,0,1,0,2.8,2.792l6.912-6.941A1.977,1.977,0,0,0,74.132,148.165Z" transform="translate(-63.847 -147.588)"/></g><g transform="translate(80.455 22.059)"><path class="a" d="M149.075,38.7a1.978,1.978,0,0,0-2.8.006l-6.912,6.941a1.978,1.978,0,1,0,2.8,2.792l6.912-6.941A1.977,1.977,0,0,0,149.075,38.7Z" transform="translate(-138.789 -38.119)"/></g><g transform="translate(85.392 27.017)"><path class="a" d="M157.591,47.248a1.978,1.978,0,0,0-2.8.006L147.882,54.2a1.978,1.978,0,1,0,2.8,2.792l6.911-6.941A1.977,1.977,0,0,0,157.591,47.248Z" transform="translate(-147.306 -46.672)"/></g><g transform="translate(90.329 31.976)"><path class="a" d="M166.107,55.8a1.978,1.978,0,0,0-2.8.006l-6.911,6.94a1.978,1.978,0,1,0,2.8,2.792l6.911-6.94A1.977,1.977,0,0,0,166.107,55.8Z" transform="translate(-155.822 -55.226)"/></g></g></svg>