<svg xmlns="http://www.w3.org/2000/svg" width="129.244" height="130.521" viewBox="0 0 129.244 130.521">
  <g id="Group_161" data-name="Group 161" transform="translate(-1404 -1980)">
    <path id="Path_156" data-name="Path 156" d="M210.417,76.233a2.442,2.442,0,1,0-3.426.439A2.443,2.443,0,0,0,210.417,76.233Z" transform="translate(1292.797 1931.068)" fill="#1d3557"/>
    <path id="Path_157" data-name="Path 157" d="M214.342,229.279a3.955,3.955,0,1,0,5.492,1.061A3.955,3.955,0,0,0,214.342,229.279Z" transform="translate(1289.774 1859.039)" fill="#1d3557"/>
    <ellipse id="Ellipse_3" data-name="Ellipse 3" cx="2.157" cy="2.157" rx="2.157" ry="2.157" transform="translate(1459.918 1995.98)" fill="#1d3557"/>
    <path id="Path_158" data-name="Path 158" d="M37.615,77.123a6.655,6.655,0,1,0-3.228-3.939,6.634,6.634,0,0,0,3.228,3.939Zm1.076-6.971a2.324,2.324,0,0,1,1.384-1.135,2.357,2.357,0,0,1,.68-.1,2.341,2.341,0,1,1-2.064,1.236Z" transform="translate(1372.034 1934.615)" fill="#1d3557"/>
    <path id="Path_159" data-name="Path 159" d="M158.909,88.875A84.038,84.038,0,0,0,130.366,66.1l13.673-17.843a2.157,2.157,0,0,0-.394-3.018L123.163,29.412a2.132,2.132,0,0,0-1.6-.432,2.16,2.16,0,0,0-1.434.825L113.7,38.2a1.869,1.869,0,0,0-.156.136,2.033,2.033,0,0,0-.094.191L98.541,57.989c-1.255-.058-2.511-.107-3.774-.107a81.414,81.414,0,0,0-9.8.6L74.691,43.717a9.415,9.415,0,1,0-8.159,4.747H66.6l7.259,12.181A83.152,83.152,0,0,0,30.624,88.874a2.155,2.155,0,0,0,0,2.713,84.2,84.2,0,0,0,25.8,21.361L36.711,138.68A2.157,2.157,0,0,0,37.1,141.7l20.482,15.821a2.147,2.147,0,0,0,1.318.451,2.1,2.1,0,0,0,.278-.019,2.16,2.16,0,0,0,1.434-.825l26.751-34.912c2.449.223,4.913.368,7.4.368a81.444,81.444,0,0,0,9.644-.623c3.093,5.266,6.424,7.909,8.775,9.209a6.081,6.081,0,0,0,8.2,8.286l.19,7.068a2.155,2.155,0,0,0,.99,1.754l16.893,10.862a2.154,2.154,0,0,0,2.376-.027l4.368-2.955a2.158,2.158,0,0,0,.91-2.192l-3.785-19.722a2.155,2.155,0,0,0-1.316-1.594l-6.62-2.655a6.073,6.073,0,0,0-3.455-10.872,18.349,18.349,0,0,0-1.205-4.974,82.419,82.419,0,0,0,8.9-5.056,84.763,84.763,0,0,0,19.269-17.5,2.157,2.157,0,0,0,0-2.714ZM110.965,48.867l3.776,2.917a2.156,2.156,0,0,0,2.637-3.412l-3.79-2.928,2.1-2.735,3.372,2.6a2.156,2.156,0,0,0,2.637-3.412L118.3,39.286l3.936-5.137,17.068,13.184L126.331,64.268a81.18,81.18,0,0,0-22.654-5.89Zm8.529,17.415a34.226,34.226,0,0,1,9.6,21.793H116.146a21.565,21.565,0,0,0-42.914,0H60.286A34.243,34.243,0,0,1,69.823,66.35a76.9,76.9,0,0,1,49.671-.068Zm-7.552,23.95A17.253,17.253,0,1,1,94.688,72.978,17.273,17.273,0,0,1,111.942,90.231ZM69.615,45.1A2.153,2.153,0,0,0,67.4,44.078a5.142,5.142,0,0,1-5.105-2.163,5.119,5.119,0,1,1,8.126.417,2.154,2.154,0,0,0-.12,2.622l9.924,14.256c-.657.119-1.309.259-1.962.394ZM35.1,90.231A79.558,79.558,0,0,1,61.842,69.6a38.445,38.445,0,0,0-5.869,18.479H42.928a2.157,2.157,0,1,0,0,4.313H55.972a38.443,38.443,0,0,0,5.869,18.479A79.561,79.561,0,0,1,35.1,90.231Zm23.41,62.552L41.442,139.6l5.248-6.849,5.154,3.982a2.156,2.156,0,1,0,2.637-3.412l-5.168-3.993,2.625-3.426,3.474,2.684a2.156,2.156,0,1,0,2.637-3.412L54.56,122.48l5.8-7.563A81.255,81.255,0,0,0,82.4,121.609Zm11.314-38.67a34.241,34.241,0,0,1-9.537-21.725H73.232a21.565,21.565,0,0,0,42.914,0h12.945a34.215,34.215,0,0,1-9.546,21.733,76.526,76.526,0,0,1-49.721-.008Zm72.788,39.265-2.011,1.36-14.739-9.475-.231-8.619,5.5-3.719,8.186,3.284Zm-9.962-26.687-13.107,8.863a1.8,1.8,0,0,1-2.014-2.982l13.107-8.861a1.8,1.8,0,0,1,2.5.48,1.8,1.8,0,0,1-.482,2.5Zm-4.98-6.181-11.088,7.5c-1.152-.414-4.3-1.936-7.519-6.742a81.062,81.062,0,0,0,12.524-3.286h0q2.645-.926,5.226-2.036A12.273,12.273,0,0,1,127.669,120.512Zm9.6-15.023a78.038,78.038,0,0,1-9.795,5.487A38.452,38.452,0,0,0,133.4,92.388h13.045a2.157,2.157,0,0,0,0-4.313H133.4a38.44,38.44,0,0,0-5.929-18.583,79.548,79.548,0,0,1,26.958,20.74A80.391,80.391,0,0,1,137.268,105.488Z" transform="translate(1373.856 1951.039)" fill="#1d3557"/>
    <path id="Path_160" data-name="Path 160" d="M138.8,118.6a12.813,12.813,0,0,0-5.39,1.2,2.155,2.155,0,0,0-1.175,2.54,2.122,2.122,0,0,1,.095.571,2.158,2.158,0,0,1-2.157,2.157,2.122,2.122,0,0,1-.571-.095,2.15,2.15,0,0,0-2.54,1.175,12.813,12.813,0,0,0-1.2,5.389A12.94,12.94,0,1,0,138.8,118.6Zm0,21.567a8.635,8.635,0,0,1-8.627-8.627,8.328,8.328,0,0,1,.288-2.163,6.48,6.48,0,0,0,6.175-6.175,8.328,8.328,0,0,1,2.163-.288,8.627,8.627,0,0,1,0,17.253Z" transform="translate(1329.75 1909.73)" fill="#1d3557"/>
  </g>
</svg>
