<svg xmlns="http://www.w3.org/2000/svg" width="116.739" height="138.357" viewBox="0 0 116.739 138.357">
  <g id="Group_159" data-name="Group 159" transform="translate(-883 -1976)">
    <path id="Path_169" data-name="Path 169" d="M62.148,164.978a2.161,2.161,0,0,0-3.057,0l-1.528,1.528-1.528-1.528a2.162,2.162,0,0,0-3.057,3.057l1.528,1.528-1.528,1.528a2.162,2.162,0,1,0,3.057,3.057l1.528-1.528,1.528,1.528a2.162,2.162,0,0,0,3.057-3.057l-1.528-1.528,1.528-1.528A2.16,2.16,0,0,0,62.148,164.978Z" transform="translate(836.246 1888.587)" fill="#1d3557"/>
    <path id="Path_170" data-name="Path 170" d="M231.091,102.148a2.162,2.162,0,1,0,3.057-3.057l-1.528-1.528,1.528-1.528a2.162,2.162,0,1,0-3.057-3.057l-1.528,1.528-1.528-1.528a2.162,2.162,0,1,0-3.057,3.057l1.528,1.528-1.528,1.528a2.161,2.161,0,1,0,3.057,3.057l1.528-1.528Z" transform="translate(757.204 1921.674)" fill="#1d3557"/>
    <path id="Path_171" data-name="Path 171" d="M77.919,72.366a2.448,2.448,0,1,0-2.448-2.448A2.448,2.448,0,0,0,77.919,72.366Z" transform="translate(825.618 1933.105)" fill="#1d3557"/>
    <path id="Path_172" data-name="Path 172" d="M245.919,168.366a2.448,2.448,0,1,0-2.448-2.448A2.448,2.448,0,0,0,245.919,168.366Z" transform="translate(748.415 1888.989)" fill="#1d3557"/>
    <path id="Path_173" data-name="Path 173" d="M54.971,100.485a6.485,6.485,0,1,0-6.485,6.485A6.493,6.493,0,0,0,54.971,100.485Zm-8.647,0a2.162,2.162,0,1,1,2.162,2.162A2.164,2.164,0,0,1,46.324,100.485Z" transform="translate(841 1920.913)" fill="#1d3557"/>
    <path id="Path_174" data-name="Path 174" d="M240.485,198a6.485,6.485,0,1,0,6.485,6.485A6.493,6.493,0,0,0,240.485,198Zm0,8.647a2.162,2.162,0,1,1,2.162-2.162A2.164,2.164,0,0,1,240.485,206.647Z" transform="translate(752.767 1873.12)" fill="#1d3557"/>
    <path id="Path_175" data-name="Path 175" d="M143.113,130.952l-.4-.18a43.589,43.589,0,0,0,.327-9.664,15.125,15.125,0,0,0,2.787-2.181,2.393,2.393,0,0,0,.152-2.831,2.246,2.246,0,0,0-2.577-.712c0-.056.011-.112.011-.168.03-2.542.051-4.278.07-5.452a7.316,7.316,0,0,0,3.566-1.158,7.672,7.672,0,0,0,3.631-5.449,7.568,7.568,0,0,0-5.345-8.2V84.911c0-3.657-5.048-6.216-14.986-7.629a19.483,19.483,0,0,0-2.364-26.466,18.759,18.759,0,0,0-14.784-4.693A19.366,19.366,0,0,0,100.388,77.2c-7.75,1.053-15.579,3.227-15.579,7.716V94.95a7.579,7.579,0,0,0-5.4,7.53,7.676,7.676,0,0,0,3.509,5.976,7.2,7.2,0,0,0,3.676,1.31c.023,1.162.051,2.906.086,5.515,0,.163.019.321.024.483a1.792,1.792,0,0,0-.379.333,2.4,2.4,0,0,0,.152,2.831,6.828,6.828,0,0,0,.769.713,42.793,42.793,0,0,0,.177,11.135l-.388.176A22.477,22.477,0,0,0,74,151.441v17.782a2.161,2.161,0,0,0,2.162,2.162h77.826a2.161,2.161,0,0,0,2.162-2.162V151.441A22.476,22.476,0,0,0,143.113,130.952ZM127.3,81.255c8.613.989,12.666,2.754,13.589,3.663-1.2,1.27-6.938,3.121-16.265,3.922A19.4,19.4,0,0,1,127.3,81.255Zm-26.471-18.26A14.955,14.955,0,0,1,113.7,50.419a14.47,14.47,0,0,1,11.415,3.622A15.177,15.177,0,0,1,126.222,75.5a23.644,23.644,0,0,0-5.974,13.623c-.972.042-1.98.07-3.011.088V77.159l5.852-5.852a2.162,2.162,0,1,0-3.057-3.057l-4.957,4.958-4.957-4.957a2.162,2.162,0,0,0-3.057,3.057l5.852,5.852V89.211c-.805-.014-1.589-.037-2.358-.066a23.238,23.238,0,0,0-5.918-13.579,15.188,15.188,0,0,1-3.8-12.572Zm2.652,18.192a19.207,19.207,0,0,1,2.695,7.705c-9.715-.769-15.7-2.676-16.922-3.974.95-.943,5.2-2.761,14.228-3.731ZM85.339,104.872a3.418,3.418,0,0,1-1.609-2.545,3.245,3.245,0,0,1,3.241-3.363A2.161,2.161,0,0,0,89.133,96.8V89.821c7.8,3.6,23.622,3.738,25.942,3.738s18.145-.137,25.942-3.738V96.8a2.161,2.161,0,0,0,2.162,2.162,3.246,3.246,0,0,1,3.217,3.666,3.334,3.334,0,0,1-1.626,2.307,2.787,2.787,0,0,1-2.662.309,2.162,2.162,0,0,0-2.831,1.573c-.068.31-.091.415-.182,8.346-.006.515-.066,1.03-.1,1.546-4.856.806-7.868-1.369-11.01-3.657-2.392-1.742-4.864-3.543-7.984-3.543a6.87,6.87,0,0,0-3.84,1.162,6.865,6.865,0,0,0-3.84-1.162c-3.12,0-5.593,1.8-7.984,3.543-3.6,2.624-7.034,5.1-13.28,3.1-.016-.309-.042-.614-.046-.926-.108-7.9-.142-8.058-.2-8.353A2.163,2.163,0,0,0,88,105.258a2.692,2.692,0,0,1-2.657-.386Zm48.612,16.02c-4.319,1.642-9.544,2.573-13.946.371a4.825,4.825,0,0,1-2.018-1.666,2.161,2.161,0,0,0-3.661,0,4.829,4.829,0,0,1-2.018,1.666c-4.4,2.2-9.625,1.272-13.946-.371a22.052,22.052,0,0,0,8.517-4.344c2-1.457,3.726-2.714,5.438-2.714a2.616,2.616,0,0,1,2.107,1.077,2.239,2.239,0,0,0,3.467,0A2.614,2.614,0,0,1,120,113.835c1.712,0,3.439,1.257,5.438,2.714a22.046,22.046,0,0,0,8.518,4.344Zm-19.71,4.238a10.787,10.787,0,0,0,1.915-1.2,10.849,10.849,0,0,0,1.915,1.2,17.128,17.128,0,0,0,7.733,1.731,30.771,30.771,0,0,0,13.034-3.37,36.211,36.211,0,0,1-1.875,12.719,3.664,3.664,0,0,1-3.448,2.212,4.082,4.082,0,0,1-3.967-2.145l-1.113-2.475a2.163,2.163,0,0,0-4.134.88,26.419,26.419,0,0,1-.576,4.476c-.933,4.64-5.244,6.287-8.651,6.287s-7.718-1.647-8.652-6.286a26.463,26.463,0,0,1-.576-4.47,2.162,2.162,0,0,0-4.133-.886l-1.113,2.474a4.07,4.07,0,0,1-3.967,2.146,3.663,3.663,0,0,1-3.448-2.213,36.727,36.727,0,0,1-1.831-13.828c5.664,3.188,15.089,6.644,22.885,2.749ZM93.456,149.766a2.161,2.161,0,0,0-2.162,2.162v15.133H78.324v-15.62a18.14,18.14,0,0,1,10.016-16.286c.225.831.473,1.666.772,2.505a7.858,7.858,0,0,0,7.347,5.081,8.8,8.8,0,0,0,5.924-1.894,11.4,11.4,0,0,0,1.527,3.3l2.291,22.916H95.618V151.928a2.161,2.161,0,0,0-2.162-2.162Zm17.09,17.295-1.878-18.781a14.553,14.553,0,0,0,12.813,0l-1.878,18.78Zm41.28,0H138.855V151.928a2.162,2.162,0,1,0-4.324,0v15.133H123.949l2.291-22.914a11.389,11.389,0,0,0,1.527-3.3,8.727,8.727,0,0,0,5.924,1.893,7.859,7.859,0,0,0,7.347-5.081c.3-.837.556-1.672.781-2.5a18.138,18.138,0,0,1,10.007,16.28Z" transform="translate(826.294 1942.972)" fill="#1d3557"/>
    <ellipse id="Ellipse_4" data-name="Ellipse 4" cx="1.82" cy="2.276" rx="1.82" ry="2.276" transform="translate(951.495 2046.089)" fill="#1d3557"/>
    <ellipse id="Ellipse_5" data-name="Ellipse 5" cx="2.731" cy="2.276" rx="2.731" ry="2.276" transform="translate(928.739 2046.089)" fill="#1d3557"/>
    <path id="Path_176" data-name="Path 176" d="M148.162,32.809a2.161,2.161,0,0,0,2.162-2.162V24.162a2.162,2.162,0,1,0-4.324,0v6.485A2.161,2.161,0,0,0,148.162,32.809Z" transform="translate(793.207 1954)" fill="#1d3557"/>
    <path id="Path_177" data-name="Path 177" d="M164.162,36.486a2.156,2.156,0,0,0,1.528-.633l2.162-2.162a2.162,2.162,0,1,0-3.057-3.057L162.634,32.8a2.162,2.162,0,0,0,1.528,3.69Z" transform="translate(785.854 1950.323)" fill="#1d3557"/>
    <path id="Path_178" data-name="Path 178" d="M128.8,35.852a2.162,2.162,0,1,0,3.057-3.057l-2.162-2.162a2.162,2.162,0,1,0-3.057,3.057Z" transform="translate(802.398 1950.323)" fill="#1d3557"/>
  </g>
</svg>
