<svg xmlns="http://www.w3.org/2000/svg" width="126.692" height="137.805" viewBox="0 0 126.692 137.805">
  <g id="Group_162" data-name="Group 162" transform="translate(-1679.629 -1977)">
    <path id="Path_179" data-name="Path 179" d="M222.225,118.445a2.223,2.223,0,1,0-2.225-2.22A2.223,2.223,0,0,0,222.225,118.445Z" transform="translate(1561.871 1911.899)" fill="#1d3557"/>
    <path id="Path_180" data-name="Path 180" d="M93.055,166.738a3.682,3.682,0,1,0-3.682-3.682A3.682,3.682,0,0,0,93.055,166.738Z" transform="translate(1619.913 1891.738)" fill="#1d3557"/>
    <path id="Path_181" data-name="Path 181" d="M93.055,211.373a3.682,3.682,0,1,0,3.682,3.682A3.682,3.682,0,0,0,93.055,211.373Z" transform="translate(1619.913 1868.633)" fill="#1d3557"/>
    <path id="Path_182" data-name="Path 182" d="M182.223,58.891a2.223,2.223,0,0,0,2.223-2.223V52.223a2.223,2.223,0,1,0-4.445,0v4.445A2.223,2.223,0,0,0,182.223,58.891Z" transform="translate(1579.645 1940.336)" fill="#1d3557"/>
    <path id="Path_183" data-name="Path 183" d="M182.223,74A2.223,2.223,0,0,0,180,76.223v4.445a2.223,2.223,0,0,0,4.445,0V76.223A2.223,2.223,0,0,0,182.223,74Z" transform="translate(1579.645 1929.672)" fill="#1d3557"/>
    <path id="Path_184" data-name="Path 184" d="M166.223,70.445h4.445a2.223,2.223,0,0,0,0-4.445h-4.445a2.223,2.223,0,1,0,0,4.445Z" transform="translate(1586.754 1933.227)" fill="#1d3557"/>
    <path id="Path_185" data-name="Path 185" d="M190.223,70.445h4.445a2.223,2.223,0,0,0,0-4.445h-4.445a2.223,2.223,0,1,0,0,4.445Z" transform="translate(1576.09 1933.227)" fill="#1d3557"/>
    <path id="Path_186" data-name="Path 186" d="M243.779,122a7.779,7.779,0,1,0,7.779,7.779A7.789,7.789,0,0,0,243.779,122Zm0,11.113a3.334,3.334,0,1,1,3.334-3.334A3.337,3.337,0,0,1,243.779,133.113Z" transform="translate(1554.762 1908.344)" fill="#1d3557"/>
    <path id="Path_187" data-name="Path 187" d="M135.314,99.348H133.8V94.9a2.223,2.223,0,0,0-2.223-2.223,8.9,8.9,0,0,0-8.891-8.891H93.789a8.768,8.768,0,0,0-2.332.35A8.268,8.268,0,0,0,85,77.321L78.551,43.595a5.535,5.535,0,0,0,1.9-9.787V32.332A6.34,6.34,0,0,0,74.121,26H64.559a6.34,6.34,0,0,0-6.332,6.332v1.475a5.534,5.534,0,0,0,1.725,9.736L53.494,77.337a8.275,8.275,0,0,0-6.381,8.044v71.742a6.6,6.6,0,0,0,.413,2.237h-9.3a2.223,2.223,0,1,0,0,4.445h82.883c7,0,12.691-6.1,12.691-13.6V139.356h1.517a14.058,14.058,0,0,0,14.042-14.042V113.39A14.058,14.058,0,0,0,135.314,99.348Zm-12.63-11.113a4.45,4.45,0,0,1,4.445,4.445H109.348a2.223,2.223,0,0,0-2.223,2.223v15.559a2.227,2.227,0,0,1-2.612,2.192,2.412,2.412,0,0,1-1.833-2.429v-6.431a2.223,2.223,0,0,0-2.223-2.223H95.967A6.64,6.64,0,0,1,89.344,94.9V92.68a4.45,4.45,0,0,1,4.445-4.445ZM64.559,30.445H74.12a1.889,1.889,0,0,1,1.887,1.887v.336H62.672v-.336a1.889,1.889,0,0,1,1.887-1.887ZM55.373,81.567a2.223,2.223,0,0,0,2.184-1.806l7.22-37.785a2.224,2.224,0,0,0-2.184-2.639H61.561a1.111,1.111,0,1,1,0-2.223H77.119a1.111,1.111,0,1,1,0,2.223H75.9a2.224,2.224,0,0,0-2.184,2.639l7.221,37.785a2.433,2.433,0,0,0,2.37,1.806,3.819,3.819,0,0,1,3.815,3.815v1.48A8.815,8.815,0,0,0,84.9,92.68H82.542a3.065,3.065,0,0,0-2.936-2.223H59.074A3.074,3.074,0,0,0,56,93.527v16.935H51.559V85.381a3.819,3.819,0,0,1,3.815-3.815Zm-3.815,33.34H78.231v6.668H51.559Zm26.672-4.445H60.449V94.9H78.231ZM60.449,126.02H78.231v13.336H60.449Zm-8.891,31.1v-31.1H56v14.711a3.074,3.074,0,0,0,3.07,3.07H78.231v6.4a14.083,14.083,0,0,0,3.333,9.156H53.8A2.24,2.24,0,0,1,51.559,157.124ZM82.676,150.2V97.125h2.443a11.1,11.1,0,0,0,6.448,7.967V159.36h-.645c-4.548,0-8.246-4.107-8.246-9.156Zm13.336,9.156V106.016h2.223v4.208a6.653,6.653,0,0,0,6.657,6.9,6.667,6.667,0,0,0,6.679-6.667V97.125h4.445V159.36h-20Zm33.34-9.156c0,5.049-3.7,9.156-8.246,9.156h-.645V97.125h8.891V150.2Zm15.559-24.89a9.608,9.608,0,0,1-9.6,9.6H133.8V103.793h1.517a9.608,9.608,0,0,1,9.6,9.6Z" transform="translate(1643.629 1951)" fill="#1d3557"/>
  </g>
</svg>
