<svg xmlns="http://www.w3.org/2000/svg" width="132.721" height="115.049" viewBox="0 0 132.721 115.049">
  <g id="Group_157" data-name="Group 157" transform="translate(-393 -1988)">
    <path id="Path_143" data-name="Path 143" d="M341.839,44.726a7.332,7.332,0,1,0-7.332-7.332A7.34,7.34,0,0,0,341.839,44.726Zm0-10.019a2.687,2.687,0,1,1-2.688,2.688A2.692,2.692,0,0,1,341.839,34.706Zm0,0" transform="translate(172.271 1968.13)" fill="#1d3557"/>
    <path id="Path_144" data-name="Path 144" d="M7.333,262.168a7.332,7.332,0,1,0,7.332,7.332A7.34,7.34,0,0,0,7.333,262.168Zm0,10.019a2.687,2.687,0,1,1,2.688-2.688A2.692,2.692,0,0,1,7.333,272.187Zm0,0" transform="translate(393 1814.972)" fill="#1d3557"/>
    <path id="Path_145" data-name="Path 145" d="M311.727,3.689A3.592,3.592,0,1,1,308.136.1,3.592,3.592,0,0,1,311.727,3.689Zm0,0" transform="translate(192.044 1987.902)" fill="#1d3557"/>
    <path id="Path_146" data-name="Path 146" d="M65.968,304.064a3.591,3.591,0,1,1-3.591-3.591A3.591,3.591,0,0,1,65.968,304.064Zm0,0" transform="translate(354.21 1789.697)" fill="#1d3557"/>
    <path id="Path_147" data-name="Path 147" d="M174.01,61.964a2.321,2.321,0,0,0,3.283,0l2.463-2.463,2.462,2.463a2.322,2.322,0,0,0,3.283-3.283l-2.462-2.463,2.462-2.462a2.322,2.322,0,0,0-3.283-3.283l-2.462,2.462-2.463-2.462a2.322,2.322,0,0,0-3.283,3.283l2.463,2.462-2.463,2.463A2.322,2.322,0,0,0,174.01,61.964Zm0,0" transform="translate(278.626 1955.111)" fill="#1d3557"/>
    <path id="Path_148" data-name="Path 148" d="M335.691,296.232a2.324,2.324,0,0,0-3.284,0l-2.462,2.462-2.462-2.462a2.322,2.322,0,1,0-3.283,3.283l2.462,2.462-2.462,2.463a2.322,2.322,0,1,0,3.283,3.283l2.462-2.462,2.462,2.462a2.322,2.322,0,0,0,3.284-3.283l-2.463-2.463,2.463-2.462A2.322,2.322,0,0,0,335.691,296.232Zm0,0" transform="translate(179.523 1792.943)" fill="#1d3557"/>
    <path id="Path_149" data-name="Path 149" d="M133.424,69.476a2.321,2.321,0,0,0-2.312-2.546H117.184l-69.671-.07h-.064A18.465,18.465,0,0,1,28.992,49.327l.167,0c3.805,0,8.917-.737,12.306-4.127,5.873-5.875,3.785-16.911,3.7-17.379a2.321,2.321,0,0,0-1.831-1.832c-.47-.09-11.506-2.176-17.378,3.7a12.433,12.433,0,0,0-2.613,3.958,12.455,12.455,0,0,0-2.613-3.958c-5.873-5.874-16.911-3.788-17.378-3.7a2.322,2.322,0,0,0-1.832,1.832c-.09.466-2.178,11.5,3.7,17.379,3.257,3.255,8.088,4.055,11.838,4.114a53.785,53.785,0,0,0-1.363,18.616A60.218,60.218,0,0,0,59.13,119.717v2.942a9.288,9.288,0,1,0,18.576,0v-.829C106.767,120.523,130.627,98.231,133.424,69.476Zm-55.718,47.7v-8.452a9.2,9.2,0,0,0-.638-3.314c.2-.019.4-.06.611-.06a34.2,34.2,0,0,0,28.27-15.584L118.4,71.574h10.087C124.813,96.721,103.508,115.923,77.707,117.178ZM29.237,32.971c2.849-2.851,8.38-2.978,11.6-2.647.328,3.207.215,8.728-2.649,11.594-2.853,2.85-8.384,2.962-11.6,2.647C26.258,41.356,26.37,35.837,29.237,32.971ZM5.848,30.317C9.06,30,14.578,30.1,17.442,32.971c2.851,2.85,2.967,8.383,2.647,11.6-3.207.322-8.728.213-11.594-2.651S5.527,33.535,5.848,30.317ZM20.307,67.469A49.291,49.291,0,0,1,21.44,50.675h2.975A23.154,23.154,0,0,0,47.44,71.5h.078l65.263.065L102.1,87.167a29.585,29.585,0,0,1-24.422,13.54,11.472,11.472,0,0,0-3.668.651,9.2,9.2,0,0,0-5.592-1.921,9.3,9.3,0,0,0-9.289,9.287v6.13A55.549,55.549,0,0,1,20.307,67.469Zm52.756,55.189a4.644,4.644,0,0,1-9.287,0V108.726a4.644,4.644,0,0,1,9.287,0Zm0,0" transform="translate(392.286 1971.102)" fill="#1d3557"/>
    <path id="Path_150" data-name="Path 150" d="M279.106,186.28a2.883,2.883,0,1,1-2.883-2.882A2.883,2.883,0,0,1,279.106,186.28Zm0,0" transform="translate(212.634 1866.949)" fill="#1d3557"/>
  </g>
</svg>
