<svg xmlns="http://www.w3.org/2000/svg" width="517.948" height="192.401" viewBox="0 0 517.948 192.401">
  <g id="Group_78" data-name="Group 78" transform="matrix(1, -0.017, 0.017, 1, 132.882, -94.709)">
    <path id="Path_114" data-name="Path 114" d="M276.811,116.453a102.611,102.611,0,0,0,11.809,1.192c6.165.254,38.964-2.218,55.9,36.367.674,1.532,2.465,8.016.6,10.273s-17.956-27.636-50.428-18.856l-9.8,2s-.632,5.192-7.054,9.6-27.6,13.583-34.2,26.814c0,0-.625,1.169-1.452,1.169s-4.273-6.9-1.586-18.72,20.4-28.048,20.57-36.163S276.811,116.453,276.811,116.453Z" transform="translate(34.911 1.397)" fill="none" stroke="#1d3557" stroke-width="2" fill-rule="evenodd"/>
    <path id="Path_115" data-name="Path 115" d="M243.643,182.457s-.625,1.169-1.452,1.169-4.273-6.9-1.586-18.719c2.432-10.68,17.115-24.954,20.059-33.6l.585,6.339s.133,1.959-8.2,12.016S241.094,170.529,243.643,182.457Z" transform="translate(34.911 2.785)" fill="none" stroke="#1d3557" stroke-width="2" fill-rule="evenodd"/>
    <path id="Path_116" data-name="Path 116" d="M273.92,116.453a102.611,102.611,0,0,0,11.809,1.192c6.165.254,38.964-2.216,55.9,36.367.674,1.532,2.465,8.016.6,10.273-2.445-15.261-21.336-33.605-43.725-37.133s-24.8-5.127-24.8-5.127l-3.178-4.127C272.5,116.963,273.92,116.453,273.92,116.453Z" transform="translate(37.801 1.397)" fill="none" stroke="#1d3557" stroke-width="2" fill-rule="evenodd"/>
    <path id="Path_117" data-name="Path 117" d="M-36.3,135.131s1.934,6.478-5.019,11.739-3.658,6.661-5.828,11.591-3.954,3.731-6.469,9.5-3.952,10.5-7.313,14.848-3.9,4.54-3.289,9.177-5.466,9.532-8.554,14.22-.639,8.385-2.426,13.085-5.467,9.533-3.008,14.854,2.108,6.821,2.36,11.331,4.694,8.83,7.969,14.4,8.9,8.845,10.81,7.491-.1-5.992,1.441-14.339,9.312-29.833,25.886-51.322c4.28-5.549,7.706-9.821,10.093-13.48C-3.9,164.1-22.609,133.586-36.3,135.131Z" transform="translate(4.889 17.135)" fill="none" stroke="#1d3557" stroke-width="2" fill-rule="evenodd"/>
    <path id="Path_118" data-name="Path 118" d="M-63.372,181.681c-1.144,1.72-1.253,2.826-.843,5.948.611,4.636-5.465,9.532-8.554,14.22s-.639,8.385-2.425,13.085-5.468,9.533-3.009,14.854,2.108,6.822,2.36,11.331,4.694,8.829,7.97,14.4,8.9,8.844,10.809,7.491a2.4,2.4,0,0,0,.841-1.858c-1.716,4.428-12.17-8.491-10.609-16.781s-4.339-12-3.817-17.466,3.471-3.527,3.471-11.819,3.3-7.585,8.158-16.582,1.388-15.7,1.388-15.7S-59.9,182.368-63.372,181.681Z" transform="translate(5.134 7.493)" fill="none" stroke="#1d3557" stroke-width="2" fill-rule="evenodd"/>
    <path id="Path_119" data-name="Path 119" d="M-124.238,125.609l-4.86,2.117s-3.646-17.113,26.384-23.992S.911,108.319,47.777,106.2s60.759,5.646,79.506,4.235,28.988-2.823,35.584,0,33.326,1.94,37.495.881S259.9,93.152,311.28,117.85c0,0-2.342.97-.518,4.939s10.067,18.921,18.4,24.037a23.671,23.671,0,0,1-19.528-.266c-94.917-46.57-68.647,53.8-178.367,70.6C42.839,230.711-46.726,178.493-124.238,125.609Z" transform="translate(0.441 0)" fill="none" stroke="#1d3557" stroke-width="2" fill-rule="evenodd"/>
    <path id="Path_120" data-name="Path 120" d="M-114.481,107a62.621,62.621,0,0,1,10.388-3.273C-74.064,96.853-.469,108.319,46.4,106.2s60.759,5.646,79.506,4.235,28.988-2.823,35.584,0,33.326,1.94,37.495.881,59.538-18.168,110.918,6.53c0,0-2.342.971-.518,4.939.089.2.195.419.315.665-6.87-2.467-10.931,4.287-22.089-4.5-11.255-8.859-20.92-6.282-27.576.8s-12.364,8.377-28.213,3.544-27.579-9.665-34.868,2.9-22.506,9.664-39.622-.645-20.921-9.987-34.869,2.577S93.3,141.67,78.084,126.206s-27.418-13.853-31.858-10.632-17.274,10.792-34.074,2.094S-1,114.608-20.5,119.923s-27.894-6.6-50.242-13.691C-92.473,99.338-113.354,106.6-114.481,107Z" transform="translate(1.82 0)" fill="none" stroke="#1d3557" stroke-width="2" fill-rule="evenodd"/>
    <path id="Path_121" data-name="Path 121" d="M-95.765,102.205c34.195-3.224,98.163,5.906,140.414,4,46.867-2.117,60.759,5.646,79.506,4.235s28.988-2.823,35.584,0,33.326,1.94,37.495.881,59.538-18.168,110.918,6.53a1.774,1.774,0,0,0-.524.385c-9.893-.456-16.3-4.075-35.437-9.592-21.236-6.121-58.165,0-74.49,4.187s-27.656,3.3-41.127-.161-21.872-1.69-37.722.082-27.418.643-43.108-2.9-23.929-3.9-37.878-.8-27.658.724-38.436-2.094-21.553.8-43.426-2.1C-65.463,102.01-94.695,102.2-95.765,102.205Z" transform="translate(3.569 0)" fill="none" stroke="#1d3557" stroke-width="2" fill-rule="evenodd"/>
    <path id="Path_122" data-name="Path 122" d="M320.274,136.624c2.832,3.724,6.048,7.183,9.276,9.165a23.673,23.673,0,0,1-19.528-.265c-94.917-46.571-68.647,53.795-178.367,70.6,0,0-94.08,26.462-193.713-23.994-18.811-9.524-33.185-18.308-43.951-26.275-35.994-26.633-32.219-45.525-13.17-51.073,53.2-15.5,82.03,57.11,117.2,37.164L32.3,176.963l11.922-15.671s22.984,21.79,57.7,22.5,68.392-6.7,103.8-28.224,59.859-31.03,85.649-22.924C311.423,138.942,318.4,139.276,320.274,136.624Z" transform="translate(0.053 1.036)" fill="none" stroke="#1d3557" stroke-width="2" fill-rule="evenodd"/>
    <path id="Path_123" data-name="Path 123" d="M234.012,135.1c-.151.071-.3.144-.453.218.3-.156.449-.232.449-.232l0,.014Zm-5.8,3.262c-27.319,18.03-40.952,64.681-112.645,75.665-23.274,3.565-46.624,2.569-69.815-1.791l-6.966-38.447A92.166,92.166,0,0,0,64.792,202.8c17.75,12.886,31.379-4.187,48.181-13.206S143.4,203.442,179.538,173.8C203.922,153.8,220.2,143.167,228.209,138.362Z" transform="translate(16.144 3.138)" fill="none" stroke="#1d3557" stroke-width="2" fill-rule="evenodd"/>
    <path id="Path_124" data-name="Path 124" d="M234.012,135.1c-.151.071-.3.144-.453.218.3-.156.449-.232.449-.232l0,.014Zm-5.8,3.262c-27.319,18.03-40.952,64.681-112.645,75.665,0,0-27.388,7.695-68.246,6.867l-8.536-47.1A92.166,92.166,0,0,0,64.792,202.8c17.75,12.886,31.379-4.187,48.181-13.206S143.4,203.442,179.538,173.8C203.922,153.8,220.2,143.167,228.209,138.362Z" transform="translate(16.144 3.138)" fill="none" stroke="#1d3557" stroke-width="2" fill-rule="evenodd"/>
    <path id="Path_125" data-name="Path 125" d="M291.6,145.7a22.969,22.969,0,0,1-14.932-1.731c-24.136-11.842-40.428-14.171-53.121-10.8l.167-.058c14.628-5,25.621-4.536,34.432-1.986q.96.3,1.876.584C273.982,136.36,282.357,145.99,291.6,145.7Z" transform="translate(33.411 2.593)" fill="none" stroke="#1d3557" stroke-width="2" fill-rule="evenodd"/>
    <path id="Path_126" data-name="Path 126" d="M-29.784,147.089a7.039,7.039,0,0,0,6.968-7.081,7.039,7.039,0,0,0-6.968-7.081,7.039,7.039,0,0,0-6.967,7.081A7.039,7.039,0,0,0-29.784,147.089Z" transform="translate(9.084 2.936)" fill="none" stroke="#1d3557" stroke-width="2" fill-rule="evenodd"/>
    <g id="Group_77" data-name="Group 77" transform="translate(-133.957 118.784)">
      <g id="Group_76" data-name="Group 76">
        <path id="Path_127" data-name="Path 127" d="M22.824,216.76a.769.769,0,0,1-.185-.022c-74.228-17.781-111.6-42.3-129.871-59.74-16.61-15.849-20.916-28.654-21.939-32.836a11.319,11.319,0,0,0-3.182,8.07.781.781,0,0,1-.816.8.81.81,0,0,1-.788-.829,12.769,12.769,0,0,1,6.271-11.271c12.03-7.48,37.448-1.868,47.7,3.239,12.67,6.31,23.736,14.7,33.5,22.112,6.8,5.156,12.668,9.608,17.787,12.371,5.726,3.089,9.817,3.622,12.875,1.671a.792.792,0,0,1,1.107.258.823.823,0,0,1-.254,1.124c-3.594,2.293-8.2,1.779-14.481-1.613-5.228-2.82-11.145-7.309-18-12.5q-2.268-1.721-4.632-3.5c6.286,9.158,25.494,33.247,61.607,47.331a.819.819,0,0,1,.461,1.053.8.8,0,0,1-1.037.469c-44-17.159-63.231-49.056-64.694-51.576a172.2,172.2,0,0,0-24.953-15.73,45.17,45.17,0,0,0-5.038-2.083c1.436,3.973,6.19,15.246,17.8,28.56C-54.6,167.4-29.244,188.585,15.841,202.676a.819.819,0,0,1,.531,1.02.806.806,0,0,1-1,.54c-45.505-14.224-71.111-35.655-84.579-51.13-13.342-15.33-17.668-27.706-18.446-30.2a81.8,81.8,0,0,0-25.309-3.923c1.052,3.725,5.876,18.067,21.541,34.68,16.778,17.793,49.771,41.9,111.668,55.705a.817.817,0,0,1,.612.972.8.8,0,0,1-.956.621c-62.381-13.912-95.653-38.281-112.581-56.274-16.546-17.587-21.083-32.332-21.937-35.632-4.732.285-9.028,1.275-12.233,3.268q-.49.305-.939.639c.551,2.625,4.137,16.193,21.814,33,18.147,17.254,55.256,41.528,128.981,59.19a.814.814,0,0,1,.6.98A.8.8,0,0,1,22.824,216.76Z" transform="translate(133.957 -117.307)" fill="none" stroke="#1d3557" stroke-width="2"/>
      </g>
    </g>
    <path id="Path_128" data-name="Path 128" d="M-30.034,143.857a4.078,4.078,0,0,0,4.037-4.1,4.078,4.078,0,0,0-4.037-4.1,4.079,4.079,0,0,0-4.036,4.1A4.079,4.079,0,0,0-30.034,143.857Z" transform="translate(9.335 3.191)" fill="none" stroke="#1d3557" stroke-width="2" fill-rule="evenodd"/>
    <path id="Path_129" data-name="Path 129" d="M-32.241,138.775a1.9,1.9,0,0,0,1.875-1.906,1.9,1.9,0,0,0-1.875-1.907,1.9,1.9,0,0,0-1.875,1.907A1.9,1.9,0,0,0-32.241,138.775Z" transform="translate(9.331 3.127)" fill="none" stroke="#1d3557" stroke-width="2" fill-rule="evenodd"/>
    <path id="Path_130" data-name="Path 130" d="M40.79,125.829c-9.681,3.913-13.515-1.733-6.631-8.451C42.912,108.834,49.9,122.146,40.79,125.829Z" transform="translate(15.384 1.22)" fill="none" stroke="#1d3557" stroke-width="2" fill-rule="evenodd"/>
    <path id="Path_131" data-name="Path 131" d="M23.362,127.844c-5.9-2.474-5.218-6.621.63-6.591C31.427,121.291,28.913,130.175,23.362,127.844Z" transform="translate(14.319 1.845)" fill="none" stroke="#1d3557" stroke-width="2" fill-rule="evenodd"/>
    <path id="Path_132" data-name="Path 132" d="M107.715,126.9c10.228-10.694,18.019-8.181,12.792,3.111C113.861,144.378,98.087,136.967,107.715,126.9Z" transform="translate(22.302 1.736)" fill="none" stroke="#1d3557" stroke-width="2" fill-rule="evenodd"/>
    <path id="Path_133" data-name="Path 133" d="M183.512,125.281c-5.2-2.476-4.6-6.621.555-6.591C190.621,118.728,188.406,127.612,183.512,125.281Z" transform="translate(29.331 1.606)" fill="none" stroke="#1d3557" stroke-width="2" fill-rule="evenodd"/>
    <path id="Path_134" data-name="Path 134" d="M241.237,122.87c-10.045-3.008-8.879-8.046,1.072-8.01C254.969,114.906,250.688,125.7,241.237,122.87Z" transform="translate(34.411 1.248)" fill="none" stroke="#1d3557" stroke-width="2" fill-rule="evenodd"/>
    <path id="Path_135" data-name="Path 135" d="M-21.074,156.393s7.922,2.1,8.882,12.884,4.52,8.175,8.21,13.656,1.309,6.609,5.642,12.992,8.284,10.951,10.613,17.326,2.18,7.07,7.353,9.4S25.946,234.6,28.8,240.9s8.237,6.066,11.936,10.989,6.319,11.946,13.387,12.748,8.388,2.134,13.2,4.764,12.122.669,19.971.76,14.836-3.8,14.668-6.7-6.246-3.743-13.862-10.748-24.785-29.08-36.3-60.54c-2.974-8.123-5.18-14.516-7.42-19.408C29.607,140.485-13.875,140.821-21.074,156.393Z" transform="translate(10.55 4.169)" fill="none" stroke="#1d3557" stroke-width="2" fill-rule="evenodd"/>
    <path id="Path_136" data-name="Path 136" d="M-21.074,155.655s7.922,2.1,8.882,12.884,4.519,8.175,8.21,13.656,1.309,6.609,5.642,12.992,8.284,10.951,10.613,17.326,2.18,7.07,7.353,9.4,6.319,11.945,9.17,18.247,8.237,6.066,11.936,10.989S47.052,263.095,54.12,263.9s8.388,2.134,13.2,4.764,12.122.669,19.971.76,14.836-3.8,14.67-6.7a2.542,2.542,0,0,0-.95-1.728c.862,4.607-9.4,6.088-16.43,1.934-7.464-4.411-15.795,0-20.829-1.412S55.765,251.1,48.823,245.635s-11.63-4.586-13.887-15.348-3.124-9.173-8.68-14.995S16.19,207,12.717,198.533s.175-15.7-8.852-21.345-7.2-7.322-12.5-17.289S-21.074,155.655-21.074,155.655Z" transform="translate(10.55 4.908)" fill="none" stroke="#1d3557" stroke-width="2" fill-rule="evenodd"/>
    <path id="Path_137" data-name="Path 137" d="M13.978,198.186c-4.913-8.295-3.779-13.3,1.4-8.342C21.958,196.149,18.6,205.99,13.978,198.186Z" transform="translate(13.532 8.072)" fill="none" stroke="#1d3557" stroke-width="2" fill-rule="evenodd"/>
    <path id="Path_138" data-name="Path 138" d="M77.424,199.493C65.2,200.723,60.841,193.56,69.8,188.5,81.19,182.068,88.93,198.335,77.424,199.493Z" transform="translate(18.598 7.99)" fill="none" stroke="#1d3557" stroke-width="2" fill-rule="evenodd"/>
    <path id="Path_139" data-name="Path 139" d="M138.447,175.745c15.987-4.621,22.785-1.5,11.675,4.494C135.991,187.862,123.4,180.095,138.447,175.745Z" transform="translate(24.821 6.73)" fill="none" stroke="#1d3557" stroke-width="2" fill-rule="evenodd"/>
  </g>
</svg>
