<svg xmlns="http://www.w3.org/2000/svg" width="315.99" height="274.155" viewBox="0 0 315.99 274.155">
  <g id="Group_154" data-name="Group 154" transform="translate(-52.06 -222.31)">
    <path id="Path_405" data-name="Path 405" d="M166.485,314.14l.633-90.331h1.2l.465,90.331Z" transform="translate(75.329 0)" fill="none" stroke="#1d3557" stroke-miterlimit="10" stroke-width="3"/>
    <circle id="Ellipse_21" data-name="Ellipse 21" cx="39.491" cy="39.491" r="39.491" transform="matrix(0.221, -0.975, 0.975, 0.221, 122.193, 346.91)" fill="none" stroke="#1d3557" stroke-miterlimit="10" stroke-width="3"/>
    <circle id="Ellipse_22" data-name="Ellipse 22" cx="39.491" cy="39.491" r="39.491" transform="translate(226.034 291.321)" fill="none" stroke="#1d3557" stroke-miterlimit="10" stroke-width="3"/>
    <path id="Path_406" data-name="Path 406" d="M203.86,270.959c.215,3.682-7.493,7.127-17.217,7.7s-17.783-1.955-18-5.637,7.493-7.129,17.217-7.7S203.645,267.277,203.86,270.959Z" transform="translate(76.77 27.691)" fill="none" stroke="#1d3557" stroke-miterlimit="10" stroke-width="3" style="mix-blend-mode: soft-light;isolation: isolate"/>
    <path id="Path_407" data-name="Path 407" d="M74.451,297.612l8.1,32.237,86.9,28.046h49.942L307.57,329.85l10.384-32.237s-42.076-27.6-121.75-27.6S74.451,297.612,74.451,297.612Z" transform="translate(13.819 30.88)" fill="none" stroke="#1d3557" stroke-miterlimit="10" stroke-width="3"/>
    <path id="Path_408" data-name="Path 408" d="M366.273,316.531l-6.215,19.311c-5.936-3.58-58.267-33.315-151.5-33.315-93.734,0-145.379,26.954-150.795,29.922l-3.989-15.918s54-35.431,156.248-35.431S366.273,316.531,366.273,316.531Z" transform="translate(0 38.289)" fill="none" stroke="#1d3557" stroke-miterlimit="10" stroke-width="3"/>
    <path id="Path_409" data-name="Path 409" d="M358.46,327.258l-1.485,4.62-5.621,17.438L238.179,385.3H174.088L62.565,349.315l-5.751-22.91-.649-2.541c5.415-2.968,57.061-29.922,150.795-29.922C300.193,293.943,352.524,323.678,358.46,327.258Z" transform="translate(1.598 46.873)" fill="none" stroke="#1d3557" stroke-miterlimit="10" stroke-width="3"/>
    <path id="Path_410" data-name="Path 410" d="M71.545,390.841,90.091,375.23H302.97l18.84,15.611Z" transform="translate(11.877 101.201)" fill="none" stroke="#1d3557" stroke-miterlimit="10" stroke-width="3"/>
    <path id="Path_411" data-name="Path 411" d="M171.531,363.123v44.256H97.809l-31.766-67.44L60,327.131Z" transform="translate(4.163 69.054)" fill="none" stroke="#1d3557" stroke-miterlimit="10" stroke-width="3"/>
    <path id="Path_412" data-name="Path 412" d="M278.425,327.131l-38.1,80.248h-75.05V363.123Z" transform="translate(74.518 69.054)" fill="none" stroke="#1d3557" stroke-miterlimit="10" stroke-width="3"/>
    <path id="Path_413" data-name="Path 413" d="M142.114,401.089l-2.98-41.193h27.677l-3.477,41.193Z" transform="translate(57.049 90.952)" fill="none" stroke="#1d3557" stroke-miterlimit="10" stroke-width="3"/>
    <path id="Path_414" data-name="Path 414" d="M142.114,294.623l-2.98-41.193h27.677l-3.477,41.193Z" transform="translate(57.049 19.797)" fill="none" stroke="#1d3557" stroke-miterlimit="10" stroke-width="3"/>
    <path id="Path_415" data-name="Path 415" d="M147.429,284.318l.633-57.52h1.2l.465,57.52Z" transform="translate(62.593 1.997)" fill="none" stroke="#1d3557" stroke-miterlimit="10" stroke-width="3"/>
    <path id="Path_416" data-name="Path 416" d="M163.032,301.557l.633-57.52h1.2l.465,57.52Z" transform="translate(73.021 13.519)" fill="none" stroke="#1d3557" stroke-miterlimit="10" stroke-width="3"/>
    <path id="Path_417" data-name="Path 417" d="M359.225,326.307l-.576,1.81-1.493,4.623s-43.5-28.418-150.005-28.418S57,327.27,57,327.27l-.646-2.543-.474-1.88s52.069-30.2,151.268-30.2C306.335,292.647,359.225,326.307,359.225,326.307Z" transform="translate(1.409 46.007)" fill="none" stroke="#1d3557" stroke-miterlimit="10" stroke-width="3" opacity="0.35" style="mix-blend-mode: multiply;isolation: isolate"/>
    <path id="Path_418" data-name="Path 418" d="M358.46,327.258l-1.485,4.62s-43.5-28.419-150.016-28.419S56.814,326.406,56.814,326.406l-.649-2.541c5.415-2.968,57.061-29.922,150.795-29.922C300.193,293.943,352.524,323.678,358.46,327.258Z" transform="translate(1.598 46.873)" fill="none" stroke="#1d3557" stroke-miterlimit="10" stroke-width="3"/>
    <path id="Path_419" data-name="Path 419" d="M60,327.131l111.528,35.992v22.549L66.042,339.939Z" transform="translate(4.163 69.054)" fill="none" stroke="#1d3557" stroke-miterlimit="10" stroke-width="3" opacity="0.65" style="mix-blend-mode: multiply;isolation: isolate"/>
    <path id="Path_420" data-name="Path 420" d="M278.425,327.131l-38.1,80.248H228.878l8.189-34.16-71.8,6.581V363.123Z" transform="translate(74.518 69.054)" fill="none" stroke="#1d3557" stroke-miterlimit="10" stroke-width="3" opacity="0.65" style="mix-blend-mode: multiply;isolation: isolate"/>
    <path id="Path_421" data-name="Path 421" d="M221.565,293.938l-2.893,13.415s22.9,11.063,29.6,14.49l4.987-13.952S229.443,296.105,221.565,293.938Z" transform="translate(110.208 46.87)" fill="none" stroke="#1d3557" stroke-miterlimit="10" stroke-width="3" opacity="0.35" style="mix-blend-mode: multiply;isolation: isolate"/>
    <path id="Path_422" data-name="Path 422" d="M274.106,310.664l-89.4,56.744-56.714,4.022h62.2L300.08,335.244l5.687-13.517S285.324,310.664,274.106,310.664Z" transform="translate(49.601 58.048)" fill="none" stroke="#1d3557" stroke-miterlimit="10" stroke-width="3" opacity="0.35" style="mix-blend-mode: multiply;isolation: isolate"/>
    <path id="Path_423" data-name="Path 423" d="M58.552,317.83l24.306-7.305L174.4,367.5h-9.972l-101.9-32.748Z" transform="translate(3.193 57.955)" fill="none" stroke="#1d3557" stroke-miterlimit="10" stroke-width="3" style="mix-blend-mode: soft-light;isolation: isolate"/>
    <path id="Path_424" data-name="Path 424" d="M57.649,318.743l-1.767-10.984s17.424-9.465,30.979-13.322l.936,12.154S70.151,312.55,57.649,318.743Z" transform="translate(1.409 47.203)" fill="none" stroke="#1d3557" stroke-miterlimit="10" stroke-width="3" style="mix-blend-mode: soft-light;isolation: isolate"/>
    <path id="Path_425" data-name="Path 425" d="M76.53,388.129,88.839,376.6h37.394l-9.5,11.53Z" transform="translate(15.209 102.115)" fill="none" stroke="#1d3557" stroke-miterlimit="10" stroke-width="3" style="mix-blend-mode: soft-light;isolation: isolate"/>
    <path id="Path_426" data-name="Path 426" d="M102.493,388.129l8.725-11.53h11.53l-7.635,11.53Z" transform="translate(32.561 102.115)" fill="none" stroke="#1d3557" stroke-miterlimit="10" stroke-width="3" style="mix-blend-mode: soft-light;isolation: isolate"/>
    <path id="Path_427" data-name="Path 427" d="M216.864,376.6h27.578l14.49,11.53h-101.9l74.944-2.181Z" transform="translate(69.012 102.115)" fill="none" stroke="#1d3557" stroke-miterlimit="10" stroke-width="3" opacity="0.35" style="mix-blend-mode: multiply;isolation: isolate"/>
    <rect id="Rectangle_24" data-name="Rectangle 24" width="250.265" height="2.922" transform="translate(83.422 492.042)" fill="none" stroke="#1d3557" stroke-miterlimit="10" stroke-width="3"/>
    <g id="Group_152" data-name="Group 152" transform="translate(145.391 358.701)">
      <g id="Group_151" data-name="Group 151">
        <path id="Path_428" data-name="Path 428" d="M172.259,305.17c-35.109,0-63.57,13.989-63.57,31.245s28.462,31.246,63.57,31.246,63.57-13.989,63.57-31.246S207.368,305.17,172.259,305.17Zm0,61.668c-34.184,0-61.9-13.62-61.9-30.424s27.713-30.422,61.9-30.422,61.9,13.62,61.9,30.422S206.445,366.839,172.259,366.839Z" transform="translate(-108.689 -304.324)" fill="none" stroke="#1d3557" stroke-miterlimit="10" stroke-width="3" opacity="0.35" style="mix-blend-mode: multiply;isolation: isolate"/>
        <path id="Path_429" data-name="Path 429" d="M172.259,304.663c-35.109,0-63.57,13.989-63.57,31.246s28.462,31.245,63.57,31.245,63.57-13.989,63.57-31.245S207.368,304.663,172.259,304.663Zm0,61.669c-34.184,0-61.9-13.62-61.9-30.422s27.713-30.424,61.9-30.424,61.9,13.62,61.9,30.424S206.445,366.332,172.259,366.332Z" transform="translate(-108.689 -304.663)" fill="none" stroke="#1d3557" stroke-miterlimit="10" stroke-width="3"/>
      </g>
    </g>
    <path id="Path_430" data-name="Path 430" d="M166.907,229.015l-.2,28.164h1.651l-.145-28.164Z" transform="translate(75.48 3.479)" fill="none" stroke="#1d3557" stroke-miterlimit="10" stroke-width="3"/>
    <path id="Path_431" data-name="Path 431" d="M166.736,248.558h1.651l.047,4.674h-1.762Z" transform="translate(75.454 16.541)" fill="none" stroke="#1d3557" stroke-miterlimit="10" stroke-width="3"/>
    <rect id="Rectangle_25" data-name="Rectangle 25" width="1.497" height="13.385" transform="translate(236.517 260.778)" fill="none" stroke="#1d3557" stroke-miterlimit="10" stroke-width="3"/>
    <path id="Path_432" data-name="Path 432" d="M140.274,259.925c1.134,3.508-5.457,8.785-14.726,11.783s-17.7,2.588-18.837-.923S112.167,262,121.435,259,139.138,256.415,140.274,259.925Z" transform="translate(35.294 22.18)" fill="none" stroke="#1d3557" stroke-miterlimit="10" stroke-width="3" style="mix-blend-mode: soft-light;isolation: isolate"/>
    <path id="Path_433" data-name="Path 433" d="M68.218,338.768,97.2,396.9h14.958l-18.074-44.25Z" transform="translate(9.653 76.832)" fill="none" stroke="#1d3557" stroke-miterlimit="10" stroke-width="3" style="mix-blend-mode: soft-light;isolation: isolate"/>
    <path id="Path_434" data-name="Path 434" d="M78.618,300.914,75.969,293.9a247.453,247.453,0,0,1,49.236-18.073l2.337,12.543S106.663,290.787,78.618,300.914Z" transform="translate(14.834 34.767)" fill="none" stroke="#1d3557" stroke-miterlimit="10" stroke-width="3" style="mix-blend-mode: soft-light;isolation: isolate"/>
    <path id="Path_435" data-name="Path 435" d="M109.377,289.113l-1.935-11.662a128.989,128.989,0,0,1,20.412-4.051l.934,12.846S118.9,287.19,109.377,289.113Z" transform="translate(35.868 33.144)" fill="none" stroke="#1d3557" stroke-miterlimit="10" stroke-width="3" style="mix-blend-mode: soft-light;isolation: isolate"/>
    <path id="Path_437" data-name="Path 437" d="M140.6,253.991h7.79v25.517h-5.765Z" transform="translate(58.027 20.171)" fill="none" stroke="#1d3557" stroke-miterlimit="10" stroke-width="3" style="mix-blend-mode: soft-light;isolation: isolate"/>
    <path id="Path_438" data-name="Path 438" d="M139.943,360.722l3.739,39.816h3.739V360.722Z" transform="translate(57.59 91.504)" fill="none" stroke="#1d3557" stroke-miterlimit="10" stroke-width="3" style="mix-blend-mode: soft-light;isolation: isolate"/>
    <path id="Path_439" data-name="Path 439" d="M158.473,355.86l2.007,6.735H141.843l2.342-6.735Z" transform="translate(58.86 88.255)" fill="none" stroke="#1d3557" stroke-miterlimit="10" stroke-width="3"/>
    <path id="Path_440" data-name="Path 440" d="M142.558,362.388l1.753-6.219h4.635l-1.169,6.219Z" transform="translate(59.338 88.461)" fill="none" stroke="#1d3557" stroke-miterlimit="10" stroke-width="3" style="mix-blend-mode: soft-light;isolation: isolate"/>
    <rect id="Rectangle_26" data-name="Rectangle 26" width="0.826" height="60.371" transform="translate(208.899 384.293)" fill="none" stroke="#1d3557" stroke-miterlimit="10" stroke-width="3"/>
  </g>
</svg>
