<svg xmlns="http://www.w3.org/2000/svg" width="133.821" height="133.821" viewBox="0 0 133.821 133.821">
  <g id="graphic-tablet" transform="translate(-26 -26)">
    <path id="Path_387" data-name="Path 387" d="M140.069,133.953a2.159,2.159,0,0,0-1.98-1.3H85.421a2.158,2.158,0,0,0-1.98,1.3l-4.157,9.6a2.139,2.139,0,0,0-.63-.1h-12.3a5.4,5.4,0,0,1,0-10.792h3.382a12.206,12.206,0,0,0,11.468-8.078,7.363,7.363,0,0,1,6.917-4.873H95.38l-.891,3.827a2.158,2.158,0,0,0,2.1,2.648h30.327a2.158,2.158,0,0,0,2.1-2.648l-2.442-10.494h32.183a2.158,2.158,0,0,0,2.158-2.158V44.158A2.158,2.158,0,0,0,158.761,42H63.847a2.158,2.158,0,0,0-2.158,2.158v66.719a2.158,2.158,0,0,0,2.158,2.158H96.931l-.547,2.349H88.123a11.689,11.689,0,0,0-10.982,7.736,7.879,7.879,0,0,1-7.4,5.215H66.357a9.713,9.713,0,1,0,0,19.426h11.1l-7.109,16.409a2.159,2.159,0,0,0,1.981,3.016h78.85a2.159,2.159,0,0,0,1.981-3.016ZM66.005,93.8h90.6v4.317h-90.6Zm32.376-4.768V77.4l10.206-10.758L119.965,77.46V89.485h-8.634V85.168a2.158,2.158,0,0,0-4.317,0v4.317H98.381Zm-4.317.452H74.639v-.452a6.03,6.03,0,0,1,6.024-6.024h7.378a6.031,6.031,0,0,1,6.024,6.024Zm36.693-23.742A2.158,2.158,0,0,0,128.6,67.9v1.781a6.475,6.475,0,1,1,4.317,0V67.9A2.158,2.158,0,0,0,130.757,65.742ZM156.6,46.317V89.485H132.915V74.159a10.792,10.792,0,1,0-4.317,0V89.485h-4.317V76.534a2.157,2.157,0,0,0-.671-1.564L110,62.02a2.158,2.158,0,0,0-3.053.079L94.657,75.049a2.155,2.155,0,0,0-.593,1.485v4.111a10.272,10.272,0,0,0-6.024-1.953H80.662a10.352,10.352,0,0,0-10.34,10.34v.452H66.005V46.317Zm-90.6,56.118h90.6v6.284h-90.6Zm56.142,10.6,2.053,8.825H99.31l2.054-8.825ZM97.606,136.97l-.673,2.158H85.9l.935-2.158Zm-13.573,6.475H95.588l-5.863,18.813a2.128,2.128,0,0,0-.088.612H75.618ZM94.055,162.87l8.072-25.9h34.544l11.22,25.9Z" transform="translate(-14.104 -7.366)" fill="#1a2f4d"/>
    <path id="Path_388" data-name="Path 388" d="M178.059,246h-25.9a2.158,2.158,0,1,0,0,4.317h25.9a2.158,2.158,0,1,0,0-4.317Z" transform="translate(-57.09 -101.288)" fill="#1a2f4d"/>
    <path id="Path_389" data-name="Path 389" d="M244.158,186A2.158,2.158,0,0,0,242,188.158v6.475a2.158,2.158,0,1,0,4.317,0v-6.475A2.158,2.158,0,0,0,244.158,186Z" transform="translate(-99.447 -73.664)" fill="#1a2f4d"/>
    <path id="Path_390" data-name="Path 390" d="M244.158,214A2.158,2.158,0,0,0,242,216.158v6.475a2.158,2.158,0,0,0,4.317,0v-6.475A2.158,2.158,0,0,0,244.158,214Z" transform="translate(-99.447 -86.555)" fill="#1a2f4d"/>
    <path id="Path_391" data-name="Path 391" d="M230.634,206h-6.475a2.158,2.158,0,0,0,0,4.317h6.475a2.158,2.158,0,1,0,0-4.317Z" transform="translate(-90.238 -82.872)" fill="#1a2f4d"/>
    <path id="Path_392" data-name="Path 392" d="M258.634,206h-6.475a2.158,2.158,0,0,0,0,4.317h6.475a2.158,2.158,0,1,0,0-4.317Z" transform="translate(-103.13 -82.872)" fill="#1a2f4d"/>
    <path id="Path_393" data-name="Path 393" d="M33.554,26a7.554,7.554,0,1,0,7.554,7.554A7.563,7.563,0,0,0,33.554,26Zm0,10.792a3.238,3.238,0,1,1,3.238-3.238A3.241,3.241,0,0,1,33.554,36.792Z" fill="#1a2f4d"/>
    <ellipse id="Ellipse_16" data-name="Ellipse 16" cx="2" cy="1.5" rx="2" ry="1.5" transform="translate(34.821 58.821)" fill="#1a2f4d"/>
    <circle id="Ellipse_17" data-name="Ellipse 17" cx="2" cy="2" r="2" transform="translate(155.821 95.821)" fill="#1a2f4d"/>
    <path id="Path_394" data-name="Path 394" d="M96.475,78.95A6.475,6.475,0,1,0,90,72.475,6.482,6.482,0,0,0,96.475,78.95Zm0-8.634a2.158,2.158,0,1,1-2.158,2.158A2.161,2.161,0,0,1,96.475,70.317Z" transform="translate(-29.466 -18.416)" fill="#1a2f4d"/>
  </g>
</svg>
