<svg xmlns="http://www.w3.org/2000/svg" width="136.138" height="141" viewBox="0 0 136.138 141">
  <g id="modify" transform="translate(-38 -34)">
    <path id="Path_395" data-name="Path 395" d="M201.293,48.586A7.293,7.293,0,1,0,194,41.293,7.3,7.3,0,0,0,201.293,48.586Zm0-9.724a2.431,2.431,0,1,1-2.431,2.431A2.433,2.433,0,0,1,201.293,38.862Z" transform="translate(-61.19)" fill="#1a2f4d"/>
    <circle id="Ellipse_18" data-name="Ellipse 18" cx="2.5" cy="2.5" r="2.5" transform="translate(147.138 163)" fill="#1a2f4d"/>
    <path id="Path_396" data-name="Path 396" d="M49.056,111.369a2.43,2.43,0,0,0,3.437,0l1.719-1.719,1.719,1.719a2.431,2.431,0,0,0,3.437-3.437l-1.719-1.719,1.719-1.719a2.431,2.431,0,1,0-3.437-3.437l-1.719,1.719-1.719-1.719a2.431,2.431,0,1,0-3.437,3.437l1.719,1.719-1.719,1.719A2.429,2.429,0,0,0,49.056,111.369Z" transform="translate(-4.057 -26.023)" fill="#1a2f4d"/>
    <path id="Path_397" data-name="Path 397" d="M171.707,82H74.466a2.43,2.43,0,0,0-2.431,2.431v53.483h-31.6A2.43,2.43,0,0,0,38,140.345V191.4a2.43,2.43,0,0,0,2.431,2.431h72.931a2.43,2.43,0,0,0,2.431-2.431v-24.31h55.914a2.43,2.43,0,0,0,2.431-2.431V84.431A2.43,2.43,0,0,0,171.707,82ZM110.931,188.966H42.862v-46.19H72.034v21.879a2.43,2.43,0,0,0,2.431,2.431h36.466Zm0-26.741H76.9V142.776h34.034Zm58.345,0H115.793V140.345a2.43,2.43,0,0,0-2.431-2.431H76.9V86.862h92.379Z" transform="translate(0 -18.828)" fill="#1a2f4d"/>
    <path id="Path_398" data-name="Path 398" d="M176.872,144a2.43,2.43,0,0,0,3.437,0l20.836-20.837,5.157,5.156a2.432,2.432,0,0,0,4.106-1.256l4.466-23.038a2.432,2.432,0,0,0-2.85-2.849l-23.038,4.466a2.43,2.43,0,0,0-1.256,4.1l4.821,4.822L171.714,135.4a2.43,2.43,0,0,0,0,3.437Zm20.836-27.713a2.431,2.431,0,0,0,0-3.437l-3.3-3.3,15.012-2.911-2.909,15.011L202.864,118a2.431,2.431,0,0,0-3.437,0L178.59,138.839l-1.72-1.719Z" transform="translate(-52.169 -26.329)" fill="#1a2f4d"/>
  </g>
</svg>
