<svg xmlns="http://www.w3.org/2000/svg" width="131.467" height="136" viewBox="0 0 131.467 136">
  <g id="shapes" transform="translate(-34 -30)">
    <path id="Path_399" data-name="Path 399" d="M163.2,86H36.267A2.267,2.267,0,0,0,34,88.267V188a2.267,2.267,0,0,0,2.267,2.267H163.2A2.267,2.267,0,0,0,165.467,188V88.267A2.267,2.267,0,0,0,163.2,86Zm-2.267,30.283A46.313,46.313,0,0,0,136.1,90.533h24.835Zm-74.8,66.092V156.267h45.333v23.746a52.255,52.255,0,0,1-23.852,5.721A70.023,70.023,0,0,1,86.133,182.375ZM81.6,180.74a69.239,69.239,0,0,1-30.941-24.473H81.6Zm49.867-29.007h-6.879a20.492,20.492,0,0,0,6.879-6.577Zm0-33.091a18.5,18.5,0,0,0-15.248-7.962h-1.211A16.673,16.673,0,0,0,98.222,127.2a12.135,12.135,0,0,0,12.06,12.03,13.775,13.775,0,0,0,13.59-7.16,2.267,2.267,0,1,0-3.953-2.22,9.3,9.3,0,0,1-9.132,4.876,2.227,2.227,0,0,0-.352-.028,7.6,7.6,0,0,1-7.679-7.5,12.135,12.135,0,0,1,12.252-11.986h1.211a13.763,13.763,0,0,1,13.894,13.6v5.581a15.816,15.816,0,0,1-15.962,15.629,27.351,27.351,0,0,1-19.681-8.209,26.309,26.309,0,0,1-7.626-19.042l.04-2.195A29.466,29.466,0,0,1,96,99.785a30.658,30.658,0,0,1,21.4-8.587,42.534,42.534,0,0,1,14.072,2.386ZM92.85,96.52a34.516,34.516,0,0,0-6.717,9V90.533h15.1A35.121,35.121,0,0,0,92.85,96.52Zm-6.717,41.622a31.48,31.48,0,0,0,5.1,6.845,31.832,31.832,0,0,0,9.676,6.747H86.133ZM136,156.267h18.6A51.414,51.414,0,0,1,136,177.4Zm20.474-4.526c-.026,0-.049-.007-.074-.007H136V95.474a41.154,41.154,0,0,1,23.385,36.9v2.577A49.683,49.683,0,0,1,156.474,151.741ZM38.533,90.533H81.6v61.2H47.738a66.382,66.382,0,0,1-9.2-33.773V90.533Zm0,52.416A73.341,73.341,0,0,0,81.6,185.6v.134H38.533Zm92.933,42.1v.683h-1.54Q130.7,185.4,131.467,185.05Zm4.533.683v-3.028a55.827,55.827,0,0,0,24.933-29.969v33Z" transform="translate(0 -24.267)" fill="#1d3557"/>
    <path id="Path_400" data-name="Path 400" d="M236.267,41.333a2.267,2.267,0,0,0,2.267-2.267v-6.8a2.267,2.267,0,1,0-4.533,0v6.8A2.267,2.267,0,0,0,236.267,41.333Z" transform="translate(-86.667)" fill="#1d3557"/>
    <path id="Path_401" data-name="Path 401" d="M236.267,58A2.267,2.267,0,0,0,234,60.267v6.8a2.267,2.267,0,1,0,4.533,0v-6.8A2.267,2.267,0,0,0,236.267,58Z" transform="translate(-86.667 -12.133)" fill="#1d3557"/>
    <path id="Path_402" data-name="Path 402" d="M216.267,54.533h6.8a2.267,2.267,0,0,0,0-4.533h-6.8a2.267,2.267,0,0,0,0,4.533Z" transform="translate(-78 -8.667)" fill="#1d3557"/>
    <path id="Path_403" data-name="Path 403" d="M244.267,54.533h6.8a2.267,2.267,0,0,0,0-4.533h-6.8a2.267,2.267,0,1,0,0,4.533Z" transform="translate(-90.133 -8.667)" fill="#1d3557"/>
    <path id="Path_404" data-name="Path 404" d="M45.933,53.867A7.933,7.933,0,1,0,38,45.933,7.942,7.942,0,0,0,45.933,53.867Zm0-11.333a3.4,3.4,0,1,1-3.4,3.4A3.4,3.4,0,0,1,45.933,42.533Z" transform="translate(-1.733 -3.467)" fill="#1d3557"/>
    <circle id="Ellipse_19" data-name="Ellipse 19" cx="2" cy="2" r="2" transform="translate(113.467 32)" fill="#1d3557"/>
    <ellipse id="Ellipse_20" data-name="Ellipse 20" cx="2.5" cy="2" rx="2.5" ry="2" transform="translate(67.467 48)" fill="#1d3557"/>
  </g>
</svg>
