<svg xmlns="http://www.w3.org/2000/svg" width="113.389" height="127.819" viewBox="0 0 113.389 127.819">
  <g id="student" transform="translate(-40 -26.002)">
    <circle id="Ellipse_6" data-name="Ellipse 6" cx="2.335" cy="2.335" r="2.335" transform="translate(141.777 39.127)" fill="#1d3557"/>
    <circle id="Ellipse_7" data-name="Ellipse 7" cx="2.335" cy="2.335" r="2.335" transform="translate(42.819 63.866)" fill="#1d3557"/>
    <path id="Path_353" data-name="Path 353" d="M237.256,107.744a2.061,2.061,0,0,0,2.915,0l2.33-2.33,2.33,2.33a2.061,2.061,0,1,0,2.915-2.915l-2.33-2.33,2.33-2.33a2.061,2.061,0,1,0-2.915-2.915l-2.33,2.33-2.33-2.33a2.061,2.061,0,1,0-2.915,2.915l2.33,2.33-2.33,2.33A2.061,2.061,0,0,0,237.256,107.744Z" transform="translate(-95.297 -34.236)" fill="#1d3557"/>
    <path id="Path_354" data-name="Path 354" d="M147.5,128.845a6.2,6.2,0,0,0,4.588-2.037,2.062,2.062,0,1,0-3.06-2.764,2.109,2.109,0,0,1-2.89.165,2.062,2.062,0,1,0-2.72,3.1,6.184,6.184,0,0,0,4.082,1.538Z" transform="translate(-49.777 -47.181)" fill="#1d3557"/>
    <ellipse id="Ellipse_8" data-name="Ellipse 8" cx="2" cy="2.5" rx="2" ry="2.5" transform="translate(107.389 65.822)" fill="#1d3557"/>
    <ellipse id="Ellipse_9" data-name="Ellipse 9" cx="2" cy="2.5" rx="2" ry="2.5" transform="translate(86.389 65.822)" fill="#1d3557"/>
    <path id="Path_355" data-name="Path 355" d="M144.246,206a8.246,8.246,0,1,0,8.246,8.246A8.256,8.256,0,0,0,144.246,206Zm0,12.37a4.123,4.123,0,1,1,4.123-4.123A4.127,4.127,0,0,1,144.246,218.368Z" transform="translate(-46.521 -87.226)" fill="#1d3557"/>
    <path id="Path_356" data-name="Path 356" d="M55.216,56.429A7.216,7.216,0,1,0,48,49.214,7.224,7.224,0,0,0,55.216,56.429Zm0-10.308a3.092,3.092,0,1,1-3.092,3.092A3.1,3.1,0,0,1,55.216,46.121Z" transform="translate(-3.877 -7.752)" fill="#1d3557"/>
    <path id="Path_357" data-name="Path 357" d="M151.327,149.7H137.075l3.937-47.246a2.061,2.061,0,0,0-2.054-2.233h-8.246V66.706c0-.006,0-.011,0-.018a6.737,6.737,0,0,0,.979-2.673,7.225,7.225,0,0,0-.976-4.6v-.664c0-17.586-13.4-31.956-30.5-32.715A32.037,32.037,0,0,0,73.432,38.464,30.607,30.607,0,0,0,68.085,50,36.932,36.932,0,0,0,66.8,57.955v1.3c0,.038.019.069.021.106a7.216,7.216,0,0,0-1.048,4.014,6.753,6.753,0,0,0,1.027,3.27v33.576H56.493a2.061,2.061,0,0,0-2.054,2.233L58.376,149.7H42.062a2.062,2.062,0,1,0,0,4.123H151.327a2.062,2.062,0,0,0,0-4.124Zm-45.408-49.479a10.208,10.208,0,0,0,2.114-6.185V89.578A30.872,30.872,0,0,0,124.347,70.32a6.341,6.341,0,0,0,2.241-.344v30.242ZM91.54,94.033v-3.24c.58.227,1.142.492,1.739.684a15.779,15.779,0,0,0,4.834.753,17.1,17.1,0,0,0,5.266-.848l.53-.172v2.823a6.185,6.185,0,1,1-12.37,0ZM69.9,63.225a3.08,3.08,0,0,1,1.663-2.859A15.44,15.44,0,0,0,83.591,48.513a36.557,36.557,0,0,0,10.014,7.259c9.935,5.2,24.195,8.816,32.933,4.99a3.107,3.107,0,0,1,1.055,2.75,3.173,3.173,0,0,1-1.55,2.2,2.661,2.661,0,0,1-2.538.295,2.06,2.06,0,0,0-2.7,1.5,26.7,26.7,0,0,1-17.779,19.65l-.917.3a12.283,12.283,0,0,1-7.566.094,26.649,26.649,0,0,1-17.9-19.993,2.061,2.061,0,0,0-2.676-1.54,2.562,2.562,0,0,1-2.535-.369A3.255,3.255,0,0,1,69.9,63.225Zm6.8-22.244a27.955,27.955,0,0,1,23.327-10.83c14.122.627,25.323,11.955,26.45,26.23a2.028,2.028,0,0,0-.809.222c-6.872,3.735-20.665.475-30.152-4.486-6.567-3.434-10.855-7.449-11.187-10.479a2.235,2.235,0,0,0-2.435-1.809,2.062,2.062,0,0,0-1.871,2.151c.559,11.643-7.162,13.917-8.963,14.289a47.791,47.791,0,0,1,1.032-5.295A26.572,26.572,0,0,1,76.7,40.981Zm-5.774,29a5.925,5.925,0,0,0,2.14.347,30.764,30.764,0,0,0,14.353,18.5v5.21a10.208,10.208,0,0,0,2.114,6.185H70.924Zm-12.19,34.363h77.983L132.938,149.7H62.514Z" fill="#1d3557"/>
  </g>
</svg>
