<svg xmlns="http://www.w3.org/2000/svg" width="128.775" height="127.998" viewBox="0 0 128.775 127.998">
  <g id="writer" transform="translate(-28 -28.735)">
    <path id="Path_358" data-name="Path 358" d="M116,257.82V247.265" transform="translate(-41.557 -103.197)" fill="none"/>
    <path id="Path_359" data-name="Path 359" d="M208,254.042V239.265" transform="translate(-85.002 -99.42)" fill="none"/>
    <path id="Path_360" data-name="Path 360" d="M154.986,100.186H124.119a31.223,31.223,0,0,0,1.128-3.171,6.964,6.964,0,0,0,3.969-1.135,7.492,7.492,0,0,0,3.546-5.322,7.288,7.288,0,0,0-5.22-7.968V74.585c0-9.98-4.517-18.076-12.718-22.795-9.807-5.647-23.483-5.623-33.253.056C74.427,56,70.51,62.548,70.543,70.291l0,.327s0,.008,0,.013V82.583A7.293,7.293,0,0,0,65.272,89.9,7.492,7.492,0,0,0,68.7,95.732a7.032,7.032,0,0,0,4.036,1.289,31.5,31.5,0,0,0,14.707,18.947c0,.018-.011.033-.011.051V118.5l-16.825,7.648A21.618,21.618,0,0,0,60.3,136.159a2,2,0,0,0-.308-.062h-6.9a79.059,79.059,0,0,0-2.632-10.6c1.264-5.481,4.988-28.3-17.683-37.743a2.108,2.108,0,0,0-2.84,1.366c-.084.29-7.944,28.84,16.81,38.672A74.186,74.186,0,0,1,48.8,136.1h-7.81a2.11,2.11,0,0,0-2.111,2.111V144.6a7.429,7.429,0,0,0-6.333,7.337v11.584a2.11,2.11,0,0,0,2.111,2.111H135.986a2.11,2.11,0,0,0,2.111-2.111V146.153a22.231,22.231,0,0,0-.81-5.857h17.7a2.11,2.11,0,0,0,2.111-2.111V102.3A2.11,2.11,0,0,0,154.986,100.186ZM33.445,92.708c12.139,6.174,14.147,17.085,13.887,24.616a67.353,67.353,0,0,0-6.768-12.073,2.111,2.111,0,0,0-3.375,2.537,69.182,69.182,0,0,1,7.566,14.363c-13.716-7.8-12.422-23.4-11.309-29.442Zm119.43,34.922H128.6a2.008,2.008,0,0,0-.4.08c-.21-.137-.442-.243-.658-.374V104.408h25.333ZM108.48,116.769a31.6,31.6,0,0,0,13.541-12.361h1.3v20.808L108.542,118.5v-1.423a1.971,1.971,0,0,0-.062-.306ZM83.692,55.5c8.4-4.878,20.6-4.9,29.027-.049,4.836,2.783,10.6,8.362,10.6,19.136v3.377c-6.364,4.654-13.555,6.394-20.362,4.9a19.981,19.981,0,0,1-13.629-10.21,2.115,2.115,0,0,0-1.552-1.118,2.154,2.154,0,0,0-.324-.025,2.112,2.112,0,0,0-1.495.62,17.1,17.1,0,0,1-11.141,4.645c0-.978-.014-2.039-.025-3.126l-.027-3.373c-.033-7.9,4.836-12.4,8.927-14.776ZM76.4,94.188a2.11,2.11,0,0,0-2.742-1.577,2.623,2.623,0,0,1-2.593-.377,3.338,3.338,0,0,1-1.571-2.485,3.168,3.168,0,0,1,3.164-3.284,2.11,2.11,0,0,0,2.111-2.111,2.025,2.025,0,0,0-.107-.528,2.025,2.025,0,0,0,.107-.528V81a22.193,22.193,0,0,0,12.153-4.138,24.4,24.4,0,0,0,15.134,10.126,26.7,26.7,0,0,0,5.742.624,29.77,29.77,0,0,0,15.526-4.6V83.3a2.026,2.026,0,0,0,.107.528,2.025,2.025,0,0,0-.107.528,2.11,2.11,0,0,0,2.111,2.111,3.17,3.17,0,0,1,3.142,3.579,3.256,3.256,0,0,1-1.588,2.254,2.715,2.715,0,0,1-2.6.3,2.111,2.111,0,0,0-2.767,1.541,27.331,27.331,0,0,1-18.2,20.122l-.938.3a12.569,12.569,0,0,1-7.75.1A27.289,27.289,0,0,1,76.4,94.188Zm17.039,24.491a16.152,16.152,0,0,0,4.95.77,17.477,17.477,0,0,0,5.393-.869l.542-.175v.781a6.333,6.333,0,1,1-12.666,0V117.98c.595.232,1.169.5,1.781.7ZM36.766,151.934a3.2,3.2,0,0,1,3.194-3.194H51.544a2.111,2.111,0,1,0,0-4.222H43.1v-4.2H57.877v21.088H36.766ZM62.1,161.407V148.942a3.19,3.19,0,0,1,2.111,2.991v9.473H62.1Zm71.776,0H68.432v-9.473a7.422,7.422,0,0,0-6.223-7.311,17.645,17.645,0,0,1,10.147-14.634l15.762-7.165a10.5,10.5,0,0,0,19.739,0l15.762,7.167a17.714,17.714,0,0,1,10.256,16.162Zm19-25.333H135.986a2.024,2.024,0,0,0-.319.064,22,22,0,0,0-2.793-4.286h20Z" transform="translate(-0.322 -8.895)" fill="#1a2f4d"/>
    <path id="Path_361" data-name="Path 361" d="M226.111,167.487h8.444a2.111,2.111,0,0,0,0-4.222h-8.444a2.111,2.111,0,1,0,0,4.222Z" transform="translate(-92.558 -63.53)" fill="#1a2f4d"/>
    <path id="Path_362" data-name="Path 362" d="M226.111,179.487h12.666a2.111,2.111,0,0,0,0-4.222H226.111a2.111,2.111,0,1,0,0,4.222Z" transform="translate(-92.558 -69.197)" fill="#1a2f4d"/>
    <path id="Path_363" data-name="Path 363" d="M226.111,191.487h12.666a2.111,2.111,0,1,0,0-4.222H226.111a2.111,2.111,0,1,0,0,4.222Z" transform="translate(-92.558 -74.863)" fill="#1a2f4d"/>
    <path id="Path_364" data-name="Path 364" d="M35.389,58.042A7.389,7.389,0,1,0,28,50.654,7.4,7.4,0,0,0,35.389,58.042Zm0-10.555a3.167,3.167,0,1,1-3.167,3.167A3.17,3.17,0,0,1,35.389,47.487Z" transform="translate(0 -6.862)" fill="#1a2f4d"/>
    <path id="Path_365" data-name="Path 365" d="M255.861,89.516a2.391,2.391,0,1,0-2.391-2.39A2.391,2.391,0,0,0,255.861,89.516Z" transform="translate(-106.475 -26.445)" fill="#1a2f4d"/>
    <path id="Path_366" data-name="Path 366" d="M49.47,95.126a2.391,2.391,0,1,0,2.391-2.391A2.391,2.391,0,0,0,49.47,95.126Z" transform="translate(-10.139 -30.223)" fill="#1a2f4d"/>
    <path id="Path_367" data-name="Path 367" d="M71.861,33.516a2.391,2.391,0,1,0-2.391-2.39A2.391,2.391,0,0,0,71.861,33.516Z" transform="translate(-19.584 0)" fill="#1a2f4d"/>
    <path id="Path_368" data-name="Path 368" d="M229.271,57.277a2.11,2.11,0,0,0,2.985,0l2.386-2.386,2.385,2.386a2.111,2.111,0,1,0,2.985-2.985l-2.386-2.385,2.386-2.386a2.111,2.111,0,1,0-2.985-2.985l-2.385,2.385-2.386-2.385a2.111,2.111,0,1,0-2.985,2.985l2.385,2.386-2.385,2.385A2.111,2.111,0,0,0,229.271,57.277Z" transform="translate(-94.755 -8.114)" fill="#1a2f4d"/>
    <path id="Path_369" data-name="Path 369" d="M89.271,173.277a2.11,2.11,0,0,0,2.985,0l2.386-2.385,2.385,2.385a2.111,2.111,0,0,0,2.985-2.985l-2.385-2.386,2.385-2.385a2.111,2.111,0,0,0-2.985-2.985l-2.386,2.386-2.385-2.386a2.111,2.111,0,0,0-2.985,2.985l2.386,2.385-2.386,2.386a2.111,2.111,0,0,0,0,2.985Z" transform="translate(-28.642 -62.893)" fill="#1a2f4d"/>
    <circle id="Ellipse_10" data-name="Ellipse 10" cx="2.111" cy="2.111" r="2.111" transform="translate(107.165 81.791)" fill="#1a2f4d"/>
    <circle id="Ellipse_11" data-name="Ellipse 11" cx="2.111" cy="2.111" r="2.111" transform="translate(86.054 81.791)" fill="#1a2f4d"/>
    <path id="Path_370" data-name="Path 370" d="M192.888,223.265H178.111A2.11,2.11,0,0,0,176,225.376v7.389a9.5,9.5,0,0,0,19,0v-7.389a2.11,2.11,0,0,0-2.111-2.111Zm-2.111,9.5a5.278,5.278,0,0,1-10.555,0v-5.278h10.555Z" transform="translate(-69.891 -91.864)" fill="#1a2f4d"/>
  </g>
</svg>
