<svg xmlns="http://www.w3.org/2000/svg" width="104.41" height="64.955" viewBox="0 0 104.41 64.955"><defs><style>.a{fill:#f1faee;}</style></defs><path class="a" d="M608.312-35.4h11.62a.8.8,0,0,0,.312.027q2.63,0,5.257.008l33.354.025c2.594,0,5.186,0,7.78.016q5.453.033,10.908.022c1.263,0,2.523-.027,3.783-.052.088,0,.175-.005.263-.014a.206.206,0,0,0,.068-.036c.016.011.052-.027.052.027v14.006a.742.742,0,0,0-.238.159,3.788,3.788,0,0,0-.288.268c-.23.241-.46.482-.682.729s-.477.515-.723.762q-6.665,6.661-13.327,13.321c-.236.236-.463.479-.693.718-.266.277-.529.562-.8.833Q660.34.036,655.721,4.652c-.441.441-.885.877-1.323,1.315-.77.767-1.542,1.531-2.306,2.3-.3.3-.578.611-.866.918-.115.121-.225.244-.342.362q-1.475,1.479-2.953,2.956c-.274.271-.551.54-.825.811-.132.129-.263.257-.392.389-.066.068-.126.145-.186.219a.055.055,0,0,0-.005.047.045.045,0,0,0,.036.027c.1.005.211.008.315.008h28.18c.1,0,.211,0,.315,0,.342-.008.685-.005,1.025-.027.4-.025.805-.03,1.208-.033l2.734-.011c.192,0,.386.005.578.008A1.88,1.88,0,0,1,681.3,14a.6.6,0,0,1,.145.058.18.18,0,0,1,.11.167c0,.1,0,.192,0,.29V28.544c0,.071,0,.14,0,.211a1.439,1.439,0,0,1-.047.389c-.019.079-.044.107-.12.11-.115,0-.227,0-.342,0H626.9c-.649,0-1.3.011-1.945.016-.518.005-1.033.011-1.551-.03a5.86,5.86,0,0,1-1.214-.208c-.63-.184-1.257-.373-1.887-.562-.244-.071-.485-.148-.734-.2a1.787,1.787,0,0,0-.781,0c-.137.033-.274.063-.408.1-.5.129-1,.266-1.5.384-.57.134-1.148.241-1.729.331-.485.077-.97.153-1.455.208-.175.019-.348.044-.523.06-.348.033-.7.066-1.046.088-.419.027-.841.047-1.26.068a.4.4,0,0,0-.178.036h-2.312a.294.294,0,0,0-.151-.038c-.271-.019-.542-.044-.814-.058-.482-.022-.961-.071-1.438-.129-.54-.063-1.074-.145-1.611-.238q-1.179-.205-2.334-.5a34.111,34.111,0,0,1-6.542-2.4,30.4,30.4,0,0,1-4.72-2.835c-.627-.463-1.23-.956-1.83-1.452a25.14,25.14,0,0,1-2.791-2.663c-.512-.575-1.022-1.153-1.534-1.729-.249-.282-.485-.575-.709-.879-.551-.748-1.066-1.52-1.575-2.293-.03-.044-.055-.09-.082-.134-.468-.762-.9-1.542-1.326-2.326a13.461,13.461,0,0,1-.6-1.255c-.134-.323-.274-.644-.414-.964-.227-.52-.452-1.044-.635-1.583-.293-.863-.564-1.729-.808-2.608-.211-.759-.4-1.523-.548-2.3-.088-.455-.164-.912-.233-1.372-.044-.3-.079-.608-.112-.912-.03-.279-.049-.559-.074-.838-.044-.515-.071-1.03-.09-1.548-.008-.255-.014-.507-.022-.762a.944.944,0,0,0-.085-.405V-4.251a.52.52,0,0,0,.088-.3c0-.1.005-.192.014-.288.022-.351.041-.7.074-1.046.036-.392.09-.783.134-1.175.06-.531.14-1.057.233-1.583.137-.775.307-1.545.5-2.307a32.363,32.363,0,0,1,3.29-8.125,29.573,29.573,0,0,1,1.657-2.6c.6-.833,1.227-1.641,1.882-2.43a5.7,5.7,0,0,1,.447-.479q1.648-1.582,3.3-3.167a7.578,7.578,0,0,1,.655-.567c.252-.189.5-.384.751-.575a24.977,24.977,0,0,1,2.09-1.455c.515-.315,1.038-.616,1.559-.926a24.633,24.633,0,0,1,3.287-1.633,34.378,34.378,0,0,1,6.139-1.876c.764-.156,1.531-.29,2.306-.37l.523-.058c.271-.027.54-.06.811-.079.367-.027.734-.047,1.1-.071a.637.637,0,0,0,.1-.011C608.265-35.378,608.287-35.392,608.312-35.4Z" transform="translate(-577.3 35.408)"/></svg>