<svg xmlns="http://www.w3.org/2000/svg" width="125.375" height="125.375" viewBox="0 0 125.375 125.375">
  <g id="type" transform="translate(-36 -36)">
    <path id="Path_371" data-name="Path 371" d="M78.988,84.319a2.2,2.2,0,0,0,3.11,0l1.555-1.555,1.555,1.555a2.2,2.2,0,0,0,3.11-3.11l-1.555-1.555L88.319,78.1a2.2,2.2,0,0,0-3.11-3.11l-1.555,1.555L82.1,74.989a2.2,2.2,0,0,0-3.11,3.11l1.555,1.555-1.555,1.555A2.2,2.2,0,0,0,78.988,84.319Z" transform="translate(-19.059 -17.259)" fill="#1d3557"/>
    <path id="Path_372" data-name="Path 372" d="M54.6,184a6.6,6.6,0,1,0,6.6,6.6A6.606,6.606,0,0,0,54.6,184Zm0,8.8a2.2,2.2,0,1,1,2.2-2.2A2.2,2.2,0,0,1,54.6,192.8Z" transform="translate(-5.401 -66.616)" fill="#1d3557"/>
    <path id="Path_373" data-name="Path 373" d="M88.146,225.445a2.491,2.491,0,1,0,2.486,2.5,2.491,2.491,0,0,0-2.486-2.5Z" transform="translate(-22.348 -85.271)" fill="#1d3557"/>
    <path id="Path_374" data-name="Path 374" d="M130.2,36a2.2,2.2,0,0,0-2.2,2.2V159.175a2.2,2.2,0,1,0,4.4,0V38.2A2.2,2.2,0,0,0,130.2,36Z" transform="translate(-41.41)" fill="#1d3557"/>
    <path id="Path_375" data-name="Path 375" d="M154.2,69.2h43.991a2.2,2.2,0,0,0,2.2-2.2V58.2a2.2,2.2,0,0,0-2.2-2.2H154.2a2.2,2.2,0,0,0-2.2,2.2V67A2.2,2.2,0,0,0,154.2,69.2Zm2.2-8.8h39.592v4.4H156.4Z" transform="translate(-52.213 -9.002)" fill="#1d3557"/>
    <path id="Path_376" data-name="Path 376" d="M198.191,216H154.2a2.2,2.2,0,0,0-2.2,2.2V227a2.2,2.2,0,0,0,2.2,2.2h43.991a2.2,2.2,0,0,0,2.2-2.2v-8.8A2.2,2.2,0,0,0,198.191,216Zm-2.2,8.8H156.4v-4.4h39.592Z" transform="translate(-52.213 -81.02)" fill="#1d3557"/>
    <path id="Path_377" data-name="Path 377" d="M211.388,96H154.2a2.2,2.2,0,0,0-2.2,2.2V107a2.2,2.2,0,0,0,2.2,2.2h57.189a2.2,2.2,0,0,0,2.2-2.2V98.2A2.2,2.2,0,0,0,211.388,96Zm-2.2,8.8H156.4v-4.4h52.789Z" transform="translate(-52.213 -27.007)" fill="#1d3557"/>
    <path id="Path_378" data-name="Path 378" d="M154.2,149.2h43.991a2.2,2.2,0,0,0,2.2-2.2v-8.8a2.2,2.2,0,0,0-2.2-2.2H154.2a2.2,2.2,0,0,0-2.2,2.2V147A2.2,2.2,0,0,0,154.2,149.2Zm2.2-8.8h39.592v4.4H156.4Z" transform="translate(-52.213 -45.011)" fill="#1d3557"/>
    <path id="Path_379" data-name="Path 379" d="M211.388,176H154.2a2.2,2.2,0,0,0-2.2,2.2V187a2.2,2.2,0,0,0,2.2,2.2h57.189a2.2,2.2,0,0,0,2.2-2.2v-8.8A2.2,2.2,0,0,0,211.388,176Zm-2.2,8.8H156.4v-4.4h52.789Z" transform="translate(-52.213 -63.015)" fill="#1d3557"/>
    <path id="Path_380" data-name="Path 380" d="M79.042,136.486l-17.512-12.1a2.2,2.2,0,0,0-3.45,1.811v6.6H38.2A2.2,2.2,0,0,0,36,135v6.6a2.2,2.2,0,0,0,2.2,2.2H58.08v6.6a2.2,2.2,0,0,0,3.449,1.811l17.512-12.1a2.2,2.2,0,0,0,0-3.622ZM62.479,146.2V141.6a2.2,2.2,0,0,0-2.2-2.2H40.4v-2.2H60.28a2.2,2.2,0,0,0,2.2-2.2v-4.605l11.443,7.9Z" transform="translate(0 -39.61)" fill="#1d3557"/>
  </g>
</svg>
