<?xml version="1.0" standalone="no"?>
<!DOCTYPE svg PUBLIC "-//W3C//DTD SVG 20010904//EN"
 "http://www.w3.org/TR/2001/REC-SVG-20010904/DTD/svg10.dtd">
<svg version="1.0" xmlns="http://www.w3.org/2000/svg"
 width="832.000000pt" height="832.000000pt" viewBox="0 0 832.000000 832.000000"
 preserveAspectRatio="xMidYMid meet">
<metadata>
Created by potrace 1.11, written by Peter Selinger 2001-2013
</metadata>
<g transform="translate(0.000000,832.000000) scale(0.100000,-0.100000)"
fill="#000000" stroke="none">
<path d="M2409 6746 c-2 -2 -40 -7 -84 -11 -44 -3 -91 -8 -105 -10 -14 -3 -41
-7 -60 -10 -19 -2 -44 -7 -55 -9 -30 -6 -132 -30 -177 -42 -13 -3 -27 -6 -33
-7 -5 -2 -16 -6 -22 -10 -7 -5 -13 -6 -13 -3 0 7 -310 -103 -320 -114 -3 -3
-30 -16 -60 -30 -30 -14 -75 -37 -100 -52 -25 -15 -55 -32 -67 -37 -11 -5 -24
-15 -28 -20 -3 -6 -15 -11 -26 -11 -10 0 -19 -4 -19 -8 0 -5 -12 -14 -27 -21
-41 -19 -232 -161 -288 -214 -27 -26 -97 -91 -154 -145 -87 -82 -153 -153
-226 -244 -130 -162 -302 -470 -375 -674 -25 -69 -31 -87 -32 -94 0 -3 -4 -12
-8 -21 -31 -58 -101 -396 -117 -564 -16 -178 -5 -488 23 -645 3 -19 7 -42 8
-50 2 -8 9 -42 16 -75 17 -81 16 -78 22 -95 3 -8 20 -67 38 -130 32 -109 42
-137 90 -245 11 -25 20 -47 20 -50 0 -18 115 -233 166 -311 19 -28 34 -54 34
-57 0 -4 7 -15 15 -24 8 -10 36 -48 62 -84 113 -156 300 -351 461 -480 108
-87 265 -199 278 -199 3 0 25 -14 50 -30 24 -17 44 -28 44 -24 0 3 7 1 15 -6
22 -18 178 -92 275 -130 47 -18 94 -36 105 -41 116 -50 405 -116 590 -136 139
-15 480 -8 610 12 17 2 44 6 60 9 74 10 157 28 225 47 102 28 138 27 255 -8
55 -17 114 -35 130 -39 17 -4 1080 -8 2362 -9 2105 -1 2333 0 2337 14 8 28 4
1179 -4 1191 -6 10 -294 13 -1394 11 -762 -1 -1386 1 -1386 4 0 4 88 95 196
203 107 109 709 713 1337 1344 628 631 1170 1176 1205 1212 l62 64 0 554 0
553 -2954 2 c-1624 1 -2955 1 -2957 -1z"/>
</g>
</svg>
