<svg width="1398" height="287" viewBox="0 0 1398 287" fill="none" xmlns="http://www.w3.org/2000/svg">
<g clip-path="url(#clip0)">
<path d="M69.9732 84.1234C89.6141 84.1234 100.686 74.8718 100.686 55.4584V18.3001H85.5191V55.0793C85.5191 65.2409 80.3624 71.3834 69.9732 71.3834C59.5841 71.3834 54.5032 65.2409 54.5032 55.0793V18.3001H39.2607V55.4584C39.2607 74.8718 50.3324 84.1234 69.9732 84.1234ZM168.732 18.3001H105.866V30.9643H129.678V82.0001H144.845V30.9643H168.732V18.3001ZM199.6 84.1234C219.468 84.1234 229.857 76.9193 229.857 64.2551C229.857 49.0126 214.918 46.9651 202.785 44.7659L195.884 43.5526C189.362 42.3393 186.253 39.9126 186.253 36.0451C186.253 31.1159 190.803 28.1584 199.448 28.1584C209.003 28.1584 213.477 32.0259 214.463 37.7893H228.037C227.886 22.0159 216.359 16.1768 199.751 16.1768C181.931 16.1768 171.769 23.3051 171.769 35.3626C171.769 49.2401 183.751 52.4251 195.808 54.5484L203.695 55.9134C211.278 57.2026 214.842 59.4018 214.842 63.8001C214.842 68.8051 209.458 72.1418 199.6 72.1418C189.135 72.0659 184.206 68.2743 183.675 62.2834H170.025C169.949 77.2226 180.186 84.1234 199.6 84.1234ZM284.045 82.0001H299.742L275.021 18.3001H253.787L229.142 82.0001H244.763L248.707 71.3076H280.102L284.045 82.0001ZM252.953 59.8568L262.963 32.6326H265.845L275.855 59.8568H252.953ZM310.197 82.0001H331.43L356.152 18.3001H340.454L321.799 67.6676H319.828L301.173 18.3001H285.551L310.197 82.0001ZM411.539 84.1234C432.393 84.1234 446.574 70.1701 446.574 50.1501C446.574 30.1301 432.393 16.1768 411.539 16.1768C390.76 16.1768 376.579 30.1301 376.579 50.1501C376.579 70.1701 390.76 84.1234 411.539 84.1234ZM411.539 71.0043C400.239 71.0043 391.519 62.6626 391.519 50.1501C391.519 37.6376 400.239 29.2959 411.539 29.2959C422.914 29.2959 431.559 37.6376 431.559 50.1501C431.559 62.6626 422.914 71.0043 411.539 71.0043ZM447.563 82.0001H503.831V69.3359H466.597V68.1226L504.286 30.5851V18.3001H448.549V30.9643H484.949V32.1776L447.563 69.7151V82.0001ZM560.582 82.0001H576.279L551.558 18.3001H530.324L505.678 82.0001H521.3L525.243 71.3076H556.638L560.582 82.0001ZM529.49 59.8568L539.5 32.6326H542.382L552.392 59.8568H529.49ZM616.13 82.0001H631.221V18.3001H616.13V82.0001ZM664.873 84.1234C684.741 84.1234 695.13 76.9193 695.13 64.2551C695.13 49.0126 680.191 46.9651 668.058 44.7659L661.157 43.5526C654.635 42.3393 651.526 39.9126 651.526 36.0451C651.526 31.1159 656.076 28.1584 664.721 28.1584C674.276 28.1584 678.75 32.0259 679.736 37.7893H693.31C693.159 22.0159 681.632 16.1768 665.024 16.1768C647.204 16.1768 637.042 23.3051 637.042 35.3626C637.042 49.2401 649.024 52.4251 661.081 54.5484L668.968 55.9134C676.551 57.2026 680.115 59.4018 680.115 63.8001C680.115 68.8051 674.731 72.1418 664.873 72.1418C654.408 72.0659 649.479 68.2743 648.948 62.2834H635.298C635.222 77.2226 645.459 84.1234 664.873 84.1234ZM770.269 82.0001H785.967L761.245 18.3001H740.012L715.366 82.0001H730.988L734.931 71.3076H766.326L770.269 82.0001ZM739.178 59.8568L749.188 32.6326H752.069L762.079 59.8568H739.178ZM789.247 82.0001H804.034V39.1543H805.399L835.353 82.0001H852.567V18.3001H837.78V61.1459H836.339L806.764 18.3001H789.247V82.0001ZM39.2607 160H54.3516V96.3001H39.2607V160ZM59.9455 160H74.733V117.154H76.098L106.052 160H123.266V96.3001H108.479V139.146H107.038L77.463 96.3001H59.9455V160ZM191.283 96.3001H128.417V108.964H152.229V160H167.395V108.964H191.283V96.3001ZM196.403 160H250.017V147.563H211.494V133.534H248.652V122.614H211.494V108.661H250.017V96.3001H196.403V160ZM316.778 160L304.341 138.008C310.863 134.444 315.185 127.998 315.185 119.126C315.185 104.262 306.161 96.3001 289.098 96.3001H255.656V160H270.747V141.042H291.298L301.763 160H316.778ZM270.747 108.964H288.264C295.923 108.964 300.17 112.452 300.17 119.202C300.17 125.951 295.923 129.439 288.264 129.439H270.747V108.964ZM372.425 160H388.123L363.401 96.3001H342.168L317.522 160H333.143L337.087 149.308H368.482L372.425 160ZM341.333 137.857L351.343 110.632H354.225L364.235 137.857H341.333ZM419.372 162.123C433.477 162.123 447.658 155.905 450.767 137.098H436.283C433.553 145.364 427.259 149.004 419.372 149.004C408.073 149.004 399.428 140.359 399.428 128.15C399.428 115.865 408.073 107.296 419.372 107.296C427.259 107.296 433.553 110.936 436.283 119.126H450.767C447.658 100.395 433.325 94.1768 419.372 94.1768C398.745 94.1768 384.489 108.13 384.489 128.15C384.489 148.17 398.745 162.123 419.372 162.123ZM515.275 96.3001H452.409V108.964H476.221V160H491.387V108.964H515.275V96.3001ZM520.395 160H535.486V96.3001H520.395V160ZM574.901 162.123C595.755 162.123 609.936 148.17 609.936 128.15C609.936 108.13 595.755 94.1768 574.901 94.1768C554.123 94.1768 539.942 108.13 539.942 128.15C539.942 148.17 554.123 162.123 574.901 162.123ZM574.901 149.004C563.602 149.004 554.881 140.662 554.881 128.15C554.881 115.637 563.602 107.296 574.901 107.296C586.276 107.296 594.921 115.637 594.921 128.15C594.921 140.662 586.276 149.004 574.901 149.004ZM614.374 160H629.161V117.154H630.526L660.48 160H677.695V96.3001H662.907V139.146H661.466L631.891 96.3001H614.374V160ZM730.781 96.3001H701.51V160H730.781C755.503 160 764.906 146.274 764.906 128.15C764.906 110.026 755.503 96.3001 730.781 96.3001ZM730.706 147.26H716.601L716.752 109.04H730.706C743.066 109.04 749.74 115.865 749.74 128.15C749.74 140.435 743.066 147.26 730.706 147.26ZM769.65 160H823.264V147.563H784.74V133.534H821.899V122.614H784.74V108.661H823.264V96.3001H769.65V160ZM856.694 162.123C876.563 162.123 886.952 154.919 886.952 142.255C886.952 127.012 872.013 124.965 859.879 122.766L852.979 121.552C846.457 120.339 843.348 117.912 843.348 114.045C843.348 109.116 847.898 106.158 856.543 106.158C866.098 106.158 870.572 110.026 871.558 115.789H885.132C884.98 100.016 873.454 94.1768 856.846 94.1768C839.025 94.1768 828.864 101.305 828.864 113.363C828.864 127.24 840.845 130.425 852.903 132.548L860.789 133.913C868.373 135.202 871.937 137.402 871.937 141.8C871.937 146.805 866.553 150.142 856.694 150.142C846.229 150.066 841.3 146.274 840.769 140.283H827.119C827.044 155.222 837.281 162.123 856.694 162.123ZM891.177 160H906.268V96.3001H891.177V160ZM979.202 126.33H944.774V136.568H963.959C961.609 146.047 952.964 149.004 945.835 149.004C933.929 149.004 925.664 140.359 925.664 128.15C925.664 115.865 934.384 107.296 946.063 107.296C954.632 107.296 960.319 111.012 962.746 116.623H977.837C974.424 100.622 960.471 94.1768 945.835 94.1768C925.057 94.1768 910.724 108.13 910.724 128.15C910.724 148.018 924.829 162.123 945.835 162.123C966.841 162.123 980.491 148.777 979.202 126.33ZM984.09 160H998.877V117.154H1000.24L1030.2 160H1047.41V96.3001H1032.62V139.146H1031.18L1001.61 96.3001H984.09V160ZM1052.94 160H1106.55V147.563H1068.03V133.534H1105.19V122.614H1068.03V108.661H1106.55V96.3001H1052.94V160ZM1173.32 160L1160.88 138.008C1167.4 134.444 1171.72 127.998 1171.72 119.126C1171.72 104.262 1162.7 96.3001 1145.64 96.3001H1112.19V160H1127.28V141.042H1147.84L1158.3 160H1173.32ZM1127.28 108.964H1144.8C1152.46 108.964 1156.71 112.452 1156.71 119.202C1156.71 125.951 1152.46 129.439 1144.8 129.439H1127.28V108.964ZM108.421 230.568L101.596 225.412C105.312 219.724 107.208 212.672 107.359 204.861H93.9366C93.9366 209.183 93.1024 213.582 91.0549 217.449L72.2482 203.192C64.4374 197.277 61.2524 194.775 61.2524 190.908C61.2524 186.585 65.1199 184.082 71.9449 184.082C79.1491 184.082 84.6849 186.812 84.6091 195.23H97.9557C98.0316 179.608 87.2632 172.632 71.9449 172.632C56.0199 172.632 47.2991 180.518 47.2991 189.618C47.2991 194.396 49.6499 198.188 52.9107 201.524C43.0524 204.861 38.5024 211.913 38.5024 219.497C38.5024 232.237 51.0907 240.123 69.4424 240.123C79.7557 240.123 87.8699 237.697 93.9366 233.374L101.899 239.441L108.421 230.568ZM70.8832 228.217C61.9349 228.217 53.5932 224.957 53.5932 217.297C53.5932 213.733 55.4132 210.169 60.7216 208.046L83.3957 225.336C80.1349 227.156 75.9641 228.217 70.8832 228.217ZM165.208 240.123C179.313 240.123 193.494 233.905 196.603 215.098H182.119C179.389 223.364 173.095 227.004 165.208 227.004C153.909 227.004 145.264 218.359 145.264 206.15C145.264 193.865 153.909 185.296 165.208 185.296C173.095 185.296 179.389 188.936 182.119 197.126H196.603C193.494 178.395 179.161 172.177 165.208 172.177C144.581 172.177 130.325 186.13 130.325 206.15C130.325 226.17 144.581 240.123 165.208 240.123ZM262.235 238L249.798 216.008C256.32 212.444 260.642 205.998 260.642 197.126C260.642 182.262 251.618 174.3 234.555 174.3H201.113V238H216.204V219.042H236.755L247.22 238H262.235ZM216.204 186.964H233.721C241.38 186.964 245.627 190.452 245.627 197.202C245.627 203.951 241.38 207.439 233.721 207.439H216.204V186.964ZM266.409 238H320.023V225.563H281.5V211.534H318.658V200.614H281.5V186.661H320.023V174.3H266.409V238ZM377.135 238H392.833L368.111 174.3H346.878L322.232 238H337.853L341.797 227.308H373.192L377.135 238ZM346.043 215.857L356.053 188.632H358.935L368.945 215.857H346.043ZM445.713 174.3H382.847V186.964H406.659V238H421.826V186.964H445.713V174.3ZM450.833 238H465.924V174.3H450.833V238ZM493.889 238H515.122L539.844 174.3H524.146L505.491 223.668H503.52L484.865 174.3H469.243L493.889 238ZM543.124 238H596.738V225.563H558.214V211.534H595.373V200.614H558.214V186.661H596.738V174.3H543.124V238ZM681.194 174.3H618.328V186.964H642.139V238H657.306V186.964H681.194V174.3ZM686.314 238H739.928V225.563H701.404V211.534H738.563V200.614H701.404V186.661H739.928V174.3H686.314V238ZM778.513 240.123C792.618 240.123 806.798 233.905 809.908 215.098H795.423C792.693 223.364 786.399 227.004 778.513 227.004C767.213 227.004 758.568 218.359 758.568 206.15C758.568 193.865 767.213 185.296 778.513 185.296C786.399 185.296 792.693 188.936 795.423 197.126H809.908C806.798 178.395 792.466 172.177 778.513 172.177C757.886 172.177 743.629 186.13 743.629 206.15C743.629 226.17 757.886 240.123 778.513 240.123ZM861.131 174.3V199.856H829.508V174.3H814.417V238H829.508V212.444H861.131V238H876.297V174.3H861.131ZM881.846 238H896.634V195.154H897.999L927.953 238H945.167V174.3H930.379V217.146H928.939L899.364 174.3H881.846V238ZM984.519 240.123C1005.37 240.123 1019.55 226.17 1019.55 206.15C1019.55 186.13 1005.37 172.177 984.519 172.177C963.74 172.177 949.559 186.13 949.559 206.15C949.559 226.17 963.74 240.123 984.519 240.123ZM984.519 227.004C973.219 227.004 964.499 218.662 964.499 206.15C964.499 193.637 973.219 185.296 984.519 185.296C995.894 185.296 1004.54 193.637 1004.54 206.15C1004.54 218.662 995.894 227.004 984.519 227.004ZM1023.99 238H1075.79V225.336H1039.08V174.3H1023.99V238ZM1111.64 240.123C1132.5 240.123 1146.68 226.17 1146.68 206.15C1146.68 186.13 1132.5 172.177 1111.64 172.177C1090.87 172.177 1076.69 186.13 1076.69 206.15C1076.69 226.17 1090.87 240.123 1111.64 240.123ZM1111.64 227.004C1100.35 227.004 1091.62 218.662 1091.62 206.15C1091.62 193.637 1100.35 185.296 1111.64 185.296C1123.02 185.296 1131.66 193.637 1131.66 206.15C1131.66 218.662 1123.02 227.004 1111.64 227.004ZM1218.9 204.33H1184.47V214.568H1203.66C1201.31 224.047 1192.66 227.004 1185.53 227.004C1173.63 227.004 1165.36 218.359 1165.36 206.15C1165.36 193.865 1174.08 185.296 1185.76 185.296C1194.33 185.296 1200.02 189.012 1202.45 194.623H1217.54C1214.12 178.622 1200.17 172.177 1185.53 172.177C1164.76 172.177 1150.42 186.13 1150.42 206.15C1150.42 226.018 1164.53 240.123 1185.53 240.123C1206.54 240.123 1220.19 226.777 1218.9 204.33ZM1223.79 238H1238.88V174.3H1223.79V238ZM1272.53 240.123C1292.4 240.123 1302.79 232.919 1302.79 220.255C1302.79 205.012 1287.85 202.965 1275.72 200.766L1268.82 199.552C1262.29 198.339 1259.19 195.912 1259.19 192.045C1259.19 187.116 1263.74 184.158 1272.38 184.158C1281.94 184.158 1286.41 188.026 1287.4 193.789H1300.97C1300.82 178.016 1289.29 172.177 1272.68 172.177C1254.86 172.177 1244.7 179.305 1244.7 191.363C1244.7 205.24 1256.68 208.425 1268.74 210.548L1276.63 211.913C1284.21 213.202 1287.77 215.402 1287.77 219.8C1287.77 224.805 1282.39 228.142 1272.53 228.142C1262.07 228.066 1257.14 224.274 1256.61 218.283H1242.96C1242.88 233.222 1253.12 240.123 1272.53 240.123ZM1366.12 174.3H1303.26V186.964H1327.07V238H1342.24V186.964H1366.12V174.3ZM1366.09 239.213C1370.57 239.213 1374.21 235.573 1374.21 231.251C1374.21 226.852 1370.57 223.212 1366.09 223.212C1361.7 223.212 1358.06 226.852 1358.06 231.251C1358.06 235.573 1361.7 239.213 1366.09 239.213Z" fill="#F1FAEE"/>
<path d="M927.515 14.5H1340.49C1357.53 14.5 1371.5 29.0226 1371.5 47C1371.5 65.0755 1357.54 79.5 1340.49 79.5H927.515C910.465 79.5 896.5 65.0755 896.5 47C896.5 28.9245 910.465 14.5 927.515 14.5Z" stroke="#F1FAEE" stroke-width="5"/>
<path d="M1362.46 126.107C1351.52 129.169 1344.64 136.48 1341.46 146.935C1341.41 146.733 1341.35 146.531 1341.29 146.331L1341.28 146.319C1337.99 135.738 1330.74 129.112 1320.47 126.171C1324.76 124.854 1328.79 122.725 1332.4 119.405C1336.89 115.364 1339.82 110.507 1341.44 105.051C1342.55 108.671 1344.26 112.13 1346.79 115.301C1351.04 120.708 1356.34 124.227 1362.46 126.107Z" fill="#F1FAEE" stroke="#F1FAEE" stroke-width="5"/>
<path d="M1242.06 142.164H1248.88C1247.41 137.899 1246.48 133.014 1246.32 127.818H1237.79C1238.02 133.091 1239.5 138.054 1242.06 142.164ZM1237.79 125.182H1246.32C1246.48 119.986 1247.41 115.178 1248.88 110.836H1242.06C1239.5 115.023 1238.02 119.986 1237.79 125.182ZM1243.84 108.122H1249.97C1251.52 104.399 1253.84 100.832 1256.79 98.0405C1251.59 100.212 1247.17 103.701 1243.84 108.122ZM1280.29 98.0405C1283.23 100.91 1285.56 104.399 1287.11 108.122H1293.24C1289.9 103.701 1285.41 100.212 1280.29 98.0405ZM1295.02 110.758H1288.27C1289.75 115.101 1290.68 119.909 1290.76 125.104H1299.36C1299.05 119.986 1297.58 115.023 1295.02 110.758ZM1299.36 127.818H1290.76C1290.68 133.014 1289.75 137.899 1288.27 142.164H1295.02C1297.58 138.054 1299.05 133.091 1299.36 127.818ZM1293.24 144.956H1287.11C1285.56 148.601 1283.16 152.245 1280.29 154.959C1285.41 152.866 1289.9 149.376 1293.24 144.956ZM1256.79 154.959C1253.77 152.168 1251.52 148.601 1249.97 144.956H1243.84C1247.17 149.376 1251.59 152.866 1256.79 154.959ZM1268.5 93C1287.03 93 1302 108.044 1302 126.5C1302 145.034 1287.03 160 1268.5 160C1250.04 160 1235 145.034 1235 126.5C1235 108.044 1250.04 93 1268.5 93ZM1260.9 125.182C1260.9 119.986 1261.13 115.178 1261.68 110.836H1251.75C1250.2 115.101 1249.19 119.986 1249.11 125.182H1260.9ZM1261.99 108.122C1262.45 104.244 1263.3 99.669 1265.01 96.2569C1259.43 97.963 1255.32 103.003 1252.91 108.122H1261.99ZM1272.07 96.2569C1273.77 99.669 1274.47 104.244 1275.09 108.122H1284.16C1281.68 103.003 1277.73 97.963 1272.07 96.2569ZM1275.4 110.758C1275.79 115.101 1276.18 119.909 1276.18 125.104H1288.04C1287.89 119.909 1286.96 115.023 1285.25 110.758H1275.4ZM1276.18 127.818C1276.18 133.091 1275.87 137.899 1275.4 142.164H1285.25C1286.96 137.977 1287.81 133.091 1288.04 127.818H1276.18ZM1275.09 144.956C1274.47 148.678 1273.77 153.409 1272.07 156.821C1277.65 155.115 1281.68 150.074 1284.16 144.956H1275.09ZM1265.01 156.821C1263.3 153.409 1262.53 148.756 1261.99 144.956H1252.91C1255.32 150.074 1259.43 155.115 1265.01 156.821ZM1261.68 142.164C1261.21 137.899 1260.9 133.091 1260.9 127.818H1249.04C1249.11 133.091 1250.12 137.977 1251.67 142.164H1261.68ZM1264.78 108.122H1272.38C1272.07 105.795 1270.44 95.7917 1268.5 95.7917C1266.64 95.7917 1265.01 105.795 1264.78 108.122ZM1264.39 110.758C1263.92 115.023 1263.54 119.909 1263.54 125.104H1273.46C1273.39 119.909 1273.15 115.023 1272.61 110.758H1264.39ZM1263.54 127.818C1263.54 133.091 1263.85 137.899 1264.39 142.164H1272.69C1273.15 137.899 1273.46 133.091 1273.54 127.818H1263.54ZM1264.78 144.956C1265.01 147.282 1266.72 157.286 1268.5 157.286C1270.44 157.286 1271.99 147.282 1272.38 144.956H1264.78Z" fill="#F1FAEE"/>
</g>
<defs>
<clipPath id="clip0">
<rect width="1398" height="287" fill="white"/>
</clipPath>
</defs>
</svg>
