<?xml version="1.0" encoding="utf-8"?>
<!-- Generator: Adobe Illustrator 24.1.0, SVG Export Plug-In . SVG Version: 6.00 Build 0)  -->
<svg version="1.1" id="Laag_1" xmlns="http://www.w3.org/2000/svg" xmlns:xlink="http://www.w3.org/1999/xlink" x="0px" y="0px"
	 viewBox="0 0 1920 1080" style="enable-background:new 0 0 1920 1080;" xml:space="preserve">
<style type="text/css">
	.st0{fill:#D8D9D9;}
	.st1{fill:#FFFFFF;}
	.st2{fill:#1D1D1B;}
	.st3{fill:#121212;}
</style>
<g>
	<path class="st0" d="M545.6,443.9c-0.2-0.2-0.4-0.4-0.6-0.6c-0.7-0.6-1.4-1.3-2.2-1.9c-0.2-0.2-0.4-0.3-0.6-0.5
		c-0.2-0.1-0.4-0.3-0.6-0.4c-12.5-9.3-30.4-12.6-50.3-12.6H389.6v2.9c27.3,0,30.5,3.7,30.5,16.9v63.2V527v82.5
		c0,10.9-4.6,16.9-29.3,16.9v2.9h82.8v-2.9c-27.3,0-30.5-3.7-30.5-16.9v-71.3h54c37.9,0,62.9-14.1,62.9-54.9
		c0-17.8-5.2-30.3-13.9-38.8C546,444.2,545.8,444.1,545.6,443.9z M493.1,533.5h-50v-21.3V501v-53.1c0-6.6,1.7-11.2,6.9-14.1h37.4
		c12.4,0,28.7,3.9,38.7,17.3c0.2,0.2,0.3,0.4,0.4,0.6c0.2,0.2,0.3,0.4,0.4,0.6c0.4,0.5,0.7,1,1,1.5c0.1,0.2,0.3,0.4,0.4,0.6
		c0.1,0.2,0.3,0.4,0.4,0.6c4.2,7.1,6.7,16.3,6.7,28.2C535.4,518.9,512.4,533.5,493.1,533.5z"/>
	<path class="st0" d="M751.1,472.1c-0.1-0.2-0.3-0.5-0.4-0.6c-0.9-1.7-1.9-3.3-2.8-4.8c-0.1-0.2-0.3-0.4-0.4-0.6
		c-0.1-0.2-0.2-0.4-0.4-0.6c-1.9-2.9-3.9-5.7-6.1-8.3c-0.2-0.2-0.3-0.4-0.5-0.6c-0.1-0.2-0.3-0.4-0.5-0.6c-0.5-0.6-1-1.2-1.5-1.8
		c-0.2-0.2-0.3-0.4-0.5-0.5c-0.2-0.2-0.3-0.4-0.5-0.5c-17.8-19.2-42.8-29.1-69.7-29.1c-11.8,0-23.3,1.9-34,5.7
		c-0.3,0.1-0.5,0.2-0.8,0.3c-0.2,0.1-0.4,0.1-0.6,0.2c-8.4,3.1-16.2,7.4-23.3,12.9c-0.3,0.2-0.5,0.4-0.8,0.6
		c-0.3,0.2-0.5,0.4-0.8,0.6c-19.2,15.4-32.7,39.5-35.5,71.8c-0.1,0.5-0.1,1.1-0.1,1.6c0,0.5-0.1,0.9-0.1,1.4v0
		c-0.2,3.3-0.3,6.6-0.3,10.1v0.7c0,0.4,0,0.8,0,1.1v0c0,0.4,0,0.8,0,1.1c0.9,52.1,24.9,82.7,57.6,95.3c0.2,0.1,0.4,0.2,0.6,0.3
		c0.2,0.1,0.4,0.2,0.6,0.2c11.7,4.3,24.3,6.4,37.5,6.4c7.6,0,15-0.7,22.1-2.1c0.3,0,0.5-0.1,0.7-0.1c0.3-0.1,0.5-0.1,0.8-0.1
		c40.8-8.7,72.6-41,72.6-102.8c0-22.3-4.7-41.1-12.7-56.4C751.3,472.5,751.2,472.3,751.1,472.1z M688.2,626.3
		c-0.2,0.1-0.4,0.2-0.6,0.2c-0.2,0.1-0.5,0.2-0.7,0.3c-5.8,2-12.1,3.1-19.1,3c-13.7,0-25.2-4.3-34.5-11.5c-0.2-0.1-0.4-0.3-0.5-0.4
		c-0.2-0.2-0.4-0.3-0.5-0.5c-22.3-18.2-32-53.8-32-88.2c0-15.8,2.4-32.7,7.4-48c0,0,0,0,0,0c0.3-1,0.6-1.9,1-2.9v0
		c0.4-1,0.7-2.1,1.1-3l0,0c3.6-9.4,8.4-18,14.3-25.3c0,0,0,0,0-0.1c0.5-0.6,1-1.2,1.5-1.8c0.5-0.6,1-1.1,1.5-1.7c0,0,0-0.1,0-0.1
		c10.3-11,23.7-17.9,40.6-17.8c23.9,0,40.8,13.7,51.7,33.1c0.1,0.2,0.3,0.4,0.3,0.6c0.1,0.2,0.3,0.4,0.3,0.6
		c0.2,0.3,0.3,0.6,0.5,0.9c0.1,0.2,0.3,0.4,0.3,0.6c0.1,0.2,0.2,0.4,0.3,0.6c3,5.9,5.5,12.3,7.5,18.9c0.1,0.2,0.1,0.5,0.2,0.7
		c0.1,0.3,0.2,0.5,0.3,0.8c0,0,0,0,0,0c1,3.3,1.8,6.7,2.5,10c0.1,0.3,0.1,0.6,0.2,0.9c0.1,0.3,0.1,0.6,0.2,1
		c2.1,10.6,3.2,21.4,3.2,31.8C735.4,570.6,721.1,613.9,688.2,626.3z"/>
	<path class="st0" d="M913,534.2c-0.2-0.2-0.3-0.3-0.5-0.5c-5.9-5.7-12.7-10.4-19.9-13.9c-0.2-0.1-0.4-0.2-0.6-0.3v0
		c-0.2-0.1-0.4-0.2-0.6-0.3c-1.4-0.6-2.8-1.3-4.2-1.8l-39.9-15.8c-22.1-8.6-40.8-20.4-42.3-37.9c-0.9-10.8,3.3-20.5,11-27.4
		c0.3-0.3,0.6-0.5,0.9-0.8c0.3-0.3,0.7-0.6,1-0.8h0c10.2-8.1,25.7-11.7,43.7-7.7c31.4,6.9,50.3,28.1,56.6,73h3.7l-9.2-72.1h-5.2
		v10.1c-18.1-6.3-35-16.7-63.5-16.7c-19.2,0-38.6,5.1-50.3,17.8c-0.3,0.3-0.5,0.6-0.8,0.9h0c-0.3,0.3-0.5,0.6-0.8,0.9
		c-6.1,7.3-9.7,16.9-9.7,29.2c0,25.9,19.8,40,45.2,50.6l48.3,20.4c1.6,0.6,3.1,1.4,4.6,2.2c0.2,0.1,0.4,0.2,0.6,0.3
		c0.2,0.1,0.3,0.2,0.5,0.3c5.4,3.1,10,7.1,13.8,11.5c0.2,0.2,0.3,0.4,0.5,0.6c0.2,0.2,0.3,0.4,0.4,0.5c7.2,9,11.1,19.8,11.5,30
		c0.2,5.5-0.3,10.5-1.5,15.1c-0.1,0.3-0.1,0.6-0.2,0.9c-0.1,0.3-0.1,0.6-0.2,0.8h0c-0.1,0.3-0.2,0.6-0.3,0.9
		c4.1-2.2,8.2-4.4,12.3-6.7c-4.1,2.3-8.3,4.5-12.3,6.7l0,0h0c-6.5,21-26.8,32-55.1,27.7h0c-0.3,0-0.5-0.1-0.7-0.1
		c-0.2,0-0.3-0.1-0.5-0.1c-0.4-0.1-0.8-0.1-1.2-0.2c-1.1-0.2-2.1-0.4-3.2-0.7c-0.4-0.1-0.8-0.2-1.2-0.3c-0.4-0.1-0.8-0.2-1.2-0.3h0
		c-3.5-0.9-7.2-2.1-10.8-3.8c-0.2-0.1-0.5-0.2-0.7-0.3c-0.2-0.1-0.5-0.2-0.7-0.3c-1.5-0.7-3-1.4-4.5-2.3c-0.2-0.1-0.4-0.2-0.6-0.3
		c-0.2-0.1-0.5-0.2-0.6-0.4c-18.5-10.9-36.2-33-43.1-77.2H777l10.4,85.7h4V616c9.5,5.3,18.6,9.7,27.6,13c0.3,0.1,0.5,0.2,0.7,0.3
		c0.2,0.1,0.5,0.2,0.7,0.2c1.5,0.6,2.9,1,4.3,1.5c0.3,0.1,0.5,0.2,0.8,0.3c0.3,0.1,0.5,0.2,0.8,0.2c2.4,0.8,4.8,1.5,7.3,2
		c0.4,0.1,0.8,0.2,1.2,0.3c0.4,0.1,0.8,0.2,1.2,0.3c1.5,0.3,2.9,0.6,4.4,0.9c0.4,0.1,0.8,0.2,1.2,0.2c0.4,0.1,0.8,0.2,1.2,0.2
		c8.1,1.4,16.4,1.9,25,1.5c32.1-1.5,57.1-15.7,62.7-46.4v0c0.1-0.3,0.1-0.6,0.2-0.9c0,0,0-0.1,0-0.1c0.1-0.3,0.1-0.6,0.1-0.9
		c0.5-2.8,0.7-5.6,0.8-8.6c0.7-18.4-6.8-33.9-18.2-45.4C913.3,534.5,913.1,534.4,913,534.2z"/>
	<path class="st0" d="M1095.8,428h-141h-6.7l-10.6,56.6h2.3c6.2-16.3,10.8-27.9,15.3-36c0.3-0.5,0.5-0.9,0.7-1.3
		c0.3-0.5,0.6-1,0.9-1.5c5.7-9.3,11.3-12.9,19.8-13.2l43.4-1.7c5.5,2.6,6.3,9.8,6.3,16.9v161.6c0,9.4-3.4,15.2-20.3,16.6
		c-0.2,0-0.5,0.1-0.7,0.1c-0.2,0-0.5,0-0.7,0.1c-2.3,0.1-4.8,0.2-7.6,0.2v2.9h9.9h72.9v-2.9c-27.3,0-30.5-3.7-30.5-16.9V447.9
		c0-7.2,1.7-14.4,7.5-16.9l35.2,1.4l0.9,0.1l0.9,0l0.6,0l0.9,0l0.8,0l2.6,0.1c16.1,0.6,21.8,12.9,36.8,52h2.3l-10.6-56.6H1095.8z"/>
	<path class="st0" d="M1278,621.5l-84.8,1.4c-3.2-2.3-4-6-4.3-11.5l0.3-83.6l50,1.4c9.5,0.3,17.8,2.6,17.8,24.1h2v-51.2h-2
		c0,20.7-8.3,19.8-17.8,20.1l-50,1.4v-81.3c0.9-6.6,4-9.8,13.5-10.9l69.6,1.1c16.1,0.3,19,7.2,36.8,46.3h2.3l-10.6-50.9h-159.5v2.9
		c19,0,24.7,6,24.7,17v161.5c0,10.9-5.8,17-24.7,17v2.9h165.3l10.6-54h-2.3C1297,614.3,1294.1,621.2,1278,621.5z"/>
	<path class="st0" d="M1515.3,625.3c-0.9-0.2-1.7-0.4-2.5-0.6c-2.6-0.8-4.3-1.8-5.8-3.1l0,0c-0.2-0.2-0.5-0.4-0.7-0.6l-0.7-0.8
		l-32.9-39.1l-1.7-2.1l-1.6-1.9l-32.9-39.2c33.4-2,54.6-16.9,54.6-54.6c0-23.4-8.9-37.6-23.1-45.7c-0.3-0.1-0.5-0.3-0.8-0.5
		c-0.2-0.1-0.4-0.2-0.6-0.3c-5-2.7-10.6-4.6-16.7-6c-0.3-0.1-0.6-0.1-0.9-0.2c-0.3-0.1-0.6-0.1-1-0.2c-7.9-1.6-16.6-2.3-25.6-2.3
		h-101.8v2.9c27.3,0,30.5,9.5,30.5,22.7V520v83.7c0,10.8-4.6,22.5-28.8,22.7h-0.5v2.9h82.8v-2.9c-27.3,0-30.5-9.5-30.5-22.7v-65.5
		h27.5h1.6h9.7l6.1,8.2l1,1.4l1,1.4l34.6,46.3l0.8,1.2l0.9,1.2l13.9,18.6c5.2,8.6,0.3,10-19.3,10v2.9h79.9v-2.9
		C1524.1,626.4,1519,626,1515.3,625.3z M1393.4,533.5h-1.7H1374v-7v-8.7v-21.1v-43.2c0-7.7,2.3-15.8,10-19.8h34.2
		c6.1,0,13.2,1,20,3.5c0.3,0.1,0.5,0.2,0.8,0.3c0.3,0.1,0.5,0.2,0.7,0.3c4.5,1.9,8.8,4.5,12.6,8.1c0.1,0.1,0.3,0.3,0.5,0.4
		c0.2,0.2,0.4,0.4,0.6,0.6c7.6,7.6,12.9,19.1,12.9,36.3c0,35.6-23,50.3-42.3,50.3H1393.4z"/>
</g>
<path class="st0" d="M302.5,193.5c-0.9-2.6-1.4-4.7-1.3-6.3c0.1-2.5,1.6-4.1,5.1-5.1c3.1-1,7.8-1.5,14.5-1.7
	c1.9-0.1,4.1-0.1,6.4-0.2c3.8-0.1,8.1-0.1,13-0.1v-3.5h-90v3.5c37,0.3,39.3,0.8,32.6,17.7c-0.2,0.6-0.5,1.2-0.7,1.8l-6.4,16.6
	l-56.5,146.9c-4.9,10.9-6.6,11.8-29.9,11.8v2.9h64.1v-2.9c-26.4,0-30.8-0.6-28.7-7.5l30.8-79.9h60.3c-1.3-17.8-0.6-38.3,1-59.9
	L302.5,193.5z M258.3,280.3l28.1-73.3l28.2,73.3H258.3z"/>
<path class="st0" d="M368.6,352.2h-0.3l-2.3-5.5c-8.7,3.2-17.4,2.2-27-3.3l3.4,8.8h-0.3c5.5,13.2,3.7,22.7-23.6,22.7v2.9h84.2v-2.9
	C378.1,374.9,374.1,365.4,368.6,352.2z"/>
<path class="st0" d="M442.2,357.9V254.1c-2.3,3.7-4.7,7.3-7.2,11.2v92.6c0,10.9-4.6,16.9-23.6,16.9v2.9h55.5v-2.9
	C445.4,374.9,442.2,371.1,442.2,357.9z"/>
<path class="st0" d="M435,196.4v16.7c9.3-10.2,17.4-19.2,24.6-27.4l-6.8-9.2h-42.5v2.9C431.9,179.4,435,183.1,435,196.4z"/>
<path class="st0" d="M1083.4,251.2l0.4,22.2l5.9-16.6C1087.8,254.6,1085.8,252.8,1083.4,251.2z"/>
<polygon class="st0" points="1078.1,289.3 1076.7,270.3 1041.8,377.7 1046.7,377.7 "/>
<path class="st0" d="M1331.7,324.4c-0.1,0.3-0.3,0.7-0.5,1c-0.1,0.3-0.3,0.6-0.4,0.9c-16.7,36.7-19.8,43.3-35.6,43.6l-84.8,1.4
	c-2.2-1.6-3.3-3.9-3.8-7c-0.1-0.2-0.1-0.4-0.1-0.6c0-0.3-0.1-0.5-0.1-0.8c-0.1-1-0.2-2-0.3-3.1l0.2-49.1v-2.8l0.1-31.6l46.3,1.3
	l1.4,0.1l2.3,0.1c1.1,0,2.2,0.1,3.3,0.2c0.3,0.1,0.6,0.1,0.9,0.1c0.2,0,0.4,0.1,0.6,0.1c7.3,1.3,12.9,6,12.9,23.7h2v-51.1h-2
	c0,17.4-5.9,19.5-13.4,20c-0.2,0-0.4,0-0.6,0c-0.3,0-0.6,0-0.9,0c-1,0-1.9,0.1-2.9,0.1l-3.4,0.1l-0.7,0l-0.7,0l-45.2,1.3V213v-22.1
	c0.3-2,0.7-3.7,1.5-5c0.1-0.2,0.2-0.4,0.4-0.6c0.1-0.2,0.3-0.4,0.4-0.6c2-2.6,5.4-4,11.3-4.7l5.3,0.1l0.9,0h1l7.7,0.1h1l1,0
	l14.2,0.2l0.9,0h0.9l36.8,0.6c16.1,0.3,19,7.2,36.8,46.3h2.3l-10.6-50.9h-159.5v2.9c19,0,24.7,6.1,24.7,17v50.1v111.4
	c0,1.1-0.1,2.2-0.2,3.2c0,0.3-0.1,0.5-0.1,0.8c0,0.2-0.1,0.4-0.1,0.6c-1.6,8-8.2,12.4-24.3,12.4v2.9h165.3l10.4-52.9l0.2-0.8
	l0.1-0.3h-2.3C1332,323.9,1331.8,324.2,1331.7,324.4z"/>
<path class="st0" d="M1505.9,349.8l-0.5-0.5c-5.6,3.2-11.6,6.7-18.2,10.4l0.3,0.6l0.3,0.6c6.8-3.3,13.2-6.5,19.3-9.5l-0.5-0.5
	L1505.9,349.8z"/>
<path class="st1" d="M1419.2,176.5c2.7,2,5.7,3.9,9.3,5.8h5.9c1.6,0,3.3,0.1,5,0.2c0.5,0.1,1.1,0.1,1.6,0.2c0.6,0.1,1.1,0.1,1.7,0.2
	c-3.4-1.9-6.4-4-9-6.4H1419.2z"/>
<path class="st0" d="M1724.1,230.6c0-0.3,0-0.6,0-1c0-0.3,0-0.7,0-1c-1.1-30.3-18-44.4-41.8-49.5c-1.2-0.3-2.3-0.5-3.5-0.7h-0.1
	c-1.5-0.3-3-0.5-4.5-0.7h-0.1c-5.9-0.8-12.2-1.2-18.7-1.2h-101.8v2.9c19.3,0,26.6,1.9,29.1,7.7c0.1,0.2,0.2,0.5,0.3,0.7
	c0.1,0.2,0.1,0.4,0.2,0.6c0.5,1.5,0.7,3.2,0.8,5.1c0,0.2,0,0.5,0,0.7v0.7c0,0.5,0,1,0,1.5v53.3v108.3c0,10.9-4.6,16.9-29.3,16.9v2.9
	h82.8v-2.9c-27.3,0-30.5-3.7-30.5-16.9v-71.3h54c37.9,0,62.9-14.1,62.9-54.9C1724.1,231.4,1724.1,231,1724.1,230.6z M1697.3,248.8
	c-0.1,0.4-0.2,0.7-0.3,1c-0.1,0.3-0.2,0.7-0.3,1c-6.5,21.8-24.3,31.1-39.6,31.1h-50V277v-80.6c0-1.2,0.1-2.3,0.2-3.3
	c0-0.3,0.1-0.5,0.1-0.7c0-0.2,0.1-0.5,0.1-0.7c0.5-2.7,1.5-5,3.3-6.8c0.3-0.3,0.6-0.6,0.9-0.8h0c0.3-0.3,0.7-0.6,1.1-0.9h0
	c0.4-0.3,0.8-0.5,1.2-0.8h5h32.4c19.3,0,48,9.5,48,49.4C1699.4,238.1,1698.7,243.8,1697.3,248.8z"/>
<g>
	<path class="st0" d="M431.6,679.6L431.6,679.6l-1.1-0.1c-0.3,0.3-0.7,0.6-1,1l1,1c0.5-0.4,0.9-0.8,1.4-1.2L431.6,679.6z"/>
	<path class="st0" d="M442.2,730.4h-2.3c-17.8-39.1-20.7-46-36.8-46.3l-69.6-1.2c-9.5,1.2-12.6,4.3-13.5,10.9v81.4l50-1.4
		c9.5-0.3,17.8,0.6,17.8-20.1h2v51.2h-2c0-2-0.1-3.8-0.2-5.5c0-0.3,0-0.6-0.1-0.9c0-0.3-0.1-0.6-0.1-0.8v0c-0.7-5.7-2.2-9.5-4.3-12
		c-0.2-0.3-0.4-0.5-0.6-0.7c-0.3-0.3-0.5-0.5-0.7-0.7c-3.2-2.8-7.4-3.3-11.8-3.5l-50-1.4l-0.3,83.7c0.3,11.5,4.3,14.9,24.7,14.9v2.9
		h-72.4v-2.9c19,0,24.7-6.1,24.7-17V699.4c0-10.9-5.7-16.9-24.7-16.9v-2.9h158.4c-0.3,0.3-0.7,0.6-1,1l1,1c0.5-0.4,0.9-0.8,1.4-1.2
		L442.2,730.4z"/>
	<path class="st0" d="M622.1,826.7l-10.6,54H446.2v-2.9c19,0,24.7-6,24.7-17V699.4c0-10.9-5.7-17-24.7-17v-2.9h159.5l10.6,50.9h-2.3
		c-17.8-39.1-20.7-46-36.8-46.3l-69.6-1.1c-9.5,1.1-12.6,4.3-13.5,10.9v81.3l50-1.4c9.5-0.3,17.8,0.6,17.8-20.1h2v51.2h-2
		c0-21.6-8.3-23.9-17.8-24.1l-50-1.4l-0.3,83.6c0.3,5.5,1.1,9.2,4.3,11.5l84.8-1.4c16.1-0.3,19-7.2,36.8-46.3H622.1z"/>
	<path class="st0" d="M781.2,805.1c-0.1-0.2-0.2-0.4-0.3-0.6c-0.1-0.2-0.2-0.5-0.3-0.6c-0.4-0.9-0.8-1.7-1.3-2.5
		c-0.1-0.2-0.2-0.4-0.3-0.6c-0.1-0.2-0.2-0.4-0.3-0.6c-8.5,5.1-16.4,9.6-23.6,13.6c0.1,0.2,0.2,0.4,0.3,0.6c0.1,0.2,0.3,0.4,0.4,0.6
		c0.8,1.4,1.6,2.9,2.3,4.4c0.1,0.2,0.2,0.4,0.3,0.6c0.1,0.2,0.2,0.5,0.3,0.7c2.4,5.7,3.7,11.6,3.9,17.4
		c1.2,32.5-22.1,51.2-58.1,45.4c-10.3-1.7-22-5.6-33-14.2c-0.2-0.2-0.5-0.3-0.7-0.5c-0.2-0.1-0.4-0.3-0.6-0.5
		c-15.1-12.4-28.4-34-34.2-71h-4.3l9.5,78.8l0.1,0.7l0.1,0.7l0.7,5.5h4v-15.2c3.3,1.9,6.6,3.6,9.9,5.3c0.3,0.1,0.6,0.3,0.9,0.5
		c0.3,0.2,0.6,0.3,1,0.5c21.6,10.6,42,15.8,64.7,14.8c35.6-1.7,62.4-19,63.8-56.9C786.6,821.9,784.7,813,781.2,805.1z M675.6,683.8
		c0.5-0.3,0.9-0.6,1.4-0.8h0c10-5.8,23.7-8.1,39.2-4.6c0.3,0.1,0.6,0.1,0.9,0.2c0.6,0.1,1.2,0.3,1.9,0.5h0.1c0.5,0.1,1,0.3,1.5,0.4
		h0.1c28.7,7.9,46.2,29.2,52.2,71.9h3.7l-8.5-66.5l-0.1-0.8l-0.1-0.6l-0.1-0.9l-0.4-3.3h-5.2v10c-0.1,0-0.1-0.1-0.2-0.1
		c0,0-0.1,0-0.1-0.1c-0.3-0.1-0.5-0.1-0.7-0.3c-9.9-3.5-19.5-8.2-31-11.6c-0.5-0.1-1-0.3-1.4-0.4h0c-0.5-0.1-1-0.3-1.5-0.5h0
		c-8.3-2.3-17.5-3.8-28.5-3.8c-13.7,0-27.5,2.6-38.6,8.8c-0.4,0.2-0.7,0.4-1.1,0.6h0c-0.3,0.2-0.6,0.4-1,0.6c5,1.1,10.4,1.8,16.5,2
		C674.8,684.3,675.2,684.1,675.6,683.8z"/>
	<path class="st0" d="M778.6,800c-8.5,5.1-16.4,9.6-23.6,13.6c-5.4-8.9-13.7-16.7-24.5-21.1l-48.3-20.4c-7-2.9-13.5-6.1-19.3-9.7
		c-0.2-0.1-0.4-0.3-0.6-0.4c-0.2-0.1-0.5-0.3-0.7-0.4c-2.6-1.7-5-3.5-7.3-5.3l-0.6-0.5c-0.2-0.2-0.4-0.3-0.6-0.5
		c-9.9-8.5-16-19.3-16-33.7c0-18.7,8.4-31.2,20.9-38.9c5,1.1,10.4,1.8,16.5,2c-10.2,7-15.9,18.1-14.9,30.6
		c0.5,6.6,3.5,12.3,8.1,17.4c0.2,0.2,0.3,0.4,0.5,0.5c0.2,0.2,0.4,0.4,0.5,0.5c0.4,0.5,0.9,0.9,1.4,1.3c0.2,0.2,0.3,0.3,0.5,0.5
		c0.2,0.2,0.4,0.3,0.6,0.5c7.8,6.9,18.7,12.5,30.7,17.1l40,15.8C756.7,774.9,770.4,785.6,778.6,800z"/>
	<path class="st0" d="M987.9,714l-0.5-2.6h-0.3l-0.7,0c0,0.2-0.3,5.4-0.7,14.2c0.2,0.5,0.4,1.1,0.6,1.6c0.4,0.9,0.7,1.8,1.1,2.7
		c0.3,0.6,0.5,1.2,0.7,1.9c0.6,1.4,1.1,2.8,1.7,4.3h2.3L987.9,714z M987.3,710.7l-0.1,0.1c0,0,0.1,0,0.1,0.1L987.3,710.7z
		 M903.5,860.9v-84.6c-4.1,12.2-12.1,27.5-23,44.7v39.9c0,10.9-4.6,17-29.3,17v2.9H934v-2.9C906.7,877.9,903.5,874.1,903.5,860.9z"
		/>
	<path class="st0" d="M987.4,711.4h-0.3l-0.7,0c0,0.2-0.3,5.4-0.7,14.2c-12.1-30.8-18.2-40.9-32.7-41.5l-42-1.7
		c-5.8,2.6-7.5,9.8-7.5,16.9v77c-4.1,12.2-12.1,27.5-23,44.7V699.4c0-7.2-0.8-14.4-6.3-16.9l-43.4,1.7c-16.1,0.6-21.8,12.9-36.8,52
		h-2.3l10.6-56.6h179.1l5.9,31.2l-0.1,0.1c0,0,0.1,0,0.1,0.1L987.4,711.4z"/>
	<path class="st0" d="M999.2,679.5v2.9c0.5,0,0.9,0,1.3,0h0c0.8,0,1.5,0,2.3,0c0,0,0,0,0.1,0c1,0,1.9,0,2.7,0.1c0,0,0,0,0.1,0
		c9.7,0.3,15.6,1.3,19.1,3.5h0c0.4,0.3,0.8,0.5,1.1,0.8h0c0.3,0.3,0.6,0.5,0.8,0.8c2.9,0.2,5.9,0.3,8.9,0.3c1.9,0,3.9-0.1,5.9-0.1
		c5.7-0.3,11.3-0.8,17.1-1.7h0c0.7-0.4,1.4-0.8,2.2-1.1h0c2.8-1.1,6.6-1.8,11.4-2.2c0,0,0.1,0,0.1,0c1.3-0.1,2.7-0.2,4.3-0.2
		c0,0,0,0,0.1,0c2.1-0.1,4.3-0.1,6.8-0.1v-2.9H999.2z"/>
	<path class="st0" d="M1083.2,877.9v2.9h-82.8v-2.9c24.7,0,29.3-6.1,29.3-17V699.4c0-5.3-0.5-9.1-3-11.8c2.9,0.2,5.9,0.3,8.9,0.3
		c1.9,0,3.9-0.1,5.9-0.1c5.7-0.3,11.3-0.8,17.1-1.7c-4.4,2.6-5.9,6.8-5.9,13.3v161.6C1052.7,874.1,1055.9,877.9,1083.2,877.9z"/>
	<path class="st0" d="M1290.1,682.4c-15.8,0-23.6,0-26.7,5.2l-59.2,193.2h-6.6l-77-194.3c-3.5-4-10.9-4-25.6-4v-2.9h195.2V682.4z
		 M1207.3,856.3l47.4-165.3h-0.3c3.4-9.5,1.2-10.3-44.6-10.3c-52.9,0-58.4,0.6-56.3,8l0.6,1.1c0,0.3,0,0.9,0.3,1.2L1207.3,856.3z"/>
	<path class="st0" d="M1414.8,873.9c-0.2,0.1-0.4,0.3-0.6,0.4c-0.2,0.1-0.4,0.3-0.6,0.4c-2.7,1.4-6.4,2.3-11.4,2.8
		c-0.3,0-0.5,0.1-0.7,0.1c-0.3,0.1-0.5,0.1-0.8,0.1c-2.1,0.2-4.5,0.3-7.1,0.3v2.9h23.7C1416.5,878.4,1415.7,876.2,1414.8,873.9z
		 M1333.2,783.3l4.1-10.6l0.3-0.7l0.3-0.7l15.4-40.1l0.3-0.7l0.3-0.7l3.2-8.2l0.3-0.7l0.3-0.7h-7.2l-0.3,0.7l-0.3,0.7l-3.3,8.5
		l-0.3,0.7l-0.3,0.7l-13.5,35.1l-0.3,0.7l-0.3,0.7l-6.2,16l-0.3,0.6l-0.3,0.7l-15.3,39.8l-0.3,0.7l-0.3,0.7l-15.2,39.4
		c-4.9,10.9-6.6,11.8-29.9,11.8v2.9h64.1v-2.9c-3.8,0-7.1,0-10-0.1c-0.3,0-0.6,0-0.9,0h-0.8c-4.9-0.1-8.5-0.3-11.1-0.7
		c-0.3,0-0.5-0.1-0.7-0.1c-0.3,0-0.5-0.1-0.7-0.1c-4.8-1-5.5-2.9-4.4-6.5l16.7-43.5l0.3-0.6l0.3-0.7l13.5-35.1h28.2
		c-2.4-2.4-4.9-4.8-7.4-7.2H1333.2z"/>
	<path class="st0" d="M1477.8,877.9v2.9h-60.5c-0.8-2.3-1.6-4.6-2.5-6.8c6.3-3.9,5.7-10.7,2.3-18.8h0.3l-3-7.8l-0.3-0.7l-0.3-0.7
		l-4.2-10.8l-0.3-0.7l-0.3-0.7l-11.9-30.8l-0.3-0.7l-0.3-0.8l-2-5.3l-0.3-0.7l-0.3-0.7l-1.7-4.3h-33.9c-2.4-2.4-4.9-4.8-7.4-7.2
		h38.4l-20.3-52.8l-0.3-0.7l-0.3-0.7l-2.8-7.5l-0.3-0.7l-0.3-0.7l-3.9-10.3l-3.9,10.3h-7.2l6.8-17.7c7.5-18.7,6.3-19.3-31.9-19.6
		v-3.4h90v3.4c-36.5,0.3-42.3,0.9-37.7,13.5l9.9,23.8l0.3,0.7l0.3,0.7l2.6,6.4l0.3,0.7l0.3,0.7l20.5,49.5l0.6,1.4l1.3,3l0.3,0.8
		l0.3,0.7l21.8,52.6l0.6,1.5l2.5,6.1l0.3,0.7l0.3,0.7l3.6,8.7h0.3C1449.1,868.4,1453.1,877.9,1477.8,877.9z"/>
	<path class="st0" d="M1653.1,829.6l-10.6,51.2h-152.1v-2.9c19,0,24.7-6,24.7-17V699.7l0.3-0.3h-0.3c0-10.9-5.7-17-24.7-17v-2.9
		h72.4v2.9c-18.4,0-23.3,2.6-24.4,11.5l-0.3,180.5l73-1.4c16.1-0.3,24.7-4.3,39.7-43.4H1653.1z"/>
</g>
<path class="st2" d="M536.6,77.5c-2,0-4.4,0.4-6.4,0.4c2.8,0,5.6-0.4,8.8-0.4H536.6z"/>
<path class="st0" d="M800,208.6l-6-32.1h-10.4h-8.3H655.6h-13.9H615l-10.6,56.6h2.3c14.1-36.9,20-50,34.1-51.8
	c0.8-0.1,1.7-0.2,2.6-0.2l11.1-0.5l32.3-1.3c5.5,2.6,6.3,9.8,6.3,17v161.6c0,10.9-4.6,16.9-29.3,16.9v2.9h82.8v-2.9
	c-27.3,0-30.5-3.7-30.5-16.9V196.4c0-7.2,1.7-14.4,7.5-17l41.9,1.7c2.2,0.1,4.2,0.4,6.1,0.9c2.6,0.8,4.8,2,7,3.9
	c5.1,4.3,9.5,12.1,14.8,24.5c2.7,6.3,5.6,13.8,9,22.7h2.3L800,208.6z"/>
<path class="st0" d="M546.6,176.5v2.9c20.7,0,23.6,3.7,23.6,17v132.8v5.6v0.1l-0.1-0.1l-3.2-4.3l-34.5-46.6l-6.2-8.4l-53.8-72.7
	c-4.6,8.4-9.1,16.6-13.9,24.8l53.6,72.1l10.5,14.1l18.2,24.4l5.5,7.4l24,32.2h7.2v-46.6v0v-5.3V196.4c0-11.9,2.5-16.1,18.6-16.8
	c1.9-0.1,3.9-0.1,6.1-0.1v-2.9H546.6z"/>
<g>
	<path class="st0" d="M1076.7,270.3l1.4,19.1l5.7-15.9l-0.4-22.2c2.3,1.6,4.4,3.4,6.3,5.6l17.6-49.5c-1.8,0.5-3.6,1.1-5.5,1.7
		c-1.9,0.6-3.8,1.3-5.9,2L1076.7,270.3z"/>
	<path class="st0" d="M806.9,176.5v3.7c19.8,0,30.2,0,34.8,5.7l39.9,91.2l1.4,3.1l18.4,42l1.4,3.1l22.9,52.3l10.1-31l-12.8-33.2
		l-1-2.5L902.7,261l-1.7-4.3l-26-67.6c-2.3-9.8,4.6-10.9,51.2-10.9c18.4,0.3,27.6,2,31.9,8.1l4.1,9.4l3.9,8.9l9.3,21.1l-21.1,64.5
		L953,294l-27.4,83.8h5.2l32.4-90.3l1.4-3.9l16.2-45.2l12,27.5l1.5,3.3l47.5,108.5l10-31l-34.2-89l-2.2-5.6l-24.3-63.2
		c-0.6-2.4-0.6-4.2,0.5-5.6c0,0,0,0,0-0.1c0.4-0.5,1-1,1.7-1.4c5.5-3.2,20.5-3.5,54.4-3.5c8.8,0,16.3,0,22.6,0.1
		c5,0.1,9.3,0.2,13,0.4c21.3,1,22,4,18.7,13.3l-6.2,19c2-0.7,4-1.4,5.9-2c1.9-0.6,3.7-1.2,5.5-1.7l7.5-21.1
		c4.9-6.1,14.9-6.3,35.1-6.3v-3.5H806.9z"/>
</g>
<path class="st0" d="M1547.9,374.9v2.9H1468v-2.9c19.5,0,24.4-1.4,19.3-10l-58.4-78.2h-38.8v65.5c0,13.2,3.2,22.7,30.5,22.7v2.9
	h-82.8v-2.9c24.7,0,29.3-11.8,29.3-22.7v-150c0-13.2-3.2-22.7-30.5-22.7v-2.9h82.5c2.7,2,5.7,3.9,9.3,5.8h-28.3
	c-7.8,4-10.1,12-10.1,19.8V282h50c19.3,0,42.3-14.7,42.3-50.3c0-17.1-5.2-28.5-12.8-36.1c-0.3-0.3-0.6-0.6-0.9-0.9
	c-0.3-0.3-0.7-0.6-1-0.9c-0.3-0.3-0.6-0.5-0.9-0.8c-0.4-0.3-0.8-0.7-1.2-1c-0.5-0.4-1-0.8-1.5-1.1c-6.6-4.6-14.2-7-21.3-8.1
	c-3.4-1.9-6.4-4-9-6.4h4.6c23.4,0,44.1,4.5,56.5,18.1c0.2,0.2,0.5,0.5,0.7,0.8c0.2,0.2,0.4,0.5,0.6,0.7c0.6,0.6,1.1,1.4,1.6,2.1
	c0.2,0.3,0.4,0.5,0.5,0.8c0.2,0.2,0.4,0.5,0.5,0.7c5.3,8,8.4,18.5,8.4,32.1c0,37.7-21.3,52.6-54.6,54.6l52.9,62.9
	c-5.6,3.2-11.6,6.7-18.2,10.4l0.3,0.6l0.3,0.6c6.8-3.3,13.2-6.5,19.3-9.5l15.1,18C1526.1,373.2,1530.7,374.9,1547.9,374.9z"/>
<g>
	<g>
		<path class="st3" d="M185.3,107.9c4.5,32.3,16.6,120.8,22.6,179.3l0.2,1.8l1.1-1.5c25.4-34.8,49.6-64.1,74.1-89.4
			c7.1-7.4,14.4-14.5,21.6-21.2c5.9-5.4,11.9-10.8,18-15.9l0.2-0.2l0-0.3c3.4-32.9,4.8-57,4.4-76l0-0.7L184.7,94.7l-0.1-2.5
			l-1.1-12.9L328.9,79l60.5,0.3L328.6,84l0,0.7c0.3,17.9-0.4,37.7-1.1,56.9c-0.2,4.9-0.4,9.8-0.5,14.6l-0.1,1.5l1.2-1
			c41.4-33.7,84.5-55.9,132.3-67.9c-48.7,13.4-93.3,37.6-133.2,72.4l-0.2,0.2l0,0.3c-0.2,5-0.3,9.9-0.5,14.8c0,1.2,0,2.4-0.1,3.6
			c-0.5,30.7,1,63.9,15.5,78c6.8,5,13.1,7.2,19.9,7.2c14.3,0,31.8-10.5,58.6-35.2c5.4-6,10.4-11.5,15.1-16.6
			c9.8-10.8,17.6-19.5,24.6-27.4c26.8-30.5,42.4-51.3,67.6-91.4c-9.9,18.9-18.3,35.2-25.9,50c-11.7,22.6-20.9,40.5-30.2,57.6
			c-4.8,8.9-9.4,17-13.9,24.8c-5.4,9.3-10.7,18-16.1,26.5c-2.3,3.7-4.7,7.4-7.2,11.2c-0.4,0.6-2.3,3.5-2.3,3.5
			c-27.7,42.3-47.3,70.6-66.3,77.6c-3.2,1.2-6.4,1.8-9.6,1.8c-5.4,0-10.9-1.6-16.8-5c-0.5-0.2-0.9-0.5-1.3-0.8l-0.5-0.3
			c-12.2-7.6-19.2-25.4-21.2-54.3c-1.1-15.7-0.8-34.7,1-59.8c1.1-15.9,2.7-32.6,4.1-47.2c0.1-1.3,0.3-2.5,0.4-3.8l1.1-11.4l-1.3,1.2
			c-3.9,3.5-7.5,7-10.3,9.6c-1.9,1.8-3.7,3.6-5.6,5.5c-1.7,1.7-3.4,3.4-5.1,5.1c-8.7,9.1-17.3,18.9-25.5,29
			c-49.1,61-72.9,123.2-78.3,138.5L185.3,107.9z"/>
		<path class="st0" d="M328.9,79.7l43.5,0.2l-43.2,3.4l-0.9,0.1l0-0.2l-1.5,0.1L185.4,94l-0.1-1.8l-1.1-12.1L328.9,79.7
			 M519.6,108.9c-6.7,13-12.8,24.7-18.4,35.6c-11.7,22.6-20.9,40.5-30.2,57.6c-4.8,8.9-9.4,17-13.9,24.8c-5.4,9.3-10.7,18-16.1,26.5
			c-2.4,3.8-4.8,7.5-7.2,11.2c-0.4,0.6-0.8,1.2-1.2,1.9c-0.4,0.5-0.7,1.1-1,1.6c-31,47.3-48.8,71-66,77.3c-3.1,1.2-6.2,1.7-9.3,1.7
			c-5.2,0-10.6-1.6-16.5-4.9c-0.4-0.2-0.9-0.5-1.3-0.7l-0.5-0.3c-12-7.5-18.9-25.1-20.9-53.7c-1.1-15.6-0.8-34.6,1-59.7
			c1.1-15.9,2.7-32.6,4.1-47.2c0.1-1.3,0.3-2.6,0.4-3.8l0.9-9.6l0.3-3.6l-2.7,2.4c-3,2.7-6.2,5.7-10.3,9.6c-1.5,1.5-3.6,3.5-5.5,5.5
			c-1.8,1.7-3.5,3.5-5.1,5.2c-8.8,9.1-17.4,18.9-25.6,29.1c-46.1,57.4-70,115.8-77.2,135.3l-10.6-227.3
			c5.4,39.5,15.3,113.1,20.5,164l0.4,3.7l2.2-3c25.4-34.8,49.6-64,74-89.3c7.2-7.4,14.4-14.5,21.6-21.1c5.9-5.4,11.9-10.8,18-15.9
			l0.4-0.4l0.1-0.6c1.9-18.1,3.1-33.6,3.8-47c-0.2,9.2-0.6,18.6-0.9,27.9c-0.2,4.9-0.4,9.7-0.5,14.6l-0.1,3.1l2.4-1.9
			c21.2-17.2,42.8-31.5,65.3-42.9c-23.6,12.5-46,27.9-67.1,46.3l-0.5,0.4l0,0.6c-0.2,4.4-0.3,9.3-0.5,14.8c0,1.2,0,2.4-0.1,3.6
			c-0.5,30.8,1,64.2,15.7,78.5l0.1,0.1l0.1,0.1c6.9,5,13.3,7.3,20.2,7.3c14.4,0,32.1-10.6,59.1-35.5c5.4-5.9,10.4-11.4,15.1-16.6
			c9.8-10.8,17.6-19.5,24.6-27.4C484.3,159.8,499.2,140.4,519.6,108.9 M537.4,77.9c-32.2,52.3-48.1,74.1-77.7,107.8
			c-7.2,8.2-15.3,17.1-24.6,27.4c-4.7,5.2-9.7,10.7-15.1,16.6c-26.9,24.8-44.1,35-58.1,35c-7,0-13.2-2.5-19.4-7
			c-13.3-12.9-15.8-42.7-15.3-77.5c0-1.2,0.1-2.4,0.1-3.6c0.1-4.8,0.3-9.8,0.5-14.8c49.9-43.5,116.2-78.3,202.5-83.9
			c-76.7,4-140.6,28-202.5,78.3c0.8-24,2-49.1,1.6-71.5l77.1-6l-77.5-0.4l-146.2,0.4l1.2,13.6l12.4,265.6c0,0,22.7-71.2,79.4-141.7
			c7.9-9.7,16.3-19.5,25.5-29c1.7-1.7,3.3-3.5,5.1-5.1c1.8-1.9,3.7-3.7,5.5-5.5c3.3-3.2,6.8-6.4,10.3-9.6c-0.3,3.2-0.6,6.4-0.9,9.6
			c-0.1,1.3-0.2,2.5-0.4,3.8c-1.5,15.8-3,31.8-4.1,47.3c-1.5,21.6-2.2,42.1-1,59.9c1.8,26.2,7.9,46.3,21.5,54.8
			c0.6,0.4,1.2,0.7,1.8,1.1c6,3.4,11.7,5.1,17.2,5.1c3.3,0,6.6-0.6,9.8-1.8c18.5-6.8,37.4-33.1,66.7-77.9c0.8-1.2,1.5-2.3,2.3-3.5
			c2.5-3.8,4.9-7.5,7.2-11.2l0,0c5.8-9.1,11.1-17.9,16.1-26.6l0,0c4.8-8.2,9.3-16.4,13.9-24.8C489.6,171,507.2,135.2,537.4,77.9
			L537.4,77.9z M208.7,287.2c-6.8-66.3-21.6-172.1-24.4-191.7l142.6-10.8c0.4,22-1.6,48.3-4.4,75.9c-6,5.1-12,10.4-18,16
			c-7.2,6.7-14.4,13.8-21.6,21.2C258.4,223,233.8,252.6,208.7,287.2L208.7,287.2z"/>
	</g>
	<g>
		<path class="st3" d="M776.3,360.2c-22.8-37.3-32.9-72-32.9-112.6v-0.9l-0.8,0.2c-6.3,1.3-15.1,4.4-26.7,9.6
			c-6.7,3-14.5,6.7-23,11.1c-17.2,8.7-38.4,20.1-70.7,38.1l-0.3,0.1l-9,35.5l6.2-34l-1.3,0.7c-2.3,1.3-4.7,2.6-7.1,4
			c-4.2,2.3-8.5,4.7-12.9,7.3c-7.2,4-13.7,7.5-19.7,10.7v-3.7c11.4-5.4,24.9-12.6,41.2-22.1l0.3-0.2l21.9-122
			c0.7-0.1,1.3-0.1,2.1-0.2l10.2-0.4L623,302.2l1.5-0.9c15.4-9.1,31.5-19.1,47-28.7c7.5-4.6,14.9-9.2,22.1-13.7
			c7.9-4.9,15.7-9.5,23-13.8c12.8-7.5,23.1-13.2,31.7-17.3l0.3-0.1l0.1-0.3c5.3-14.3,13-28.9,23.4-44.6c2.1,0.7,4,1.7,5.8,3.2
			c-5.8,11.4-10.5,22.9-14.1,34.1l-0.4,1.4l13.3-4.9c6.4-2.3,11.9-4.2,17-5.6c2.3-0.7,4.5-1.3,6.7-1.8c8.5-2.1,16-3.2,22.2-3.2
			c11.3,0,18.7,3.5,22.1,10.5C860.6,249.7,784.1,350.2,776.3,360.2z M758,247.9c-5.7,32.7-2.3,61.5,11.2,96.2l2.6,7.9l0.7-1.9
			c13.6-37.7,26.5-73.4,14.6-90.9c-5.1-7.6-14.5-11.5-28.5-11.9l-0.6,0L758,247.9z M513.9,353c-6.4,0-10.8-1.9-13.1-5.7
			c-4.6-7.7-0.8-23.3,11.3-46.4l9.6,12.9c-0.4,2.4-0.6,4.7-0.6,7.2c-0.1,6.1,1.3,10.7,4.2,13.7c2.7,2.8,6.8,4.2,12.2,4.2
			c0.9,0,1.8,0,2.8-0.1l4.7,6.4C531.9,350.4,521.5,353,513.9,353C513.9,353,513.9,353,513.9,353z M568,330.8c0,0,1-0.4,1.5-0.6v2.6
			L568,330.8z M526.9,275.4c11.5-18.2,26.2-39.2,43.8-62.3c2.4-3.2,4.8-6.3,7.2-9.5c5.8-7.6,11.9-15.3,18.6-23.7c0.8-1,1.6-2,2.4-3
			c30.2-37.5,61.1-73,79.4-92.6L655,175.8h-12.5l8.3-46.3l-1.6,1.8c-30.4,33.2-54.1,60.6-72.4,83.8c-2.5,3.2-4.9,6.3-7.2,9.3
			c-17.1,22.5-29.4,41.5-37.4,58.1L526.9,275.4z M776.7,175.8c11.9-17.1,26.5-35.2,46.1-56.9c-16.3,19.8-29.4,38.6-39.6,56.9H776.7z
			"/>
		<path class="st0" d="M676.9,86.9l-22.4,88.3h-11.2l7.7-43l0.9-4.8l-3.3,3.6c-30.5,33.2-54.1,60.6-72.4,83.8
			c-2.3,3-4.8,6.2-7.2,9.3c-16.8,22.1-28.9,40.8-36.9,57.2l-4.3-5.8c11.4-18.1,26-38.9,43.5-61.9c2.4-3.1,4.8-6.3,7.2-9.4
			c5.8-7.6,11.9-15.3,18.5-23.6c0.8-1,1.7-2,2.4-3C628.6,141.1,658.5,106.8,676.9,86.9 M807.5,137.4c-9.6,12.9-17.8,25.4-24.7,37.7
			H778C786.3,163.3,795.8,151,807.5,137.4 M652.7,182.2l-30,118.3l-0.8,3.3l2.9-1.7c15.4-9.1,31.5-19.1,47-28.7
			c7.5-4.6,14.9-9.2,22.1-13.7c7.9-4.9,15.6-9.5,23-13.8c12.7-7.5,23.1-13.1,31.7-17.3l0.5-0.2l0.2-0.5c5.3-14.1,12.8-28.5,23-44
			c1.7,0.6,3.2,1.4,4.6,2.6c-5.7,11.3-10.4,22.6-13.9,33.7l-0.9,2.7l2.7-1l12-4.4c6.3-2.3,11.9-4.1,17-5.6c2.2-0.6,4.3-1.2,6.6-1.8
			c8.5-2.1,15.9-3.1,22-3.1c11,0,18.2,3.4,21.5,10.1c15.5,31.9-57,128.4-67.5,142c-1.3-2.2-2.7-4.4-3.9-6.7l0.7-2
			c13.7-37.9,26.6-73.7,14.6-91.5c-5.3-7.8-14.8-11.8-29-12.2l-1.2,0l-0.2,1.2c-5.7,32.8-2.3,61.7,11.3,96.5l0.7,2.1
			c-17.3-32.2-25.1-63.3-25.1-98.9v-1.7l-1.7,0.3c-6.4,1.3-15.2,4.5-26.9,9.7c-6.7,3-14.5,6.8-23.1,11.1
			c-17.3,8.7-38.4,20.1-70.7,38.1l-0.5,0.3l-0.1,0.6l-3.9,15.3l2.2-12.3l0.5-3l-2.6,1.5c-2.3,1.3-4.7,2.6-7.1,4
			c-4.2,2.3-8.5,4.7-12.9,7.2c-6.8,3.8-13,7.2-18.7,10.1v-2.1c11.4-5.4,24.8-12.6,40.9-22l0.6-0.3l0.1-0.6L642,182.6
			c0.5,0,1-0.1,1.5-0.1L652.7,182.2 M512.2,302.3l8.8,11.8c-0.3,2.3-0.5,4.6-0.6,7c-0.1,6.3,1.3,11.1,4.4,14.2
			c2.9,2.9,7.2,4.4,12.7,4.4c0.8,0,1.6,0,2.5-0.1l4,5.3c-12.6,4.9-22.7,7.4-30,7.4c-6.3,0-10.3-1.7-12.5-5.3
			C497,339.6,500.6,324.6,512.2,302.3 M856.9,81.9c-32.5,33.3-60.9,64.5-81.6,94.6h8.3C799.9,147.4,823.8,116.3,856.9,81.9
			L856.9,81.9z M679.6,81.9c-16.9,18-48.8,54.3-81.3,94.6c-0.8,1-1.6,2-2.4,3c-6.2,7.8-12.4,15.7-18.6,23.7
			c-2.4,3.2-4.8,6.3-7.2,9.5c-16.4,21.6-31.8,43.2-44.1,62.8l6.2,8.4c8.3-17.4,21.2-37.2,37.8-59c2.3-3.1,4.7-6.2,7.2-9.3
			c20-25.4,44.5-53.4,72.3-83.7l-8,44.7h13.9L679.6,81.9L679.6,81.9z M654.5,180.7l-11.1,0.5c-0.9,0-1.8,0.1-2.6,0.2l-21.9,122.2
			c-14.7,8.6-28.9,16.3-41.5,22.3v5.3c6.4-3.3,13.4-7.1,20.8-11.2c6.8-4,13.6-7.6,20-11.2l-9.6,52.7l14-55.1
			c27.6-15.4,51.3-28.3,70.7-38.1c8.5-4.3,16.2-8,23-11.1c11.1-5,20-8.3,26.6-9.6c0,33.9,6.8,70.3,33.6,113.8
			c0,0,122.4-156,46.2-156c-6.1,0-13.5,1-22.4,3.2c-2.1,0.5-4.4,1.1-6.7,1.8c-5.2,1.5-10.9,3.4-17.1,5.6l-12,4.4
			c3.6-11.3,8.3-22.7,14.3-34.5c-2.1-1.9-4.4-3.1-7-3.9c-10.1,15.3-18.2,30.3-23.7,45.2c-9.3,4.5-20.1,10.4-31.8,17.3
			c-7.3,4.3-15.1,9-23,13.8c-22.2,13.6-46.2,28.9-69.1,42.3L654.5,180.7L654.5,180.7z M771.9,349.9l-2-6
			c-12.8-32.8-17.2-61.5-11.2-95.8C807.4,249.6,792.2,293.6,771.9,349.9L771.9,349.9z M512,299.6c-16.9,31.9-20.5,54,1.9,54
			c7.6,0,18.2-2.5,32.3-8.1l-5.5-7.4c-1.1,0.1-2.1,0.1-3.1,0.1c-10.1,0-16-5-15.7-17.1c0.1-2.4,0.3-4.9,0.6-7.4L512,299.6L512,299.6
			z M570.1,329.2c-1.1,0.5-2.2,0.9-3.3,1.4C567.9,330.1,569,329.6,570.1,329.2v5.6V329.2L570.1,329.2z M570.1,329.2
			c-1.1,0.5-2.2,0.9-3.3,1.4l3.2,4.3c0,0,0.1,0,0.1,0V329.2L570.1,329.2z M566.9,330.5l3.2,4.3c0,0,0.1,0,0.1,0c0,0-0.1,0-0.1,0
			L566.9,330.5L566.9,330.5z"/>
	</g>
	<g>
		<path class="st3" d="M1201.5,363.2c-6.9,0-13-0.7-18.4-2c-11.9-3-20.1-9.2-24.2-18.6c-7.7-17.4-1.7-45.4,17.5-81.1
			c2.3-4.4,4.8-8.8,7.5-13.3c6.8-11.3,14.4-22.3,23.2-33.6c4.2-5.3,8.6-10.7,13.5-16.4l0.4-0.5l-0.4-0.5c-3.6-4.3-7.4-8.4-11.3-12.1
			c0,0,0,0,0,0c1.9-2.4,5.2-3.8,10.8-4.5l5.8,0.1c1.5,1.7,2.9,3.4,4.3,5.4l0.5,0.7l0.6-0.6c1.6-1.7,3.2-3.5,4.8-5.2l14.3,0.2
			c-4.2,5.6-8.2,11.1-11.9,16.5l-0.3,0.4l0.2,0.4c12,20.1,18.9,43.7,21,72.3c0.2,2.5,0.3,4.9,0.4,7.3c0.8,19.5-0.6,38.1-2,52.2
			l-0.1,0.8l0.8,0c29-0.5,66.6-9.9,108.6-27.2c7.2-2.9,14.9-6.3,23-10c4.6-2.1,9.2-4.3,13.9-6.6c1.5-0.7,3.1-1.5,4.6-2.3l-1.8,1
			c-5.9,3.2-11.7,6.4-17.3,9.4c-7.7,4.1-15.4,8.2-23,12c-12.1,6.1-22.8,11.3-32.8,16l-1.2,0.6c-0.6,0.3-1.2,0.6-1.8,0.8
			c-27.6,12.6-52.3,22.2-73.7,28.5l-1.6,0.5c-18.9,5.5-35.4,8.7-49.2,9.3C1204.8,363.2,1203.1,363.2,1201.5,363.2z M1229.8,211.7
			c-11.8,19.5-19.6,36.8-24,53.2c-0.8,2.9-1.5,5.7-2,8.6c-3.9,14.6-3.3,26.8,2,36.3c7.8,13.9,25.4,21.3,51,21.3h0.7v-0.7
			c0-20.8-1.1-37.6-3.3-52.8c-0.3-2.3-0.7-4.5-1.1-6.7c-4.1-23-11.4-42.3-22.1-59.1l-0.6-1L1229.8,211.7z M1241,175.8
			c6.6-6.9,13-13.2,19.4-19.1l1.4-1.3l-60.6,3.4l1.6,1.2c6.9,4.9,13.2,10.3,18.5,15.9h-23c-14.8-11.6-32.8-21.4-53.6-29.3h125.8
			l0.2-0.2c19.4-18.3,39.4-36.6,60.7-55.4c-18.6,18.2-35.9,36.5-51.8,54.5l-1,1.2h140.7l-147.9,8.2l-0.2,0.2
			c-6.3,7.5-11.8,14.4-16.8,20.9H1241z"/>
		<path class="st0" d="M1313.9,107.5c-12.2,12.5-23.8,25-34.7,37.4l-2,2.3h3.1h113.8l-122.3,6.8l-0.6,0l-0.4,0.5
			c-6.2,7.5-11.7,14.2-16.6,20.6h-11.5c6.2-6.4,12.2-12.3,18.2-17.9l2.9-2.7l-3.9,0.2l-56.7,3.2l-4,0.2l3.3,2.3
			c6.4,4.6,12.2,9.5,17.3,14.6h-21.1c-13.9-10.9-30.7-20.3-50-27.9h121.7h0.6l0.4-0.4C1285.1,133.8,1299.2,120.7,1313.9,107.5
			 M1220.1,181.4l5.2,0.1l0.3,0c1.4,1.6,2.7,3.2,4.1,5.1l1,1.4l1.1-1.3c1.5-1.6,3-3.3,4.6-5l0.3,0l12.3,0.2
			c-3.9,5.2-7.6,10.4-11.1,15.4l-0.5,0.7l0.5,0.8c12,20,18.8,43.5,20.9,72c0.2,2.2,0.3,4.6,0.4,7.3c0.7,15.9-0.1,31.1-1.2,43.8
			c-0.3-17.1-1.3-31.4-3.3-44.5c-0.3-2.3-0.7-4.5-1.1-6.7c-4.2-23-11.4-42.5-22.2-59.3l-1.2-1.9l-1.2,1.9
			c-11.8,19.5-19.7,37-24.1,53.3c-0.8,2.9-1.5,5.8-2,8.5c-4,14.9-3.3,27.3,2,36.9c7.9,14.2,25.7,21.6,51.6,21.6h0.4l0,0l1.6,0
			c29.1-0.5,66.8-9.9,108.9-27.2c5.8-2.4,12-5,18.4-7.9c-6.5,3.5-13.1,6.9-19.5,10.2c-12.1,6.1-22.8,11.3-32.7,16l-1.2,0.6
			c-0.6,0.3-1.2,0.6-1.8,0.8c-28,12.8-53.1,22.5-74.7,28.8c-19.1,5.6-35.7,8.8-49.5,9.4c-1.7,0.1-3.4,0.1-5,0.1
			c-6.8,0-12.9-0.7-18.2-2c-11.7-2.9-19.7-9-23.8-18.2c-7.6-17.2-1.6-45,17.5-80.5c2.3-4.3,4.8-8.8,7.4-13.3
			c6.7-11.3,14.3-22.2,23.2-33.5c4.2-5.3,8.6-10.7,13.5-16.4l0.8-0.9l-0.8-0.9c-3.4-4.1-7.1-8.1-10.9-11.7
			C1212,183.2,1215.1,182,1220.1,181.4 M1355.4,69.1c-34.8,30-62.3,55.1-85.1,76.7h-129.4c23.3,8.4,42.1,18.9,57.2,30.7h24.9
			c-5.7-6.1-12.3-11.8-19.8-17.1l56.7-3.2c-7.5,7-14.4,13.8-20.5,20.4h15.5c5.4-7,11.1-14.1,17-21.1l173-9.6h-164.6
			C1303.1,119.8,1328.7,93.9,1355.4,69.1L1355.4,69.1z M1220,180c-5.8,0.7-9.3,2.2-11.3,4.7c-0.1,0.2-0.3,0.4-0.4,0.6
			c4.3,4,8.2,8.2,11.7,12.4c-4.9,5.7-9.4,11.1-13.6,16.5c-9,11.5-16.6,22.5-23.3,33.7c-2.6,4.4-5.1,8.8-7.5,13.3
			c-29.4,54.6-28.4,91.9,7.2,100.7c5.4,1.3,11.6,2,18.6,2c1.6,0,3.3,0,5.1-0.1c13.8-0.6,30.3-3.7,49.9-9.5
			c21.5-6.2,46.4-15.8,74.9-28.9c1-0.5,2-0.9,3-1.4c10.4-4.8,21.4-10.2,32.8-16c7.5-3.8,15.1-7.8,23-12c5.7-3,11.4-6.2,17.3-9.4
			c2.7-1.5,5.5-3,8.2-4.6c12.7-7.1,25.9-14.7,39.6-22.8c-14.4,8.4-28.5,16-42,22.8c-3.1,1.6-6.2,3.1-9.2,4.6
			c-4.7,2.3-9.3,4.5-13.9,6.6c-7.9,3.6-15.5,7-23,10c-43.4,17.8-80.3,26.6-108.3,27.1c1.5-15.4,2.8-33.4,2-52.3
			c-0.1-2.4-0.3-4.9-0.5-7.3c-1.8-24.4-7.5-49.9-21.1-72.6c4-5.8,8.2-11.7,12.7-17.6l-0.9,0l-14.2-0.2l-1,0
			c-1.7,1.9-3.4,3.7-5.1,5.5c-1.4-1.9-3-3.8-4.6-5.6l-0.9,0L1220,180L1220,180z M1256.8,330.3c-25.3,0-42.7-7.1-50.4-20.9
			c-5.1-9.1-5.9-21.1-1.9-35.8c0.6-2.8,1.2-5.7,2-8.5c4.6-17.3,12.9-34.8,23.9-53c11.5,18.1,18.2,38.1,22,58.8
			c0.4,2.2,0.8,4.4,1.1,6.7C1256,295,1256.8,312.7,1256.8,330.3L1256.8,330.3z M1256.4,354.3c-0.4,2.4-0.4,4.8-0.4,7.2
			C1256,359.5,1256.4,357.1,1256.4,354.3L1256.4,354.3z"/>
	</g>
	<g>
		<path class="st3" d="M1506.5,350.3c33.3-19.3,51.6-31.7,78-53l3.3-2.7l-0.1-0.4c-0.9-3.5-1.9-7-3-10.5
			c-9.2-30.7-24-59.5-43.9-85.6l-0.2-0.3l-0.4,0c-9.1,0.6-17.2,1-24.9,1c-5.8,0-11.4-0.2-16.7-0.5c-0.1-0.2-0.3-0.4-0.4-0.6
			c-0.3-0.5-0.7-1-1.1-1.5c0.7,0,1.4,0,2.1,0c10.7,0,22.8-0.7,37.2-2.1l1.3-0.1l-0.8-1c-30-37.6-66.4-64.3-91.6-80l-0.4-0.3
			l-0.4,0.3c-14.8,13.1-22.7,26.9-22.9,39.9c-0.1,9,3.6,17.4,10.8,24.2c2.5,2.4,5.3,4.4,8.4,6.2c6.7,4.1,15,7.2,24.6,9.4
			c0.3,0.2,0.6,0.5,0.9,0.8c-14.8-3.3-26.9-7.2-36-11.8c-3.7-1.8-6.8-3.7-9.6-5.7c-8.2-6-12.4-12.9-12.5-20.5
			c-0.2-12.8,10.7-27.8,32.3-44.7l0.8-0.6l-0.9-0.5c-24.6-15.1-45-23.8-52.9-27l289.2,1.1l-202.1,9.1l-0.1,0.1
			c-0.7,0.4-1.5,0.8-2.7,1.2c-1.3,0.7-2.4,1.4-3.5,2c-2.7,1.6-5.3,3.1-7.9,4.8l-0.9,0.6l0.8,0.6c42.8,29.9,73.5,59.3,94.1,89.7
			l0.2,0.4l0.4-0.1c9-1.1,18.2-2.3,27.4-3.5c0.4,1.4,0.7,2.9,0.8,5c0,0,0,0,0,0c-3.4,0.4-6.9,0.7-10.4,1.1c-4.7,0.5-9.4,1-14.3,1.5
			l-1.1,0.1l0.6,1c11.3,17.6,19.6,35.6,25.3,55.1c3.5,11.9,6.1,24.4,7.7,38.1l0.2,1.3l1-0.8c4.6-3.7,9.2-7.5,15.2-12.5l5-4.1
			c4.4-3.7,9.1-7.5,14.2-11.7c21.5-21,30.8-34.7,30.8-45.8c0-5.9-2.5-11.2-8-16.7c-7.4-5.9-18.3-8.6-34.1-8.6
			c-2.3,0-4.7,0.1-7.1,0.2c0.5-2.6,1.5-4.7,3-6.3c0.2-0.2,0.4-0.4,0.7-0.6c4.2-0.5,8.3-1,12.4-1.5l0.7-0.1
			c22.7-2.7,38.9-3.9,52.6-3.9l1.1,0c25.6,0.1,42,4.8,50.1,14.3c10.3,12.2,8.8,22.6-5.2,35.8c-6,5.7-14.6,12.1-26.9,20.2
			c-9.2,6-19.8,12.6-32.9,20.5c-6.4,4-12.7,7.8-19.3,11.6c-2.7,1.6-5.3,3.1-8,4.6c-9.1,5.1-18.5,10.2-29.7,15.9
			c-4.3,2.2-8.7,4.4-13.2,6.6l-0.4,0.2l0,0.5c0.5,7.6,0.8,15.3,0.9,22.7c-0.7-7.5-1.8-14.6-3.2-21.3l-0.2-0.9l-7,3.4
			c-7.3,3.5-15,7.2-23.3,11.2C1545,331.7,1527.5,340.1,1506.5,350.3z M1456.9,99.5l0.4-0.2c2.5-1.5,4.7-2.9,6.9-4.3l3-2l-2.7,0.2
			c-4.7,0.4-9.5,0.8-13.5,0.8h-2.3L1456.9,99.5z"/>
		<path class="st0" d="M1391.2,83.3l256.7,0.9l-173.1,7.8l-0.3,0l-0.3,0.2c-0.7,0.4-1.4,0.7-2.6,1.1l-0.2,0l-0.1,0.1
			c-1.1,0.7-2.2,1.3-3.3,2c-2.7,1.6-5.3,3.1-7.9,4.9l-1.7,1.1l1.7,1.2c42.7,29.9,73.4,59.2,93.9,89.5l0.5,0.7l0.9-0.1
			c9.6-1.1,19.2-2.4,26.8-3.4c0.3,1,0.4,2.2,0.5,3.6c-3.2,0.3-6.5,0.7-9.8,1.1c-4.6,0.5-9.4,1-14.2,1.5l-2.3,0.2l1.2,1.9
			c11.3,17.5,19.5,35.5,25.2,54.9c3.5,11.9,6,24.3,7.7,38l0.3,2.5l2-1.6c5-4,10.3-8.4,15.2-12.5l4.7-3.9c4.5-3.7,9.2-7.7,14.5-12
			c21.6-21.1,30.9-35,31-46.3c0-6.1-2.6-11.6-8.2-17.2l-0.1-0.1l-0.1-0.1c-7.5-5.9-18.5-8.7-34.5-8.7c-2,0-4.1,0-6.3,0.1
			c0.5-2.1,1.4-3.7,2.6-5c0.2-0.2,0.3-0.3,0.5-0.5c4-0.5,8.1-1,12.1-1.5l0.8-0.1c22.7-2.7,38.8-3.9,52.5-3.9l1.2,0
			c25.3,0.1,41.5,4.7,49.4,14c10,11.9,8.6,21.9-5.1,34.8c-6,5.6-14.5,12-26.8,20.1c-9.2,6-19.8,12.6-32.8,20.5
			c-6.4,4-12.7,7.8-19.3,11.6c-2.7,1.6-5.3,3.1-8,4.6c-9.1,5.1-18.5,10.2-29.7,15.9c-4.3,2.2-8.6,4.3-13.1,6.5l-0.1,0.1l-0.8,0.4
			l0.1,0.9c0.2,2.8,0.4,5.5,0.5,8.3c-0.4-2.4-0.8-4.8-1.3-7.1l-0.4-1.8l-1.6,0.8l-3,1.4l-3.2,1.5c-7.3,3.5-15,7.2-23.2,11.1
			c-11.5,5.5-24.2,11.6-38.5,18.5c24.5-14.7,41-26.4,63.2-44.2c0.5-0.4,1-0.8,1.5-1.2c0.5-0.4,1-0.8,1.5-1.2l0.7-0.6l-0.2-0.9
			c-0.9-3.5-1.9-7.1-3-10.5c-9.3-30.8-24.1-59.7-44-85.8l-0.5-0.6l-0.8,0.1c-9.1,0.6-17.2,1-24.9,1c-5.6,0-11.1-0.2-16.4-0.5
			c-0.1-0.1-0.1-0.2-0.2-0.3c-0.1-0.1-0.2-0.3-0.3-0.4c0.2,0,0.5,0,0.7,0c10.7,0,22.9-0.7,37.3-2.1l2.6-0.3l-1.6-2
			c-30-37.7-66.5-64.4-91.8-80.2l-0.9-0.6l-0.8,0.7c-15,13.2-23,27.2-23.2,40.5c-0.1,9.2,3.7,17.8,11.1,24.7
			c2.6,2.4,5.4,4.5,8.5,6.3c2.5,1.5,5.2,2.9,8.2,4.2c-6.9-2.1-12.9-4.5-17.9-7c-3.6-1.8-6.7-3.6-9.5-5.6c-8-5.8-12.1-12.5-12.2-19.9
			c-0.2-12.5,10.6-27.4,32.1-44.1l1.6-1.2l-1.7-1.1C1419.1,95.7,1400.7,87.3,1391.2,83.3 M1456.8,100.3l0.8-0.4
			c2.5-1.5,4.8-2.9,6.9-4.4l0.7-0.5l4.6-3l-5.5,0.5c-4.7,0.4-9.5,0.8-13.5,0.8h-4.6l3.9,2.6l6,4L1456.8,100.3 M1383.8,81.9
			c0,0,24.4,8.8,56.3,28.3c-25.3,19.7-47.5,46.1-19.8,66.3c2.7,2,5.9,3.9,9.7,5.8c9.4,4.7,22.1,8.9,38.8,12.4
			c-0.3-0.3-0.7-0.6-1-0.9c-0.3-0.3-0.6-0.5-0.9-0.8c-0.4-0.3-0.8-0.7-1.2-1c-9.9-2.2-18-5.4-24.5-9.4c-3.2-1.9-5.9-3.9-8.2-6.1
			c-17.3-16.2-13.6-40.4,12.1-63.1c28.8,18,63.1,44.3,91.5,79.9c-13.1,1.3-25.6,2.1-37.1,2.1c-1.2,0-2.5,0-3.7,0
			c0.2,0.2,0.4,0.5,0.6,0.7c0.6,0.6,1.1,1.4,1.6,2.1c0.2,0.3,0.4,0.5,0.5,0.8c5.7,0.4,11.5,0.6,17.1,0.6c8.4,0,16.7-0.4,25-1
			c18.4,24.2,33.9,52.7,43.8,85.4c1.1,3.4,2.1,6.9,3,10.5c-1,0.8-2,1.6-3,2.4c-25.3,20.3-43.6,33-78.2,53.1
			c-5.6,3.3-11.7,6.8-18.3,10.5c6.7-3.3,13.1-6.4,19.2-9.4c32.1-15.7,56.3-27.1,77.3-37.2c2.1-1,4.1-2,6.2-3
			c3.2,15.6,4.4,32,4.4,49.1v1.6c0.4-18.4,0.4-35.6-0.8-52.3c4.5-2.2,8.9-4.4,13.2-6.6c10.1-5.2,19.8-10.3,29.7-15.9
			c2.6-1.5,5.3-3,8-4.6c6.2-3.6,12.6-7.5,19.3-11.6c12.6-7.6,23.5-14.4,32.9-20.5c11.5-7.5,20.5-14.2,27-20.2
			c14-13.1,16.1-23.9,5.2-36.7c-9.1-10.7-27.3-14.4-50.5-14.5h-0.1c-0.4,0-0.8,0-1.2,0c-15.7,0-33.7,1.7-52.6,3.9
			c-4.4,0.5-8.8,1.1-13.3,1.7h0c-0.3,0.3-0.6,0.5-0.9,0.8c-1.7,1.8-2.8,4.1-3.3,6.8c0,0.2-0.1,0.5-0.1,0.7c2.7-0.1,5.4-0.2,8-0.2
			c14.1,0,25.6,2.1,33.6,8.4c14,14,10.8,28.8-22.8,61.5c-7,5.8-13.3,11-19.1,15.8c-5.4,4.5-10.4,8.7-15.2,12.5
			c-1.6-13.1-4.1-25.8-7.8-38.2c-5.5-18.8-13.6-37-25.4-55.3c8.8-0.9,17.3-1.9,25.4-2.7c0-0.2,0-0.5,0-0.7c-0.1-1.9-0.3-3.6-0.8-5.1
			c-0.1-0.2-0.1-0.5-0.2-0.6c-9.4,1.2-18.7,2.4-28,3.5c-20-29.6-50.3-59.1-94.2-89.9c3.6-2.4,7.2-4.4,11.2-6.8
			c1.2-0.4,2-0.8,2.8-1.2l230.9-10.4L1383.8,81.9L1383.8,81.9z M1456.9,98.7l-6-4c4,0,8.8-0.4,13.6-0.8
			C1462.1,95.5,1459.7,97.1,1456.9,98.7L1456.9,98.7z"/>
	</g>
	<g>
		<path class="st3" d="M452.4,660.1c45.9-46.1,90.6-98.7,120.2-142c22.7-33,35.3-58.8,36.5-74.4c0.1-0.7,0.1-1.3,0.1-2
			c0.1-6.3-1.3-11.1-4.2-14c-2.5-2.5-6.1-3.8-10.7-3.8c-10.3,0-26.2,6.2-48.5,19.1c-0.1-0.1-0.2-0.2-0.2-0.2
			c-0.7-0.6-1.3-1.2-2.1-1.8c37.9-25.4,64.6-38.2,79.3-38.2c4.7,0,8.1,1.4,10.1,4.1c3.1,4.3,3,12-0.5,22.8c-1.7,5.2-4.1,11.2-7.4,18
			c-4.2,8.8-9.9,18.9-16.9,30.1c-10.2,16.2-22.7,33.9-37.1,52.7C536.3,575.6,494,621.7,452.4,660.1z M335.8,556.7
			c-9.7,0-16.2-3.2-19.4-9.4c-15-29.1,42.3-116.8,58-139.8c-17.5,42.7-20.7,75.9-8.9,93.8c6.5,9.9,17.5,15,32.7,15
			c3.2,0,6.7-0.2,10.3-0.7c3.2-0.5,7.2-1.5,11.9-3.1c6.5-2.3,14.3-5.7,23.1-10.1c21.6-10.8,49.5-27.5,82.9-49.7c0.4,0.5,0.7,1,1,1.5
			c0,0,0,0,0,0c-17.6,11.1-36.4,23.9-54.6,36.3c-10.5,7.2-20.4,13.9-30,20.3c-8.2,5.5-16,10.4-23,14.8c-6.4,3.9-11.8,7-16.5,9.5
			l-14.7,6.8l-11.1,4.4C360.1,553.2,346.1,556.7,335.8,556.7C335.8,556.7,335.8,556.7,335.8,556.7z"/>
		<path class="st0" d="M622.8,403.6c4.5,0,7.7,1.3,9.6,3.8c3,4.1,2.8,11.6-0.6,22.2c-1.6,5.2-4.1,11.2-7.3,17.9
			c-4.2,8.7-9.9,18.8-16.9,30c-10.2,16.2-22.6,33.9-37.1,52.6c-27.5,35.6-59.6,71.9-92.5,104.5c36.8-39.2,71-80.8,95.2-116.1
			c22.7-33.1,35.4-59,36.6-74.7c0.1-0.7,0.1-1.4,0.1-2c0.1-6.5-1.3-11.4-4.4-14.5c-2.6-2.7-6.4-4-11.2-4c-10.4,0-26.2,6.2-48.4,18.9
			c-0.4-0.4-0.8-0.7-1.2-1.1C582,416.2,608.3,403.6,622.8,403.6 M371.3,413.3c-15.4,40-17.7,71.1-6.4,88.4
			c6.7,10.1,17.9,15.3,33.2,15.3c3.3,0,6.8-0.2,10.4-0.7c3.3-0.5,7.3-1.5,12-3.2c6.6-2.3,14.4-5.7,23.2-10.1
			c21.5-10.7,49.2-27.3,82.4-49.4c0.1,0.1,0.1,0.2,0.2,0.3c-17.4,11-36,23.7-54.1,36c-10.5,7.2-20.4,13.9-30,20.3
			c-8.2,5.5-16,10.4-23,14.7c-6.4,3.9-11.8,7-16.4,9.4l-14.7,6.8l-11.2,4.4c-17.2,7-31.1,10.5-41.3,10.5c-9.5,0-15.7-3-18.8-9
			C303.1,520.1,352,442.2,371.3,413.3 M377.6,401.4c0,0-110.8,156-41.8,156c9.9,0,23.6-3.2,41.8-10.6l11.2-4.4l14.8-6.8
			c5.1-2.7,10.6-5.9,16.5-9.5c7.2-4.4,14.9-9.4,23-14.8c26.8-17.8,57.5-39.7,85.2-57c-0.1-0.2-0.2-0.4-0.4-0.6c-0.3-0.5-0.6-1-1-1.5
			c-0.1-0.2-0.3-0.4-0.4-0.6c-33.8,22.5-62,39.4-83.4,50c-8.9,4.5-16.6,7.8-23,10.1c-4.6,1.6-8.5,2.6-11.7,3.1
			c-3.6,0.5-7,0.7-10.2,0.7C349.1,515.5,351.4,462.2,377.6,401.4L377.6,401.4z M622.8,402.2c-14,0-39.8,11.6-80.5,38.9
			c0.2,0.1,0.4,0.3,0.6,0.5c0.8,0.6,1.5,1.2,2.2,1.9c0.2,0.2,0.4,0.4,0.6,0.6c20-11.5,37.3-19.3,48.6-19.3c9.2,0,14.4,5,14.2,17.1
			c0,0.6-0.1,1.3-0.1,1.9c-1.3,16.4-15.1,43-36.4,74c-34.3,50.1-88.1,111.9-140.5,161.8c-0.5,0.5-1,1-1.5,1.5
			c0.5-0.5,1.1-0.9,1.6-1.4c51.3-44.3,102-99.3,140-148.6c14.4-18.7,27-36.6,37.2-52.8c6.8-11,12.6-21.1,17-30.2
			c3.2-6.6,5.7-12.7,7.4-18.1C638.7,412.6,636.1,402.2,622.8,402.2L622.8,402.2z"/>
	</g>
	<g>
		<path class="st3" d="M678.4,683.2c-0.9,0-1.9,0-2.8,0c-5.9-0.1-11.5-0.7-16.5-1.8c-12.4-2.6-21.2-8.1-26.2-16.2
			c-5.7-9.2-6.5-21.7-2.4-37.2c0.8-3,1.8-6.2,3-9.8C646,583.7,678.9,538,728.8,486c0.9,3.1,1.7,6.3,2.4,9.7l0.1,0.6
			c-41.5,56.3-57.3,102.6-44.3,130.6c0.8,1.9,1.9,3.8,3.2,5.7c9.5,14.1,28.1,21.5,53.8,21.5c18.1,0,39.7-3.6,64.1-10.7l0.2-0.1
			l0.1-0.1c3.7-4,7.5-8.3,11.7-13c0.1,0,0.2,0.1,0.3,0.1c1.3,0.5,2.6,0.9,3.9,1.4c-2,1.9-4,3.8-6,5.8l-4.8,4.6l2.9-0.9
			c6.2-2,12.4-4.1,18.5-6.4c0.3,0.1,0.5,0.1,0.8,0.2c1.3,0.3,2.5,0.6,3.6,0.8c-12,5.5-24.1,10.6-35.8,15.3
			c-8.2,7.7-15.6,14.5-22.7,20.9c5.2-5.1,10.5-10.6,16.3-16.5l2.3-2.3l-3,1.2c-24.9,9.8-47.7,17.3-67.9,22.2
			c-3.6,0.9-6.8,1.6-9.7,2.2C703.6,681.6,690,683.2,678.4,683.2z M848.2,630.8c-0.7-0.1-1.5-0.3-2.2-0.4
			c11.8-4.6,23.9-9.8,36.4-15.6c-11.4,5.8-22.5,11.2-33.2,16.2C848.9,631,848.5,630.9,848.2,630.8z M830.6,625.2
			c-1.5-0.7-2.9-1.4-4.4-2.2c24.3-28.5,43-55.1,55.6-79.2c4.4-8.3,8-16.4,10.9-24c10.4-27.8,10.4-50.4,0-65.4
			c-9.6-13.9-28.2-21.2-53.6-21.2c-6.9,0-14.4,0.5-22.3,1.6c-7.5,1-15.6,2.5-23.9,4.4c-5.6,1.3-11.6,2.9-18,4.7l-0.2,0.1l-0.1,0.1
			c-8.4,9.1-16.2,18.1-23.4,26.8c-0.9-1.7-1.8-3.2-2.7-4.6c0,0-0.1-0.1-0.1-0.2c6.5-6.4,12.7-12.4,18.8-18.2l2.2-2.1l-2.9,0.9
			c-8.1,2.6-16.9,5.7-26.2,9.2c-6,2.3-12.4,4.9-19.6,7.9c-6.5,2.8-13.2,5.7-19.9,8.8c6.5-3.3,13-6.5,19.4-9.6
			c5.7-2.8,11.7-5.6,18.2-8.7c13.8-6.4,27.4-12.4,40.6-17.8c7.6-7.1,15.5-14.2,23.7-21.5c-5.9,5.9-11.5,11.7-16.9,17.5l-2.1,2.3
			l2.9-1.2c49.3-19.6,89.1-29.5,118.5-29.5c26.2,0,42.9,8.4,48.3,24.2c1.9,5.5,2.5,11.9,1.8,19c-2.2,22-17,51.9-42.7,86.5
			c-5.2,7.1-10.9,14.3-17,21.7c-17.8,21.7-39.6,45.2-64.7,69.9C830.7,625.3,830.6,625.3,830.6,625.2z"/>
		<path class="st0" d="M905,404.8c26.2,0,42.3,8,47.7,23.7c1.9,5.4,2.5,11.7,1.7,18.7c-2.2,21.9-16.9,51.6-42.5,86.1
			c-5.2,7-10.9,14.3-17,21.6c-17.7,21.6-39.3,45-64.3,69.5c-1.1-0.5-2.2-1-3.3-1.6c24.1-28.3,42.6-54.8,55.1-78.6
			c4.4-8.3,8.1-16.5,10.9-24.1l0.1-0.3c10.4-27.9,10.3-50.7-0.2-65.8c-9.7-14.1-28.5-21.5-54.2-21.5c-6.9,0-14.5,0.5-22.4,1.6
			c-7.5,1-15.5,2.5-23.8,4.4h0l-0.2,0c-5.6,1.3-11.6,2.9-18,4.7l-0.4,0.1l-0.3,0.3c-8.1,8.8-15.7,17.6-22.7,26
			c-0.6-1.1-1.3-2.2-2-3.4c6.4-6.3,12.4-12.1,18.4-17.8l4.4-4.2l-5.8,1.9c-8.1,2.6-16.9,5.7-26.2,9.2c-4.1,1.6-8.4,3.3-12.9,5.1
			c3.7-1.8,7.5-3.6,11.5-5.4c13.8-6.4,27.4-12.4,40.6-17.8l0.2-0.1l0.2-0.2c2.8-2.7,5.7-5.3,8.6-8c-1,1.1-2,2.1-3,3.2l-4.3,4.6
			l5.8-2.3C836,414.7,875.7,404.8,905,404.8 M728.4,487.4c0.8,2.7,1.5,5.5,2.1,8.4c0,0.1,0,0.2,0.1,0.3
			c-41.5,56.4-57.2,102.9-44.2,131c0.9,1.9,1.9,3.9,3.2,5.8c9.7,14.3,28.4,21.9,54.3,21.9c18.2,0,39.8-3.6,64.3-10.8l0.4-0.1
			l0.3-0.3c3.6-3.9,7.4-8.1,11.4-12.7c0.8,0.3,1.7,0.6,2.7,1c-1.7,1.6-3.4,3.3-5.2,4.9l-2.6,2.4l-4.4,4.2l5.8-1.9
			c6.1-2,12.2-4.1,18.3-6.3c0.2,0.1,0.4,0.1,0.7,0.1l0.1,0c0.5,0.1,0.9,0.2,1.3,0.3c-11.4,5.1-22.7,9.9-33.8,14.4l-0.2,0.1l-0.2,0.2
			c-0.6,0.6-1.2,1.1-1.8,1.7l1.1-1.2l-6,2.4c-24.8,9.8-47.6,17.2-67.6,22.1h0l-0.2,0c-3.5,0.9-6.6,1.6-9.5,2.2h0l-0.1,0
			c-15.2,3.2-28.7,4.8-40.3,4.8c-0.9,0-1.9,0-2.8,0c-5.9-0.1-11.4-0.7-16.4-1.8l-0.2,0c-12.1-2.6-20.7-7.9-25.6-15.9
			c-5.6-9-6.3-21.3-2.3-36.6c0.8-3,1.8-6.2,3-9.7C646.6,584.2,679.1,539,728.4,487.4 M854.4,627.8c-1.8,0.9-3.6,1.7-5.3,2.5
			c-0.2,0-0.4-0.1-0.6-0.1C850.4,629.4,852.4,628.6,854.4,627.8 M822.6,396.6c-15.6,13.6-30.4,26.4-43.9,39.2
			c-12.8,5.3-26.4,11.2-40.6,17.8c-5.9,2.8-12,5.6-18.2,8.7c-22.8,11.1-47.2,23.8-73,38.2c26.5-14.4,51.3-26.5,74.1-36.1
			c6.7-2.8,13.2-5.5,19.6-7.9c9.1-3.5,17.8-6.5,26.1-9.2c-6.6,6.3-13,12.5-19.2,18.6c0.1,0.2,0.3,0.4,0.4,0.6c1,1.6,1.9,3.2,2.8,4.8
			c0.1,0.2,0.2,0.4,0.4,0.6c7.3-8.9,15.3-18.1,24-27.5c6.2-1.8,12.2-3.4,17.9-4.7h0c8.4-2,16.4-3.4,23.8-4.4
			c7.9-1.1,15.4-1.6,22.2-1.6c53.6,0,73.2,31.7,53,85.7v0c-2.8,7.5-6.4,15.5-10.8,24c-12.3,23.5-30.9,50.3-56,79.7
			c0.2,0.1,0.4,0.2,0.6,0.3c1.5,0.8,3,1.6,4.5,2.3c0.2,0.1,0.5,0.3,0.7,0.3c25.8-25.3,47.5-48.8,65.1-70.3
			c6.2-7.5,11.8-14.7,17-21.7c26.6-35.8,40.6-65.1,42.8-86.8c0.8-7.3,0.1-13.8-1.8-19.3c-5.5-16.1-22.1-24.6-49-24.6
			c-28.3,0-68.2,9.5-118.7,29.6C797.4,421,809.4,409,822.6,396.6L822.6,396.6z M729.1,484.7c-52.5,54.7-84.1,99.8-96.2,133.3
			c-1.2,3.4-2.3,6.7-3.1,9.9c-7.8,29.8,2.3,48.6,29.1,54.3h0c5,1,10.5,1.7,16.6,1.8c0.9,0,1.9,0,2.8,0c11.6,0,25.1-1.6,40.6-4.8h0
			c3.2-0.6,6.3-1.4,9.7-2.2h0c19.9-4.8,42.6-12.2,68-22.2c-9,9.3-18.5,18.9-28.8,28.7c-1.9,1.8-3.8,3.6-5.7,5.4
			c-0.1,0.1-0.2,0.2-0.3,0.3c-0.5,0.5-1,1-1.5,1.4c0.5-0.5,1.1-0.9,1.6-1.4c0.1-0.1,0.2-0.1,0.2-0.2c2-1.7,3.9-3.3,5.8-5
			c12.7-11,24.6-21.9,35.9-32.6c12-4.8,24.7-10.2,37.9-16.2c-0.4-0.1-0.8-0.1-1.2-0.2c-1.5-0.3-2.9-0.6-4.4-0.9
			c-0.4-0.1-0.8-0.2-1.2-0.3c-6.4,2.4-12.6,4.5-18.7,6.4c3.2-3,6.3-6,9.4-9c-0.3-0.1-0.5-0.1-0.8-0.3c-1.4-0.5-2.9-0.9-4.3-1.5
			c-0.2-0.1-0.5-0.1-0.7-0.2c-3.9,4.4-7.9,8.9-12,13.4c-24.9,7.2-46.3,10.7-63.9,10.7c-25.9,0-43.9-7.4-53.2-21.2
			c-1.2-1.8-2.3-3.7-3.1-5.6c-12.3-26.6,1.4-71.8,44.4-130.1c-0.1-0.3-0.1-0.6-0.2-0.9c-0.7-3.4-1.6-6.8-2.5-10c0,0,0,0,0,0
			C729.2,485.2,729.2,484.9,729.1,484.7L729.1,484.7z M646.9,500.5c-10.1,5.6-20.3,11.5-30.7,17.7
			C626.7,512,637.1,506.1,646.9,500.5L646.9,500.5z M971.6,566.4c-11.2,6.4-22,12.8-32.7,18.8C949.6,579.2,960.4,573.2,971.6,566.4
			L971.6,566.4z M938.8,585.2c-2.7,1.5-5.4,3-8.1,4.4c-8.4,4.6-16.6,8.8-24.5,12.8c-22.4,11.3-43.3,20.6-62.6,28.1
			c0.4,0.1,0.8,0.2,1.2,0.3c1.1,0.3,2.2,0.5,3.2,0.7c0.4,0.1,0.8,0.2,1.2,0.2c17.9-8.4,36.8-17.8,56.7-28.5h0
			c8.1-4.3,16.3-8.8,24.7-13.6C933.4,588.2,936.1,586.7,938.8,585.2L938.8,585.2z"/>
	</g>
	<g>
		<path class="st3" d="M1035.5,686.5c-3.3,0-6.5-0.1-9.6-0.4c-8-0.6-15.7-2.1-22.9-4.3c-1.2-0.4-2.4-0.8-3.6-1.2
			c-14.1-5-25-12.9-30.9-22.3c-16.4-27.1-3.5-52.1,32.3-107.1c8.1-12.1,16.2-23.6,24.6-35v24.1c-18.5,37.4-25.5,66.3-21,86
			c0.3,1.1,0.5,2.2,0.9,3.2c4.1,13,13.9,21.5,29.1,25.1c10.2,2.4,20.8,3.7,31.5,3.7c30.2,0,61.5-9.8,90.7-28.4
			c11.4-7.2,22.4-15.7,32.7-25.4c22.1-20.6,41.2-46.3,55.3-74.5c1.3-2.5,2.6-5.2,3.9-8.1c13-28.3,21-58.3,23.8-89.2
			c0.1-1.5,0.3-3,0.4-4.6c0.7-9,0.9-18.2,0.7-27.4c1.1,9.2,1.7,18.3,1.8,27.3c0,1.6,0,3.2,0,4.8c-0.2,30.4-5.8,60-16.8,88
			c-1.8,4.5-3.8,9.2-6,13.9c-14.7,31.5-35.7,59.8-62.5,84.2c-3.6,3.3-7.4,6.6-11.4,9.8c-29.1,23.8-62.1,41.3-95.3,50.6
			c-3.6,1-7.3,2-11.1,2.8c-3.8,0.9-7.6,1.6-11.4,2.2c-6.4,1-12.9,1.7-19.3,2C1039.4,686.4,1037.5,686.5,1035.5,686.5z M1050,484.4
			c13.1-16.5,27.3-33.3,43.4-51.5c0,0,5-5.6,5.6-6.3c-0.3,0.3-3.5,4.6-4.2,5.5c-11.4,14.9-28.3,38-44.7,64.7V484.4z"/>
		<path class="st0" d="M1274.1,416.3c0.2,4,0.4,7.9,0.4,11.8c0,1.6,0,3.2,0,4.8c-0.2,30.3-5.8,59.8-16.8,87.7
			c-1.8,4.5-3.8,9.2-5.9,13.9c-14.6,31.4-35.6,59.6-62.3,83.9c-3.6,3.3-7.4,6.6-11.3,9.8c-29,23.7-61.9,41.2-95.1,50.4
			c-3.6,1-7.3,2-11.1,2.8c-3.7,0.9-7.5,1.6-11.3,2.2c-6.4,1-12.9,1.7-19.2,2c-2,0.1-4,0.1-5.9,0.1c-3.2,0-6.4-0.1-9.5-0.4
			c-8-0.6-15.6-2.1-22.7-4.3c-1.3-0.4-2.4-0.8-3.5-1.2c-13.9-4.9-24.8-12.7-30.5-22c-16.2-26.7-3.3-51.7,32.3-106.3
			c7.7-11.5,15.4-22.4,23.4-33.3v21.8c-18.5,37.5-25.5,66.5-21,86.3c0.3,1.1,0.6,2.2,0.9,3.3c4.2,13.3,14.1,21.9,29.6,25.6
			c10.3,2.4,20.9,3.7,31.7,3.7c30.3,0,61.8-9.8,91.1-28.5c11.4-7.2,22.4-15.8,32.8-25.4c22.2-20.6,41.4-46.5,55.4-74.7
			c1.3-2.5,2.6-5.2,3.9-8.1c13-28.4,21-58.4,23.8-89.4c0.1-1.5,0.3-3.1,0.4-4.6C1273.8,424.2,1274,420.3,1274.1,416.3 M1086.6,441.6
			c-10.3,13.9-23.2,32.2-36,52.7v-9.6C1061.7,470.7,1073.6,456.6,1086.6,441.6 M1271.9,385.5c1.2,14.5,1.2,28.7,0.1,42.6
			c-0.1,1.5-0.3,3.1-0.4,4.6c-2.9,31.8-11.3,61.8-23.7,89c-1.2,2.7-2.5,5.4-3.9,8.1c-14.4,28.8-33.3,54.1-55.1,74.3
			c-10.3,9.6-21.2,18.1-32.6,25.3c-28.4,18.1-59.5,28.2-90.3,28.2c-10.5,0-21-1.2-31.3-3.6c-15.8-3.8-24.8-12.5-28.6-24.6
			c-0.3-1-0.6-2.1-0.8-3.2c-5-21.7,4.8-52.9,21-85.6V514c-9,12.2-17.6,24.4-25.9,36.8c-34.3,52.7-49.5,79.5-32.3,107.8
			c6,9.7,17.1,17.6,31.2,22.6c1.2,0.4,2.4,0.8,3.6,1.2c7.1,2.2,14.8,3.7,23,4.3c3.1,0.3,6.4,0.4,9.7,0.4c2,0,4,0,6-0.1
			c6.3-0.3,12.8-1,19.4-2.1c3.8-0.6,7.6-1.3,11.4-2.2c3.7-0.8,7.4-1.7,11.2-2.8c32.3-9,65.8-26.3,95.6-50.7
			c3.9-3.2,7.7-6.4,11.4-9.8c25.3-23,47.3-51.4,62.7-84.4c2.1-4.6,4.1-9.2,6-14c10.5-26.8,16.7-56.3,16.9-88.2c0-1.6,0-3.2,0-4.8
			C1275.8,414.3,1274.5,400.1,1271.9,385.5L1271.9,385.5z M1115.4,407.4c-6.5,7.1-12.7,13.9-18.7,20.6c-1.3,1.5-2.6,2.9-3.9,4.4
			c-16,18.1-30.4,35.2-43.6,51.7v15.1c14.9-24.3,31.4-47.6,46-66.7c1.2-1.5,2.3-3,3.4-4.4C1104.7,420.3,1110.4,413.3,1115.4,407.4
			L1115.4,407.4z"/>
	</g>
	<g>
		<path class="st3" d="M1315.2,677.4c-2.9-7.4-10.2-26.3-16-48.4c-1.4-5.2-2.6-10.3-3.6-15.2c-6.5-30.6-9.7-70.4,11.9-86.5l0.3-0.2
			l0-0.4c-1.2-20.6-2.5-41.1-3.7-60.3c0,0-1.9-30.8-2.3-36.3c-0.6-10.1-1.2-19.2-1.6-27l-0.1-1h234.2c-9.4,3.7-36.1,14.7-67.3,34.1
			l-0.2-0.1c-4.7-2.5-10.2-4.5-16.3-5.9c7.4-5.1,15.3-10.3,23.4-15.4l1.9-1.2l-2.2-0.1c-57.6-2.8-135-9-155.4-11l-0.8-0.1
			l-0.8,120.1l0.8-0.2c7-1.3,13.4-2,19.7-2c4.6,0,9,0.3,13.6,1c1.8,0.3,3.7,0.6,5.5,1l0.5,0.1l0.3-0.4c5.3-8.2,11.2-16.1,17.4-23.7
			c17.1-20.8,38.8-41,64.6-60c4.8,1.9,9,4.6,12.5,7.9c-31,21.1-57.3,45-78.2,71.1c-1.9,2.3-3.7,4.6-5.4,7l-0.6,0.8l1,0.3
			c1.8,0.5,3.5,1.1,5.4,1.7c5.3,1.8,11.1,4,17.6,6.9c3,1.3,6.2,2.8,9.9,4.6c5.7,2.8,11.8,6,18.2,9.5l34.8,46.6
			c-7.2-3.2-14.5-6.3-21.5-9.1c-26.7-9.5-44.2-14.8-58.6-17.7c-8.8-1.8-16.4-2.7-23.1-2.7c-3.1,0-5.8,0.1-8.5,0.5l-0.4,0l-0.2,0.3
			c-12.3,23.9-20.4,49.6-24.1,76.7c2.2-27.1,7.6-51.6,16.2-74.6l0.4-1.2l-1.6,0.3c-1.9,0.4-3.8,0.8-5.4,1.6l-11.2,6.2l-0.8,82.1
			c-0.6-11.1-1.5-25.9-2.6-42.8l-0.7-10.9l-1.3-20.8l-0.1-2.4l-1.2,2c-2.2,3.7-3.8,8-4.8,12.8c-2,9.3-1.8,20.8,0.7,34.2
			c1.8,9.8,4.8,20.7,8.9,32.3l1.4,4c-0.1,2.2-0.2,4.4-0.2,6.6h-0.4V677.4z M1590.8,670.6c-14.1-9.3-38-24.4-67.1-40.6h8.8v-4.3h-0.7
			c-7.5,0-12.7-0.3-16.4-1c-0.9-0.2-1.7-0.4-2.4-0.6c-1.8-1-3.7-2-5.7-3.1c-0.1-0.1-0.3-0.3-0.5-0.6l-32.1-38.1
			C1510.3,606.5,1545.3,633.7,1590.8,670.6z M1315.7,658.6l0.6,0c-0.1,1.7-0.2,3.5-0.3,5.2C1315.9,663.9,1315.7,659.6,1315.7,658.6z
			"/>
		<path class="st0" d="M1530.8,402.9c-11.5,4.6-35.7,15.3-63.7,32.6c-4.3-2.3-9.3-4.2-14.8-5.6c7-4.8,14.4-9.7,22.1-14.5l3.8-2.4
			l-4.5-0.2c-49.5-2.4-113.7-7.3-143.6-10H1530.8 M1316.9,402.9l0,0.3l-0.8,118.5l0,1.7l1.7-0.3c6.9-1.3,13.3-1.9,19.6-1.9
			c4.5,0,8.9,0.3,13.5,1c1.9,0.3,3.9,0.6,5.5,0.9l0.9,0.2l0.5-0.8c5.3-8.1,11.1-16.1,17.3-23.6c17-20.7,38.5-40.7,64.1-59.6
			c4.2,1.8,8,4.1,11.3,7c-30.8,21-56.9,44.8-77.6,70.8c-1.7,2.1-3.5,4.4-5.5,7l-1.2,1.6l2,0.6c1.9,0.5,3.6,1.1,5.4,1.7
			c5.3,1.8,11,4,17.5,6.9c3,1.3,6.2,2.8,9.8,4.6c5.6,2.8,11.7,5.9,18.1,9.4l0.8,1.1l32.2,43.2c-6.4-2.8-12.8-5.5-19.1-8
			c-26.7-9.5-44.3-14.8-58.7-17.7c-8.9-1.8-16.5-2.7-23.3-2.8c-3.1,0-5.9,0.2-8.6,0.5l-0.7,0.1l-0.3,0.7
			c-9,17.6-15.8,36.1-20.2,55.5c2.9-18.7,7.4-36.1,13.6-52.8l0.9-2.4l-2.5,0.5l-0.3,0.1c-1.9,0.4-3.9,0.8-5.6,1.7l-10.8,6l-0.7,0.4
			l0,0.8l-0.6,61.2c-0.4-7-0.9-14.6-1.4-22.7l-0.7-10.6l-0.6-9.9l-0.5-8.7c0-0.4,0-0.7-0.1-1.1c0-0.3,0-0.7-0.1-1l-0.2-4.8l-2.4,4.1
			c-2.2,3.8-3.9,8.1-4.9,13l0,0.2c-2,9.4-1.8,20.9,0.7,34.3c1.8,9.8,4.8,20.7,8.9,32.4l1.3,3.8c-0.1,2.2-0.2,4.3-0.2,6.5h-0.4v1.5
			c-3.4-8.9-9.5-25.7-14.6-44.8c-1.4-5.2-2.6-10.3-3.6-15.2c-6.5-30.4-9.7-69.9,11.7-85.8l0.6-0.5l0-0.8
			c-1.2-20.6-2.5-41.1-3.7-60.3c-0.4-6.5-0.8-12.8-1.2-18.8c-0.4-6.1-0.7-11.9-1.1-17.4v-0.2l0,0c-0.6-9-1.1-18.1-1.6-26.9l0-0.3
			H1316.9 M1478.6,585.8c17.4,12,34.9,24.8,53.6,39.2h-0.3c-7.5,0-12.6-0.3-16.3-1c-0.9-0.2-1.6-0.4-2.3-0.6c-1.8-1-3.6-1.9-5.5-3
			c-0.2-0.2-0.3-0.3-0.4-0.4l-0.7-0.8L1478.6,585.8 M1533.2,625.8c14.6,11.2,30,23.4,46.7,37c-13.7-8.7-32.1-20-53.6-32.1h5.4h1.4
			v-1.4v-2.9V625.8 M1538.4,401.4h-238.9c0,0.6,0.1,1.2,0.1,1.7c0.4,7.8,1,16.9,1.6,26.9v0.1c0.7,11.1,1.5,23.4,2.3,36.3v0
			c1.2,19.1,2.4,39.7,3.7,60.3c-21.2,15.7-19.5,53.1-12.2,87.2c1.1,5.2,2.3,10.3,3.6,15.2c7.5,28.7,17.3,51.8,17.3,51.8v-8.8
			c0,2.8,0.4,4.4,0.4,5.6V673c0.8-40.7,10.8-76.3,26.4-106.6c2.7-0.3,5.5-0.5,8.4-0.5c6.8,0,14.4,1,23,2.7
			c15.6,3.2,34.5,9.2,58.5,17.7c7.9,3.2,15.9,6.6,23.9,10.2l-0.8-1.2L1421,549l-1-1.4c-6.5-3.5-12.6-6.7-18.4-9.5
			c-3.4-1.7-6.7-3.2-9.9-4.6c-6.2-2.8-12.1-5.1-17.6-7c-1.9-0.6-3.7-1.2-5.4-1.7c1.8-2.4,3.6-4.7,5.4-7c24-30,52.4-53.6,78.8-71.5
			c-0.2-0.1-0.3-0.3-0.5-0.4c-4-3.8-8.6-6.5-13.3-8.3c0,0,0,0,0,0c-26.6,19.6-48.1,39.7-65,60.3c-6.4,7.8-12.2,15.7-17.4,23.7
			c-1.9-0.4-3.7-0.7-5.6-1c-4.7-0.7-9.2-1-13.7-1c-6.7,0-13.2,0.7-19.8,2l0.8-118.5c20,2,97.5,8.2,155.4,11.1
			c-8.7,5.4-16.9,10.8-24.7,16.3c0.3,0.1,0.6,0.1,0.9,0.2c6.1,1.4,11.7,3.3,16.7,6c0.2,0.1,0.4,0.2,0.6,0.3
			C1506.6,412.5,1538.4,401.4,1538.4,401.4L1538.4,401.4z M1316.3,658.6l0.8-83.1l10.8-6c1.6-0.8,3.6-1.2,5.6-1.6
			C1322.7,596.7,1317.5,626.7,1316.3,658.6L1316.3,658.6z M1315.1,661.5c-4.2-12-7.1-22.7-8.9-32.2c-2.5-13.8-2.6-24.9-0.7-33.9v0
			c1-4.8,2.6-9,4.7-12.6c0,0.7,0.1,1.4,0.1,2.1c0.4,6.4,0.8,12.7,1.2,18.7C1313.1,627.7,1314.5,648,1315.1,661.5L1315.1,661.5z
			 M1470.9,578.9l1.7,2.1l32.9,39.1l0.7,0.8c0.2,0.2,0.5,0.5,0.7,0.6l0,0c1.9,1,3.9,2.1,5.8,3.1c0.8,0.2,1.6,0.4,2.5,0.6
			c3.7,0.7,8.9,1,16.6,1v2.9H1521c43.4,24.2,77.3,47,82.9,51.1C1553.3,639.2,1513,607.2,1470.9,578.9L1470.9,578.9z M1604.3,680.6
			c0,0.3,0.2,0.4,0.3,0.4L1604.3,680.6L1604.3,680.6z"/>
	</g>
	<g>
		<path class="st3" d="M417.2,1002.3c-20.2,0-33.9-5.8-40.7-17.2c-10.2-17.1-4.8-46.3,15.7-84.4c11.3-21.4,25-40.9,44.2-63.4
			l0.4-0.5l-0.4-0.5c-11.8-14.3-27.2-26.7-45.9-37v-13.7h95.9l0.2-0.2c3.1-3,6.4-6,9.8-9.2l0.6-0.5c15.9-14.9,32.5-30,50.3-45.7
			c-15.1,14.8-29.5,29.7-42.8,44.4l-4.1,4.5c-1.6,1.8-3.2,3.6-4.8,5.4l-1,1.2h140.5l-141.1,7.8l-6.6,0.4l-0.2,0.2
			c-6.4,7.6-11.9,14.5-16.9,21.1c-5.7,7.4-11.1,14.7-15.8,21.7l-0.3,0.4l0.2,0.4c5.8,9.8,10.5,20.6,13.9,32.2
			c1.1,3.5,2,7.3,2.9,11.2c6.9,30.9,5.2,62.1,2.7,88.5l-0.1,0.8l0.8,0c38.6-0.7,91.8-17.2,150.4-46.2
			c-61.1,33.8-112,56.8-151.9,68.4l-1.6,0.5C450.3,999.1,432,1002.3,417.2,1002.3z M445.7,850.8c-13.8,22.8-22.3,43-26,61.7
			c-4.5,16.8-3,30.4,4.6,40.2c8.7,11.3,25.4,17.3,48.4,17.3h0.7v-0.7c0-25.5-1.4-58.6-12.1-88.9c-0.5-1.4-1-2.8-1.6-4.2
			c-3.5-9-7.8-17.6-12.8-25.5l-0.6-1L445.7,850.8z M417.1,797.9l1.6,1.2c11.1,7.9,20.3,16.7,27.4,26.2l0.5,0.7l0.6-0.6
			c8.1-9,16.1-17.1,24.2-24.8c1.6-1.6,3.2-3.1,4.9-4.7l1.5-1.3L417.1,797.9z M386.8,797.3c-8.1-4.2-16.8-8.1-26-11.6h21.6
			c0.1,0.1,0.2,0.3,0.4,0.4C384.8,788.6,386.1,792.2,386.8,797.3z"/>
		<path class="st0" d="M529.8,746.6c-8.9,9.1-17.5,18.3-25.8,27.4l-2,2.2c-0.7,0.8-1.4,1.5-2,2.3c-1.6,1.8-3.2,3.6-4.8,5.5l-2,2.3
			h3.1h113.5l-45.8,2.5l-4,0.2l-65.9,3.7l-6.3,0.3l-0.6,0l-0.4,0.5c-6.4,7.6-11.9,14.5-17,21.1c-5.7,7.4-11.1,14.7-15.9,21.7
			l-0.5,0.7l0.5,0.8c5.8,9.7,10.5,20.5,13.9,32c1.1,3.5,2,7.2,2.9,11.1c6.1,27.6,5.4,55.4,3.4,79.9c-0.3-24.2-2.5-53.5-12.1-80.7
			c-0.5-1.4-1-2.8-1.6-4.2c-3.5-9.1-7.8-17.7-12.8-25.6l-1.2-1.9l-1.2,1.9c-13.8,22.9-22.4,43.1-26.1,61.9
			c-4.6,17.1-3,30.8,4.7,40.9c8.8,11.5,25.8,17.6,49,17.6h0.4l0,0l1.6,0c33.6-0.6,78.2-13.1,127.7-35.4
			c-51.8,27.5-95.5,46.5-130.6,56.6c-21.4,6.3-39.8,9.5-54.7,9.5c-19.9,0-33.4-5.7-40.1-16.9c-10.1-16.8-4.6-45.8,15.8-83.7
			c11.3-21.3,24.9-40.8,44.2-63.2l0.8-0.9l-0.8-0.9c-11.8-14.3-27.2-26.7-45.7-37v-12.6h94.9h0.6l0.4-0.4c3-2.8,6.1-5.7,9.3-8.7l1-1
			C508,766.5,518.7,756.6,529.8,746.6 M446.6,827l1.1-1.3c8.1-8.9,16-17.1,24.2-24.8c1.6-1.6,3.2-3.1,4.9-4.6l2.9-2.7l-3.9,0.2
			l-4.9,0.3l-51.8,2.9l-4,0.2l3.3,2.3c11,7.9,20.2,16.6,27.3,26.1L446.6,827 M382,786.3c0.1,0.1,0.1,0.1,0.2,0.2
			c1.8,2.2,3,5.3,3.7,9.5c-6.7-3.5-13.9-6.7-21.4-9.7H382 M571.4,708.2c-29.7,25.6-54.1,47.6-74.8,67c-3.5,3.3-7,6.6-10.3,9.7h-96.4
			v14.8c19.5,10.7,34.6,23.3,46,37.1c-19.6,22.8-33.1,42.3-44.3,63.5c-33.7,62.8-27.4,102.7,25.6,102.7c14.7,0,33-3.1,55.1-9.6
			c48.3-14,113.8-44.7,198.9-95.1c-81.9,47.5-151,70.3-196.5,71.1c2.4-25.2,4.3-57.3-2.7-88.7c-0.8-3.7-1.8-7.5-2.9-11.2
			c-3.3-11.1-7.8-22-14-32.3c4.9-7.2,10.2-14.4,15.8-21.7c5.4-7,11.1-14,16.9-21.1l6.3-0.3l65.9-3.7l4-0.2l71.1-3.9l0.9,0l0.9-0.1
			l20.5-1.2l0.8,0l0.8-0.1l1.7-0.1H496.3c1.6-1.8,3.2-3.6,4.8-5.4c1.4-1.5,2.7-3,4.1-4.5C525.6,752.3,548,729.8,571.4,708.2
			L571.4,708.2z M446.7,824.8c-7.2-9.6-16.4-18.4-27.6-26.4l51.8-2.9l4.9-0.3c-1.7,1.5-3.3,3.1-4.9,4.7
			C461.9,808.7,453.9,817,446.7,824.8L446.7,824.8z M472.7,969.4c-41.9,0-62.3-19.6-52.3-56.7c4-20,13.2-40.3,26-61.5
			c5.2,8.1,9.3,16.6,12.7,25.3c0.6,1.4,1.1,2.8,1.6,4.2C470.5,908.8,472.7,939.3,472.7,969.4L472.7,969.4z M382.6,784.9h-25.8
			c11.3,4.1,21.5,8.6,30.8,13.6c0-0.3-0.1-0.6-0.1-0.8v0c-0.7-5.7-2.2-9.5-4.3-12C383.1,785.3,382.9,785.1,382.6,784.9L382.6,784.9z
			 M472.3,993.4c-0.4,2.4-0.4,4.8-0.4,7.2C471.9,998.6,472.3,996.2,472.3,993.4L472.3,993.4z"/>
	</g>
	<g>
		<path class="st3" d="M751.2,979.6c51.5-51.7,100.9-111.1,129.9-156.7c11.1-17.5,18.9-32.3,23.1-44.2c2.4-6.8,3.7-12.6,3.8-17.4
			c0.1-6-1.2-10.6-3.7-13.6v-21.6c6.9-2.5,12.8-3.8,17.3-3.8c5.3,0,8.9,1.7,10.8,5.2c5.9,10.8-4.6,37.8-29.4,76.1
			c-6.6,10.2-14.3,21.3-23,33C844,885.4,797.2,937.2,751.2,979.6z M634.6,876.3c-9.9,0-16.5-3.3-19.7-9.8c-2.9-6.1-3-15-0.3-26.6
			c3.3-13.8,10.5-31.3,21.5-52.1h0l0.2-0.4c0.1-0.1,0.1-0.3,0.2-0.4c0,0,0.7-1.4,0.9-1.7c0.1-0.2,0.3-0.5,0.4-0.7
			c4.9-9.1,10.3-18.5,16-27.7c2.2,1.8,4.7,3.6,7.3,5.3l0.3,0.2c-1.9,7.8-3.2,15.2-3.8,21.9l-0.1,0.7c0,0.4,0,0.6-0.1,0.8
			c-1.3,17.7,2.1,30.9,10,39.4c6.7,7.2,16.6,10.8,29.4,10.8c3.2,0,6.7-0.2,10.3-0.7c10.1-1.4,26.4-8.3,48.4-20.3
			c7.2-3.9,14.9-8.3,23.7-13.6c17.5-10.5,37.4-23.4,59.2-38.1c15.5-10.5,29.4-19.1,41.3-25.5v8.3c-24.4,7.6-60.9,31.8-99.3,58
			l-3.6,2.5c-6.4,4.4-12.8,8.7-19,13c-23,15.6-41.3,27.6-55.8,35.3l-14.7,6.8l-11.2,4.4c-1.9,0.8-3.8,1.5-5.7,2.2
			c-4.9,1.9-9.6,3.4-13.9,4.7c-4.1,1.2-7.6,2-10.7,2.6c-1.6,0.3-3.2,0.6-4.7,0.7C638.8,876.1,636.6,876.3,634.6,876.3
			C634.6,876.3,634.6,876.3,634.6,876.3z M670.2,734.2c-0.4-0.4-0.8-0.7-1.1-1.1L669,733c1.6-2.3,2.9-4.4,4.1-6.1
			C672.2,729.2,671.3,731.6,670.2,734.2z"/>
		<path class="st0" d="M921.5,723.1c5.1,0,8.4,1.6,10.2,4.8c5.6,10.4-5.1,37.9-29.4,75.4c-6.6,10.2-14.3,21.3-22.9,33
			C850.3,875.6,814.1,917,777,953.9c42-44.8,80.4-92.5,104.7-130.6c11.1-17.5,18.9-32.4,23.1-44.3c2.5-6.8,3.7-12.8,3.8-17.6
			c0.1-6.1-1.1-10.7-3.7-13.8v-20.8C911.6,724.3,917.2,723.1,921.5,723.1 M670.1,732.7c0,0.1-0.1,0.2-0.1,0.3c0,0,0,0-0.1-0.1
			C670,732.8,670,732.7,670.1,732.7 M879.1,738.8v6.6c-24.5,7.8-60.8,31.9-99,57.9l-4.3,2.9c-6.2,4.2-12.3,8.4-18.3,12.5
			c-23,15.6-41.2,27.6-55.7,35.2l-14.7,6.8l-11.2,4.4c-1.8,0.7-3.6,1.4-5.7,2.2c-4.9,1.9-9.5,3.4-13.8,4.6c-4,1.2-7.5,2-10.7,2.6
			c-1.8,0.3-3.3,0.6-4.7,0.7c-2.3,0.3-4.5,0.4-6.5,0.4c-9.7,0-16-3.1-19-9.4c-2.8-5.9-2.9-14.7-0.2-26.2l0-0.2
			c3.3-13.6,10.4-30.9,21.2-51.3h0.1l0.4-0.8c0.1-0.1,0.1-0.2,0.2-0.3l0.2-0.3l0.3-0.5c0.2-0.3,0.3-0.6,0.5-0.9
			c0.2-0.3,0.3-0.5,0.4-0.7c4.8-8.9,10.1-18,15.6-27c2,1.6,4.2,3.2,6.6,4.8c-1.9,7.7-3.1,14.9-3.6,21.4l0,0.4l0,0.4l0,0.2v0.1
			c0,0.2,0,0.4-0.1,0.6c-1.3,17.8,2.1,31.2,10.2,39.8c6.8,7.3,16.9,11,29.9,11c3.3,0,6.8-0.2,10.5-0.7c10.1-1.4,26.5-8.3,48.6-20.4
			c7.1-3.9,15.1-8.4,23.7-13.6c17.5-10.5,37.4-23.4,59.3-38.2C854,753.5,867.5,745.1,879.1,738.8 M676.4,721
			c-0.4,0.5-3.5,5-8.2,12.1c0.2,0.2,0.4,0.4,0.5,0.5c0.4,0.5,0.9,0.9,1.4,1.3c0.2,0.2,0.3,0.3,0.5,0.5
			C672.3,730.7,674.2,725.9,676.4,721L676.4,721z M921.5,721.7c-4.7,0-10.6,1.3-18,4v22.4c2.5,2.8,3.9,7.1,3.7,13.3
			c-0.1,4.8-1.4,10.6-3.7,17.2c-4.3,12.2-12.3,27.2-23,44c-33.5,52.7-93.7,122.8-151.8,178c56.6-48.6,112.6-110.4,151.8-163.5
			c8.5-11.5,16.2-22.6,23-33C934.5,756.3,945.7,721.7,921.5,721.7L921.5,721.7z M880.5,736.4c-11.9,6.4-26,15-42.4,26.1
			c-22,14.9-41.8,27.6-59.2,38.1c-8.5,5.1-16.4,9.6-23.6,13.6c-21.9,11.9-38.3,18.8-48.2,20.2c-3.6,0.5-7.1,0.7-10.3,0.7
			c-30,0-40.8-20-38.7-49.4c0-0.2,0.1-0.5,0.1-0.7v-0.1c0-0.2,0.1-0.5,0.1-0.7c0.6-7,1.9-14.4,3.9-22.2c-0.2-0.1-0.5-0.3-0.7-0.4
			c-2.6-1.7-5-3.5-7.3-5.3l-0.6-0.5c-5.3,8.7-11,18.4-16.5,28.5c-0.1,0.2-0.2,0.5-0.4,0.7c-0.2,0.5-0.5,0.9-0.7,1.4
			c-0.1,0.2-0.3,0.5-0.4,0.7h0c-9.5,18-18,36.8-21.7,52.6c0,0,0,0,0,0.1c-2.6,11-2.9,20.4,0.3,27.1c3.1,6.4,9.5,10.2,20.3,10.2
			c2,0,4.3-0.1,6.6-0.4c1.5-0.2,3.1-0.4,4.8-0.7c3.3-0.6,6.9-1.5,10.8-2.6c4.3-1.2,8.9-2.8,13.9-4.7c1.8-0.7,3.7-1.4,5.7-2.2
			l11.2-4.4l14.8-6.8c15.3-8.1,34.8-21,55.9-35.3c7.4-5,15-10.2,22.6-15.4c37-25.2,75.1-50.5,99.7-58V736.4L880.5,736.4z"/>
	</g>
	<g>
		<path class="st3" d="M984.1,998.7c-3.9-2-80.2-41.1-75.9-74.1c2.1-16.3,23.5-28.6,63.5-36.8l6.5-1.3l0-0.5
			c3.2-55.2,6.8-121.8,8.5-153l1.7,152.2l0.8-0.1c8.2-0.9,16.7-1.3,25.9-1.3c20.3,0,40.4,2.2,58.1,4.1c15.1,1.6,29.4,3.2,41.7,3.2
			c16,0,26.9-2.7,34.4-8.5c5.6-5.6,8.1-10.9,8.1-16.8c-0.1-11.1-9.3-24.8-30.8-45.8c-19.5-16.3-34.1-29.7-46.9-41.6
			c-9-8.3-17.5-16.2-26.3-23.7v-9.4c29.7,16.5,51.5,30.4,74.6,45c11.3,7.2,23,14.6,35.8,22.4l8.2,5c11.8,7.2,20.8,12.9,28.2,17.9
			c3.5,2.4,7.1,4.8,10.8,7.5c1.3,1,2.5,1.9,3.7,2.8c13.5,10.4,19.9,18.6,20.7,26.4c0.6,5.4-1.6,10.9-6.6,16.9
			c-8.2,9.7-24.9,14.4-51.1,14.4c0,0,0,0,0,0c-25.2,0-56.9-4.3-87.5-8.5c-31.5-4.3-64.1-8.8-91-8.8c-3.5,0-6.8,0.1-10,0.2l-0.7,0
			l1.6,112.2H984.1z M977.4,887.7c-0.9,0.2-1.8,0.3-2.7,0.4c-1,0.1-2,0.2-2.9,0.4c-28.8,5.1-47.1,18-50,35.6
			c-3.5,21.1,15.1,45.1,49.8,64.4l1,0.5l0.1-1.1c0.5-7.7,1.1-19.4,1.8-32.7c1.1-21,2.6-47.2,3.8-66.7l0.1-0.9L977.4,887.7z
			 M1029,735.5c-7.4-5.3-15.3-10.6-23.9-15.8c8.3,4.2,16.3,8.3,23.9,12.3V735.5z"/>
		<path class="st0" d="M1017.8,726.9c3.6,1.8,7.1,3.7,10.5,5.5v1.7C1024.9,731.7,1021.4,729.3,1017.8,726.9 M1054.1,746.4
			c29.2,16.3,50.7,30,73.5,44.4c11.3,7.2,23,14.6,35.8,22.4c2.8,1.7,5.5,3.4,8.2,5c11.8,7.2,20.7,12.9,28.2,17.8
			c3.6,2.4,7.1,4.9,10.8,7.5c1.3,1,2.5,1.9,3.7,2.8c13.3,10.3,19.6,18.3,20.4,25.9c0.5,5.2-1.6,10.5-6.5,16.3
			c-8,9.5-24.6,14.2-50.6,14.2c-25.2,0-56.8-4.3-87.4-8.5c-31.6-4.3-64.2-8.8-91.1-8.8c-3.2,0-6.4,0.1-9.3,0.2
			c8.1-0.9,16.4-1.3,25.4-1.3c20.2,0,40.3,2.2,58,4.1c15.2,1.6,29.5,3.2,41.8,3.2c16.2,0,27.2-2.7,34.8-8.6l0.1-0.1l0.1-0.1
			c5.6-5.7,8.2-11.1,8.2-17.2c-0.1-11.3-9.3-25.1-31.1-46.3c-19.4-16.2-34-29.7-46.9-41.5c-8.9-8.3-17.4-16.1-26.1-23.5V746.4
			 M986.3,754.7l1.5,129.6l0,1.4l0,0l0,1.4l1.6,110.8h-5c-5.3-2.7-79.6-41.1-75.3-73.3c1.6-12.5,15.1-22.7,40.1-30.5
			c-15.9,6.8-25.8,17.1-27.9,29.7c-3.6,21.4,15.2,45.7,50.2,65.1l2,1.1l0.1-2.2c0.5-7.7,1.1-19.4,1.8-32.8c1.1-21,2.5-47.2,3.8-66.6
			l0.1-1.8l-0.1,0l0-0.6C981.6,841.4,984.4,789.5,986.3,754.7 M987.5,710.2c17,9.6,30.5,18.3,42.1,26.7v-5.3
			C1017.1,724.9,1003.2,717.8,987.5,710.2L987.5,710.2z M987.2,711.4c0,0-0.3,5.9-0.8,15.8v0c-1.6,31-5.4,101.6-8.8,158.7l-6,1.2
			c-151.4,30.8,12.4,112.2,12.4,112.2h6.8l-1.6-112.2c3.2-0.2,6.5-0.2,9.9-0.2c53.1,0,127.4,17.3,178.4,17.3
			c23.7,0,42.4-3.7,51.7-14.7c12.8-15.1,7.5-27.5-14.2-44.3c-1.2-0.9-2.4-1.8-3.7-2.8c-3.3-2.4-6.9-4.9-10.8-7.5
			c-8.1-5.4-17.5-11.3-28.2-17.9c-2.6-1.6-5.4-3.3-8.2-5c-38.2-23.4-66-42.9-111.4-68.1v11c21.4,18.2,40.1,37.7,73.5,65.5
			c33.6,32.7,36.7,47.5,22.8,61.5c-8.1,6.3-19.8,8.3-34,8.3c-26.7,0-62.4-7.2-99.8-7.2c-8.6,0-17.3,0.4-26,1.3l-1.8-154.4v0
			L987.2,711.4L987.2,711.4z M972,987.8c-67.1-37.2-65.9-87.1,0-98.7c1.6-0.4,3.6-0.4,5.6-0.8C975.6,919.9,973.2,967.8,972,987.8
			L972,987.8z"/>
	</g>
	<g>
		<path class="st3" d="M1329.5,1002.3c-19.6,0-33.1-5.5-40.1-16.3c-9.2-14.3-6.8-38.2,7.2-69l0.2-0.5l-0.4-0.3
			c-33.1-25.8-49.8-46.7-51.3-63.8c-0.7-7.6,0.7-12.9,4.3-16.8c6-6.5,18.2-9.2,42.2-9.2c5.2,0,11.1,0.1,18,0.4
			c2.1,0.1,4.2,0.2,6.3,0.3l0.7,0c3.9,0.1,7.9,0.3,12.1,0.6c10.4,0.4,20.5,1.2,29.9,2l0.3,0l0.2-0.2c2.1-1.6,4.1-3.7,6.1-5.6
			l0.5-0.5l-0.4-0.5c-9.8-11.4-20.8-22.5-32.6-32.8c-2.2-2-4.5-3.9-6.7-5.8c-28.7-24.1-57.5-40.8-76.5-50.5c-2.1-1-4-2-5.9-2.9
			c-9.1-4.5-16.2-7.5-20.1-9.1h141.8l2.9,7.5c-2.9,0.2-5.8,0.3-8.7,0.4l-74.8,3.6l1.8,1.2c16.7,11.2,31.9,22.5,45.3,33.6l0.6,0.5
			c1.6,1.4,3.3,2.7,4.8,4.1c4.2,3.6,8.4,7.3,12.6,11.3c2.6,2.4,5,4.8,7.4,7.2c7,7,13.5,14.1,19.4,21.1l0.5,0.6l0.5-0.5
			c4.9-4.6,10.3-9.7,16.6-15.4l2.1,5.4c-5.3,5.8-9.9,11.1-14.1,16.3l-0.3,0.4l10.5,14.3l0.3,0c5.4,0.6,10.8,1.3,16.5,2l4.2,10.9
			c-3.7,0.2-7.6,0.5-11.5,0.8l-1.1,0.1l0.5,1c4.8,8.6,8.9,17.5,12.4,26.6c0.8,2.1,1.6,4.3,2.4,6.4c8.3,23.8,12.7,50,13.9,82.5l0,0.8
			l0.8-0.2c31.4-6.9,67.3-20.4,105.8-39.5c-39.7,22-75.2,39.4-105.8,51.8l-0.3,0.1l0-0.1l-3.1,1.3c-7.1,2.8-14.4,5.7-21.3,8.3
			l-1.1,0.4l-0.2-0.1l-0.3,0.1C1374.1,996.9,1348.9,1002.3,1329.5,1002.3z M1384.1,848.5c-4.5,0.2-9.2,0.7-14.3,1.3
			c-3.5,0.4-7.2,0.8-10.9,1.1l-0.3,0l-0.2,0.3c-13.7,21.4-22.3,41.4-26.4,61.3c-1.1,3.8-2,7.8-2.4,11.7l0,0.3l0.2,0.2
			c13.6,14.4,31.2,29.6,52.4,45.2l0.2,0.1l0.2,0c1.1,0,2.2,0,3.4,0c11.6,0,25.1-1.7,42.7-5.2l0.6-0.1l-0.1-0.6
			c-3.6-29.4-12.2-57.6-25.5-83.7c-0.5-1-1-2-1.6-3.1c-5.2-9.9-11-19.4-17.4-28.6l-0.2-0.3L1384.1,848.5z M1331.2,942.5
			c4.8,15.6,19.1,24.8,42.5,27.3l3,0.3l-11.3-7.1c-11-6.9-22.4-14-33.2-21.3l-1.7-1.1L1331.2,942.5z M1333.3,855.7
			c-18.9,5.1-27.6,11.4-29.2,21.2c-0.2,1.3-0.3,2.5-0.3,3.9c0,1.7,0.2,3.6,0.6,5.7c0.8,2.5,1.7,4.6,2.9,7l0.6,1.2l0.7-1.1
			c2.6-4.5,5.1-8.6,7.6-12.4c0.6-0.9,1.2-1.8,1.8-2.7l0.2-0.2c5-7.4,10.2-14.4,16-21.3l1.4-1.7L1333.3,855.7z M1489,846.7
			c-17.4-1.1-31.2-1.6-44.1-1.6c-1.7,0-3.3,0-5,0l-2.5-6c8.2,1.2,16.9,2.5,26.1,3.8C1471.5,844.1,1480,845.4,1489,846.7z
			 M1412.8,779.9c11.9-10.6,25.2-22.2,40.2-35.4c-13.2,12.6-26.5,25.5-39,38.4L1412.8,779.9z M1388.7,721.7h132.8l-44.7,2.1l0,0
			l-2,0.1c-25.6,1.3-54.9,2.8-83.5,4.2L1388.7,721.7z"/>
		<path class="st0" d="M1491.9,722.4l-13.1,0.6l0,0l-4.1,0.2c-22,1.1-48.4,2.5-83,4.1l-2-4.9H1491.9 M1364.6,722.4l2.3,6.1
			c-2.6,0.1-5.2,0.3-7.7,0.4c-2,0.1-3.9,0.2-5.9,0.3l-7.3,0.3l-27.8,1.3c-12.1,0.6-22.9,1.1-31.7,1.5l-4.3,0.2l3.5,2.4
			c16.7,11.2,31.9,22.4,45.3,33.6l0.4,0.3c1.7,1.4,3.4,2.9,5.1,4.3c4.2,3.6,8.4,7.3,12.6,11.2c2.3,2.1,4.7,4.5,7.4,7.1
			c7,6.9,13.5,14,19.3,21.1l1,1.2l1.1-1c4.7-4.5,9.9-9.3,15.8-14.7l1.6,4c-5.1,5.7-9.7,10.9-13.8,16l-0.7,0.8l0.6,0.9l10,13.6
			l0.4,0.5l0.6,0.1c4.7,0.6,10.2,1.2,16,2l3.7,9.6c-3.9,0.3-7.3,0.5-10.5,0.8l-2.2,0.2l1.1,1.9c4.7,8.5,8.9,17.5,12.4,26.5
			c0.8,2,1.6,4.1,2.3,6.4c7.6,21.8,11.9,45.6,13.5,74.5c-4.1-26.5-12.3-51.8-24.4-75.5c-0.5-1.1-1.1-2.1-1.7-3.2
			c-5.1-9.7-11-19.3-17.3-28.5l-0.4-0.6l-0.8,0c-4.5,0.2-9.2,0.7-14.3,1.3c-3.5,0.4-7.2,0.8-10.9,1.1l-0.7,0.1l-0.4,0.6
			c-13.7,21.4-22.4,41.6-26.5,61.5c-1.2,3.9-2,8-2.4,11.9l-0.1,0.6l0.4,0.5c13.6,14.4,31.3,29.7,52.5,45.3l0.4,0.3l0.4,0
			c1.1,0,2.2,0,3.4,0c11.6,0,25.2-1.7,42.8-5.3l1.3-0.3l0-0.4l0.8-0.2c25.1-5.5,53.2-15.3,83.1-28.7c-30.6,16.3-58.3,29.5-83,39.4
			l0-0.1l-1.7,0.7l-2.4,1c-7,2.8-14.3,5.7-21.1,8.2l-0.8,0.3l-0.2-0.1l-0.6,0.2c-30.2,10.6-55.3,15.9-74.6,15.9
			c-19.4,0-32.7-5.4-39.5-16c-9.1-14.1-6.6-37.7,7.2-68.3l0.5-1l-0.9-0.7c-32.9-25.7-49.6-46.4-51-63.3c-0.6-7.4,0.7-12.5,4.1-16.3
			c5.9-6.4,17.9-9,41.6-9c5.2,0,11,0.1,18,0.4c2,0.1,4.1,0.2,6.3,0.3l0.7,0c3.4,0.1,7.3,0.3,12.1,0.6c10.3,0.4,20,1.2,29.9,2l0.6,0
			l0.4-0.3c2.1-1.6,4.1-3.7,6.1-5.7l0.9-0.9l-0.9-1c-9.8-11.4-20.8-22.5-32.6-32.9c-2-1.7-4.1-3.6-6.7-5.8
			c-28.8-24.2-57.6-40.9-76.6-50.6c-2.1-1-4-2-5.9-2.9c-7-3.4-12.8-6-16.9-7.7H1364.6 M1307.8,896.1l1.3-2.3
			c2.6-4.5,5.1-8.5,7.6-12.3c0.6-1,1.3-2,1.9-2.9c4.9-7.4,10.2-14.3,16-21.3l2.9-3.4l-4.3,1.2c-19.2,5.2-28.1,11.7-29.7,21.7
			c-0.2,1.3-0.3,2.6-0.3,4c0,1.7,0.2,3.7,0.6,5.8l0,0.1l0,0.1c0.8,2.5,1.7,4.6,2.9,7L1307.8,896.1 M1379.7,971.1l-5.2-3.2
			c-2.9-1.8-5.9-3.7-8.8-5.5c-11-6.9-22.4-14-33.1-21.2l-3.3-2.2l1.2,3.8c4.8,15.7,19.7,25.3,43.1,27.8L1379.7,971.1 M1432.1,763.8
			c-6,5.9-12,11.9-17.8,17.9l-0.7-1.6C1419.5,774.9,1425.6,769.5,1432.1,763.8 M1438.5,840c7.9,1.2,16.3,2.4,25.2,3.7
			c3.1,0.5,6.3,0.9,9.5,1.4c-10.4-0.5-19.6-0.7-28.3-0.7c-1.5,0-3,0-4.5,0L1438.5,840 M1551.1,721h-163.5l0.3,0.7l2.6,6.4l0.3,0.7
			c28.7-1.4,58.2-2.9,84-4.2c-24.6,21.4-45.2,39.4-62.9,55.1l0.3,0.7l1.3,3l0.3,0.8c18.6-19.3,39.3-39,61.4-59.6l39.9-1.9l23.2-1.1
			L1551.1,721L1551.1,721z M1365.6,721h-146c0,0,9.1,3.3,23.6,10.4c1.9,0.9,3.8,1.9,5.9,2.9c20.2,10.3,48.3,26.8,76.4,50.4
			c2.2,1.9,4.5,3.8,6.7,5.7c11.1,9.8,22.1,20.7,32.5,32.8c-2,2-4,4-6,5.6c-9.6-0.8-19.6-1.6-30-2c-4.2-0.2-8.2-0.4-12.1-0.6
			c-2.4-0.1-4.7-0.2-7-0.3c-6.5-0.2-12.5-0.4-18-0.4c-35,0-49,5.6-47.1,26.8c1.6,19.2,22.4,41.5,51.5,64.3
			c-24.1,53.3-14.6,86.3,33.6,86.3c18.9,0,43.8-5.1,75-16l23.2,13.6c-7.2-4.8-14.4-9.6-21.6-14c7.6-2.8,15.6-6,23.6-9.2
			c0.8,7.2,0.8,14.4,0.8,21.6v1.6c0-8,0.4-16,0.4-23.6c41.5-16.8,92.2-42.8,152.6-78.7c-58.7,34.4-111.4,55.9-153,65.1
			c-1.1-29.1-4.8-56.3-13.9-82.7c-0.7-2.1-1.5-4.3-2.4-6.4c-3.4-9-7.5-17.9-12.4-26.7c4.3-0.3,8.4-0.6,12.4-0.9l-0.3-0.7l-4.2-10.8
			l-0.3-0.7c-5.8-0.8-11.4-1.4-16.9-2.1l-10-13.6c4.6-5.5,9.4-11,14.4-16.6l-0.3-0.8l-2-5.3l-0.3-0.7c-6.2,5.7-12,11-17.4,16.1
			c-5.9-7.1-12.3-14.1-19.4-21.2c-2.4-2.4-4.8-4.8-7.4-7.2c-4-3.7-8.2-7.5-12.6-11.3c-1.8-1.5-3.6-3.1-5.5-4.6
			c-13.3-11.1-28.3-22.2-45.4-33.6c15.1-0.7,35.9-1.7,59.4-2.8c2.4-0.1,4.9-0.2,7.3-0.3c5.1-0.3,10.3-0.5,15.5-0.8l-0.3-0.7
			l-2.8-7.5L1365.6,721L1365.6,721z M1385.9,969.5c-1.1,0-2.2,0-3.3,0c-21.2-15.6-38.8-30.7-52.3-45.1c0.4-3.6,1.2-7.6,2.4-11.6
			c4.4-21.2,13.6-41.1,26.3-61.1c9.2-0.8,17.6-2,25.2-2.4c6.2,8.9,12,18.4,17.3,28.3c0.6,1.1,1.1,2.1,1.7,3.2
			c12.5,24.5,21.6,52.2,25.4,83.5C1412.4,967.5,1398.3,969.5,1385.9,969.5L1385.9,969.5z M1307.9,893.1c-1.2-2.4-2-4.4-2.8-6.8
			c-0.4-2-0.6-3.8-0.6-5.6c0-1.3,0.1-2.5,0.3-3.7c1.5-9.1,9.5-15.4,28.7-20.6c-5.9,7.1-11.2,14.1-16,21.4c-0.6,1-1.3,2-1.9,3
			C1312.9,884.7,1310.4,888.9,1307.9,893.1L1307.9,893.1z M1373.8,969c-22.4-2.4-37.2-11.2-41.9-26.8
			C1345.4,951.5,1359.8,960.2,1373.8,969L1373.8,969z M1436.3,838.2l0.3,0.8l2.5,6.1l0.3,0.7c1.8,0,3.6,0,5.5,0
			c18.3,0,37.7,1,63.5,3C1480.2,844.7,1456.9,841.2,1436.3,838.2L1436.3,838.2z"/>
	</g>
	<g>
		<path class="st3" d="M1078.8,289.4l4.3-12.1l1.2,73.2l1.3-4c15.3-46.5,16.8-75.1,4.8-89.8l17.3-48.7c8.2-2.4,15.4-3.5,21.2-3.5
			c9.4,0,15.7,3.1,18.8,9.1c15.9,31.2-54,132-63.8,145.9L1078.8,289.4z M831.8,356.9c-2.8,0-4.5-0.8-5.1-2.3
			c-2.3-5.4,5.4-23.1,55.5-76.9c5.9-6.3,12.4-13.2,19.4-20.5c17.8-18.4,38.4-39,61.2-61c6.7-6.5,13.3-12.9,19.8-19.2
			c48.7-46.8,92.5-86.6,100.1-93.6v133.7l1-0.4c3.8-1.6,7.5-3.1,11.1-4.5l-17.7,54.4l-1.5-19.9l-0.5-0.1c-3.6-1-7.6-1.5-12-1.5
			c-12.2,0-27.6,4.1-45.9,12c-7.3,3.2-15.2,7.1-23.4,11.5c-9.5,5.1-19.7,11.1-31.1,18.3c-3.4,2.1-6.7,4.2-9.8,6.3l-0.4,0.2
			c-4.9,3.2-9.4,6.2-13.4,8.8c-5.7,3.8-10.3,6.8-13.6,8.8c-0.6,0.4-2.4,1.5-2.4,1.5l-0.5-1.2c1.4-0.8,2.6-1.6,3.6-2.3
			c9.8-6.4,19.2-12.4,28.2-18.2c0,0,7.9-5,10.3-6.6c9.9-6.3,19.3-12.2,28.3-17.7c8.8-5.4,16-9.8,22.6-13.8
			c23.1-13.8,41.9-24,57.5-31.2l0.4-0.2l-6.1-99.2l-1,0.8c-0.3,0.2-29.6,22.5-67.2,53.1l-1.9,1.5c-1.5,1.2-3.1,2.5-4.6,3.8
			c-0.5,0.5-1.1,0.9-1.6,1.3l-0.3,0.2l0,0c-8.6,7-17.1,14.2-25.4,21.2c-24.3,20.6-45.6,39.6-63.4,56.5c-7,6.6-13.6,13.1-19.8,19.3
			c-15.4,15.5-27.7,29.3-36.5,40.9c-8,10.5-10.9,17.4-9.1,21.1c1,2,3.3,3.1,7,3.1c13.9,0,44.1-14.8,57.2-21.6l0.8,1.9
			C865.6,346.2,842,356.9,831.8,356.9z"/>
		<path class="st0" d="M1082,85.1v131v2.1l2-0.8c3.3-1.4,6.6-2.7,9.7-3.9l-16.1,49.6l-1.2-15.9l-0.1-1l-0.9-0.3
			c-3.6-1-7.7-1.6-12.2-1.6c-12.3,0-27.8,4.1-46.2,12.1c-7.3,3.2-15.2,7.1-23.4,11.5c-5.2,2.8-10.6,5.9-16.3,9.2
			c6.1-3.9,11.4-7.1,16.2-10.1c8.6-5.4,16-9.8,22.6-13.8c23.1-13.8,41.8-24,57.4-31.1l0.9-0.4l-0.1-1l-2.6-42.5l-0.1-1.9l-3.3-53.1
			l-0.2-2.6l-2.1,1.6c-0.3,0.2-29.6,22.5-67.2,53.1l-1.9,1.5c-1.5,1.2-3.1,2.5-4.6,3.8c-0.6,0.5-1.1,0.9-1.7,1.4l-0.5,0.4v0
			c-8.5,7-16.9,14-25.1,21c-24.3,20.6-45.6,39.6-63.4,56.5c-7,6.6-13.6,13.1-19.8,19.3c-2.1,2.1-4.1,4.1-6,6.1
			c2.1-2.3,4.4-4.7,6.7-7.2c5.8-6.2,12.3-13.1,19.4-20.4c17.8-18.4,38.4-38.9,61.1-61c6.6-6.5,13.3-12.9,19.8-19.2
			C1029.7,132.8,1071.8,94.4,1082,85.1 M1129,205.1c9.2,0,15.1,2.9,18.1,8.7c15.2,29.8-49.6,124.9-62.6,143.6l-0.3-4.3l2.1-6.4
			c15.5-47.1,17-75,5-90.2l17.1-48C1116.4,206.3,1123.3,205.1,1129,205.1 M1082.5,281.2l1,62.8l-4-54.5L1082.5,281.2 M900.7,324.3
			l0.3,0.6c-35.8,20.8-59.1,31.3-69.2,31.3c-3.7,0-4.3-1.4-4.5-1.9c-1.1-2.5,0.2-9.2,12.7-26.2c-4,6.5-5.2,11.1-3.7,14.1
			c1.1,2.3,3.7,3.4,7.6,3.4C857.7,345.6,887.2,331.2,900.7,324.3 M1083.4,81.9c0,0-47.3,42.8-101.3,94.6
			c-6.6,6.3-13.2,12.7-19.8,19.2c-20.9,20.2-42,41.2-61.2,61.1c-6.7,7-13.3,13.8-19.4,20.5c-42.1,45.2-68.8,80.4-49.9,80.4
			c9.9,0,32.1-9.5,71-32.2l-1.4-3.1c-20.2,10.5-45.6,21.9-57.5,21.9c-8.7,0-10.3-6.1,2.7-23.1c9.3-12.4,22-26.3,36.5-40.8
			c6.2-6.3,12.9-12.8,19.7-19.3c20-19,42.1-38.4,63.4-56.4c8.8-7.4,17.3-14.6,25.6-21.3c0,0,0,0,0-0.1c0.6-0.5,1.1-0.9,1.7-1.4
			c2.2-1.8,4.3-3.5,6.5-5.3c37.9-31,67.1-53.1,67.1-53.1l3.3,53.1l0.1,1.9l2.6,42.5c-16.3,7.5-35.3,17.9-57.5,31.2
			c-7.2,4.3-14.7,8.9-22.6,13.8c-8.9,5.5-18.4,11.5-28.3,17.7c-3.4,2.2-6.8,4.4-10.3,6.6c-9,5.8-18.4,11.8-28.2,18.2
			c-1.2,0.8-2.5,1.6-4.1,2.6l1,2.5c1-0.6,2.1-1.2,3.1-1.9c5.6-3.4,15.2-9.9,27-17.6c3.2-2.1,6.6-4.3,10.2-6.5
			c9.6-6,20.2-12.4,31.1-18.3c7.7-4.2,15.6-8.1,23.3-11.5c16.3-7.1,32.2-12,45.6-12c4.2,0,8.1,0.5,11.8,1.5l1.7,23l19.2-59.2
			c-3.9,1.4-8.1,3.1-12.5,5V81.9L1083.4,81.9z M1129,203.7c-5.9,0-13,1.2-21.7,3.7l-17.6,49.5c10.8,12.8,12.4,37.6-4.7,89.5
			l-1.2-72.9l-5.7,15.9l5.3,72.1C1083.4,361.5,1197.4,203.7,1129,203.7L1129,203.7z"/>
	</g>
</g>
</svg>
