<svg id="Layer_1" data-name="Layer 1" xmlns="http://www.w3.org/2000/svg" viewBox="0 0 277.11 205.85"><defs><style>.cls-1{fill:#f1faee;}</style></defs><path class="cls-1" d="M116.68,163.57a6.1,6.1,0,0,0,6.13,6.13H127a6,6,0,0,0,6-6.13v-25.2a6,6,0,0,0-6-6.13h-4.17a6.11,6.11,0,0,0-6.13,6.13v25.2" transform="translate(-46.65 -47.6)"/><path class="cls-1" d="M273.33,47.6H202.09A6.71,6.71,0,0,0,198,49.31l-74,74h3c9.54,0,15.84,6,15.84,15.06v25.2c0,9-6.3,15.07-15.84,15.07h-4.17c-9.62,0-15.84-6-15.84-15.07V140.31L71.6,175.68a6.73,6.73,0,0,0-1.71,4.12V251a2.42,2.42,0,0,0,2.42,2.41h71.23a6.71,6.71,0,0,0,4.12-1.71l74-74H200.1c-.59,0-.85-.25-.85-.85V125c0-.6.26-.85.85-.85h30.05a.76.76,0,0,1,.85.85v7.23c0,.6-.25.85-.85.85H209.89c-.6,0-.85.26-.85.86v11.32c0,.6.25.85.85.85h16.6c.6,0,.85.26.85.85v7.24c0,.59-.25.85-.85.85h-16.6c-.6,0-.85.25-.85.85V168c0,.6.25.85.85.85h20.26a1.23,1.23,0,0,1,.35.05L274,125.37a6.73,6.73,0,0,0,1.71-4.12V50A2.42,2.42,0,0,0,273.33,47.6ZM187.76,176.94c0,.6-.26.85-.85.85h-7.07l-.77-.42-17.45-34.23.43,33.8c0,.6-.26.85-.85.85h-7.92c-.6,0-.85-.25-.85-.85V125c0-.6.25-.85.85-.85h7.15l.77.42,17.37,34.56L178.22,125c0-.6.26-.85.85-.85h7.84a.76.76,0,0,1,.85.85v51.93" transform="translate(-46.65 -47.6)"/><path class="cls-1" d="M59.57,127.05H55.68c-.25,0-.36.11-.36.36v18c0,.25-.1.36-.35.36H51.61c-.25,0-.36-.11-.36-.36v-18c0-.25-.1-.36-.35-.36H47c-.25,0-.35-.11-.35-.36v-3c0-.25.1-.36.35-.36H59.57a.32.32,0,0,1,.36.36v3C59.93,126.94,59.82,127.05,59.57,127.05Z" transform="translate(-46.65 -47.6)"/><path class="cls-1" d="M78,145.8H74.68c-.25,0-.36-.11-.36-.36v-8.82c0-.25-.11-.36-.36-.36H67.32c-.25,0-.36.11-.36.36v8.82c0,.25-.1.36-.35.36h-3.4c-.25,0-.35-.11-.35-.36V123.66c0-.25.1-.36.35-.36h3.4a.32.32,0,0,1,.35.36v8.5c0,.25.11.35.36.35H74c.25,0,.36-.1.36-.35v-8.5c0-.25.11-.36.36-.36H78c.25,0,.36.11.36.36v21.78C78.39,145.69,78.28,145.8,78,145.8Z" transform="translate(-46.65 -47.6)"/><path class="cls-1" d="M95.28,145.8H82.67c-.25,0-.35-.11-.35-.36V123.66c0-.25.1-.36.35-.36H95.28a.33.33,0,0,1,.36.36v3c0,.25-.11.36-.36.36h-8.5c-.25,0-.36.11-.36.36v4.75c0,.25.11.35.36.35h7c.25,0,.36.11.36.36v3c0,.25-.11.35-.36.35h-7c-.25,0-.36.11-.36.36v5.07c0,.25.11.36.36.36h8.5a.32.32,0,0,1,.36.35v3C95.64,145.69,95.53,145.8,95.28,145.8Z" transform="translate(-46.65 -47.6)"/><path class="cls-1" d="M252,161.15c0,1.68,1.64,2.18,4.14,3.32,3.82,1.75,5.61,3.71,5.61,7.25,0,3.78-2.61,6.32-6.64,6.32H253.7a6.13,6.13,0,0,1-4.64-1.68,5.35,5.35,0,0,1-1.65-2.61.36.36,0,0,1,.22-.25l3.1-1.53a.31.31,0,0,1,.18,0c.25,0,.32.36.68,1.07a2.52,2.52,0,0,0,2.11,1.29h1.43a2.58,2.58,0,0,0,2.57-2.57c0-1.79-1.5-2.43-3.82-3.54-3.93-1.89-5.93-3.5-5.93-7,0-3.79,2.64-6.32,6.64-6.32h.54A6.64,6.64,0,0,1,259.2,156a6,6,0,0,1,2.28,3,.31.31,0,0,1-.21.29l-3.11,1.53a.35.35,0,0,1-.18,0c-.18,0-.25-.22-.46-.54-.68-1.14-1.29-1.78-2.39-1.78h-.54A2.56,2.56,0,0,0,252,161.15Z" transform="translate(-46.65 -47.6)"/><path class="cls-1" d="M279.66,177.68H276.3c-.25,0-.36-.11-.36-.36V168.5c0-.25-.1-.35-.35-.35H269c-.25,0-.36.1-.36.35v8.82c0,.25-.11.36-.36.36h-3.39c-.25,0-.36-.11-.36-.36V155.54c0-.25.11-.35.36-.35h3.39a.31.31,0,0,1,.36.35V164c0,.25.11.36.36.36h6.64c.25,0,.35-.11.35-.36v-8.5c0-.25.11-.35.36-.35h3.36c.25,0,.35.1.35.35v21.78C280,177.57,279.91,177.68,279.66,177.68Z" transform="translate(-46.65 -47.6)"/><path class="cls-1" d="M291.83,178h-1.75c-4,0-6.64-2.54-6.64-6.32V161.15c0-3.79,2.64-6.32,6.64-6.32h1.75c4,0,6.64,2.53,6.64,6.32v10.57C298.47,175.5,295.83,178,291.83,178Zm2.54-16.89a2.51,2.51,0,0,0-2.54-2.57h-1.75a2.56,2.56,0,0,0-2.57,2.57v10.57a2.56,2.56,0,0,0,2.57,2.57h1.75a2.51,2.51,0,0,0,2.54-2.57Z" transform="translate(-46.65 -47.6)"/><path class="cls-1" d="M319,177.39a.36.36,0,0,1-.36.29H316c-.21,0-.32-.07-.35-.25l-3.61-14.14-3.57,14.14c0,.18-.14.25-.36.25h-2.61a.34.34,0,0,1-.35-.29l-4.72-21.78s0-.1,0-.14.14-.28.39-.28h3.64a.34.34,0,0,1,.36.28L307.44,170l3.39-14.64c0-.17.14-.25.36-.25H313c.22,0,.32.08.36.25L316.72,170l2.64-14.53a.35.35,0,0,1,.36-.28h3.64c.25,0,.4.1.4.28s0,.11,0,.14Z" transform="translate(-46.65 -47.6)"/></svg>